%TF.GenerationSoftware,KiCad,Pcbnew,7.0.10-7.0.10~ubuntu20.04.1*%
%TF.CreationDate,2024-05-01T22:26:40+02:00*%
%TF.ProjectId,endeavour,656e6465-6176-46f7-9572-2e6b69636164,rev?*%
%TF.SameCoordinates,Original*%
%TF.FileFunction,Drillmap*%
%TF.FilePolarity,Positive*%
%FSLAX45Y45*%
G04 Gerber Fmt 4.5, Leading zero omitted, Abs format (unit mm)*
G04 Created by KiCad (PCBNEW 7.0.10-7.0.10~ubuntu20.04.1) date 2024-05-01 22:26:40*
%MOMM*%
%LPD*%
G01*
G04 APERTURE LIST*
%ADD10C,0.100000*%
%ADD11C,0.200000*%
%ADD12C,0.109220*%
%ADD13C,0.110000*%
%ADD14C,0.130000*%
%ADD15C,0.170180*%
G04 APERTURE END LIST*
D10*
X8167500Y-6000000D02*
X16367500Y-6000000D01*
X16367500Y-11800000D01*
X8167500Y-11800000D01*
X8167500Y-6000000D01*
D11*
D10*
X8422500Y-10057500D02*
X8457500Y-10092500D01*
X8457500Y-10057500D02*
X8422500Y-10092500D01*
X8547500Y-8332500D02*
X8582500Y-8367500D01*
X8582500Y-8332500D02*
X8547500Y-8367500D01*
X8995580Y-8612500D02*
X9030580Y-8647500D01*
X9030580Y-8612500D02*
X8995580Y-8647500D01*
X8995580Y-9092500D02*
X9030580Y-9127500D01*
X9030580Y-9092500D02*
X8995580Y-9127500D01*
X9085580Y-8532500D02*
X9120580Y-8567500D01*
X9120580Y-8532500D02*
X9085580Y-8567500D01*
X9085580Y-9172500D02*
X9120580Y-9207500D01*
X9120580Y-9172500D02*
X9085580Y-9207500D01*
X9197500Y-10282500D02*
X9232500Y-10317500D01*
X9232500Y-10282500D02*
X9197500Y-10317500D01*
X9197500Y-10707500D02*
X9232500Y-10742500D01*
X9232500Y-10707500D02*
X9197500Y-10742500D01*
X9522500Y-8682500D02*
X9557500Y-8717500D01*
X9557500Y-8682500D02*
X9522500Y-8717500D01*
X9647500Y-9032500D02*
X9682500Y-9067500D01*
X9682500Y-9032500D02*
X9647500Y-9067500D01*
X10047500Y-9057500D02*
X10082500Y-9092500D01*
X10082500Y-9057500D02*
X10047500Y-9092500D01*
X10197500Y-7707500D02*
X10232500Y-7742500D01*
X10232500Y-7707500D02*
X10197500Y-7742500D01*
X10272500Y-7782500D02*
X10307500Y-7817500D01*
X10307500Y-7782500D02*
X10272500Y-7817500D01*
X10272500Y-8582500D02*
X10307500Y-8617500D01*
X10307500Y-8582500D02*
X10272500Y-8617500D01*
X10304112Y-10732500D02*
X10339112Y-10767500D01*
X10339112Y-10732500D02*
X10304112Y-10767500D01*
X10354112Y-9457500D02*
X10389112Y-9492500D01*
X10389112Y-9457500D02*
X10354112Y-9492500D01*
X10354112Y-9717500D02*
X10389112Y-9752500D01*
X10389112Y-9717500D02*
X10354112Y-9752500D01*
X10479112Y-10257500D02*
X10514112Y-10292500D01*
X10514112Y-10257500D02*
X10479112Y-10292500D01*
X10504112Y-9857500D02*
X10539112Y-9892500D01*
X10539112Y-9857500D02*
X10504112Y-9892500D01*
X10654112Y-9857500D02*
X10689112Y-9892500D01*
X10689112Y-9857500D02*
X10654112Y-9892500D01*
X10754112Y-10232500D02*
X10789112Y-10267500D01*
X10789112Y-10232500D02*
X10754112Y-10267500D01*
X10772500Y-7482500D02*
X10807500Y-7517500D01*
X10807500Y-7482500D02*
X10772500Y-7517500D01*
X10829112Y-9857500D02*
X10864112Y-9892500D01*
X10864112Y-9857500D02*
X10829112Y-9892500D01*
X10847500Y-8507500D02*
X10882500Y-8542500D01*
X10882500Y-8507500D02*
X10847500Y-8542500D01*
X10854112Y-10257500D02*
X10889112Y-10292500D01*
X10889112Y-10257500D02*
X10854112Y-10292500D01*
X10964112Y-10722500D02*
X10999112Y-10757500D01*
X10999112Y-10722500D02*
X10964112Y-10757500D01*
X10972500Y-9982500D02*
X11007500Y-10017500D01*
X11007500Y-9982500D02*
X10972500Y-10017500D01*
X11104112Y-9857500D02*
X11139112Y-9892500D01*
X11139112Y-9857500D02*
X11104112Y-9892500D01*
X11229112Y-10057500D02*
X11264112Y-10092500D01*
X11264112Y-10057500D02*
X11229112Y-10092500D01*
X11397500Y-7832500D02*
X11432500Y-7867500D01*
X11432500Y-7832500D02*
X11397500Y-7867500D01*
X11467500Y-7012500D02*
X11502500Y-7047500D01*
X11502500Y-7012500D02*
X11467500Y-7047500D01*
X11472500Y-6407500D02*
X11507500Y-6442500D01*
X11507500Y-6407500D02*
X11472500Y-6442500D01*
X11647500Y-7832500D02*
X11682500Y-7867500D01*
X11682500Y-7832500D02*
X11647500Y-7867500D01*
X11722500Y-9707500D02*
X11757500Y-9742500D01*
X11757500Y-9707500D02*
X11722500Y-9742500D01*
X11747500Y-9007500D02*
X11782500Y-9042500D01*
X11782500Y-9007500D02*
X11747500Y-9042500D01*
X11747500Y-9957500D02*
X11782500Y-9992500D01*
X11782500Y-9957500D02*
X11747500Y-9992500D01*
X11772500Y-9632500D02*
X11807500Y-9667500D01*
X11807500Y-9632500D02*
X11772500Y-9667500D01*
X11897500Y-7832500D02*
X11932500Y-7867500D01*
X11932500Y-7832500D02*
X11897500Y-7867500D01*
X11947500Y-8782500D02*
X11982500Y-8817500D01*
X11982500Y-8782500D02*
X11947500Y-8817500D01*
X12047500Y-8682500D02*
X12082500Y-8717500D01*
X12082500Y-8682500D02*
X12047500Y-8717500D01*
X12047500Y-9582500D02*
X12082500Y-9617500D01*
X12082500Y-9582500D02*
X12047500Y-9617500D01*
X12047500Y-9682500D02*
X12082500Y-9717500D01*
X12082500Y-9682500D02*
X12047500Y-9717500D01*
X12047500Y-9907500D02*
X12082500Y-9942500D01*
X12082500Y-9907500D02*
X12047500Y-9942500D01*
X12087500Y-10482500D02*
X12122500Y-10517500D01*
X12122500Y-10482500D02*
X12087500Y-10517500D01*
X12097500Y-10107500D02*
X12132500Y-10142500D01*
X12132500Y-10107500D02*
X12097500Y-10142500D01*
X12152500Y-8907500D02*
X12187500Y-8942500D01*
X12187500Y-8907500D02*
X12152500Y-8942500D01*
X12152500Y-9032500D02*
X12187500Y-9067500D01*
X12187500Y-9032500D02*
X12152500Y-9067500D01*
X12152500Y-10407500D02*
X12187500Y-10442500D01*
X12187500Y-10407500D02*
X12152500Y-10442500D01*
X12172500Y-9382500D02*
X12207500Y-9417500D01*
X12207500Y-9382500D02*
X12172500Y-9417500D01*
X12197500Y-10107500D02*
X12232500Y-10142500D01*
X12232500Y-10107500D02*
X12197500Y-10142500D01*
X12217500Y-10482500D02*
X12252500Y-10517500D01*
X12252500Y-10482500D02*
X12217500Y-10517500D01*
X12222500Y-9532500D02*
X12257500Y-9567500D01*
X12257500Y-9532500D02*
X12222500Y-9567500D01*
X12272500Y-6907500D02*
X12307500Y-6942500D01*
X12307500Y-6907500D02*
X12272500Y-6942500D01*
X12282500Y-9307500D02*
X12317500Y-9342500D01*
X12317500Y-9307500D02*
X12282500Y-9342500D01*
X12322500Y-8507500D02*
X12357500Y-8542500D01*
X12357500Y-8507500D02*
X12322500Y-8542500D01*
X12347500Y-9532500D02*
X12382500Y-9567500D01*
X12382500Y-9532500D02*
X12347500Y-9567500D01*
X12347500Y-10482500D02*
X12382500Y-10517500D01*
X12382500Y-10482500D02*
X12347500Y-10517500D01*
X12412500Y-10407500D02*
X12447500Y-10442500D01*
X12447500Y-10407500D02*
X12412500Y-10442500D01*
X12447500Y-10907500D02*
X12482500Y-10942500D01*
X12482500Y-10907500D02*
X12447500Y-10942500D01*
X12472500Y-8882500D02*
X12507500Y-8917500D01*
X12507500Y-8882500D02*
X12472500Y-8917500D01*
X12477500Y-10107500D02*
X12512500Y-10142500D01*
X12512500Y-10107500D02*
X12477500Y-10142500D01*
X12477500Y-10482500D02*
X12512500Y-10517500D01*
X12512500Y-10482500D02*
X12477500Y-10517500D01*
X12522500Y-8782500D02*
X12557500Y-8817500D01*
X12557500Y-8782500D02*
X12522500Y-8817500D01*
X12522500Y-10582500D02*
X12557500Y-10617500D01*
X12557500Y-10582500D02*
X12522500Y-10617500D01*
X12547500Y-8932500D02*
X12582500Y-8967500D01*
X12582500Y-8932500D02*
X12547500Y-8967500D01*
X12607500Y-10482500D02*
X12642500Y-10517500D01*
X12642500Y-10482500D02*
X12607500Y-10517500D01*
X12622500Y-11457500D02*
X12657500Y-11492500D01*
X12657500Y-11457500D02*
X12622500Y-11492500D01*
X12672500Y-9307500D02*
X12707500Y-9342500D01*
X12707500Y-9307500D02*
X12672500Y-9342500D01*
X12697500Y-8882500D02*
X12732500Y-8917500D01*
X12732500Y-8882500D02*
X12697500Y-8917500D01*
X12737500Y-10407500D02*
X12772500Y-10442500D01*
X12772500Y-10407500D02*
X12737500Y-10442500D01*
X12772500Y-9007500D02*
X12807500Y-9042500D01*
X12807500Y-9007500D02*
X12772500Y-9042500D01*
X12822500Y-8857500D02*
X12857500Y-8892500D01*
X12857500Y-8857500D02*
X12822500Y-8892500D01*
X12867500Y-10107500D02*
X12902500Y-10142500D01*
X12902500Y-10107500D02*
X12867500Y-10142500D01*
X12872500Y-11157500D02*
X12907500Y-11192500D01*
X12907500Y-11157500D02*
X12872500Y-11192500D01*
X12897500Y-10657500D02*
X12932500Y-10692500D01*
X12932500Y-10657500D02*
X12897500Y-10692500D01*
X12897500Y-11332500D02*
X12932500Y-11367500D01*
X12932500Y-11332500D02*
X12897500Y-11367500D01*
X12932500Y-9032500D02*
X12967500Y-9067500D01*
X12967500Y-9032500D02*
X12932500Y-9067500D01*
X12932500Y-10407500D02*
X12967500Y-10442500D01*
X12967500Y-10407500D02*
X12932500Y-10442500D01*
X12997500Y-8457500D02*
X13032500Y-8492500D01*
X13032500Y-8457500D02*
X12997500Y-8492500D01*
X12997500Y-8932500D02*
X13032500Y-8967500D01*
X13032500Y-8932500D02*
X12997500Y-8967500D01*
X13047500Y-6507500D02*
X13082500Y-6542500D01*
X13082500Y-6507500D02*
X13047500Y-6542500D01*
X13127500Y-10107500D02*
X13162500Y-10142500D01*
X13162500Y-10107500D02*
X13127500Y-10142500D01*
X13127500Y-10482500D02*
X13162500Y-10517500D01*
X13162500Y-10482500D02*
X13127500Y-10517500D01*
X13147500Y-11182500D02*
X13182500Y-11217500D01*
X13182500Y-11182500D02*
X13147500Y-11217500D01*
X13147500Y-11482500D02*
X13182500Y-11517500D01*
X13182500Y-11482500D02*
X13147500Y-11517500D01*
X13192500Y-9032500D02*
X13227500Y-9067500D01*
X13227500Y-9032500D02*
X13192500Y-9067500D01*
X13197500Y-6507500D02*
X13232500Y-6542500D01*
X13232500Y-6507500D02*
X13197500Y-6542500D01*
X13257500Y-8932500D02*
X13292500Y-8967500D01*
X13292500Y-8932500D02*
X13257500Y-8967500D01*
X13257500Y-10532500D02*
X13292500Y-10567500D01*
X13292500Y-10532500D02*
X13257500Y-10567500D01*
X13322500Y-8857500D02*
X13357500Y-8892500D01*
X13357500Y-8857500D02*
X13322500Y-8892500D01*
X13322500Y-10432500D02*
X13357500Y-10467500D01*
X13357500Y-10432500D02*
X13322500Y-10467500D01*
X13347500Y-6507500D02*
X13382500Y-6542500D01*
X13382500Y-6507500D02*
X13347500Y-6542500D01*
X13347500Y-10982500D02*
X13382500Y-11017500D01*
X13382500Y-10982500D02*
X13347500Y-11017500D01*
X13387500Y-10532500D02*
X13422500Y-10567500D01*
X13422500Y-10532500D02*
X13387500Y-10567500D01*
X13452500Y-9232500D02*
X13487500Y-9267500D01*
X13487500Y-9232500D02*
X13452500Y-9267500D01*
X13452500Y-10457500D02*
X13487500Y-10492500D01*
X13487500Y-10457500D02*
X13452500Y-10492500D01*
X13497500Y-6507500D02*
X13532500Y-6542500D01*
X13532500Y-6507500D02*
X13497500Y-6542500D01*
X13547500Y-8482500D02*
X13582500Y-8517500D01*
X13582500Y-8482500D02*
X13547500Y-8517500D01*
X13547500Y-10907500D02*
X13582500Y-10942500D01*
X13582500Y-10907500D02*
X13547500Y-10942500D01*
X13582500Y-9907500D02*
X13617500Y-9942500D01*
X13617500Y-9907500D02*
X13582500Y-9942500D01*
X13582500Y-10407500D02*
X13617500Y-10442500D01*
X13617500Y-10407500D02*
X13582500Y-10442500D01*
X13597500Y-10157500D02*
X13632500Y-10192500D01*
X13632500Y-10157500D02*
X13597500Y-10192500D01*
X13622500Y-8632500D02*
X13657500Y-8667500D01*
X13657500Y-8632500D02*
X13622500Y-8667500D01*
X13622500Y-10607500D02*
X13657500Y-10642500D01*
X13657500Y-10607500D02*
X13622500Y-10642500D01*
X13647500Y-9807500D02*
X13682500Y-9842500D01*
X13682500Y-9807500D02*
X13647500Y-9842500D01*
X13647500Y-10482500D02*
X13682500Y-10517500D01*
X13682500Y-10482500D02*
X13647500Y-10517500D01*
X13712500Y-9732500D02*
X13747500Y-9767500D01*
X13747500Y-9732500D02*
X13712500Y-9767500D01*
X13722500Y-10157500D02*
X13757500Y-10192500D01*
X13757500Y-10157500D02*
X13722500Y-10192500D01*
X13747500Y-6507500D02*
X13782500Y-6542500D01*
X13782500Y-6507500D02*
X13747500Y-6542500D01*
X13747500Y-11507500D02*
X13782500Y-11542500D01*
X13782500Y-11507500D02*
X13747500Y-11542500D01*
X13772500Y-11107500D02*
X13807500Y-11142500D01*
X13807500Y-11107500D02*
X13772500Y-11142500D01*
X13772500Y-11282500D02*
X13807500Y-11317500D01*
X13807500Y-11282500D02*
X13772500Y-11317500D01*
X13777500Y-9657500D02*
X13812500Y-9692500D01*
X13812500Y-9657500D02*
X13777500Y-9692500D01*
X13777500Y-10482500D02*
X13812500Y-10517500D01*
X13812500Y-10482500D02*
X13777500Y-10517500D01*
X13777500Y-10582500D02*
X13812500Y-10617500D01*
X13812500Y-10582500D02*
X13777500Y-10617500D01*
X13842500Y-9582500D02*
X13877500Y-9617500D01*
X13877500Y-9582500D02*
X13842500Y-9617500D01*
X13872500Y-8982500D02*
X13907500Y-9017500D01*
X13907500Y-8982500D02*
X13872500Y-9017500D01*
X13897500Y-8682500D02*
X13932500Y-8717500D01*
X13932500Y-8682500D02*
X13897500Y-8717500D01*
X13907500Y-9657500D02*
X13942500Y-9692500D01*
X13942500Y-9657500D02*
X13907500Y-9692500D01*
X13907500Y-10532500D02*
X13942500Y-10567500D01*
X13942500Y-10532500D02*
X13907500Y-10567500D01*
X13997500Y-8782500D02*
X14032500Y-8817500D01*
X14032500Y-8782500D02*
X13997500Y-8817500D01*
X14167500Y-10482500D02*
X14202500Y-10517500D01*
X14202500Y-10482500D02*
X14167500Y-10517500D01*
X14172500Y-9932500D02*
X14207500Y-9967500D01*
X14207500Y-9932500D02*
X14172500Y-9967500D01*
X14172500Y-10282500D02*
X14207500Y-10317500D01*
X14207500Y-10282500D02*
X14172500Y-10317500D01*
X14172500Y-10382500D02*
X14207500Y-10417500D01*
X14207500Y-10382500D02*
X14172500Y-10417500D01*
X14197500Y-9507500D02*
X14232500Y-9542500D01*
X14232500Y-9507500D02*
X14197500Y-9542500D01*
X14222500Y-10082500D02*
X14257500Y-10117500D01*
X14257500Y-10082500D02*
X14222500Y-10117500D01*
X14322500Y-8307500D02*
X14357500Y-8342500D01*
X14357500Y-8307500D02*
X14322500Y-8342500D01*
X14337500Y-9502500D02*
X14372500Y-9537500D01*
X14372500Y-9502500D02*
X14337500Y-9537500D01*
X14397500Y-7757500D02*
X14432500Y-7792500D01*
X14432500Y-7757500D02*
X14397500Y-7792500D01*
X14422500Y-10232500D02*
X14457500Y-10267500D01*
X14457500Y-10232500D02*
X14422500Y-10267500D01*
X14422500Y-10557500D02*
X14457500Y-10592500D01*
X14457500Y-10557500D02*
X14422500Y-10592500D01*
X14477500Y-9382500D02*
X14512500Y-9417500D01*
X14512500Y-9382500D02*
X14477500Y-9417500D01*
X14597500Y-10082500D02*
X14632500Y-10117500D01*
X14632500Y-10082500D02*
X14597500Y-10117500D01*
X14797500Y-9132500D02*
X14832500Y-9167500D01*
X14832500Y-9132500D02*
X14797500Y-9167500D01*
X14847500Y-9207500D02*
X14882500Y-9242500D01*
X14882500Y-9207500D02*
X14847500Y-9242500D01*
X15247500Y-8432500D02*
X15282500Y-8467500D01*
X15282500Y-8432500D02*
X15247500Y-8467500D01*
X15297500Y-7852500D02*
X15332500Y-7887500D01*
X15332500Y-7852500D02*
X15297500Y-7887500D01*
X15297500Y-8052500D02*
X15332500Y-8087500D01*
X15332500Y-8052500D02*
X15297500Y-8087500D01*
X15297500Y-9892500D02*
X15332500Y-9927500D01*
X15332500Y-9892500D02*
X15297500Y-9927500D01*
X15297500Y-10092500D02*
X15332500Y-10127500D01*
X15332500Y-10092500D02*
X15297500Y-10127500D01*
X15322500Y-9507500D02*
X15357500Y-9542500D01*
X15357500Y-9507500D02*
X15322500Y-9542500D01*
X15547500Y-7607500D02*
X15582500Y-7642500D01*
X15582500Y-7607500D02*
X15547500Y-7642500D01*
X8453080Y-8436000D02*
G75*
G03*
X8393080Y-8436000I-30000J0D01*
G01*
X8393080Y-8436000D02*
G75*
G03*
X8453080Y-8436000I30000J0D01*
G01*
X8463080Y-8406000D02*
X8383080Y-8406000D01*
X8383080Y-8406000D02*
G75*
G03*
X8383080Y-8466000I0J-30000D01*
G01*
X8383080Y-8466000D02*
X8463080Y-8466000D01*
X8463080Y-8466000D02*
G75*
G03*
X8463080Y-8406000I0J30000D01*
G01*
X8453080Y-9300000D02*
G75*
G03*
X8393080Y-9300000I-30000J0D01*
G01*
X8393080Y-9300000D02*
G75*
G03*
X8453080Y-9300000I30000J0D01*
G01*
X8463080Y-9270000D02*
X8383080Y-9270000D01*
X8383080Y-9270000D02*
G75*
G03*
X8383080Y-9330000I0J-30000D01*
G01*
X8383080Y-9330000D02*
X8463080Y-9330000D01*
X8463080Y-9330000D02*
G75*
G03*
X8463080Y-9270000I0J30000D01*
G01*
X8871080Y-8436000D02*
G75*
G03*
X8811080Y-8436000I-30000J0D01*
G01*
X8811080Y-8436000D02*
G75*
G03*
X8871080Y-8436000I30000J0D01*
G01*
X8896080Y-8406000D02*
X8786080Y-8406000D01*
X8786080Y-8406000D02*
G75*
G03*
X8786080Y-8466000I0J-30000D01*
G01*
X8786080Y-8466000D02*
X8896080Y-8466000D01*
X8896080Y-8466000D02*
G75*
G03*
X8896080Y-8406000I0J30000D01*
G01*
X8871080Y-9300000D02*
G75*
G03*
X8811080Y-9300000I-30000J0D01*
G01*
X8811080Y-9300000D02*
G75*
G03*
X8871080Y-9300000I30000J0D01*
G01*
X8896080Y-9270000D02*
X8786080Y-9270000D01*
X8786080Y-9270000D02*
G75*
G03*
X8786080Y-9330000I0J-30000D01*
G01*
X8786080Y-9330000D02*
X8896080Y-9330000D01*
X8896080Y-9330000D02*
G75*
G03*
X8896080Y-9270000I0J30000D01*
G01*
X15505000Y-7335000D02*
G75*
G03*
X15445000Y-7335000I-30000J0D01*
G01*
X15445000Y-7335000D02*
G75*
G03*
X15505000Y-7335000I30000J0D01*
G01*
X15390000Y-7365000D02*
X15560000Y-7365000D01*
X15560000Y-7365000D02*
G75*
G03*
X15560000Y-7305000I0J30000D01*
G01*
X15560000Y-7305000D02*
X15390000Y-7305000D01*
X15390000Y-7305000D02*
G75*
G03*
X15390000Y-7365000I0J-30000D01*
G01*
X15505000Y-8615000D02*
G75*
G03*
X15445000Y-8615000I-30000J0D01*
G01*
X15445000Y-8615000D02*
G75*
G03*
X15505000Y-8615000I30000J0D01*
G01*
X15390000Y-8645000D02*
X15560000Y-8645000D01*
X15560000Y-8645000D02*
G75*
G03*
X15560000Y-8585000I0J30000D01*
G01*
X15560000Y-8585000D02*
X15390000Y-8585000D01*
X15390000Y-8585000D02*
G75*
G03*
X15390000Y-8645000I0J-30000D01*
G01*
X15505000Y-9375000D02*
G75*
G03*
X15445000Y-9375000I-30000J0D01*
G01*
X15445000Y-9375000D02*
G75*
G03*
X15505000Y-9375000I30000J0D01*
G01*
X15390000Y-9405000D02*
X15560000Y-9405000D01*
X15560000Y-9405000D02*
G75*
G03*
X15560000Y-9345000I0J30000D01*
G01*
X15560000Y-9345000D02*
X15390000Y-9345000D01*
X15390000Y-9345000D02*
G75*
G03*
X15390000Y-9405000I0J-30000D01*
G01*
X15505000Y-10655000D02*
G75*
G03*
X15445000Y-10655000I-30000J0D01*
G01*
X15445000Y-10655000D02*
G75*
G03*
X15505000Y-10655000I30000J0D01*
G01*
X15390000Y-10685000D02*
X15560000Y-10685000D01*
X15560000Y-10685000D02*
G75*
G03*
X15560000Y-10625000I0J30000D01*
G01*
X15560000Y-10625000D02*
X15390000Y-10625000D01*
X15390000Y-10625000D02*
G75*
G03*
X15390000Y-10685000I0J-30000D01*
G01*
X9115000Y-11422500D02*
X9115000Y-11522500D01*
X9065000Y-11472500D02*
X9165000Y-11472500D01*
X9120000Y-6396000D02*
X9120000Y-6496000D01*
X9070000Y-6446000D02*
X9170000Y-6446000D01*
X9120000Y-6650000D02*
X9120000Y-6750000D01*
X9070000Y-6700000D02*
X9170000Y-6700000D01*
X9369000Y-11422500D02*
X9369000Y-11522500D01*
X9319000Y-11472500D02*
X9419000Y-11472500D01*
X9374000Y-6396000D02*
X9374000Y-6496000D01*
X9324000Y-6446000D02*
X9424000Y-6446000D01*
X9374000Y-6650000D02*
X9374000Y-6750000D01*
X9324000Y-6700000D02*
X9424000Y-6700000D01*
X9623000Y-11422500D02*
X9623000Y-11522500D01*
X9573000Y-11472500D02*
X9673000Y-11472500D01*
X9628000Y-6396000D02*
X9628000Y-6496000D01*
X9578000Y-6446000D02*
X9678000Y-6446000D01*
X9628000Y-6650000D02*
X9628000Y-6750000D01*
X9578000Y-6700000D02*
X9678000Y-6700000D01*
X9877000Y-11422500D02*
X9877000Y-11522500D01*
X9827000Y-11472500D02*
X9927000Y-11472500D01*
X9882000Y-6396000D02*
X9882000Y-6496000D01*
X9832000Y-6446000D02*
X9932000Y-6446000D01*
X9882000Y-6650000D02*
X9882000Y-6750000D01*
X9832000Y-6700000D02*
X9932000Y-6700000D01*
X10136000Y-6396000D02*
X10136000Y-6496000D01*
X10086000Y-6446000D02*
X10186000Y-6446000D01*
X10136000Y-6650000D02*
X10136000Y-6750000D01*
X10086000Y-6700000D02*
X10186000Y-6700000D01*
X10390000Y-6396000D02*
X10390000Y-6496000D01*
X10340000Y-6446000D02*
X10440000Y-6446000D01*
X10390000Y-6650000D02*
X10390000Y-6750000D01*
X10340000Y-6700000D02*
X10440000Y-6700000D01*
X11457000Y-11422500D02*
X11457000Y-11522500D01*
X11407000Y-11472500D02*
X11507000Y-11472500D01*
X11711000Y-11422500D02*
X11711000Y-11522500D01*
X11661000Y-11472500D02*
X11761000Y-11472500D01*
X11965000Y-11422500D02*
X11965000Y-11522500D01*
X11915000Y-11472500D02*
X12015000Y-11472500D01*
X14653000Y-11425000D02*
X14653000Y-11525000D01*
X14603000Y-11475000D02*
X14703000Y-11475000D01*
X14907000Y-6400000D02*
X14907000Y-6500000D01*
X14857000Y-6450000D02*
X14957000Y-6450000D01*
X14907000Y-6654000D02*
X14907000Y-6754000D01*
X14857000Y-6704000D02*
X14957000Y-6704000D01*
X14907000Y-11425000D02*
X14907000Y-11525000D01*
X14857000Y-11475000D02*
X14957000Y-11475000D01*
X15161000Y-6400000D02*
X15161000Y-6500000D01*
X15111000Y-6450000D02*
X15211000Y-6450000D01*
X15161000Y-6654000D02*
X15161000Y-6754000D01*
X15111000Y-6704000D02*
X15211000Y-6704000D01*
X15161000Y-11425000D02*
X15161000Y-11525000D01*
X15111000Y-11475000D02*
X15211000Y-11475000D01*
X15415000Y-6400000D02*
X15415000Y-6500000D01*
X15365000Y-6450000D02*
X15465000Y-6450000D01*
X15415000Y-6654000D02*
X15415000Y-6754000D01*
X15365000Y-6704000D02*
X15465000Y-6704000D01*
X15415000Y-11425000D02*
X15415000Y-11525000D01*
X15365000Y-11475000D02*
X15465000Y-11475000D01*
D12*
X10654696Y-7324265D02*
X10654696Y-7247034D01*
X10577465Y-7247034D01*
X10577465Y-7324265D01*
X10654696Y-7324265D01*
X10654696Y-7913545D02*
X10654696Y-7836314D01*
X10577465Y-7836314D01*
X10577465Y-7913545D01*
X10654696Y-7913545D01*
X10903616Y-7324265D02*
X10903616Y-7247034D01*
X10826385Y-7247034D01*
X10826385Y-7324265D01*
X10903616Y-7324265D01*
X10903616Y-7913545D02*
X10903616Y-7836314D01*
X10826385Y-7836314D01*
X10826385Y-7913545D01*
X10903616Y-7913545D01*
D13*
X12415000Y-7355000D02*
X12470000Y-7300000D01*
X12415000Y-7245000D01*
X12360000Y-7300000D01*
X12415000Y-7355000D01*
X12415000Y-8005000D02*
X12470000Y-7950000D01*
X12415000Y-7895000D01*
X12360000Y-7950000D01*
X12415000Y-8005000D01*
X12865000Y-7355000D02*
X12920000Y-7300000D01*
X12865000Y-7245000D01*
X12810000Y-7300000D01*
X12865000Y-7355000D01*
X12865000Y-8005000D02*
X12920000Y-7950000D01*
X12865000Y-7895000D01*
X12810000Y-7950000D01*
X12865000Y-8005000D01*
X13790000Y-7355000D02*
X13845000Y-7300000D01*
X13790000Y-7245000D01*
X13735000Y-7300000D01*
X13790000Y-7355000D01*
X13790000Y-8005000D02*
X13845000Y-7950000D01*
X13790000Y-7895000D01*
X13735000Y-7950000D01*
X13790000Y-8005000D01*
X14240000Y-7355000D02*
X14295000Y-7300000D01*
X14240000Y-7245000D01*
X14185000Y-7300000D01*
X14240000Y-7355000D01*
X14240000Y-8005000D02*
X14295000Y-7950000D01*
X14240000Y-7895000D01*
X14185000Y-7950000D01*
X14240000Y-8005000D01*
D14*
X12630000Y-6195000D02*
X12760000Y-6325000D01*
X12760000Y-6195000D02*
X12630000Y-6325000D01*
X12760000Y-6260000D02*
G75*
G03*
X12630000Y-6260000I-65000J0D01*
G01*
X12630000Y-6260000D02*
G75*
G03*
X12760000Y-6260000I65000J0D01*
G01*
X12690000Y-6685000D02*
X12820000Y-6815000D01*
X12820000Y-6685000D02*
X12690000Y-6815000D01*
X12820000Y-6750000D02*
G75*
G03*
X12690000Y-6750000I-65000J0D01*
G01*
X12690000Y-6750000D02*
G75*
G03*
X12820000Y-6750000I65000J0D01*
G01*
X14140000Y-6685000D02*
X14270000Y-6815000D01*
X14270000Y-6685000D02*
X14140000Y-6815000D01*
X14270000Y-6750000D02*
G75*
G03*
X14140000Y-6750000I-65000J0D01*
G01*
X14140000Y-6750000D02*
G75*
G03*
X14270000Y-6750000I65000J0D01*
G01*
X14200000Y-6195000D02*
X14330000Y-6325000D01*
X14330000Y-6195000D02*
X14200000Y-6325000D01*
X14330000Y-6260000D02*
G75*
G03*
X14200000Y-6260000I-65000J0D01*
G01*
X14200000Y-6260000D02*
G75*
G03*
X14330000Y-6260000I65000J0D01*
G01*
D15*
X11554910Y-6439910D02*
X11725090Y-6610090D01*
X11725090Y-6439910D02*
X11554910Y-6610090D01*
X11640000Y-6439910D02*
X11640000Y-6610090D01*
X11554910Y-6525000D02*
X11725090Y-6525000D01*
X11554910Y-7139910D02*
X11725090Y-7310090D01*
X11725090Y-7139910D02*
X11554910Y-7310090D01*
X11640000Y-7139910D02*
X11640000Y-7310090D01*
X11554910Y-7225000D02*
X11725090Y-7225000D01*
D11*
X8423277Y-12116484D02*
X8423277Y-11916484D01*
X8423277Y-11916484D02*
X8470896Y-11916484D01*
X8470896Y-11916484D02*
X8499467Y-11926008D01*
X8499467Y-11926008D02*
X8518515Y-11945055D01*
X8518515Y-11945055D02*
X8528039Y-11964103D01*
X8528039Y-11964103D02*
X8537563Y-12002198D01*
X8537563Y-12002198D02*
X8537563Y-12030769D01*
X8537563Y-12030769D02*
X8528039Y-12068865D01*
X8528039Y-12068865D02*
X8518515Y-12087912D01*
X8518515Y-12087912D02*
X8499467Y-12106960D01*
X8499467Y-12106960D02*
X8470896Y-12116484D01*
X8470896Y-12116484D02*
X8423277Y-12116484D01*
X8623277Y-12116484D02*
X8623277Y-11983150D01*
X8623277Y-12021246D02*
X8632801Y-12002198D01*
X8632801Y-12002198D02*
X8642324Y-11992674D01*
X8642324Y-11992674D02*
X8661372Y-11983150D01*
X8661372Y-11983150D02*
X8680420Y-11983150D01*
X8747086Y-12116484D02*
X8747086Y-11983150D01*
X8747086Y-11916484D02*
X8737563Y-11926008D01*
X8737563Y-11926008D02*
X8747086Y-11935531D01*
X8747086Y-11935531D02*
X8756610Y-11926008D01*
X8756610Y-11926008D02*
X8747086Y-11916484D01*
X8747086Y-11916484D02*
X8747086Y-11935531D01*
X8870896Y-12116484D02*
X8851848Y-12106960D01*
X8851848Y-12106960D02*
X8842324Y-12087912D01*
X8842324Y-12087912D02*
X8842324Y-11916484D01*
X8975658Y-12116484D02*
X8956610Y-12106960D01*
X8956610Y-12106960D02*
X8947086Y-12087912D01*
X8947086Y-12087912D02*
X8947086Y-11916484D01*
X9204229Y-12116484D02*
X9204229Y-11916484D01*
X9204229Y-11916484D02*
X9270896Y-12059341D01*
X9270896Y-12059341D02*
X9337563Y-11916484D01*
X9337563Y-11916484D02*
X9337563Y-12116484D01*
X9518515Y-12116484D02*
X9518515Y-12011722D01*
X9518515Y-12011722D02*
X9508991Y-11992674D01*
X9508991Y-11992674D02*
X9489944Y-11983150D01*
X9489944Y-11983150D02*
X9451848Y-11983150D01*
X9451848Y-11983150D02*
X9432801Y-11992674D01*
X9518515Y-12106960D02*
X9499467Y-12116484D01*
X9499467Y-12116484D02*
X9451848Y-12116484D01*
X9451848Y-12116484D02*
X9432801Y-12106960D01*
X9432801Y-12106960D02*
X9423277Y-12087912D01*
X9423277Y-12087912D02*
X9423277Y-12068865D01*
X9423277Y-12068865D02*
X9432801Y-12049817D01*
X9432801Y-12049817D02*
X9451848Y-12040293D01*
X9451848Y-12040293D02*
X9499467Y-12040293D01*
X9499467Y-12040293D02*
X9518515Y-12030769D01*
X9613753Y-11983150D02*
X9613753Y-12183150D01*
X9613753Y-11992674D02*
X9632801Y-11983150D01*
X9632801Y-11983150D02*
X9670896Y-11983150D01*
X9670896Y-11983150D02*
X9689944Y-11992674D01*
X9689944Y-11992674D02*
X9699467Y-12002198D01*
X9699467Y-12002198D02*
X9708991Y-12021246D01*
X9708991Y-12021246D02*
X9708991Y-12078388D01*
X9708991Y-12078388D02*
X9699467Y-12097436D01*
X9699467Y-12097436D02*
X9689944Y-12106960D01*
X9689944Y-12106960D02*
X9670896Y-12116484D01*
X9670896Y-12116484D02*
X9632801Y-12116484D01*
X9632801Y-12116484D02*
X9613753Y-12106960D01*
X9794705Y-12097436D02*
X9804229Y-12106960D01*
X9804229Y-12106960D02*
X9794705Y-12116484D01*
X9794705Y-12116484D02*
X9785182Y-12106960D01*
X9785182Y-12106960D02*
X9794705Y-12097436D01*
X9794705Y-12097436D02*
X9794705Y-12116484D01*
X9794705Y-11992674D02*
X9804229Y-12002198D01*
X9804229Y-12002198D02*
X9794705Y-12011722D01*
X9794705Y-12011722D02*
X9785182Y-12002198D01*
X9785182Y-12002198D02*
X9794705Y-11992674D01*
X9794705Y-11992674D02*
X9794705Y-12011722D01*
D10*
X8127500Y-12427500D02*
X8162500Y-12462500D01*
X8162500Y-12427500D02*
X8127500Y-12462500D01*
D11*
X8461372Y-12336484D02*
X8480420Y-12336484D01*
X8480420Y-12336484D02*
X8499467Y-12346008D01*
X8499467Y-12346008D02*
X8508991Y-12355531D01*
X8508991Y-12355531D02*
X8518515Y-12374579D01*
X8518515Y-12374579D02*
X8528039Y-12412674D01*
X8528039Y-12412674D02*
X8528039Y-12460293D01*
X8528039Y-12460293D02*
X8518515Y-12498388D01*
X8518515Y-12498388D02*
X8508991Y-12517436D01*
X8508991Y-12517436D02*
X8499467Y-12526960D01*
X8499467Y-12526960D02*
X8480420Y-12536484D01*
X8480420Y-12536484D02*
X8461372Y-12536484D01*
X8461372Y-12536484D02*
X8442324Y-12526960D01*
X8442324Y-12526960D02*
X8432801Y-12517436D01*
X8432801Y-12517436D02*
X8423277Y-12498388D01*
X8423277Y-12498388D02*
X8413753Y-12460293D01*
X8413753Y-12460293D02*
X8413753Y-12412674D01*
X8413753Y-12412674D02*
X8423277Y-12374579D01*
X8423277Y-12374579D02*
X8432801Y-12355531D01*
X8432801Y-12355531D02*
X8442324Y-12346008D01*
X8442324Y-12346008D02*
X8461372Y-12336484D01*
X8613753Y-12517436D02*
X8623277Y-12526960D01*
X8623277Y-12526960D02*
X8613753Y-12536484D01*
X8613753Y-12536484D02*
X8604229Y-12526960D01*
X8604229Y-12526960D02*
X8613753Y-12517436D01*
X8613753Y-12517436D02*
X8613753Y-12536484D01*
X8689944Y-12336484D02*
X8813753Y-12336484D01*
X8813753Y-12336484D02*
X8747086Y-12412674D01*
X8747086Y-12412674D02*
X8775658Y-12412674D01*
X8775658Y-12412674D02*
X8794705Y-12422198D01*
X8794705Y-12422198D02*
X8804229Y-12431722D01*
X8804229Y-12431722D02*
X8813753Y-12450769D01*
X8813753Y-12450769D02*
X8813753Y-12498388D01*
X8813753Y-12498388D02*
X8804229Y-12517436D01*
X8804229Y-12517436D02*
X8794705Y-12526960D01*
X8794705Y-12526960D02*
X8775658Y-12536484D01*
X8775658Y-12536484D02*
X8718515Y-12536484D01*
X8718515Y-12536484D02*
X8699467Y-12526960D01*
X8699467Y-12526960D02*
X8689944Y-12517436D01*
X8994705Y-12336484D02*
X8899467Y-12336484D01*
X8899467Y-12336484D02*
X8889944Y-12431722D01*
X8889944Y-12431722D02*
X8899467Y-12422198D01*
X8899467Y-12422198D02*
X8918515Y-12412674D01*
X8918515Y-12412674D02*
X8966134Y-12412674D01*
X8966134Y-12412674D02*
X8985182Y-12422198D01*
X8985182Y-12422198D02*
X8994705Y-12431722D01*
X8994705Y-12431722D02*
X9004229Y-12450769D01*
X9004229Y-12450769D02*
X9004229Y-12498388D01*
X9004229Y-12498388D02*
X8994705Y-12517436D01*
X8994705Y-12517436D02*
X8985182Y-12526960D01*
X8985182Y-12526960D02*
X8966134Y-12536484D01*
X8966134Y-12536484D02*
X8918515Y-12536484D01*
X8918515Y-12536484D02*
X8899467Y-12526960D01*
X8899467Y-12526960D02*
X8889944Y-12517436D01*
X9128039Y-12336484D02*
X9147086Y-12336484D01*
X9147086Y-12336484D02*
X9166134Y-12346008D01*
X9166134Y-12346008D02*
X9175658Y-12355531D01*
X9175658Y-12355531D02*
X9185182Y-12374579D01*
X9185182Y-12374579D02*
X9194705Y-12412674D01*
X9194705Y-12412674D02*
X9194705Y-12460293D01*
X9194705Y-12460293D02*
X9185182Y-12498388D01*
X9185182Y-12498388D02*
X9175658Y-12517436D01*
X9175658Y-12517436D02*
X9166134Y-12526960D01*
X9166134Y-12526960D02*
X9147086Y-12536484D01*
X9147086Y-12536484D02*
X9128039Y-12536484D01*
X9128039Y-12536484D02*
X9108991Y-12526960D01*
X9108991Y-12526960D02*
X9099467Y-12517436D01*
X9099467Y-12517436D02*
X9089944Y-12498388D01*
X9089944Y-12498388D02*
X9080420Y-12460293D01*
X9080420Y-12460293D02*
X9080420Y-12412674D01*
X9080420Y-12412674D02*
X9089944Y-12374579D01*
X9089944Y-12374579D02*
X9099467Y-12355531D01*
X9099467Y-12355531D02*
X9108991Y-12346008D01*
X9108991Y-12346008D02*
X9128039Y-12336484D01*
X9280420Y-12536484D02*
X9280420Y-12403150D01*
X9280420Y-12422198D02*
X9289944Y-12412674D01*
X9289944Y-12412674D02*
X9308991Y-12403150D01*
X9308991Y-12403150D02*
X9337563Y-12403150D01*
X9337563Y-12403150D02*
X9356610Y-12412674D01*
X9356610Y-12412674D02*
X9366134Y-12431722D01*
X9366134Y-12431722D02*
X9366134Y-12536484D01*
X9366134Y-12431722D02*
X9375658Y-12412674D01*
X9375658Y-12412674D02*
X9394705Y-12403150D01*
X9394705Y-12403150D02*
X9423277Y-12403150D01*
X9423277Y-12403150D02*
X9442325Y-12412674D01*
X9442325Y-12412674D02*
X9451848Y-12431722D01*
X9451848Y-12431722D02*
X9451848Y-12536484D01*
X9547086Y-12536484D02*
X9547086Y-12403150D01*
X9547086Y-12422198D02*
X9556610Y-12412674D01*
X9556610Y-12412674D02*
X9575658Y-12403150D01*
X9575658Y-12403150D02*
X9604229Y-12403150D01*
X9604229Y-12403150D02*
X9623277Y-12412674D01*
X9623277Y-12412674D02*
X9632801Y-12431722D01*
X9632801Y-12431722D02*
X9632801Y-12536484D01*
X9632801Y-12431722D02*
X9642325Y-12412674D01*
X9642325Y-12412674D02*
X9661372Y-12403150D01*
X9661372Y-12403150D02*
X9689944Y-12403150D01*
X9689944Y-12403150D02*
X9708991Y-12412674D01*
X9708991Y-12412674D02*
X9718515Y-12431722D01*
X9718515Y-12431722D02*
X9718515Y-12536484D01*
X10108991Y-12326960D02*
X9937563Y-12584103D01*
X10366134Y-12336484D02*
X10385182Y-12336484D01*
X10385182Y-12336484D02*
X10404229Y-12346008D01*
X10404229Y-12346008D02*
X10413753Y-12355531D01*
X10413753Y-12355531D02*
X10423277Y-12374579D01*
X10423277Y-12374579D02*
X10432801Y-12412674D01*
X10432801Y-12412674D02*
X10432801Y-12460293D01*
X10432801Y-12460293D02*
X10423277Y-12498388D01*
X10423277Y-12498388D02*
X10413753Y-12517436D01*
X10413753Y-12517436D02*
X10404229Y-12526960D01*
X10404229Y-12526960D02*
X10385182Y-12536484D01*
X10385182Y-12536484D02*
X10366134Y-12536484D01*
X10366134Y-12536484D02*
X10347087Y-12526960D01*
X10347087Y-12526960D02*
X10337563Y-12517436D01*
X10337563Y-12517436D02*
X10328039Y-12498388D01*
X10328039Y-12498388D02*
X10318515Y-12460293D01*
X10318515Y-12460293D02*
X10318515Y-12412674D01*
X10318515Y-12412674D02*
X10328039Y-12374579D01*
X10328039Y-12374579D02*
X10337563Y-12355531D01*
X10337563Y-12355531D02*
X10347087Y-12346008D01*
X10347087Y-12346008D02*
X10366134Y-12336484D01*
X10518515Y-12517436D02*
X10528039Y-12526960D01*
X10528039Y-12526960D02*
X10518515Y-12536484D01*
X10518515Y-12536484D02*
X10508991Y-12526960D01*
X10508991Y-12526960D02*
X10518515Y-12517436D01*
X10518515Y-12517436D02*
X10518515Y-12536484D01*
X10651848Y-12336484D02*
X10670896Y-12336484D01*
X10670896Y-12336484D02*
X10689944Y-12346008D01*
X10689944Y-12346008D02*
X10699468Y-12355531D01*
X10699468Y-12355531D02*
X10708991Y-12374579D01*
X10708991Y-12374579D02*
X10718515Y-12412674D01*
X10718515Y-12412674D02*
X10718515Y-12460293D01*
X10718515Y-12460293D02*
X10708991Y-12498388D01*
X10708991Y-12498388D02*
X10699468Y-12517436D01*
X10699468Y-12517436D02*
X10689944Y-12526960D01*
X10689944Y-12526960D02*
X10670896Y-12536484D01*
X10670896Y-12536484D02*
X10651848Y-12536484D01*
X10651848Y-12536484D02*
X10632801Y-12526960D01*
X10632801Y-12526960D02*
X10623277Y-12517436D01*
X10623277Y-12517436D02*
X10613753Y-12498388D01*
X10613753Y-12498388D02*
X10604229Y-12460293D01*
X10604229Y-12460293D02*
X10604229Y-12412674D01*
X10604229Y-12412674D02*
X10613753Y-12374579D01*
X10613753Y-12374579D02*
X10623277Y-12355531D01*
X10623277Y-12355531D02*
X10632801Y-12346008D01*
X10632801Y-12346008D02*
X10651848Y-12336484D01*
X10908991Y-12536484D02*
X10794706Y-12536484D01*
X10851848Y-12536484D02*
X10851848Y-12336484D01*
X10851848Y-12336484D02*
X10832801Y-12365055D01*
X10832801Y-12365055D02*
X10813753Y-12384103D01*
X10813753Y-12384103D02*
X10794706Y-12393627D01*
X10975658Y-12336484D02*
X11099468Y-12336484D01*
X11099468Y-12336484D02*
X11032801Y-12412674D01*
X11032801Y-12412674D02*
X11061372Y-12412674D01*
X11061372Y-12412674D02*
X11080420Y-12422198D01*
X11080420Y-12422198D02*
X11089944Y-12431722D01*
X11089944Y-12431722D02*
X11099468Y-12450769D01*
X11099468Y-12450769D02*
X11099468Y-12498388D01*
X11099468Y-12498388D02*
X11089944Y-12517436D01*
X11089944Y-12517436D02*
X11080420Y-12526960D01*
X11080420Y-12526960D02*
X11061372Y-12536484D01*
X11061372Y-12536484D02*
X11004229Y-12536484D01*
X11004229Y-12536484D02*
X10985182Y-12526960D01*
X10985182Y-12526960D02*
X10975658Y-12517436D01*
X11213753Y-12422198D02*
X11194706Y-12412674D01*
X11194706Y-12412674D02*
X11185182Y-12403150D01*
X11185182Y-12403150D02*
X11175658Y-12384103D01*
X11175658Y-12384103D02*
X11175658Y-12374579D01*
X11175658Y-12374579D02*
X11185182Y-12355531D01*
X11185182Y-12355531D02*
X11194706Y-12346008D01*
X11194706Y-12346008D02*
X11213753Y-12336484D01*
X11213753Y-12336484D02*
X11251848Y-12336484D01*
X11251848Y-12336484D02*
X11270896Y-12346008D01*
X11270896Y-12346008D02*
X11280420Y-12355531D01*
X11280420Y-12355531D02*
X11289944Y-12374579D01*
X11289944Y-12374579D02*
X11289944Y-12384103D01*
X11289944Y-12384103D02*
X11280420Y-12403150D01*
X11280420Y-12403150D02*
X11270896Y-12412674D01*
X11270896Y-12412674D02*
X11251848Y-12422198D01*
X11251848Y-12422198D02*
X11213753Y-12422198D01*
X11213753Y-12422198D02*
X11194706Y-12431722D01*
X11194706Y-12431722D02*
X11185182Y-12441246D01*
X11185182Y-12441246D02*
X11175658Y-12460293D01*
X11175658Y-12460293D02*
X11175658Y-12498388D01*
X11175658Y-12498388D02*
X11185182Y-12517436D01*
X11185182Y-12517436D02*
X11194706Y-12526960D01*
X11194706Y-12526960D02*
X11213753Y-12536484D01*
X11213753Y-12536484D02*
X11251848Y-12536484D01*
X11251848Y-12536484D02*
X11270896Y-12526960D01*
X11270896Y-12526960D02*
X11280420Y-12517436D01*
X11280420Y-12517436D02*
X11289944Y-12498388D01*
X11289944Y-12498388D02*
X11289944Y-12460293D01*
X11289944Y-12460293D02*
X11280420Y-12441246D01*
X11280420Y-12441246D02*
X11270896Y-12431722D01*
X11270896Y-12431722D02*
X11251848Y-12422198D01*
X11366134Y-12336484D02*
X11366134Y-12374579D01*
X11442325Y-12336484D02*
X11442325Y-12374579D01*
X11737563Y-12612674D02*
X11728039Y-12603150D01*
X11728039Y-12603150D02*
X11708991Y-12574579D01*
X11708991Y-12574579D02*
X11699468Y-12555531D01*
X11699468Y-12555531D02*
X11689944Y-12526960D01*
X11689944Y-12526960D02*
X11680420Y-12479341D01*
X11680420Y-12479341D02*
X11680420Y-12441246D01*
X11680420Y-12441246D02*
X11689944Y-12393627D01*
X11689944Y-12393627D02*
X11699468Y-12365055D01*
X11699468Y-12365055D02*
X11708991Y-12346008D01*
X11708991Y-12346008D02*
X11728039Y-12317436D01*
X11728039Y-12317436D02*
X11737563Y-12307912D01*
X11918515Y-12536484D02*
X11804229Y-12536484D01*
X11861372Y-12536484D02*
X11861372Y-12336484D01*
X11861372Y-12336484D02*
X11842325Y-12365055D01*
X11842325Y-12365055D02*
X11823277Y-12384103D01*
X11823277Y-12384103D02*
X11804229Y-12393627D01*
X12089944Y-12403150D02*
X12089944Y-12536484D01*
X12042325Y-12326960D02*
X11994706Y-12469817D01*
X11994706Y-12469817D02*
X12118515Y-12469817D01*
X12175658Y-12336484D02*
X12299468Y-12336484D01*
X12299468Y-12336484D02*
X12232801Y-12412674D01*
X12232801Y-12412674D02*
X12261372Y-12412674D01*
X12261372Y-12412674D02*
X12280420Y-12422198D01*
X12280420Y-12422198D02*
X12289944Y-12431722D01*
X12289944Y-12431722D02*
X12299468Y-12450769D01*
X12299468Y-12450769D02*
X12299468Y-12498388D01*
X12299468Y-12498388D02*
X12289944Y-12517436D01*
X12289944Y-12517436D02*
X12280420Y-12526960D01*
X12280420Y-12526960D02*
X12261372Y-12536484D01*
X12261372Y-12536484D02*
X12204229Y-12536484D01*
X12204229Y-12536484D02*
X12185182Y-12526960D01*
X12185182Y-12526960D02*
X12175658Y-12517436D01*
X12537563Y-12536484D02*
X12537563Y-12336484D01*
X12623277Y-12536484D02*
X12623277Y-12431722D01*
X12623277Y-12431722D02*
X12613753Y-12412674D01*
X12613753Y-12412674D02*
X12594706Y-12403150D01*
X12594706Y-12403150D02*
X12566134Y-12403150D01*
X12566134Y-12403150D02*
X12547087Y-12412674D01*
X12547087Y-12412674D02*
X12537563Y-12422198D01*
X12747087Y-12536484D02*
X12728039Y-12526960D01*
X12728039Y-12526960D02*
X12718515Y-12517436D01*
X12718515Y-12517436D02*
X12708991Y-12498388D01*
X12708991Y-12498388D02*
X12708991Y-12441246D01*
X12708991Y-12441246D02*
X12718515Y-12422198D01*
X12718515Y-12422198D02*
X12728039Y-12412674D01*
X12728039Y-12412674D02*
X12747087Y-12403150D01*
X12747087Y-12403150D02*
X12775658Y-12403150D01*
X12775658Y-12403150D02*
X12794706Y-12412674D01*
X12794706Y-12412674D02*
X12804230Y-12422198D01*
X12804230Y-12422198D02*
X12813753Y-12441246D01*
X12813753Y-12441246D02*
X12813753Y-12498388D01*
X12813753Y-12498388D02*
X12804230Y-12517436D01*
X12804230Y-12517436D02*
X12794706Y-12526960D01*
X12794706Y-12526960D02*
X12775658Y-12536484D01*
X12775658Y-12536484D02*
X12747087Y-12536484D01*
X12928039Y-12536484D02*
X12908991Y-12526960D01*
X12908991Y-12526960D02*
X12899468Y-12507912D01*
X12899468Y-12507912D02*
X12899468Y-12336484D01*
X13080420Y-12526960D02*
X13061372Y-12536484D01*
X13061372Y-12536484D02*
X13023277Y-12536484D01*
X13023277Y-12536484D02*
X13004230Y-12526960D01*
X13004230Y-12526960D02*
X12994706Y-12507912D01*
X12994706Y-12507912D02*
X12994706Y-12431722D01*
X12994706Y-12431722D02*
X13004230Y-12412674D01*
X13004230Y-12412674D02*
X13023277Y-12403150D01*
X13023277Y-12403150D02*
X13061372Y-12403150D01*
X13061372Y-12403150D02*
X13080420Y-12412674D01*
X13080420Y-12412674D02*
X13089944Y-12431722D01*
X13089944Y-12431722D02*
X13089944Y-12450769D01*
X13089944Y-12450769D02*
X12994706Y-12469817D01*
X13166134Y-12526960D02*
X13185182Y-12536484D01*
X13185182Y-12536484D02*
X13223277Y-12536484D01*
X13223277Y-12536484D02*
X13242325Y-12526960D01*
X13242325Y-12526960D02*
X13251849Y-12507912D01*
X13251849Y-12507912D02*
X13251849Y-12498388D01*
X13251849Y-12498388D02*
X13242325Y-12479341D01*
X13242325Y-12479341D02*
X13223277Y-12469817D01*
X13223277Y-12469817D02*
X13194706Y-12469817D01*
X13194706Y-12469817D02*
X13175658Y-12460293D01*
X13175658Y-12460293D02*
X13166134Y-12441246D01*
X13166134Y-12441246D02*
X13166134Y-12431722D01*
X13166134Y-12431722D02*
X13175658Y-12412674D01*
X13175658Y-12412674D02*
X13194706Y-12403150D01*
X13194706Y-12403150D02*
X13223277Y-12403150D01*
X13223277Y-12403150D02*
X13242325Y-12412674D01*
X13318515Y-12612674D02*
X13328039Y-12603150D01*
X13328039Y-12603150D02*
X13347087Y-12574579D01*
X13347087Y-12574579D02*
X13356611Y-12555531D01*
X13356611Y-12555531D02*
X13366134Y-12526960D01*
X13366134Y-12526960D02*
X13375658Y-12479341D01*
X13375658Y-12479341D02*
X13375658Y-12441246D01*
X13375658Y-12441246D02*
X13366134Y-12393627D01*
X13366134Y-12393627D02*
X13356611Y-12365055D01*
X13356611Y-12365055D02*
X13347087Y-12346008D01*
X13347087Y-12346008D02*
X13328039Y-12317436D01*
X13328039Y-12317436D02*
X13318515Y-12307912D01*
D10*
X8162500Y-12709000D02*
G75*
G03*
X8102500Y-12709000I-30000J0D01*
G01*
X8102500Y-12709000D02*
G75*
G03*
X8162500Y-12709000I30000J0D01*
G01*
D11*
X8461372Y-12600484D02*
X8480420Y-12600484D01*
X8480420Y-12600484D02*
X8499467Y-12610008D01*
X8499467Y-12610008D02*
X8508991Y-12619531D01*
X8508991Y-12619531D02*
X8518515Y-12638579D01*
X8518515Y-12638579D02*
X8528039Y-12676674D01*
X8528039Y-12676674D02*
X8528039Y-12724293D01*
X8528039Y-12724293D02*
X8518515Y-12762388D01*
X8518515Y-12762388D02*
X8508991Y-12781436D01*
X8508991Y-12781436D02*
X8499467Y-12790960D01*
X8499467Y-12790960D02*
X8480420Y-12800484D01*
X8480420Y-12800484D02*
X8461372Y-12800484D01*
X8461372Y-12800484D02*
X8442324Y-12790960D01*
X8442324Y-12790960D02*
X8432801Y-12781436D01*
X8432801Y-12781436D02*
X8423277Y-12762388D01*
X8423277Y-12762388D02*
X8413753Y-12724293D01*
X8413753Y-12724293D02*
X8413753Y-12676674D01*
X8413753Y-12676674D02*
X8423277Y-12638579D01*
X8423277Y-12638579D02*
X8432801Y-12619531D01*
X8432801Y-12619531D02*
X8442324Y-12610008D01*
X8442324Y-12610008D02*
X8461372Y-12600484D01*
X8613753Y-12781436D02*
X8623277Y-12790960D01*
X8623277Y-12790960D02*
X8613753Y-12800484D01*
X8613753Y-12800484D02*
X8604229Y-12790960D01*
X8604229Y-12790960D02*
X8613753Y-12781436D01*
X8613753Y-12781436D02*
X8613753Y-12800484D01*
X8794705Y-12600484D02*
X8756610Y-12600484D01*
X8756610Y-12600484D02*
X8737563Y-12610008D01*
X8737563Y-12610008D02*
X8728039Y-12619531D01*
X8728039Y-12619531D02*
X8708991Y-12648103D01*
X8708991Y-12648103D02*
X8699467Y-12686198D01*
X8699467Y-12686198D02*
X8699467Y-12762388D01*
X8699467Y-12762388D02*
X8708991Y-12781436D01*
X8708991Y-12781436D02*
X8718515Y-12790960D01*
X8718515Y-12790960D02*
X8737563Y-12800484D01*
X8737563Y-12800484D02*
X8775658Y-12800484D01*
X8775658Y-12800484D02*
X8794705Y-12790960D01*
X8794705Y-12790960D02*
X8804229Y-12781436D01*
X8804229Y-12781436D02*
X8813753Y-12762388D01*
X8813753Y-12762388D02*
X8813753Y-12714769D01*
X8813753Y-12714769D02*
X8804229Y-12695722D01*
X8804229Y-12695722D02*
X8794705Y-12686198D01*
X8794705Y-12686198D02*
X8775658Y-12676674D01*
X8775658Y-12676674D02*
X8737563Y-12676674D01*
X8737563Y-12676674D02*
X8718515Y-12686198D01*
X8718515Y-12686198D02*
X8708991Y-12695722D01*
X8708991Y-12695722D02*
X8699467Y-12714769D01*
X8937563Y-12600484D02*
X8956610Y-12600484D01*
X8956610Y-12600484D02*
X8975658Y-12610008D01*
X8975658Y-12610008D02*
X8985182Y-12619531D01*
X8985182Y-12619531D02*
X8994705Y-12638579D01*
X8994705Y-12638579D02*
X9004229Y-12676674D01*
X9004229Y-12676674D02*
X9004229Y-12724293D01*
X9004229Y-12724293D02*
X8994705Y-12762388D01*
X8994705Y-12762388D02*
X8985182Y-12781436D01*
X8985182Y-12781436D02*
X8975658Y-12790960D01*
X8975658Y-12790960D02*
X8956610Y-12800484D01*
X8956610Y-12800484D02*
X8937563Y-12800484D01*
X8937563Y-12800484D02*
X8918515Y-12790960D01*
X8918515Y-12790960D02*
X8908991Y-12781436D01*
X8908991Y-12781436D02*
X8899467Y-12762388D01*
X8899467Y-12762388D02*
X8889944Y-12724293D01*
X8889944Y-12724293D02*
X8889944Y-12676674D01*
X8889944Y-12676674D02*
X8899467Y-12638579D01*
X8899467Y-12638579D02*
X8908991Y-12619531D01*
X8908991Y-12619531D02*
X8918515Y-12610008D01*
X8918515Y-12610008D02*
X8937563Y-12600484D01*
X9128039Y-12600484D02*
X9147086Y-12600484D01*
X9147086Y-12600484D02*
X9166134Y-12610008D01*
X9166134Y-12610008D02*
X9175658Y-12619531D01*
X9175658Y-12619531D02*
X9185182Y-12638579D01*
X9185182Y-12638579D02*
X9194705Y-12676674D01*
X9194705Y-12676674D02*
X9194705Y-12724293D01*
X9194705Y-12724293D02*
X9185182Y-12762388D01*
X9185182Y-12762388D02*
X9175658Y-12781436D01*
X9175658Y-12781436D02*
X9166134Y-12790960D01*
X9166134Y-12790960D02*
X9147086Y-12800484D01*
X9147086Y-12800484D02*
X9128039Y-12800484D01*
X9128039Y-12800484D02*
X9108991Y-12790960D01*
X9108991Y-12790960D02*
X9099467Y-12781436D01*
X9099467Y-12781436D02*
X9089944Y-12762388D01*
X9089944Y-12762388D02*
X9080420Y-12724293D01*
X9080420Y-12724293D02*
X9080420Y-12676674D01*
X9080420Y-12676674D02*
X9089944Y-12638579D01*
X9089944Y-12638579D02*
X9099467Y-12619531D01*
X9099467Y-12619531D02*
X9108991Y-12610008D01*
X9108991Y-12610008D02*
X9128039Y-12600484D01*
X9280420Y-12800484D02*
X9280420Y-12667150D01*
X9280420Y-12686198D02*
X9289944Y-12676674D01*
X9289944Y-12676674D02*
X9308991Y-12667150D01*
X9308991Y-12667150D02*
X9337563Y-12667150D01*
X9337563Y-12667150D02*
X9356610Y-12676674D01*
X9356610Y-12676674D02*
X9366134Y-12695722D01*
X9366134Y-12695722D02*
X9366134Y-12800484D01*
X9366134Y-12695722D02*
X9375658Y-12676674D01*
X9375658Y-12676674D02*
X9394705Y-12667150D01*
X9394705Y-12667150D02*
X9423277Y-12667150D01*
X9423277Y-12667150D02*
X9442325Y-12676674D01*
X9442325Y-12676674D02*
X9451848Y-12695722D01*
X9451848Y-12695722D02*
X9451848Y-12800484D01*
X9547086Y-12800484D02*
X9547086Y-12667150D01*
X9547086Y-12686198D02*
X9556610Y-12676674D01*
X9556610Y-12676674D02*
X9575658Y-12667150D01*
X9575658Y-12667150D02*
X9604229Y-12667150D01*
X9604229Y-12667150D02*
X9623277Y-12676674D01*
X9623277Y-12676674D02*
X9632801Y-12695722D01*
X9632801Y-12695722D02*
X9632801Y-12800484D01*
X9632801Y-12695722D02*
X9642325Y-12676674D01*
X9642325Y-12676674D02*
X9661372Y-12667150D01*
X9661372Y-12667150D02*
X9689944Y-12667150D01*
X9689944Y-12667150D02*
X9708991Y-12676674D01*
X9708991Y-12676674D02*
X9718515Y-12695722D01*
X9718515Y-12695722D02*
X9718515Y-12800484D01*
X10108991Y-12590960D02*
X9937563Y-12848103D01*
X10366134Y-12600484D02*
X10385182Y-12600484D01*
X10385182Y-12600484D02*
X10404229Y-12610008D01*
X10404229Y-12610008D02*
X10413753Y-12619531D01*
X10413753Y-12619531D02*
X10423277Y-12638579D01*
X10423277Y-12638579D02*
X10432801Y-12676674D01*
X10432801Y-12676674D02*
X10432801Y-12724293D01*
X10432801Y-12724293D02*
X10423277Y-12762388D01*
X10423277Y-12762388D02*
X10413753Y-12781436D01*
X10413753Y-12781436D02*
X10404229Y-12790960D01*
X10404229Y-12790960D02*
X10385182Y-12800484D01*
X10385182Y-12800484D02*
X10366134Y-12800484D01*
X10366134Y-12800484D02*
X10347087Y-12790960D01*
X10347087Y-12790960D02*
X10337563Y-12781436D01*
X10337563Y-12781436D02*
X10328039Y-12762388D01*
X10328039Y-12762388D02*
X10318515Y-12724293D01*
X10318515Y-12724293D02*
X10318515Y-12676674D01*
X10318515Y-12676674D02*
X10328039Y-12638579D01*
X10328039Y-12638579D02*
X10337563Y-12619531D01*
X10337563Y-12619531D02*
X10347087Y-12610008D01*
X10347087Y-12610008D02*
X10366134Y-12600484D01*
X10518515Y-12781436D02*
X10528039Y-12790960D01*
X10528039Y-12790960D02*
X10518515Y-12800484D01*
X10518515Y-12800484D02*
X10508991Y-12790960D01*
X10508991Y-12790960D02*
X10518515Y-12781436D01*
X10518515Y-12781436D02*
X10518515Y-12800484D01*
X10651848Y-12600484D02*
X10670896Y-12600484D01*
X10670896Y-12600484D02*
X10689944Y-12610008D01*
X10689944Y-12610008D02*
X10699468Y-12619531D01*
X10699468Y-12619531D02*
X10708991Y-12638579D01*
X10708991Y-12638579D02*
X10718515Y-12676674D01*
X10718515Y-12676674D02*
X10718515Y-12724293D01*
X10718515Y-12724293D02*
X10708991Y-12762388D01*
X10708991Y-12762388D02*
X10699468Y-12781436D01*
X10699468Y-12781436D02*
X10689944Y-12790960D01*
X10689944Y-12790960D02*
X10670896Y-12800484D01*
X10670896Y-12800484D02*
X10651848Y-12800484D01*
X10651848Y-12800484D02*
X10632801Y-12790960D01*
X10632801Y-12790960D02*
X10623277Y-12781436D01*
X10623277Y-12781436D02*
X10613753Y-12762388D01*
X10613753Y-12762388D02*
X10604229Y-12724293D01*
X10604229Y-12724293D02*
X10604229Y-12676674D01*
X10604229Y-12676674D02*
X10613753Y-12638579D01*
X10613753Y-12638579D02*
X10623277Y-12619531D01*
X10623277Y-12619531D02*
X10632801Y-12610008D01*
X10632801Y-12610008D02*
X10651848Y-12600484D01*
X10794706Y-12619531D02*
X10804229Y-12610008D01*
X10804229Y-12610008D02*
X10823277Y-12600484D01*
X10823277Y-12600484D02*
X10870896Y-12600484D01*
X10870896Y-12600484D02*
X10889944Y-12610008D01*
X10889944Y-12610008D02*
X10899468Y-12619531D01*
X10899468Y-12619531D02*
X10908991Y-12638579D01*
X10908991Y-12638579D02*
X10908991Y-12657627D01*
X10908991Y-12657627D02*
X10899468Y-12686198D01*
X10899468Y-12686198D02*
X10785182Y-12800484D01*
X10785182Y-12800484D02*
X10908991Y-12800484D01*
X10975658Y-12600484D02*
X11099468Y-12600484D01*
X11099468Y-12600484D02*
X11032801Y-12676674D01*
X11032801Y-12676674D02*
X11061372Y-12676674D01*
X11061372Y-12676674D02*
X11080420Y-12686198D01*
X11080420Y-12686198D02*
X11089944Y-12695722D01*
X11089944Y-12695722D02*
X11099468Y-12714769D01*
X11099468Y-12714769D02*
X11099468Y-12762388D01*
X11099468Y-12762388D02*
X11089944Y-12781436D01*
X11089944Y-12781436D02*
X11080420Y-12790960D01*
X11080420Y-12790960D02*
X11061372Y-12800484D01*
X11061372Y-12800484D02*
X11004229Y-12800484D01*
X11004229Y-12800484D02*
X10985182Y-12790960D01*
X10985182Y-12790960D02*
X10975658Y-12781436D01*
X11270896Y-12600484D02*
X11232801Y-12600484D01*
X11232801Y-12600484D02*
X11213753Y-12610008D01*
X11213753Y-12610008D02*
X11204229Y-12619531D01*
X11204229Y-12619531D02*
X11185182Y-12648103D01*
X11185182Y-12648103D02*
X11175658Y-12686198D01*
X11175658Y-12686198D02*
X11175658Y-12762388D01*
X11175658Y-12762388D02*
X11185182Y-12781436D01*
X11185182Y-12781436D02*
X11194706Y-12790960D01*
X11194706Y-12790960D02*
X11213753Y-12800484D01*
X11213753Y-12800484D02*
X11251848Y-12800484D01*
X11251848Y-12800484D02*
X11270896Y-12790960D01*
X11270896Y-12790960D02*
X11280420Y-12781436D01*
X11280420Y-12781436D02*
X11289944Y-12762388D01*
X11289944Y-12762388D02*
X11289944Y-12714769D01*
X11289944Y-12714769D02*
X11280420Y-12695722D01*
X11280420Y-12695722D02*
X11270896Y-12686198D01*
X11270896Y-12686198D02*
X11251848Y-12676674D01*
X11251848Y-12676674D02*
X11213753Y-12676674D01*
X11213753Y-12676674D02*
X11194706Y-12686198D01*
X11194706Y-12686198D02*
X11185182Y-12695722D01*
X11185182Y-12695722D02*
X11175658Y-12714769D01*
X11366134Y-12600484D02*
X11366134Y-12638579D01*
X11442325Y-12600484D02*
X11442325Y-12638579D01*
X11737563Y-12876674D02*
X11728039Y-12867150D01*
X11728039Y-12867150D02*
X11708991Y-12838579D01*
X11708991Y-12838579D02*
X11699468Y-12819531D01*
X11699468Y-12819531D02*
X11689944Y-12790960D01*
X11689944Y-12790960D02*
X11680420Y-12743341D01*
X11680420Y-12743341D02*
X11680420Y-12705246D01*
X11680420Y-12705246D02*
X11689944Y-12657627D01*
X11689944Y-12657627D02*
X11699468Y-12629055D01*
X11699468Y-12629055D02*
X11708991Y-12610008D01*
X11708991Y-12610008D02*
X11728039Y-12581436D01*
X11728039Y-12581436D02*
X11737563Y-12571912D01*
X11851848Y-12600484D02*
X11870896Y-12600484D01*
X11870896Y-12600484D02*
X11889944Y-12610008D01*
X11889944Y-12610008D02*
X11899468Y-12619531D01*
X11899468Y-12619531D02*
X11908991Y-12638579D01*
X11908991Y-12638579D02*
X11918515Y-12676674D01*
X11918515Y-12676674D02*
X11918515Y-12724293D01*
X11918515Y-12724293D02*
X11908991Y-12762388D01*
X11908991Y-12762388D02*
X11899468Y-12781436D01*
X11899468Y-12781436D02*
X11889944Y-12790960D01*
X11889944Y-12790960D02*
X11870896Y-12800484D01*
X11870896Y-12800484D02*
X11851848Y-12800484D01*
X11851848Y-12800484D02*
X11832801Y-12790960D01*
X11832801Y-12790960D02*
X11823277Y-12781436D01*
X11823277Y-12781436D02*
X11813753Y-12762388D01*
X11813753Y-12762388D02*
X11804229Y-12724293D01*
X11804229Y-12724293D02*
X11804229Y-12676674D01*
X11804229Y-12676674D02*
X11813753Y-12638579D01*
X11813753Y-12638579D02*
X11823277Y-12619531D01*
X11823277Y-12619531D02*
X11832801Y-12610008D01*
X11832801Y-12610008D02*
X11851848Y-12600484D01*
X12156610Y-12800484D02*
X12156610Y-12600484D01*
X12242325Y-12800484D02*
X12242325Y-12695722D01*
X12242325Y-12695722D02*
X12232801Y-12676674D01*
X12232801Y-12676674D02*
X12213753Y-12667150D01*
X12213753Y-12667150D02*
X12185182Y-12667150D01*
X12185182Y-12667150D02*
X12166134Y-12676674D01*
X12166134Y-12676674D02*
X12156610Y-12686198D01*
X12366134Y-12800484D02*
X12347087Y-12790960D01*
X12347087Y-12790960D02*
X12337563Y-12781436D01*
X12337563Y-12781436D02*
X12328039Y-12762388D01*
X12328039Y-12762388D02*
X12328039Y-12705246D01*
X12328039Y-12705246D02*
X12337563Y-12686198D01*
X12337563Y-12686198D02*
X12347087Y-12676674D01*
X12347087Y-12676674D02*
X12366134Y-12667150D01*
X12366134Y-12667150D02*
X12394706Y-12667150D01*
X12394706Y-12667150D02*
X12413753Y-12676674D01*
X12413753Y-12676674D02*
X12423277Y-12686198D01*
X12423277Y-12686198D02*
X12432801Y-12705246D01*
X12432801Y-12705246D02*
X12432801Y-12762388D01*
X12432801Y-12762388D02*
X12423277Y-12781436D01*
X12423277Y-12781436D02*
X12413753Y-12790960D01*
X12413753Y-12790960D02*
X12394706Y-12800484D01*
X12394706Y-12800484D02*
X12366134Y-12800484D01*
X12547087Y-12800484D02*
X12528039Y-12790960D01*
X12528039Y-12790960D02*
X12518515Y-12771912D01*
X12518515Y-12771912D02*
X12518515Y-12600484D01*
X12699468Y-12790960D02*
X12680420Y-12800484D01*
X12680420Y-12800484D02*
X12642325Y-12800484D01*
X12642325Y-12800484D02*
X12623277Y-12790960D01*
X12623277Y-12790960D02*
X12613753Y-12771912D01*
X12613753Y-12771912D02*
X12613753Y-12695722D01*
X12613753Y-12695722D02*
X12623277Y-12676674D01*
X12623277Y-12676674D02*
X12642325Y-12667150D01*
X12642325Y-12667150D02*
X12680420Y-12667150D01*
X12680420Y-12667150D02*
X12699468Y-12676674D01*
X12699468Y-12676674D02*
X12708991Y-12695722D01*
X12708991Y-12695722D02*
X12708991Y-12714769D01*
X12708991Y-12714769D02*
X12613753Y-12733817D01*
X12785182Y-12790960D02*
X12804230Y-12800484D01*
X12804230Y-12800484D02*
X12842325Y-12800484D01*
X12842325Y-12800484D02*
X12861372Y-12790960D01*
X12861372Y-12790960D02*
X12870896Y-12771912D01*
X12870896Y-12771912D02*
X12870896Y-12762388D01*
X12870896Y-12762388D02*
X12861372Y-12743341D01*
X12861372Y-12743341D02*
X12842325Y-12733817D01*
X12842325Y-12733817D02*
X12813753Y-12733817D01*
X12813753Y-12733817D02*
X12794706Y-12724293D01*
X12794706Y-12724293D02*
X12785182Y-12705246D01*
X12785182Y-12705246D02*
X12785182Y-12695722D01*
X12785182Y-12695722D02*
X12794706Y-12676674D01*
X12794706Y-12676674D02*
X12813753Y-12667150D01*
X12813753Y-12667150D02*
X12842325Y-12667150D01*
X12842325Y-12667150D02*
X12861372Y-12676674D01*
X13108992Y-12724293D02*
X13261373Y-12724293D01*
X13185182Y-12800484D02*
X13185182Y-12648103D01*
X13537563Y-12686198D02*
X13518515Y-12676674D01*
X13518515Y-12676674D02*
X13508992Y-12667150D01*
X13508992Y-12667150D02*
X13499468Y-12648103D01*
X13499468Y-12648103D02*
X13499468Y-12638579D01*
X13499468Y-12638579D02*
X13508992Y-12619531D01*
X13508992Y-12619531D02*
X13518515Y-12610008D01*
X13518515Y-12610008D02*
X13537563Y-12600484D01*
X13537563Y-12600484D02*
X13575658Y-12600484D01*
X13575658Y-12600484D02*
X13594706Y-12610008D01*
X13594706Y-12610008D02*
X13604230Y-12619531D01*
X13604230Y-12619531D02*
X13613753Y-12638579D01*
X13613753Y-12638579D02*
X13613753Y-12648103D01*
X13613753Y-12648103D02*
X13604230Y-12667150D01*
X13604230Y-12667150D02*
X13594706Y-12676674D01*
X13594706Y-12676674D02*
X13575658Y-12686198D01*
X13575658Y-12686198D02*
X13537563Y-12686198D01*
X13537563Y-12686198D02*
X13518515Y-12695722D01*
X13518515Y-12695722D02*
X13508992Y-12705246D01*
X13508992Y-12705246D02*
X13499468Y-12724293D01*
X13499468Y-12724293D02*
X13499468Y-12762388D01*
X13499468Y-12762388D02*
X13508992Y-12781436D01*
X13508992Y-12781436D02*
X13518515Y-12790960D01*
X13518515Y-12790960D02*
X13537563Y-12800484D01*
X13537563Y-12800484D02*
X13575658Y-12800484D01*
X13575658Y-12800484D02*
X13594706Y-12790960D01*
X13594706Y-12790960D02*
X13604230Y-12781436D01*
X13604230Y-12781436D02*
X13613753Y-12762388D01*
X13613753Y-12762388D02*
X13613753Y-12724293D01*
X13613753Y-12724293D02*
X13604230Y-12705246D01*
X13604230Y-12705246D02*
X13594706Y-12695722D01*
X13594706Y-12695722D02*
X13575658Y-12686198D01*
X13842325Y-12790960D02*
X13861373Y-12800484D01*
X13861373Y-12800484D02*
X13899468Y-12800484D01*
X13899468Y-12800484D02*
X13918515Y-12790960D01*
X13918515Y-12790960D02*
X13928039Y-12771912D01*
X13928039Y-12771912D02*
X13928039Y-12762388D01*
X13928039Y-12762388D02*
X13918515Y-12743341D01*
X13918515Y-12743341D02*
X13899468Y-12733817D01*
X13899468Y-12733817D02*
X13870896Y-12733817D01*
X13870896Y-12733817D02*
X13851849Y-12724293D01*
X13851849Y-12724293D02*
X13842325Y-12705246D01*
X13842325Y-12705246D02*
X13842325Y-12695722D01*
X13842325Y-12695722D02*
X13851849Y-12676674D01*
X13851849Y-12676674D02*
X13870896Y-12667150D01*
X13870896Y-12667150D02*
X13899468Y-12667150D01*
X13899468Y-12667150D02*
X13918515Y-12676674D01*
X14042325Y-12800484D02*
X14023277Y-12790960D01*
X14023277Y-12790960D02*
X14013754Y-12771912D01*
X14013754Y-12771912D02*
X14013754Y-12600484D01*
X14147087Y-12800484D02*
X14128039Y-12790960D01*
X14128039Y-12790960D02*
X14118515Y-12781436D01*
X14118515Y-12781436D02*
X14108992Y-12762388D01*
X14108992Y-12762388D02*
X14108992Y-12705246D01*
X14108992Y-12705246D02*
X14118515Y-12686198D01*
X14118515Y-12686198D02*
X14128039Y-12676674D01*
X14128039Y-12676674D02*
X14147087Y-12667150D01*
X14147087Y-12667150D02*
X14175658Y-12667150D01*
X14175658Y-12667150D02*
X14194706Y-12676674D01*
X14194706Y-12676674D02*
X14204230Y-12686198D01*
X14204230Y-12686198D02*
X14213754Y-12705246D01*
X14213754Y-12705246D02*
X14213754Y-12762388D01*
X14213754Y-12762388D02*
X14204230Y-12781436D01*
X14204230Y-12781436D02*
X14194706Y-12790960D01*
X14194706Y-12790960D02*
X14175658Y-12800484D01*
X14175658Y-12800484D02*
X14147087Y-12800484D01*
X14270896Y-12667150D02*
X14347087Y-12667150D01*
X14299468Y-12600484D02*
X14299468Y-12771912D01*
X14299468Y-12771912D02*
X14308992Y-12790960D01*
X14308992Y-12790960D02*
X14328039Y-12800484D01*
X14328039Y-12800484D02*
X14347087Y-12800484D01*
X14404230Y-12790960D02*
X14423277Y-12800484D01*
X14423277Y-12800484D02*
X14461373Y-12800484D01*
X14461373Y-12800484D02*
X14480420Y-12790960D01*
X14480420Y-12790960D02*
X14489944Y-12771912D01*
X14489944Y-12771912D02*
X14489944Y-12762388D01*
X14489944Y-12762388D02*
X14480420Y-12743341D01*
X14480420Y-12743341D02*
X14461373Y-12733817D01*
X14461373Y-12733817D02*
X14432801Y-12733817D01*
X14432801Y-12733817D02*
X14413754Y-12724293D01*
X14413754Y-12724293D02*
X14404230Y-12705246D01*
X14404230Y-12705246D02*
X14404230Y-12695722D01*
X14404230Y-12695722D02*
X14413754Y-12676674D01*
X14413754Y-12676674D02*
X14432801Y-12667150D01*
X14432801Y-12667150D02*
X14461373Y-12667150D01*
X14461373Y-12667150D02*
X14480420Y-12676674D01*
X14556611Y-12876674D02*
X14566135Y-12867150D01*
X14566135Y-12867150D02*
X14585182Y-12838579D01*
X14585182Y-12838579D02*
X14594706Y-12819531D01*
X14594706Y-12819531D02*
X14604230Y-12790960D01*
X14604230Y-12790960D02*
X14613754Y-12743341D01*
X14613754Y-12743341D02*
X14613754Y-12705246D01*
X14613754Y-12705246D02*
X14604230Y-12657627D01*
X14604230Y-12657627D02*
X14594706Y-12629055D01*
X14594706Y-12629055D02*
X14585182Y-12610008D01*
X14585182Y-12610008D02*
X14566135Y-12581436D01*
X14566135Y-12581436D02*
X14556611Y-12571912D01*
D10*
X8112500Y-12923000D02*
X8112500Y-13023000D01*
X8062500Y-12973000D02*
X8162500Y-12973000D01*
D11*
X8528039Y-13064484D02*
X8413753Y-13064484D01*
X8470896Y-13064484D02*
X8470896Y-12864484D01*
X8470896Y-12864484D02*
X8451848Y-12893055D01*
X8451848Y-12893055D02*
X8432801Y-12912103D01*
X8432801Y-12912103D02*
X8413753Y-12921627D01*
X8613753Y-13045436D02*
X8623277Y-13054960D01*
X8623277Y-13054960D02*
X8613753Y-13064484D01*
X8613753Y-13064484D02*
X8604229Y-13054960D01*
X8604229Y-13054960D02*
X8613753Y-13045436D01*
X8613753Y-13045436D02*
X8613753Y-13064484D01*
X8747086Y-12864484D02*
X8766134Y-12864484D01*
X8766134Y-12864484D02*
X8785182Y-12874008D01*
X8785182Y-12874008D02*
X8794705Y-12883531D01*
X8794705Y-12883531D02*
X8804229Y-12902579D01*
X8804229Y-12902579D02*
X8813753Y-12940674D01*
X8813753Y-12940674D02*
X8813753Y-12988293D01*
X8813753Y-12988293D02*
X8804229Y-13026388D01*
X8804229Y-13026388D02*
X8794705Y-13045436D01*
X8794705Y-13045436D02*
X8785182Y-13054960D01*
X8785182Y-13054960D02*
X8766134Y-13064484D01*
X8766134Y-13064484D02*
X8747086Y-13064484D01*
X8747086Y-13064484D02*
X8728039Y-13054960D01*
X8728039Y-13054960D02*
X8718515Y-13045436D01*
X8718515Y-13045436D02*
X8708991Y-13026388D01*
X8708991Y-13026388D02*
X8699467Y-12988293D01*
X8699467Y-12988293D02*
X8699467Y-12940674D01*
X8699467Y-12940674D02*
X8708991Y-12902579D01*
X8708991Y-12902579D02*
X8718515Y-12883531D01*
X8718515Y-12883531D02*
X8728039Y-12874008D01*
X8728039Y-12874008D02*
X8747086Y-12864484D01*
X8937563Y-12864484D02*
X8956610Y-12864484D01*
X8956610Y-12864484D02*
X8975658Y-12874008D01*
X8975658Y-12874008D02*
X8985182Y-12883531D01*
X8985182Y-12883531D02*
X8994705Y-12902579D01*
X8994705Y-12902579D02*
X9004229Y-12940674D01*
X9004229Y-12940674D02*
X9004229Y-12988293D01*
X9004229Y-12988293D02*
X8994705Y-13026388D01*
X8994705Y-13026388D02*
X8985182Y-13045436D01*
X8985182Y-13045436D02*
X8975658Y-13054960D01*
X8975658Y-13054960D02*
X8956610Y-13064484D01*
X8956610Y-13064484D02*
X8937563Y-13064484D01*
X8937563Y-13064484D02*
X8918515Y-13054960D01*
X8918515Y-13054960D02*
X8908991Y-13045436D01*
X8908991Y-13045436D02*
X8899467Y-13026388D01*
X8899467Y-13026388D02*
X8889944Y-12988293D01*
X8889944Y-12988293D02*
X8889944Y-12940674D01*
X8889944Y-12940674D02*
X8899467Y-12902579D01*
X8899467Y-12902579D02*
X8908991Y-12883531D01*
X8908991Y-12883531D02*
X8918515Y-12874008D01*
X8918515Y-12874008D02*
X8937563Y-12864484D01*
X9128039Y-12864484D02*
X9147086Y-12864484D01*
X9147086Y-12864484D02*
X9166134Y-12874008D01*
X9166134Y-12874008D02*
X9175658Y-12883531D01*
X9175658Y-12883531D02*
X9185182Y-12902579D01*
X9185182Y-12902579D02*
X9194705Y-12940674D01*
X9194705Y-12940674D02*
X9194705Y-12988293D01*
X9194705Y-12988293D02*
X9185182Y-13026388D01*
X9185182Y-13026388D02*
X9175658Y-13045436D01*
X9175658Y-13045436D02*
X9166134Y-13054960D01*
X9166134Y-13054960D02*
X9147086Y-13064484D01*
X9147086Y-13064484D02*
X9128039Y-13064484D01*
X9128039Y-13064484D02*
X9108991Y-13054960D01*
X9108991Y-13054960D02*
X9099467Y-13045436D01*
X9099467Y-13045436D02*
X9089944Y-13026388D01*
X9089944Y-13026388D02*
X9080420Y-12988293D01*
X9080420Y-12988293D02*
X9080420Y-12940674D01*
X9080420Y-12940674D02*
X9089944Y-12902579D01*
X9089944Y-12902579D02*
X9099467Y-12883531D01*
X9099467Y-12883531D02*
X9108991Y-12874008D01*
X9108991Y-12874008D02*
X9128039Y-12864484D01*
X9280420Y-13064484D02*
X9280420Y-12931150D01*
X9280420Y-12950198D02*
X9289944Y-12940674D01*
X9289944Y-12940674D02*
X9308991Y-12931150D01*
X9308991Y-12931150D02*
X9337563Y-12931150D01*
X9337563Y-12931150D02*
X9356610Y-12940674D01*
X9356610Y-12940674D02*
X9366134Y-12959722D01*
X9366134Y-12959722D02*
X9366134Y-13064484D01*
X9366134Y-12959722D02*
X9375658Y-12940674D01*
X9375658Y-12940674D02*
X9394705Y-12931150D01*
X9394705Y-12931150D02*
X9423277Y-12931150D01*
X9423277Y-12931150D02*
X9442325Y-12940674D01*
X9442325Y-12940674D02*
X9451848Y-12959722D01*
X9451848Y-12959722D02*
X9451848Y-13064484D01*
X9547086Y-13064484D02*
X9547086Y-12931150D01*
X9547086Y-12950198D02*
X9556610Y-12940674D01*
X9556610Y-12940674D02*
X9575658Y-12931150D01*
X9575658Y-12931150D02*
X9604229Y-12931150D01*
X9604229Y-12931150D02*
X9623277Y-12940674D01*
X9623277Y-12940674D02*
X9632801Y-12959722D01*
X9632801Y-12959722D02*
X9632801Y-13064484D01*
X9632801Y-12959722D02*
X9642325Y-12940674D01*
X9642325Y-12940674D02*
X9661372Y-12931150D01*
X9661372Y-12931150D02*
X9689944Y-12931150D01*
X9689944Y-12931150D02*
X9708991Y-12940674D01*
X9708991Y-12940674D02*
X9718515Y-12959722D01*
X9718515Y-12959722D02*
X9718515Y-13064484D01*
X10108991Y-12854960D02*
X9937563Y-13112103D01*
X10366134Y-12864484D02*
X10385182Y-12864484D01*
X10385182Y-12864484D02*
X10404229Y-12874008D01*
X10404229Y-12874008D02*
X10413753Y-12883531D01*
X10413753Y-12883531D02*
X10423277Y-12902579D01*
X10423277Y-12902579D02*
X10432801Y-12940674D01*
X10432801Y-12940674D02*
X10432801Y-12988293D01*
X10432801Y-12988293D02*
X10423277Y-13026388D01*
X10423277Y-13026388D02*
X10413753Y-13045436D01*
X10413753Y-13045436D02*
X10404229Y-13054960D01*
X10404229Y-13054960D02*
X10385182Y-13064484D01*
X10385182Y-13064484D02*
X10366134Y-13064484D01*
X10366134Y-13064484D02*
X10347087Y-13054960D01*
X10347087Y-13054960D02*
X10337563Y-13045436D01*
X10337563Y-13045436D02*
X10328039Y-13026388D01*
X10328039Y-13026388D02*
X10318515Y-12988293D01*
X10318515Y-12988293D02*
X10318515Y-12940674D01*
X10318515Y-12940674D02*
X10328039Y-12902579D01*
X10328039Y-12902579D02*
X10337563Y-12883531D01*
X10337563Y-12883531D02*
X10347087Y-12874008D01*
X10347087Y-12874008D02*
X10366134Y-12864484D01*
X10518515Y-13045436D02*
X10528039Y-13054960D01*
X10528039Y-13054960D02*
X10518515Y-13064484D01*
X10518515Y-13064484D02*
X10508991Y-13054960D01*
X10508991Y-13054960D02*
X10518515Y-13045436D01*
X10518515Y-13045436D02*
X10518515Y-13064484D01*
X10651848Y-12864484D02*
X10670896Y-12864484D01*
X10670896Y-12864484D02*
X10689944Y-12874008D01*
X10689944Y-12874008D02*
X10699468Y-12883531D01*
X10699468Y-12883531D02*
X10708991Y-12902579D01*
X10708991Y-12902579D02*
X10718515Y-12940674D01*
X10718515Y-12940674D02*
X10718515Y-12988293D01*
X10718515Y-12988293D02*
X10708991Y-13026388D01*
X10708991Y-13026388D02*
X10699468Y-13045436D01*
X10699468Y-13045436D02*
X10689944Y-13054960D01*
X10689944Y-13054960D02*
X10670896Y-13064484D01*
X10670896Y-13064484D02*
X10651848Y-13064484D01*
X10651848Y-13064484D02*
X10632801Y-13054960D01*
X10632801Y-13054960D02*
X10623277Y-13045436D01*
X10623277Y-13045436D02*
X10613753Y-13026388D01*
X10613753Y-13026388D02*
X10604229Y-12988293D01*
X10604229Y-12988293D02*
X10604229Y-12940674D01*
X10604229Y-12940674D02*
X10613753Y-12902579D01*
X10613753Y-12902579D02*
X10623277Y-12883531D01*
X10623277Y-12883531D02*
X10632801Y-12874008D01*
X10632801Y-12874008D02*
X10651848Y-12864484D01*
X10785182Y-12864484D02*
X10908991Y-12864484D01*
X10908991Y-12864484D02*
X10842325Y-12940674D01*
X10842325Y-12940674D02*
X10870896Y-12940674D01*
X10870896Y-12940674D02*
X10889944Y-12950198D01*
X10889944Y-12950198D02*
X10899468Y-12959722D01*
X10899468Y-12959722D02*
X10908991Y-12978769D01*
X10908991Y-12978769D02*
X10908991Y-13026388D01*
X10908991Y-13026388D02*
X10899468Y-13045436D01*
X10899468Y-13045436D02*
X10889944Y-13054960D01*
X10889944Y-13054960D02*
X10870896Y-13064484D01*
X10870896Y-13064484D02*
X10813753Y-13064484D01*
X10813753Y-13064484D02*
X10794706Y-13054960D01*
X10794706Y-13054960D02*
X10785182Y-13045436D01*
X11004229Y-13064484D02*
X11042325Y-13064484D01*
X11042325Y-13064484D02*
X11061372Y-13054960D01*
X11061372Y-13054960D02*
X11070896Y-13045436D01*
X11070896Y-13045436D02*
X11089944Y-13016865D01*
X11089944Y-13016865D02*
X11099468Y-12978769D01*
X11099468Y-12978769D02*
X11099468Y-12902579D01*
X11099468Y-12902579D02*
X11089944Y-12883531D01*
X11089944Y-12883531D02*
X11080420Y-12874008D01*
X11080420Y-12874008D02*
X11061372Y-12864484D01*
X11061372Y-12864484D02*
X11023277Y-12864484D01*
X11023277Y-12864484D02*
X11004229Y-12874008D01*
X11004229Y-12874008D02*
X10994706Y-12883531D01*
X10994706Y-12883531D02*
X10985182Y-12902579D01*
X10985182Y-12902579D02*
X10985182Y-12950198D01*
X10985182Y-12950198D02*
X10994706Y-12969246D01*
X10994706Y-12969246D02*
X11004229Y-12978769D01*
X11004229Y-12978769D02*
X11023277Y-12988293D01*
X11023277Y-12988293D02*
X11061372Y-12988293D01*
X11061372Y-12988293D02*
X11080420Y-12978769D01*
X11080420Y-12978769D02*
X11089944Y-12969246D01*
X11089944Y-12969246D02*
X11099468Y-12950198D01*
X11270896Y-12931150D02*
X11270896Y-13064484D01*
X11223277Y-12854960D02*
X11175658Y-12997817D01*
X11175658Y-12997817D02*
X11299467Y-12997817D01*
X11366134Y-12864484D02*
X11366134Y-12902579D01*
X11442325Y-12864484D02*
X11442325Y-12902579D01*
X11737563Y-13140674D02*
X11728039Y-13131150D01*
X11728039Y-13131150D02*
X11708991Y-13102579D01*
X11708991Y-13102579D02*
X11699468Y-13083531D01*
X11699468Y-13083531D02*
X11689944Y-13054960D01*
X11689944Y-13054960D02*
X11680420Y-13007341D01*
X11680420Y-13007341D02*
X11680420Y-12969246D01*
X11680420Y-12969246D02*
X11689944Y-12921627D01*
X11689944Y-12921627D02*
X11699468Y-12893055D01*
X11699468Y-12893055D02*
X11708991Y-12874008D01*
X11708991Y-12874008D02*
X11728039Y-12845436D01*
X11728039Y-12845436D02*
X11737563Y-12835912D01*
X11804229Y-12883531D02*
X11813753Y-12874008D01*
X11813753Y-12874008D02*
X11832801Y-12864484D01*
X11832801Y-12864484D02*
X11880420Y-12864484D01*
X11880420Y-12864484D02*
X11899468Y-12874008D01*
X11899468Y-12874008D02*
X11908991Y-12883531D01*
X11908991Y-12883531D02*
X11918515Y-12902579D01*
X11918515Y-12902579D02*
X11918515Y-12921627D01*
X11918515Y-12921627D02*
X11908991Y-12950198D01*
X11908991Y-12950198D02*
X11794706Y-13064484D01*
X11794706Y-13064484D02*
X11918515Y-13064484D01*
X12013753Y-13064484D02*
X12051848Y-13064484D01*
X12051848Y-13064484D02*
X12070896Y-13054960D01*
X12070896Y-13054960D02*
X12080420Y-13045436D01*
X12080420Y-13045436D02*
X12099468Y-13016865D01*
X12099468Y-13016865D02*
X12108991Y-12978769D01*
X12108991Y-12978769D02*
X12108991Y-12902579D01*
X12108991Y-12902579D02*
X12099468Y-12883531D01*
X12099468Y-12883531D02*
X12089944Y-12874008D01*
X12089944Y-12874008D02*
X12070896Y-12864484D01*
X12070896Y-12864484D02*
X12032801Y-12864484D01*
X12032801Y-12864484D02*
X12013753Y-12874008D01*
X12013753Y-12874008D02*
X12004229Y-12883531D01*
X12004229Y-12883531D02*
X11994706Y-12902579D01*
X11994706Y-12902579D02*
X11994706Y-12950198D01*
X11994706Y-12950198D02*
X12004229Y-12969246D01*
X12004229Y-12969246D02*
X12013753Y-12978769D01*
X12013753Y-12978769D02*
X12032801Y-12988293D01*
X12032801Y-12988293D02*
X12070896Y-12988293D01*
X12070896Y-12988293D02*
X12089944Y-12978769D01*
X12089944Y-12978769D02*
X12099468Y-12969246D01*
X12099468Y-12969246D02*
X12108991Y-12950198D01*
X12347087Y-13064484D02*
X12347087Y-12864484D01*
X12432801Y-13064484D02*
X12432801Y-12959722D01*
X12432801Y-12959722D02*
X12423277Y-12940674D01*
X12423277Y-12940674D02*
X12404230Y-12931150D01*
X12404230Y-12931150D02*
X12375658Y-12931150D01*
X12375658Y-12931150D02*
X12356610Y-12940674D01*
X12356610Y-12940674D02*
X12347087Y-12950198D01*
X12556610Y-13064484D02*
X12537563Y-13054960D01*
X12537563Y-13054960D02*
X12528039Y-13045436D01*
X12528039Y-13045436D02*
X12518515Y-13026388D01*
X12518515Y-13026388D02*
X12518515Y-12969246D01*
X12518515Y-12969246D02*
X12528039Y-12950198D01*
X12528039Y-12950198D02*
X12537563Y-12940674D01*
X12537563Y-12940674D02*
X12556610Y-12931150D01*
X12556610Y-12931150D02*
X12585182Y-12931150D01*
X12585182Y-12931150D02*
X12604230Y-12940674D01*
X12604230Y-12940674D02*
X12613753Y-12950198D01*
X12613753Y-12950198D02*
X12623277Y-12969246D01*
X12623277Y-12969246D02*
X12623277Y-13026388D01*
X12623277Y-13026388D02*
X12613753Y-13045436D01*
X12613753Y-13045436D02*
X12604230Y-13054960D01*
X12604230Y-13054960D02*
X12585182Y-13064484D01*
X12585182Y-13064484D02*
X12556610Y-13064484D01*
X12737563Y-13064484D02*
X12718515Y-13054960D01*
X12718515Y-13054960D02*
X12708991Y-13035912D01*
X12708991Y-13035912D02*
X12708991Y-12864484D01*
X12889944Y-13054960D02*
X12870896Y-13064484D01*
X12870896Y-13064484D02*
X12832801Y-13064484D01*
X12832801Y-13064484D02*
X12813753Y-13054960D01*
X12813753Y-13054960D02*
X12804230Y-13035912D01*
X12804230Y-13035912D02*
X12804230Y-12959722D01*
X12804230Y-12959722D02*
X12813753Y-12940674D01*
X12813753Y-12940674D02*
X12832801Y-12931150D01*
X12832801Y-12931150D02*
X12870896Y-12931150D01*
X12870896Y-12931150D02*
X12889944Y-12940674D01*
X12889944Y-12940674D02*
X12899468Y-12959722D01*
X12899468Y-12959722D02*
X12899468Y-12978769D01*
X12899468Y-12978769D02*
X12804230Y-12997817D01*
X12975658Y-13054960D02*
X12994706Y-13064484D01*
X12994706Y-13064484D02*
X13032801Y-13064484D01*
X13032801Y-13064484D02*
X13051849Y-13054960D01*
X13051849Y-13054960D02*
X13061372Y-13035912D01*
X13061372Y-13035912D02*
X13061372Y-13026388D01*
X13061372Y-13026388D02*
X13051849Y-13007341D01*
X13051849Y-13007341D02*
X13032801Y-12997817D01*
X13032801Y-12997817D02*
X13004230Y-12997817D01*
X13004230Y-12997817D02*
X12985182Y-12988293D01*
X12985182Y-12988293D02*
X12975658Y-12969246D01*
X12975658Y-12969246D02*
X12975658Y-12959722D01*
X12975658Y-12959722D02*
X12985182Y-12940674D01*
X12985182Y-12940674D02*
X13004230Y-12931150D01*
X13004230Y-12931150D02*
X13032801Y-12931150D01*
X13032801Y-12931150D02*
X13051849Y-12940674D01*
X13128039Y-13140674D02*
X13137563Y-13131150D01*
X13137563Y-13131150D02*
X13156611Y-13102579D01*
X13156611Y-13102579D02*
X13166134Y-13083531D01*
X13166134Y-13083531D02*
X13175658Y-13054960D01*
X13175658Y-13054960D02*
X13185182Y-13007341D01*
X13185182Y-13007341D02*
X13185182Y-12969246D01*
X13185182Y-12969246D02*
X13175658Y-12921627D01*
X13175658Y-12921627D02*
X13166134Y-12893055D01*
X13166134Y-12893055D02*
X13156611Y-12874008D01*
X13156611Y-12874008D02*
X13137563Y-12845436D01*
X13137563Y-12845436D02*
X13128039Y-12835912D01*
D12*
X8146505Y-13275615D02*
X8146505Y-13198384D01*
X8069274Y-13198384D01*
X8069274Y-13275615D01*
X8146505Y-13275615D01*
D11*
X8528039Y-13328484D02*
X8413753Y-13328484D01*
X8470896Y-13328484D02*
X8470896Y-13128484D01*
X8470896Y-13128484D02*
X8451848Y-13157055D01*
X8451848Y-13157055D02*
X8432801Y-13176103D01*
X8432801Y-13176103D02*
X8413753Y-13185627D01*
X8613753Y-13309436D02*
X8623277Y-13318960D01*
X8623277Y-13318960D02*
X8613753Y-13328484D01*
X8613753Y-13328484D02*
X8604229Y-13318960D01*
X8604229Y-13318960D02*
X8613753Y-13309436D01*
X8613753Y-13309436D02*
X8613753Y-13328484D01*
X8747086Y-13128484D02*
X8766134Y-13128484D01*
X8766134Y-13128484D02*
X8785182Y-13138008D01*
X8785182Y-13138008D02*
X8794705Y-13147531D01*
X8794705Y-13147531D02*
X8804229Y-13166579D01*
X8804229Y-13166579D02*
X8813753Y-13204674D01*
X8813753Y-13204674D02*
X8813753Y-13252293D01*
X8813753Y-13252293D02*
X8804229Y-13290388D01*
X8804229Y-13290388D02*
X8794705Y-13309436D01*
X8794705Y-13309436D02*
X8785182Y-13318960D01*
X8785182Y-13318960D02*
X8766134Y-13328484D01*
X8766134Y-13328484D02*
X8747086Y-13328484D01*
X8747086Y-13328484D02*
X8728039Y-13318960D01*
X8728039Y-13318960D02*
X8718515Y-13309436D01*
X8718515Y-13309436D02*
X8708991Y-13290388D01*
X8708991Y-13290388D02*
X8699467Y-13252293D01*
X8699467Y-13252293D02*
X8699467Y-13204674D01*
X8699467Y-13204674D02*
X8708991Y-13166579D01*
X8708991Y-13166579D02*
X8718515Y-13147531D01*
X8718515Y-13147531D02*
X8728039Y-13138008D01*
X8728039Y-13138008D02*
X8747086Y-13128484D01*
X8908991Y-13328484D02*
X8947086Y-13328484D01*
X8947086Y-13328484D02*
X8966134Y-13318960D01*
X8966134Y-13318960D02*
X8975658Y-13309436D01*
X8975658Y-13309436D02*
X8994705Y-13280865D01*
X8994705Y-13280865D02*
X9004229Y-13242769D01*
X9004229Y-13242769D02*
X9004229Y-13166579D01*
X9004229Y-13166579D02*
X8994705Y-13147531D01*
X8994705Y-13147531D02*
X8985182Y-13138008D01*
X8985182Y-13138008D02*
X8966134Y-13128484D01*
X8966134Y-13128484D02*
X8928039Y-13128484D01*
X8928039Y-13128484D02*
X8908991Y-13138008D01*
X8908991Y-13138008D02*
X8899467Y-13147531D01*
X8899467Y-13147531D02*
X8889944Y-13166579D01*
X8889944Y-13166579D02*
X8889944Y-13214198D01*
X8889944Y-13214198D02*
X8899467Y-13233246D01*
X8899467Y-13233246D02*
X8908991Y-13242769D01*
X8908991Y-13242769D02*
X8928039Y-13252293D01*
X8928039Y-13252293D02*
X8966134Y-13252293D01*
X8966134Y-13252293D02*
X8985182Y-13242769D01*
X8985182Y-13242769D02*
X8994705Y-13233246D01*
X8994705Y-13233246D02*
X9004229Y-13214198D01*
X9080420Y-13147531D02*
X9089944Y-13138008D01*
X9089944Y-13138008D02*
X9108991Y-13128484D01*
X9108991Y-13128484D02*
X9156610Y-13128484D01*
X9156610Y-13128484D02*
X9175658Y-13138008D01*
X9175658Y-13138008D02*
X9185182Y-13147531D01*
X9185182Y-13147531D02*
X9194705Y-13166579D01*
X9194705Y-13166579D02*
X9194705Y-13185627D01*
X9194705Y-13185627D02*
X9185182Y-13214198D01*
X9185182Y-13214198D02*
X9070896Y-13328484D01*
X9070896Y-13328484D02*
X9194705Y-13328484D01*
X9280420Y-13328484D02*
X9280420Y-13195150D01*
X9280420Y-13214198D02*
X9289944Y-13204674D01*
X9289944Y-13204674D02*
X9308991Y-13195150D01*
X9308991Y-13195150D02*
X9337563Y-13195150D01*
X9337563Y-13195150D02*
X9356610Y-13204674D01*
X9356610Y-13204674D02*
X9366134Y-13223722D01*
X9366134Y-13223722D02*
X9366134Y-13328484D01*
X9366134Y-13223722D02*
X9375658Y-13204674D01*
X9375658Y-13204674D02*
X9394705Y-13195150D01*
X9394705Y-13195150D02*
X9423277Y-13195150D01*
X9423277Y-13195150D02*
X9442325Y-13204674D01*
X9442325Y-13204674D02*
X9451848Y-13223722D01*
X9451848Y-13223722D02*
X9451848Y-13328484D01*
X9547086Y-13328484D02*
X9547086Y-13195150D01*
X9547086Y-13214198D02*
X9556610Y-13204674D01*
X9556610Y-13204674D02*
X9575658Y-13195150D01*
X9575658Y-13195150D02*
X9604229Y-13195150D01*
X9604229Y-13195150D02*
X9623277Y-13204674D01*
X9623277Y-13204674D02*
X9632801Y-13223722D01*
X9632801Y-13223722D02*
X9632801Y-13328484D01*
X9632801Y-13223722D02*
X9642325Y-13204674D01*
X9642325Y-13204674D02*
X9661372Y-13195150D01*
X9661372Y-13195150D02*
X9689944Y-13195150D01*
X9689944Y-13195150D02*
X9708991Y-13204674D01*
X9708991Y-13204674D02*
X9718515Y-13223722D01*
X9718515Y-13223722D02*
X9718515Y-13328484D01*
X10108991Y-13118960D02*
X9937563Y-13376103D01*
X10366134Y-13128484D02*
X10385182Y-13128484D01*
X10385182Y-13128484D02*
X10404229Y-13138008D01*
X10404229Y-13138008D02*
X10413753Y-13147531D01*
X10413753Y-13147531D02*
X10423277Y-13166579D01*
X10423277Y-13166579D02*
X10432801Y-13204674D01*
X10432801Y-13204674D02*
X10432801Y-13252293D01*
X10432801Y-13252293D02*
X10423277Y-13290388D01*
X10423277Y-13290388D02*
X10413753Y-13309436D01*
X10413753Y-13309436D02*
X10404229Y-13318960D01*
X10404229Y-13318960D02*
X10385182Y-13328484D01*
X10385182Y-13328484D02*
X10366134Y-13328484D01*
X10366134Y-13328484D02*
X10347087Y-13318960D01*
X10347087Y-13318960D02*
X10337563Y-13309436D01*
X10337563Y-13309436D02*
X10328039Y-13290388D01*
X10328039Y-13290388D02*
X10318515Y-13252293D01*
X10318515Y-13252293D02*
X10318515Y-13204674D01*
X10318515Y-13204674D02*
X10328039Y-13166579D01*
X10328039Y-13166579D02*
X10337563Y-13147531D01*
X10337563Y-13147531D02*
X10347087Y-13138008D01*
X10347087Y-13138008D02*
X10366134Y-13128484D01*
X10518515Y-13309436D02*
X10528039Y-13318960D01*
X10528039Y-13318960D02*
X10518515Y-13328484D01*
X10518515Y-13328484D02*
X10508991Y-13318960D01*
X10508991Y-13318960D02*
X10518515Y-13309436D01*
X10518515Y-13309436D02*
X10518515Y-13328484D01*
X10651848Y-13128484D02*
X10670896Y-13128484D01*
X10670896Y-13128484D02*
X10689944Y-13138008D01*
X10689944Y-13138008D02*
X10699468Y-13147531D01*
X10699468Y-13147531D02*
X10708991Y-13166579D01*
X10708991Y-13166579D02*
X10718515Y-13204674D01*
X10718515Y-13204674D02*
X10718515Y-13252293D01*
X10718515Y-13252293D02*
X10708991Y-13290388D01*
X10708991Y-13290388D02*
X10699468Y-13309436D01*
X10699468Y-13309436D02*
X10689944Y-13318960D01*
X10689944Y-13318960D02*
X10670896Y-13328484D01*
X10670896Y-13328484D02*
X10651848Y-13328484D01*
X10651848Y-13328484D02*
X10632801Y-13318960D01*
X10632801Y-13318960D02*
X10623277Y-13309436D01*
X10623277Y-13309436D02*
X10613753Y-13290388D01*
X10613753Y-13290388D02*
X10604229Y-13252293D01*
X10604229Y-13252293D02*
X10604229Y-13204674D01*
X10604229Y-13204674D02*
X10613753Y-13166579D01*
X10613753Y-13166579D02*
X10623277Y-13147531D01*
X10623277Y-13147531D02*
X10632801Y-13138008D01*
X10632801Y-13138008D02*
X10651848Y-13128484D01*
X10889944Y-13195150D02*
X10889944Y-13328484D01*
X10842325Y-13118960D02*
X10794706Y-13261817D01*
X10794706Y-13261817D02*
X10918515Y-13261817D01*
X10975658Y-13128484D02*
X11099468Y-13128484D01*
X11099468Y-13128484D02*
X11032801Y-13204674D01*
X11032801Y-13204674D02*
X11061372Y-13204674D01*
X11061372Y-13204674D02*
X11080420Y-13214198D01*
X11080420Y-13214198D02*
X11089944Y-13223722D01*
X11089944Y-13223722D02*
X11099468Y-13242769D01*
X11099468Y-13242769D02*
X11099468Y-13290388D01*
X11099468Y-13290388D02*
X11089944Y-13309436D01*
X11089944Y-13309436D02*
X11080420Y-13318960D01*
X11080420Y-13318960D02*
X11061372Y-13328484D01*
X11061372Y-13328484D02*
X11004229Y-13328484D01*
X11004229Y-13328484D02*
X10985182Y-13318960D01*
X10985182Y-13318960D02*
X10975658Y-13309436D01*
X11223277Y-13128484D02*
X11242325Y-13128484D01*
X11242325Y-13128484D02*
X11261372Y-13138008D01*
X11261372Y-13138008D02*
X11270896Y-13147531D01*
X11270896Y-13147531D02*
X11280420Y-13166579D01*
X11280420Y-13166579D02*
X11289944Y-13204674D01*
X11289944Y-13204674D02*
X11289944Y-13252293D01*
X11289944Y-13252293D02*
X11280420Y-13290388D01*
X11280420Y-13290388D02*
X11270896Y-13309436D01*
X11270896Y-13309436D02*
X11261372Y-13318960D01*
X11261372Y-13318960D02*
X11242325Y-13328484D01*
X11242325Y-13328484D02*
X11223277Y-13328484D01*
X11223277Y-13328484D02*
X11204229Y-13318960D01*
X11204229Y-13318960D02*
X11194706Y-13309436D01*
X11194706Y-13309436D02*
X11185182Y-13290388D01*
X11185182Y-13290388D02*
X11175658Y-13252293D01*
X11175658Y-13252293D02*
X11175658Y-13204674D01*
X11175658Y-13204674D02*
X11185182Y-13166579D01*
X11185182Y-13166579D02*
X11194706Y-13147531D01*
X11194706Y-13147531D02*
X11204229Y-13138008D01*
X11204229Y-13138008D02*
X11223277Y-13128484D01*
X11366134Y-13128484D02*
X11366134Y-13166579D01*
X11442325Y-13128484D02*
X11442325Y-13166579D01*
X11737563Y-13404674D02*
X11728039Y-13395150D01*
X11728039Y-13395150D02*
X11708991Y-13366579D01*
X11708991Y-13366579D02*
X11699468Y-13347531D01*
X11699468Y-13347531D02*
X11689944Y-13318960D01*
X11689944Y-13318960D02*
X11680420Y-13271341D01*
X11680420Y-13271341D02*
X11680420Y-13233246D01*
X11680420Y-13233246D02*
X11689944Y-13185627D01*
X11689944Y-13185627D02*
X11699468Y-13157055D01*
X11699468Y-13157055D02*
X11708991Y-13138008D01*
X11708991Y-13138008D02*
X11728039Y-13109436D01*
X11728039Y-13109436D02*
X11737563Y-13099912D01*
X11899468Y-13195150D02*
X11899468Y-13328484D01*
X11851848Y-13118960D02*
X11804229Y-13261817D01*
X11804229Y-13261817D02*
X11928039Y-13261817D01*
X12156610Y-13328484D02*
X12156610Y-13128484D01*
X12242325Y-13328484D02*
X12242325Y-13223722D01*
X12242325Y-13223722D02*
X12232801Y-13204674D01*
X12232801Y-13204674D02*
X12213753Y-13195150D01*
X12213753Y-13195150D02*
X12185182Y-13195150D01*
X12185182Y-13195150D02*
X12166134Y-13204674D01*
X12166134Y-13204674D02*
X12156610Y-13214198D01*
X12366134Y-13328484D02*
X12347087Y-13318960D01*
X12347087Y-13318960D02*
X12337563Y-13309436D01*
X12337563Y-13309436D02*
X12328039Y-13290388D01*
X12328039Y-13290388D02*
X12328039Y-13233246D01*
X12328039Y-13233246D02*
X12337563Y-13214198D01*
X12337563Y-13214198D02*
X12347087Y-13204674D01*
X12347087Y-13204674D02*
X12366134Y-13195150D01*
X12366134Y-13195150D02*
X12394706Y-13195150D01*
X12394706Y-13195150D02*
X12413753Y-13204674D01*
X12413753Y-13204674D02*
X12423277Y-13214198D01*
X12423277Y-13214198D02*
X12432801Y-13233246D01*
X12432801Y-13233246D02*
X12432801Y-13290388D01*
X12432801Y-13290388D02*
X12423277Y-13309436D01*
X12423277Y-13309436D02*
X12413753Y-13318960D01*
X12413753Y-13318960D02*
X12394706Y-13328484D01*
X12394706Y-13328484D02*
X12366134Y-13328484D01*
X12547087Y-13328484D02*
X12528039Y-13318960D01*
X12528039Y-13318960D02*
X12518515Y-13299912D01*
X12518515Y-13299912D02*
X12518515Y-13128484D01*
X12699468Y-13318960D02*
X12680420Y-13328484D01*
X12680420Y-13328484D02*
X12642325Y-13328484D01*
X12642325Y-13328484D02*
X12623277Y-13318960D01*
X12623277Y-13318960D02*
X12613753Y-13299912D01*
X12613753Y-13299912D02*
X12613753Y-13223722D01*
X12613753Y-13223722D02*
X12623277Y-13204674D01*
X12623277Y-13204674D02*
X12642325Y-13195150D01*
X12642325Y-13195150D02*
X12680420Y-13195150D01*
X12680420Y-13195150D02*
X12699468Y-13204674D01*
X12699468Y-13204674D02*
X12708991Y-13223722D01*
X12708991Y-13223722D02*
X12708991Y-13242769D01*
X12708991Y-13242769D02*
X12613753Y-13261817D01*
X12785182Y-13318960D02*
X12804230Y-13328484D01*
X12804230Y-13328484D02*
X12842325Y-13328484D01*
X12842325Y-13328484D02*
X12861372Y-13318960D01*
X12861372Y-13318960D02*
X12870896Y-13299912D01*
X12870896Y-13299912D02*
X12870896Y-13290388D01*
X12870896Y-13290388D02*
X12861372Y-13271341D01*
X12861372Y-13271341D02*
X12842325Y-13261817D01*
X12842325Y-13261817D02*
X12813753Y-13261817D01*
X12813753Y-13261817D02*
X12794706Y-13252293D01*
X12794706Y-13252293D02*
X12785182Y-13233246D01*
X12785182Y-13233246D02*
X12785182Y-13223722D01*
X12785182Y-13223722D02*
X12794706Y-13204674D01*
X12794706Y-13204674D02*
X12813753Y-13195150D01*
X12813753Y-13195150D02*
X12842325Y-13195150D01*
X12842325Y-13195150D02*
X12861372Y-13204674D01*
X12937563Y-13404674D02*
X12947087Y-13395150D01*
X12947087Y-13395150D02*
X12966134Y-13366579D01*
X12966134Y-13366579D02*
X12975658Y-13347531D01*
X12975658Y-13347531D02*
X12985182Y-13318960D01*
X12985182Y-13318960D02*
X12994706Y-13271341D01*
X12994706Y-13271341D02*
X12994706Y-13233246D01*
X12994706Y-13233246D02*
X12985182Y-13185627D01*
X12985182Y-13185627D02*
X12975658Y-13157055D01*
X12975658Y-13157055D02*
X12966134Y-13138008D01*
X12966134Y-13138008D02*
X12947087Y-13109436D01*
X12947087Y-13109436D02*
X12937563Y-13099912D01*
D13*
X8107500Y-13556000D02*
X8162500Y-13501000D01*
X8107500Y-13446000D01*
X8052500Y-13501000D01*
X8107500Y-13556000D01*
D11*
X8528039Y-13592484D02*
X8413753Y-13592484D01*
X8470896Y-13592484D02*
X8470896Y-13392484D01*
X8470896Y-13392484D02*
X8451848Y-13421055D01*
X8451848Y-13421055D02*
X8432801Y-13440103D01*
X8432801Y-13440103D02*
X8413753Y-13449627D01*
X8613753Y-13573436D02*
X8623277Y-13582960D01*
X8623277Y-13582960D02*
X8613753Y-13592484D01*
X8613753Y-13592484D02*
X8604229Y-13582960D01*
X8604229Y-13582960D02*
X8613753Y-13573436D01*
X8613753Y-13573436D02*
X8613753Y-13592484D01*
X8813753Y-13592484D02*
X8699467Y-13592484D01*
X8756610Y-13592484D02*
X8756610Y-13392484D01*
X8756610Y-13392484D02*
X8737563Y-13421055D01*
X8737563Y-13421055D02*
X8718515Y-13440103D01*
X8718515Y-13440103D02*
X8699467Y-13449627D01*
X8937563Y-13392484D02*
X8956610Y-13392484D01*
X8956610Y-13392484D02*
X8975658Y-13402008D01*
X8975658Y-13402008D02*
X8985182Y-13411531D01*
X8985182Y-13411531D02*
X8994705Y-13430579D01*
X8994705Y-13430579D02*
X9004229Y-13468674D01*
X9004229Y-13468674D02*
X9004229Y-13516293D01*
X9004229Y-13516293D02*
X8994705Y-13554388D01*
X8994705Y-13554388D02*
X8985182Y-13573436D01*
X8985182Y-13573436D02*
X8975658Y-13582960D01*
X8975658Y-13582960D02*
X8956610Y-13592484D01*
X8956610Y-13592484D02*
X8937563Y-13592484D01*
X8937563Y-13592484D02*
X8918515Y-13582960D01*
X8918515Y-13582960D02*
X8908991Y-13573436D01*
X8908991Y-13573436D02*
X8899467Y-13554388D01*
X8899467Y-13554388D02*
X8889944Y-13516293D01*
X8889944Y-13516293D02*
X8889944Y-13468674D01*
X8889944Y-13468674D02*
X8899467Y-13430579D01*
X8899467Y-13430579D02*
X8908991Y-13411531D01*
X8908991Y-13411531D02*
X8918515Y-13402008D01*
X8918515Y-13402008D02*
X8937563Y-13392484D01*
X9128039Y-13392484D02*
X9147086Y-13392484D01*
X9147086Y-13392484D02*
X9166134Y-13402008D01*
X9166134Y-13402008D02*
X9175658Y-13411531D01*
X9175658Y-13411531D02*
X9185182Y-13430579D01*
X9185182Y-13430579D02*
X9194705Y-13468674D01*
X9194705Y-13468674D02*
X9194705Y-13516293D01*
X9194705Y-13516293D02*
X9185182Y-13554388D01*
X9185182Y-13554388D02*
X9175658Y-13573436D01*
X9175658Y-13573436D02*
X9166134Y-13582960D01*
X9166134Y-13582960D02*
X9147086Y-13592484D01*
X9147086Y-13592484D02*
X9128039Y-13592484D01*
X9128039Y-13592484D02*
X9108991Y-13582960D01*
X9108991Y-13582960D02*
X9099467Y-13573436D01*
X9099467Y-13573436D02*
X9089944Y-13554388D01*
X9089944Y-13554388D02*
X9080420Y-13516293D01*
X9080420Y-13516293D02*
X9080420Y-13468674D01*
X9080420Y-13468674D02*
X9089944Y-13430579D01*
X9089944Y-13430579D02*
X9099467Y-13411531D01*
X9099467Y-13411531D02*
X9108991Y-13402008D01*
X9108991Y-13402008D02*
X9128039Y-13392484D01*
X9280420Y-13592484D02*
X9280420Y-13459150D01*
X9280420Y-13478198D02*
X9289944Y-13468674D01*
X9289944Y-13468674D02*
X9308991Y-13459150D01*
X9308991Y-13459150D02*
X9337563Y-13459150D01*
X9337563Y-13459150D02*
X9356610Y-13468674D01*
X9356610Y-13468674D02*
X9366134Y-13487722D01*
X9366134Y-13487722D02*
X9366134Y-13592484D01*
X9366134Y-13487722D02*
X9375658Y-13468674D01*
X9375658Y-13468674D02*
X9394705Y-13459150D01*
X9394705Y-13459150D02*
X9423277Y-13459150D01*
X9423277Y-13459150D02*
X9442325Y-13468674D01*
X9442325Y-13468674D02*
X9451848Y-13487722D01*
X9451848Y-13487722D02*
X9451848Y-13592484D01*
X9547086Y-13592484D02*
X9547086Y-13459150D01*
X9547086Y-13478198D02*
X9556610Y-13468674D01*
X9556610Y-13468674D02*
X9575658Y-13459150D01*
X9575658Y-13459150D02*
X9604229Y-13459150D01*
X9604229Y-13459150D02*
X9623277Y-13468674D01*
X9623277Y-13468674D02*
X9632801Y-13487722D01*
X9632801Y-13487722D02*
X9632801Y-13592484D01*
X9632801Y-13487722D02*
X9642325Y-13468674D01*
X9642325Y-13468674D02*
X9661372Y-13459150D01*
X9661372Y-13459150D02*
X9689944Y-13459150D01*
X9689944Y-13459150D02*
X9708991Y-13468674D01*
X9708991Y-13468674D02*
X9718515Y-13487722D01*
X9718515Y-13487722D02*
X9718515Y-13592484D01*
X10108991Y-13382960D02*
X9937563Y-13640103D01*
X10366134Y-13392484D02*
X10385182Y-13392484D01*
X10385182Y-13392484D02*
X10404229Y-13402008D01*
X10404229Y-13402008D02*
X10413753Y-13411531D01*
X10413753Y-13411531D02*
X10423277Y-13430579D01*
X10423277Y-13430579D02*
X10432801Y-13468674D01*
X10432801Y-13468674D02*
X10432801Y-13516293D01*
X10432801Y-13516293D02*
X10423277Y-13554388D01*
X10423277Y-13554388D02*
X10413753Y-13573436D01*
X10413753Y-13573436D02*
X10404229Y-13582960D01*
X10404229Y-13582960D02*
X10385182Y-13592484D01*
X10385182Y-13592484D02*
X10366134Y-13592484D01*
X10366134Y-13592484D02*
X10347087Y-13582960D01*
X10347087Y-13582960D02*
X10337563Y-13573436D01*
X10337563Y-13573436D02*
X10328039Y-13554388D01*
X10328039Y-13554388D02*
X10318515Y-13516293D01*
X10318515Y-13516293D02*
X10318515Y-13468674D01*
X10318515Y-13468674D02*
X10328039Y-13430579D01*
X10328039Y-13430579D02*
X10337563Y-13411531D01*
X10337563Y-13411531D02*
X10347087Y-13402008D01*
X10347087Y-13402008D02*
X10366134Y-13392484D01*
X10518515Y-13573436D02*
X10528039Y-13582960D01*
X10528039Y-13582960D02*
X10518515Y-13592484D01*
X10518515Y-13592484D02*
X10508991Y-13582960D01*
X10508991Y-13582960D02*
X10518515Y-13573436D01*
X10518515Y-13573436D02*
X10518515Y-13592484D01*
X10651848Y-13392484D02*
X10670896Y-13392484D01*
X10670896Y-13392484D02*
X10689944Y-13402008D01*
X10689944Y-13402008D02*
X10699468Y-13411531D01*
X10699468Y-13411531D02*
X10708991Y-13430579D01*
X10708991Y-13430579D02*
X10718515Y-13468674D01*
X10718515Y-13468674D02*
X10718515Y-13516293D01*
X10718515Y-13516293D02*
X10708991Y-13554388D01*
X10708991Y-13554388D02*
X10699468Y-13573436D01*
X10699468Y-13573436D02*
X10689944Y-13582960D01*
X10689944Y-13582960D02*
X10670896Y-13592484D01*
X10670896Y-13592484D02*
X10651848Y-13592484D01*
X10651848Y-13592484D02*
X10632801Y-13582960D01*
X10632801Y-13582960D02*
X10623277Y-13573436D01*
X10623277Y-13573436D02*
X10613753Y-13554388D01*
X10613753Y-13554388D02*
X10604229Y-13516293D01*
X10604229Y-13516293D02*
X10604229Y-13468674D01*
X10604229Y-13468674D02*
X10613753Y-13430579D01*
X10613753Y-13430579D02*
X10623277Y-13411531D01*
X10623277Y-13411531D02*
X10632801Y-13402008D01*
X10632801Y-13402008D02*
X10651848Y-13392484D01*
X10889944Y-13459150D02*
X10889944Y-13592484D01*
X10842325Y-13382960D02*
X10794706Y-13525817D01*
X10794706Y-13525817D02*
X10918515Y-13525817D01*
X10975658Y-13392484D02*
X11099468Y-13392484D01*
X11099468Y-13392484D02*
X11032801Y-13468674D01*
X11032801Y-13468674D02*
X11061372Y-13468674D01*
X11061372Y-13468674D02*
X11080420Y-13478198D01*
X11080420Y-13478198D02*
X11089944Y-13487722D01*
X11089944Y-13487722D02*
X11099468Y-13506769D01*
X11099468Y-13506769D02*
X11099468Y-13554388D01*
X11099468Y-13554388D02*
X11089944Y-13573436D01*
X11089944Y-13573436D02*
X11080420Y-13582960D01*
X11080420Y-13582960D02*
X11061372Y-13592484D01*
X11061372Y-13592484D02*
X11004229Y-13592484D01*
X11004229Y-13592484D02*
X10985182Y-13582960D01*
X10985182Y-13582960D02*
X10975658Y-13573436D01*
X11166134Y-13392484D02*
X11289944Y-13392484D01*
X11289944Y-13392484D02*
X11223277Y-13468674D01*
X11223277Y-13468674D02*
X11251848Y-13468674D01*
X11251848Y-13468674D02*
X11270896Y-13478198D01*
X11270896Y-13478198D02*
X11280420Y-13487722D01*
X11280420Y-13487722D02*
X11289944Y-13506769D01*
X11289944Y-13506769D02*
X11289944Y-13554388D01*
X11289944Y-13554388D02*
X11280420Y-13573436D01*
X11280420Y-13573436D02*
X11270896Y-13582960D01*
X11270896Y-13582960D02*
X11251848Y-13592484D01*
X11251848Y-13592484D02*
X11194706Y-13592484D01*
X11194706Y-13592484D02*
X11175658Y-13582960D01*
X11175658Y-13582960D02*
X11166134Y-13573436D01*
X11366134Y-13392484D02*
X11366134Y-13430579D01*
X11442325Y-13392484D02*
X11442325Y-13430579D01*
X11737563Y-13668674D02*
X11728039Y-13659150D01*
X11728039Y-13659150D02*
X11708991Y-13630579D01*
X11708991Y-13630579D02*
X11699468Y-13611531D01*
X11699468Y-13611531D02*
X11689944Y-13582960D01*
X11689944Y-13582960D02*
X11680420Y-13535341D01*
X11680420Y-13535341D02*
X11680420Y-13497246D01*
X11680420Y-13497246D02*
X11689944Y-13449627D01*
X11689944Y-13449627D02*
X11699468Y-13421055D01*
X11699468Y-13421055D02*
X11708991Y-13402008D01*
X11708991Y-13402008D02*
X11728039Y-13373436D01*
X11728039Y-13373436D02*
X11737563Y-13363912D01*
X11842325Y-13478198D02*
X11823277Y-13468674D01*
X11823277Y-13468674D02*
X11813753Y-13459150D01*
X11813753Y-13459150D02*
X11804229Y-13440103D01*
X11804229Y-13440103D02*
X11804229Y-13430579D01*
X11804229Y-13430579D02*
X11813753Y-13411531D01*
X11813753Y-13411531D02*
X11823277Y-13402008D01*
X11823277Y-13402008D02*
X11842325Y-13392484D01*
X11842325Y-13392484D02*
X11880420Y-13392484D01*
X11880420Y-13392484D02*
X11899468Y-13402008D01*
X11899468Y-13402008D02*
X11908991Y-13411531D01*
X11908991Y-13411531D02*
X11918515Y-13430579D01*
X11918515Y-13430579D02*
X11918515Y-13440103D01*
X11918515Y-13440103D02*
X11908991Y-13459150D01*
X11908991Y-13459150D02*
X11899468Y-13468674D01*
X11899468Y-13468674D02*
X11880420Y-13478198D01*
X11880420Y-13478198D02*
X11842325Y-13478198D01*
X11842325Y-13478198D02*
X11823277Y-13487722D01*
X11823277Y-13487722D02*
X11813753Y-13497246D01*
X11813753Y-13497246D02*
X11804229Y-13516293D01*
X11804229Y-13516293D02*
X11804229Y-13554388D01*
X11804229Y-13554388D02*
X11813753Y-13573436D01*
X11813753Y-13573436D02*
X11823277Y-13582960D01*
X11823277Y-13582960D02*
X11842325Y-13592484D01*
X11842325Y-13592484D02*
X11880420Y-13592484D01*
X11880420Y-13592484D02*
X11899468Y-13582960D01*
X11899468Y-13582960D02*
X11908991Y-13573436D01*
X11908991Y-13573436D02*
X11918515Y-13554388D01*
X11918515Y-13554388D02*
X11918515Y-13516293D01*
X11918515Y-13516293D02*
X11908991Y-13497246D01*
X11908991Y-13497246D02*
X11899468Y-13487722D01*
X11899468Y-13487722D02*
X11880420Y-13478198D01*
X12156610Y-13592484D02*
X12156610Y-13392484D01*
X12242325Y-13592484D02*
X12242325Y-13487722D01*
X12242325Y-13487722D02*
X12232801Y-13468674D01*
X12232801Y-13468674D02*
X12213753Y-13459150D01*
X12213753Y-13459150D02*
X12185182Y-13459150D01*
X12185182Y-13459150D02*
X12166134Y-13468674D01*
X12166134Y-13468674D02*
X12156610Y-13478198D01*
X12366134Y-13592484D02*
X12347087Y-13582960D01*
X12347087Y-13582960D02*
X12337563Y-13573436D01*
X12337563Y-13573436D02*
X12328039Y-13554388D01*
X12328039Y-13554388D02*
X12328039Y-13497246D01*
X12328039Y-13497246D02*
X12337563Y-13478198D01*
X12337563Y-13478198D02*
X12347087Y-13468674D01*
X12347087Y-13468674D02*
X12366134Y-13459150D01*
X12366134Y-13459150D02*
X12394706Y-13459150D01*
X12394706Y-13459150D02*
X12413753Y-13468674D01*
X12413753Y-13468674D02*
X12423277Y-13478198D01*
X12423277Y-13478198D02*
X12432801Y-13497246D01*
X12432801Y-13497246D02*
X12432801Y-13554388D01*
X12432801Y-13554388D02*
X12423277Y-13573436D01*
X12423277Y-13573436D02*
X12413753Y-13582960D01*
X12413753Y-13582960D02*
X12394706Y-13592484D01*
X12394706Y-13592484D02*
X12366134Y-13592484D01*
X12547087Y-13592484D02*
X12528039Y-13582960D01*
X12528039Y-13582960D02*
X12518515Y-13563912D01*
X12518515Y-13563912D02*
X12518515Y-13392484D01*
X12699468Y-13582960D02*
X12680420Y-13592484D01*
X12680420Y-13592484D02*
X12642325Y-13592484D01*
X12642325Y-13592484D02*
X12623277Y-13582960D01*
X12623277Y-13582960D02*
X12613753Y-13563912D01*
X12613753Y-13563912D02*
X12613753Y-13487722D01*
X12613753Y-13487722D02*
X12623277Y-13468674D01*
X12623277Y-13468674D02*
X12642325Y-13459150D01*
X12642325Y-13459150D02*
X12680420Y-13459150D01*
X12680420Y-13459150D02*
X12699468Y-13468674D01*
X12699468Y-13468674D02*
X12708991Y-13487722D01*
X12708991Y-13487722D02*
X12708991Y-13506769D01*
X12708991Y-13506769D02*
X12613753Y-13525817D01*
X12785182Y-13582960D02*
X12804230Y-13592484D01*
X12804230Y-13592484D02*
X12842325Y-13592484D01*
X12842325Y-13592484D02*
X12861372Y-13582960D01*
X12861372Y-13582960D02*
X12870896Y-13563912D01*
X12870896Y-13563912D02*
X12870896Y-13554388D01*
X12870896Y-13554388D02*
X12861372Y-13535341D01*
X12861372Y-13535341D02*
X12842325Y-13525817D01*
X12842325Y-13525817D02*
X12813753Y-13525817D01*
X12813753Y-13525817D02*
X12794706Y-13516293D01*
X12794706Y-13516293D02*
X12785182Y-13497246D01*
X12785182Y-13497246D02*
X12785182Y-13487722D01*
X12785182Y-13487722D02*
X12794706Y-13468674D01*
X12794706Y-13468674D02*
X12813753Y-13459150D01*
X12813753Y-13459150D02*
X12842325Y-13459150D01*
X12842325Y-13459150D02*
X12861372Y-13468674D01*
X12937563Y-13668674D02*
X12947087Y-13659150D01*
X12947087Y-13659150D02*
X12966134Y-13630579D01*
X12966134Y-13630579D02*
X12975658Y-13611531D01*
X12975658Y-13611531D02*
X12985182Y-13582960D01*
X12985182Y-13582960D02*
X12994706Y-13535341D01*
X12994706Y-13535341D02*
X12994706Y-13497246D01*
X12994706Y-13497246D02*
X12985182Y-13449627D01*
X12985182Y-13449627D02*
X12975658Y-13421055D01*
X12975658Y-13421055D02*
X12966134Y-13402008D01*
X12966134Y-13402008D02*
X12947087Y-13373436D01*
X12947087Y-13373436D02*
X12937563Y-13363912D01*
D14*
X8032500Y-13700000D02*
X8162500Y-13830000D01*
X8162500Y-13700000D02*
X8032500Y-13830000D01*
X8162500Y-13765000D02*
G75*
G03*
X8032500Y-13765000I-65000J0D01*
G01*
X8032500Y-13765000D02*
G75*
G03*
X8162500Y-13765000I65000J0D01*
G01*
D11*
X8528039Y-13856484D02*
X8413753Y-13856484D01*
X8470896Y-13856484D02*
X8470896Y-13656484D01*
X8470896Y-13656484D02*
X8451848Y-13685055D01*
X8451848Y-13685055D02*
X8432801Y-13704103D01*
X8432801Y-13704103D02*
X8413753Y-13713627D01*
X8613753Y-13837436D02*
X8623277Y-13846960D01*
X8623277Y-13846960D02*
X8613753Y-13856484D01*
X8613753Y-13856484D02*
X8604229Y-13846960D01*
X8604229Y-13846960D02*
X8613753Y-13837436D01*
X8613753Y-13837436D02*
X8613753Y-13856484D01*
X8689944Y-13656484D02*
X8813753Y-13656484D01*
X8813753Y-13656484D02*
X8747086Y-13732674D01*
X8747086Y-13732674D02*
X8775658Y-13732674D01*
X8775658Y-13732674D02*
X8794705Y-13742198D01*
X8794705Y-13742198D02*
X8804229Y-13751722D01*
X8804229Y-13751722D02*
X8813753Y-13770769D01*
X8813753Y-13770769D02*
X8813753Y-13818388D01*
X8813753Y-13818388D02*
X8804229Y-13837436D01*
X8804229Y-13837436D02*
X8794705Y-13846960D01*
X8794705Y-13846960D02*
X8775658Y-13856484D01*
X8775658Y-13856484D02*
X8718515Y-13856484D01*
X8718515Y-13856484D02*
X8699467Y-13846960D01*
X8699467Y-13846960D02*
X8689944Y-13837436D01*
X8937563Y-13656484D02*
X8956610Y-13656484D01*
X8956610Y-13656484D02*
X8975658Y-13666008D01*
X8975658Y-13666008D02*
X8985182Y-13675531D01*
X8985182Y-13675531D02*
X8994705Y-13694579D01*
X8994705Y-13694579D02*
X9004229Y-13732674D01*
X9004229Y-13732674D02*
X9004229Y-13780293D01*
X9004229Y-13780293D02*
X8994705Y-13818388D01*
X8994705Y-13818388D02*
X8985182Y-13837436D01*
X8985182Y-13837436D02*
X8975658Y-13846960D01*
X8975658Y-13846960D02*
X8956610Y-13856484D01*
X8956610Y-13856484D02*
X8937563Y-13856484D01*
X8937563Y-13856484D02*
X8918515Y-13846960D01*
X8918515Y-13846960D02*
X8908991Y-13837436D01*
X8908991Y-13837436D02*
X8899467Y-13818388D01*
X8899467Y-13818388D02*
X8889944Y-13780293D01*
X8889944Y-13780293D02*
X8889944Y-13732674D01*
X8889944Y-13732674D02*
X8899467Y-13694579D01*
X8899467Y-13694579D02*
X8908991Y-13675531D01*
X8908991Y-13675531D02*
X8918515Y-13666008D01*
X8918515Y-13666008D02*
X8937563Y-13656484D01*
X9128039Y-13656484D02*
X9147086Y-13656484D01*
X9147086Y-13656484D02*
X9166134Y-13666008D01*
X9166134Y-13666008D02*
X9175658Y-13675531D01*
X9175658Y-13675531D02*
X9185182Y-13694579D01*
X9185182Y-13694579D02*
X9194705Y-13732674D01*
X9194705Y-13732674D02*
X9194705Y-13780293D01*
X9194705Y-13780293D02*
X9185182Y-13818388D01*
X9185182Y-13818388D02*
X9175658Y-13837436D01*
X9175658Y-13837436D02*
X9166134Y-13846960D01*
X9166134Y-13846960D02*
X9147086Y-13856484D01*
X9147086Y-13856484D02*
X9128039Y-13856484D01*
X9128039Y-13856484D02*
X9108991Y-13846960D01*
X9108991Y-13846960D02*
X9099467Y-13837436D01*
X9099467Y-13837436D02*
X9089944Y-13818388D01*
X9089944Y-13818388D02*
X9080420Y-13780293D01*
X9080420Y-13780293D02*
X9080420Y-13732674D01*
X9080420Y-13732674D02*
X9089944Y-13694579D01*
X9089944Y-13694579D02*
X9099467Y-13675531D01*
X9099467Y-13675531D02*
X9108991Y-13666008D01*
X9108991Y-13666008D02*
X9128039Y-13656484D01*
X9280420Y-13856484D02*
X9280420Y-13723150D01*
X9280420Y-13742198D02*
X9289944Y-13732674D01*
X9289944Y-13732674D02*
X9308991Y-13723150D01*
X9308991Y-13723150D02*
X9337563Y-13723150D01*
X9337563Y-13723150D02*
X9356610Y-13732674D01*
X9356610Y-13732674D02*
X9366134Y-13751722D01*
X9366134Y-13751722D02*
X9366134Y-13856484D01*
X9366134Y-13751722D02*
X9375658Y-13732674D01*
X9375658Y-13732674D02*
X9394705Y-13723150D01*
X9394705Y-13723150D02*
X9423277Y-13723150D01*
X9423277Y-13723150D02*
X9442325Y-13732674D01*
X9442325Y-13732674D02*
X9451848Y-13751722D01*
X9451848Y-13751722D02*
X9451848Y-13856484D01*
X9547086Y-13856484D02*
X9547086Y-13723150D01*
X9547086Y-13742198D02*
X9556610Y-13732674D01*
X9556610Y-13732674D02*
X9575658Y-13723150D01*
X9575658Y-13723150D02*
X9604229Y-13723150D01*
X9604229Y-13723150D02*
X9623277Y-13732674D01*
X9623277Y-13732674D02*
X9632801Y-13751722D01*
X9632801Y-13751722D02*
X9632801Y-13856484D01*
X9632801Y-13751722D02*
X9642325Y-13732674D01*
X9642325Y-13732674D02*
X9661372Y-13723150D01*
X9661372Y-13723150D02*
X9689944Y-13723150D01*
X9689944Y-13723150D02*
X9708991Y-13732674D01*
X9708991Y-13732674D02*
X9718515Y-13751722D01*
X9718515Y-13751722D02*
X9718515Y-13856484D01*
X10108991Y-13646960D02*
X9937563Y-13904103D01*
X10366134Y-13656484D02*
X10385182Y-13656484D01*
X10385182Y-13656484D02*
X10404229Y-13666008D01*
X10404229Y-13666008D02*
X10413753Y-13675531D01*
X10413753Y-13675531D02*
X10423277Y-13694579D01*
X10423277Y-13694579D02*
X10432801Y-13732674D01*
X10432801Y-13732674D02*
X10432801Y-13780293D01*
X10432801Y-13780293D02*
X10423277Y-13818388D01*
X10423277Y-13818388D02*
X10413753Y-13837436D01*
X10413753Y-13837436D02*
X10404229Y-13846960D01*
X10404229Y-13846960D02*
X10385182Y-13856484D01*
X10385182Y-13856484D02*
X10366134Y-13856484D01*
X10366134Y-13856484D02*
X10347087Y-13846960D01*
X10347087Y-13846960D02*
X10337563Y-13837436D01*
X10337563Y-13837436D02*
X10328039Y-13818388D01*
X10328039Y-13818388D02*
X10318515Y-13780293D01*
X10318515Y-13780293D02*
X10318515Y-13732674D01*
X10318515Y-13732674D02*
X10328039Y-13694579D01*
X10328039Y-13694579D02*
X10337563Y-13675531D01*
X10337563Y-13675531D02*
X10347087Y-13666008D01*
X10347087Y-13666008D02*
X10366134Y-13656484D01*
X10518515Y-13837436D02*
X10528039Y-13846960D01*
X10528039Y-13846960D02*
X10518515Y-13856484D01*
X10518515Y-13856484D02*
X10508991Y-13846960D01*
X10508991Y-13846960D02*
X10518515Y-13837436D01*
X10518515Y-13837436D02*
X10518515Y-13856484D01*
X10651848Y-13656484D02*
X10670896Y-13656484D01*
X10670896Y-13656484D02*
X10689944Y-13666008D01*
X10689944Y-13666008D02*
X10699468Y-13675531D01*
X10699468Y-13675531D02*
X10708991Y-13694579D01*
X10708991Y-13694579D02*
X10718515Y-13732674D01*
X10718515Y-13732674D02*
X10718515Y-13780293D01*
X10718515Y-13780293D02*
X10708991Y-13818388D01*
X10708991Y-13818388D02*
X10699468Y-13837436D01*
X10699468Y-13837436D02*
X10689944Y-13846960D01*
X10689944Y-13846960D02*
X10670896Y-13856484D01*
X10670896Y-13856484D02*
X10651848Y-13856484D01*
X10651848Y-13856484D02*
X10632801Y-13846960D01*
X10632801Y-13846960D02*
X10623277Y-13837436D01*
X10623277Y-13837436D02*
X10613753Y-13818388D01*
X10613753Y-13818388D02*
X10604229Y-13780293D01*
X10604229Y-13780293D02*
X10604229Y-13732674D01*
X10604229Y-13732674D02*
X10613753Y-13694579D01*
X10613753Y-13694579D02*
X10623277Y-13675531D01*
X10623277Y-13675531D02*
X10632801Y-13666008D01*
X10632801Y-13666008D02*
X10651848Y-13656484D01*
X10899468Y-13656484D02*
X10804229Y-13656484D01*
X10804229Y-13656484D02*
X10794706Y-13751722D01*
X10794706Y-13751722D02*
X10804229Y-13742198D01*
X10804229Y-13742198D02*
X10823277Y-13732674D01*
X10823277Y-13732674D02*
X10870896Y-13732674D01*
X10870896Y-13732674D02*
X10889944Y-13742198D01*
X10889944Y-13742198D02*
X10899468Y-13751722D01*
X10899468Y-13751722D02*
X10908991Y-13770769D01*
X10908991Y-13770769D02*
X10908991Y-13818388D01*
X10908991Y-13818388D02*
X10899468Y-13837436D01*
X10899468Y-13837436D02*
X10889944Y-13846960D01*
X10889944Y-13846960D02*
X10870896Y-13856484D01*
X10870896Y-13856484D02*
X10823277Y-13856484D01*
X10823277Y-13856484D02*
X10804229Y-13846960D01*
X10804229Y-13846960D02*
X10794706Y-13837436D01*
X11099468Y-13856484D02*
X10985182Y-13856484D01*
X11042325Y-13856484D02*
X11042325Y-13656484D01*
X11042325Y-13656484D02*
X11023277Y-13685055D01*
X11023277Y-13685055D02*
X11004229Y-13704103D01*
X11004229Y-13704103D02*
X10985182Y-13713627D01*
X11175658Y-13675531D02*
X11185182Y-13666008D01*
X11185182Y-13666008D02*
X11204229Y-13656484D01*
X11204229Y-13656484D02*
X11251848Y-13656484D01*
X11251848Y-13656484D02*
X11270896Y-13666008D01*
X11270896Y-13666008D02*
X11280420Y-13675531D01*
X11280420Y-13675531D02*
X11289944Y-13694579D01*
X11289944Y-13694579D02*
X11289944Y-13713627D01*
X11289944Y-13713627D02*
X11280420Y-13742198D01*
X11280420Y-13742198D02*
X11166134Y-13856484D01*
X11166134Y-13856484D02*
X11289944Y-13856484D01*
X11366134Y-13656484D02*
X11366134Y-13694579D01*
X11442325Y-13656484D02*
X11442325Y-13694579D01*
X11737563Y-13932674D02*
X11728039Y-13923150D01*
X11728039Y-13923150D02*
X11708991Y-13894579D01*
X11708991Y-13894579D02*
X11699468Y-13875531D01*
X11699468Y-13875531D02*
X11689944Y-13846960D01*
X11689944Y-13846960D02*
X11680420Y-13799341D01*
X11680420Y-13799341D02*
X11680420Y-13761246D01*
X11680420Y-13761246D02*
X11689944Y-13713627D01*
X11689944Y-13713627D02*
X11699468Y-13685055D01*
X11699468Y-13685055D02*
X11708991Y-13666008D01*
X11708991Y-13666008D02*
X11728039Y-13637436D01*
X11728039Y-13637436D02*
X11737563Y-13627912D01*
X11899468Y-13723150D02*
X11899468Y-13856484D01*
X11851848Y-13646960D02*
X11804229Y-13789817D01*
X11804229Y-13789817D02*
X11928039Y-13789817D01*
X12156610Y-13856484D02*
X12156610Y-13656484D01*
X12242325Y-13856484D02*
X12242325Y-13751722D01*
X12242325Y-13751722D02*
X12232801Y-13732674D01*
X12232801Y-13732674D02*
X12213753Y-13723150D01*
X12213753Y-13723150D02*
X12185182Y-13723150D01*
X12185182Y-13723150D02*
X12166134Y-13732674D01*
X12166134Y-13732674D02*
X12156610Y-13742198D01*
X12366134Y-13856484D02*
X12347087Y-13846960D01*
X12347087Y-13846960D02*
X12337563Y-13837436D01*
X12337563Y-13837436D02*
X12328039Y-13818388D01*
X12328039Y-13818388D02*
X12328039Y-13761246D01*
X12328039Y-13761246D02*
X12337563Y-13742198D01*
X12337563Y-13742198D02*
X12347087Y-13732674D01*
X12347087Y-13732674D02*
X12366134Y-13723150D01*
X12366134Y-13723150D02*
X12394706Y-13723150D01*
X12394706Y-13723150D02*
X12413753Y-13732674D01*
X12413753Y-13732674D02*
X12423277Y-13742198D01*
X12423277Y-13742198D02*
X12432801Y-13761246D01*
X12432801Y-13761246D02*
X12432801Y-13818388D01*
X12432801Y-13818388D02*
X12423277Y-13837436D01*
X12423277Y-13837436D02*
X12413753Y-13846960D01*
X12413753Y-13846960D02*
X12394706Y-13856484D01*
X12394706Y-13856484D02*
X12366134Y-13856484D01*
X12547087Y-13856484D02*
X12528039Y-13846960D01*
X12528039Y-13846960D02*
X12518515Y-13827912D01*
X12518515Y-13827912D02*
X12518515Y-13656484D01*
X12699468Y-13846960D02*
X12680420Y-13856484D01*
X12680420Y-13856484D02*
X12642325Y-13856484D01*
X12642325Y-13856484D02*
X12623277Y-13846960D01*
X12623277Y-13846960D02*
X12613753Y-13827912D01*
X12613753Y-13827912D02*
X12613753Y-13751722D01*
X12613753Y-13751722D02*
X12623277Y-13732674D01*
X12623277Y-13732674D02*
X12642325Y-13723150D01*
X12642325Y-13723150D02*
X12680420Y-13723150D01*
X12680420Y-13723150D02*
X12699468Y-13732674D01*
X12699468Y-13732674D02*
X12708991Y-13751722D01*
X12708991Y-13751722D02*
X12708991Y-13770769D01*
X12708991Y-13770769D02*
X12613753Y-13789817D01*
X12785182Y-13846960D02*
X12804230Y-13856484D01*
X12804230Y-13856484D02*
X12842325Y-13856484D01*
X12842325Y-13856484D02*
X12861372Y-13846960D01*
X12861372Y-13846960D02*
X12870896Y-13827912D01*
X12870896Y-13827912D02*
X12870896Y-13818388D01*
X12870896Y-13818388D02*
X12861372Y-13799341D01*
X12861372Y-13799341D02*
X12842325Y-13789817D01*
X12842325Y-13789817D02*
X12813753Y-13789817D01*
X12813753Y-13789817D02*
X12794706Y-13780293D01*
X12794706Y-13780293D02*
X12785182Y-13761246D01*
X12785182Y-13761246D02*
X12785182Y-13751722D01*
X12785182Y-13751722D02*
X12794706Y-13732674D01*
X12794706Y-13732674D02*
X12813753Y-13723150D01*
X12813753Y-13723150D02*
X12842325Y-13723150D01*
X12842325Y-13723150D02*
X12861372Y-13732674D01*
X12937563Y-13932674D02*
X12947087Y-13923150D01*
X12947087Y-13923150D02*
X12966134Y-13894579D01*
X12966134Y-13894579D02*
X12975658Y-13875531D01*
X12975658Y-13875531D02*
X12985182Y-13846960D01*
X12985182Y-13846960D02*
X12994706Y-13799341D01*
X12994706Y-13799341D02*
X12994706Y-13761246D01*
X12994706Y-13761246D02*
X12985182Y-13713627D01*
X12985182Y-13713627D02*
X12975658Y-13685055D01*
X12975658Y-13685055D02*
X12966134Y-13666008D01*
X12966134Y-13666008D02*
X12947087Y-13637436D01*
X12947087Y-13637436D02*
X12937563Y-13627912D01*
D15*
X7992320Y-13943910D02*
X8162500Y-14114090D01*
X8162500Y-13943910D02*
X7992320Y-14114090D01*
X8077410Y-13943910D02*
X8077410Y-14114090D01*
X7992320Y-14029000D02*
X8162500Y-14029000D01*
D11*
X8528039Y-14120484D02*
X8413753Y-14120484D01*
X8470896Y-14120484D02*
X8470896Y-13920484D01*
X8470896Y-13920484D02*
X8451848Y-13949055D01*
X8451848Y-13949055D02*
X8432801Y-13968103D01*
X8432801Y-13968103D02*
X8413753Y-13977627D01*
X8613753Y-14101436D02*
X8623277Y-14110960D01*
X8623277Y-14110960D02*
X8613753Y-14120484D01*
X8613753Y-14120484D02*
X8604229Y-14110960D01*
X8604229Y-14110960D02*
X8613753Y-14101436D01*
X8613753Y-14101436D02*
X8613753Y-14120484D01*
X8689944Y-13920484D02*
X8823277Y-13920484D01*
X8823277Y-13920484D02*
X8737563Y-14120484D01*
X8937563Y-13920484D02*
X8956610Y-13920484D01*
X8956610Y-13920484D02*
X8975658Y-13930008D01*
X8975658Y-13930008D02*
X8985182Y-13939531D01*
X8985182Y-13939531D02*
X8994705Y-13958579D01*
X8994705Y-13958579D02*
X9004229Y-13996674D01*
X9004229Y-13996674D02*
X9004229Y-14044293D01*
X9004229Y-14044293D02*
X8994705Y-14082388D01*
X8994705Y-14082388D02*
X8985182Y-14101436D01*
X8985182Y-14101436D02*
X8975658Y-14110960D01*
X8975658Y-14110960D02*
X8956610Y-14120484D01*
X8956610Y-14120484D02*
X8937563Y-14120484D01*
X8937563Y-14120484D02*
X8918515Y-14110960D01*
X8918515Y-14110960D02*
X8908991Y-14101436D01*
X8908991Y-14101436D02*
X8899467Y-14082388D01*
X8899467Y-14082388D02*
X8889944Y-14044293D01*
X8889944Y-14044293D02*
X8889944Y-13996674D01*
X8889944Y-13996674D02*
X8899467Y-13958579D01*
X8899467Y-13958579D02*
X8908991Y-13939531D01*
X8908991Y-13939531D02*
X8918515Y-13930008D01*
X8918515Y-13930008D02*
X8937563Y-13920484D01*
X9080420Y-13939531D02*
X9089944Y-13930008D01*
X9089944Y-13930008D02*
X9108991Y-13920484D01*
X9108991Y-13920484D02*
X9156610Y-13920484D01*
X9156610Y-13920484D02*
X9175658Y-13930008D01*
X9175658Y-13930008D02*
X9185182Y-13939531D01*
X9185182Y-13939531D02*
X9194705Y-13958579D01*
X9194705Y-13958579D02*
X9194705Y-13977627D01*
X9194705Y-13977627D02*
X9185182Y-14006198D01*
X9185182Y-14006198D02*
X9070896Y-14120484D01*
X9070896Y-14120484D02*
X9194705Y-14120484D01*
X9280420Y-14120484D02*
X9280420Y-13987150D01*
X9280420Y-14006198D02*
X9289944Y-13996674D01*
X9289944Y-13996674D02*
X9308991Y-13987150D01*
X9308991Y-13987150D02*
X9337563Y-13987150D01*
X9337563Y-13987150D02*
X9356610Y-13996674D01*
X9356610Y-13996674D02*
X9366134Y-14015722D01*
X9366134Y-14015722D02*
X9366134Y-14120484D01*
X9366134Y-14015722D02*
X9375658Y-13996674D01*
X9375658Y-13996674D02*
X9394705Y-13987150D01*
X9394705Y-13987150D02*
X9423277Y-13987150D01*
X9423277Y-13987150D02*
X9442325Y-13996674D01*
X9442325Y-13996674D02*
X9451848Y-14015722D01*
X9451848Y-14015722D02*
X9451848Y-14120484D01*
X9547086Y-14120484D02*
X9547086Y-13987150D01*
X9547086Y-14006198D02*
X9556610Y-13996674D01*
X9556610Y-13996674D02*
X9575658Y-13987150D01*
X9575658Y-13987150D02*
X9604229Y-13987150D01*
X9604229Y-13987150D02*
X9623277Y-13996674D01*
X9623277Y-13996674D02*
X9632801Y-14015722D01*
X9632801Y-14015722D02*
X9632801Y-14120484D01*
X9632801Y-14015722D02*
X9642325Y-13996674D01*
X9642325Y-13996674D02*
X9661372Y-13987150D01*
X9661372Y-13987150D02*
X9689944Y-13987150D01*
X9689944Y-13987150D02*
X9708991Y-13996674D01*
X9708991Y-13996674D02*
X9718515Y-14015722D01*
X9718515Y-14015722D02*
X9718515Y-14120484D01*
X10108991Y-13910960D02*
X9937563Y-14168103D01*
X10366134Y-13920484D02*
X10385182Y-13920484D01*
X10385182Y-13920484D02*
X10404229Y-13930008D01*
X10404229Y-13930008D02*
X10413753Y-13939531D01*
X10413753Y-13939531D02*
X10423277Y-13958579D01*
X10423277Y-13958579D02*
X10432801Y-13996674D01*
X10432801Y-13996674D02*
X10432801Y-14044293D01*
X10432801Y-14044293D02*
X10423277Y-14082388D01*
X10423277Y-14082388D02*
X10413753Y-14101436D01*
X10413753Y-14101436D02*
X10404229Y-14110960D01*
X10404229Y-14110960D02*
X10385182Y-14120484D01*
X10385182Y-14120484D02*
X10366134Y-14120484D01*
X10366134Y-14120484D02*
X10347087Y-14110960D01*
X10347087Y-14110960D02*
X10337563Y-14101436D01*
X10337563Y-14101436D02*
X10328039Y-14082388D01*
X10328039Y-14082388D02*
X10318515Y-14044293D01*
X10318515Y-14044293D02*
X10318515Y-13996674D01*
X10318515Y-13996674D02*
X10328039Y-13958579D01*
X10328039Y-13958579D02*
X10337563Y-13939531D01*
X10337563Y-13939531D02*
X10347087Y-13930008D01*
X10347087Y-13930008D02*
X10366134Y-13920484D01*
X10518515Y-14101436D02*
X10528039Y-14110960D01*
X10528039Y-14110960D02*
X10518515Y-14120484D01*
X10518515Y-14120484D02*
X10508991Y-14110960D01*
X10508991Y-14110960D02*
X10518515Y-14101436D01*
X10518515Y-14101436D02*
X10518515Y-14120484D01*
X10651848Y-13920484D02*
X10670896Y-13920484D01*
X10670896Y-13920484D02*
X10689944Y-13930008D01*
X10689944Y-13930008D02*
X10699468Y-13939531D01*
X10699468Y-13939531D02*
X10708991Y-13958579D01*
X10708991Y-13958579D02*
X10718515Y-13996674D01*
X10718515Y-13996674D02*
X10718515Y-14044293D01*
X10718515Y-14044293D02*
X10708991Y-14082388D01*
X10708991Y-14082388D02*
X10699468Y-14101436D01*
X10699468Y-14101436D02*
X10689944Y-14110960D01*
X10689944Y-14110960D02*
X10670896Y-14120484D01*
X10670896Y-14120484D02*
X10651848Y-14120484D01*
X10651848Y-14120484D02*
X10632801Y-14110960D01*
X10632801Y-14110960D02*
X10623277Y-14101436D01*
X10623277Y-14101436D02*
X10613753Y-14082388D01*
X10613753Y-14082388D02*
X10604229Y-14044293D01*
X10604229Y-14044293D02*
X10604229Y-13996674D01*
X10604229Y-13996674D02*
X10613753Y-13958579D01*
X10613753Y-13958579D02*
X10623277Y-13939531D01*
X10623277Y-13939531D02*
X10632801Y-13930008D01*
X10632801Y-13930008D02*
X10651848Y-13920484D01*
X10889944Y-13920484D02*
X10851848Y-13920484D01*
X10851848Y-13920484D02*
X10832801Y-13930008D01*
X10832801Y-13930008D02*
X10823277Y-13939531D01*
X10823277Y-13939531D02*
X10804229Y-13968103D01*
X10804229Y-13968103D02*
X10794706Y-14006198D01*
X10794706Y-14006198D02*
X10794706Y-14082388D01*
X10794706Y-14082388D02*
X10804229Y-14101436D01*
X10804229Y-14101436D02*
X10813753Y-14110960D01*
X10813753Y-14110960D02*
X10832801Y-14120484D01*
X10832801Y-14120484D02*
X10870896Y-14120484D01*
X10870896Y-14120484D02*
X10889944Y-14110960D01*
X10889944Y-14110960D02*
X10899468Y-14101436D01*
X10899468Y-14101436D02*
X10908991Y-14082388D01*
X10908991Y-14082388D02*
X10908991Y-14034769D01*
X10908991Y-14034769D02*
X10899468Y-14015722D01*
X10899468Y-14015722D02*
X10889944Y-14006198D01*
X10889944Y-14006198D02*
X10870896Y-13996674D01*
X10870896Y-13996674D02*
X10832801Y-13996674D01*
X10832801Y-13996674D02*
X10813753Y-14006198D01*
X10813753Y-14006198D02*
X10804229Y-14015722D01*
X10804229Y-14015722D02*
X10794706Y-14034769D01*
X10975658Y-13920484D02*
X11108991Y-13920484D01*
X11108991Y-13920484D02*
X11023277Y-14120484D01*
X11223277Y-13920484D02*
X11242325Y-13920484D01*
X11242325Y-13920484D02*
X11261372Y-13930008D01*
X11261372Y-13930008D02*
X11270896Y-13939531D01*
X11270896Y-13939531D02*
X11280420Y-13958579D01*
X11280420Y-13958579D02*
X11289944Y-13996674D01*
X11289944Y-13996674D02*
X11289944Y-14044293D01*
X11289944Y-14044293D02*
X11280420Y-14082388D01*
X11280420Y-14082388D02*
X11270896Y-14101436D01*
X11270896Y-14101436D02*
X11261372Y-14110960D01*
X11261372Y-14110960D02*
X11242325Y-14120484D01*
X11242325Y-14120484D02*
X11223277Y-14120484D01*
X11223277Y-14120484D02*
X11204229Y-14110960D01*
X11204229Y-14110960D02*
X11194706Y-14101436D01*
X11194706Y-14101436D02*
X11185182Y-14082388D01*
X11185182Y-14082388D02*
X11175658Y-14044293D01*
X11175658Y-14044293D02*
X11175658Y-13996674D01*
X11175658Y-13996674D02*
X11185182Y-13958579D01*
X11185182Y-13958579D02*
X11194706Y-13939531D01*
X11194706Y-13939531D02*
X11204229Y-13930008D01*
X11204229Y-13930008D02*
X11223277Y-13920484D01*
X11366134Y-13920484D02*
X11366134Y-13958579D01*
X11442325Y-13920484D02*
X11442325Y-13958579D01*
X11737563Y-14196674D02*
X11728039Y-14187150D01*
X11728039Y-14187150D02*
X11708991Y-14158579D01*
X11708991Y-14158579D02*
X11699468Y-14139531D01*
X11699468Y-14139531D02*
X11689944Y-14110960D01*
X11689944Y-14110960D02*
X11680420Y-14063341D01*
X11680420Y-14063341D02*
X11680420Y-14025246D01*
X11680420Y-14025246D02*
X11689944Y-13977627D01*
X11689944Y-13977627D02*
X11699468Y-13949055D01*
X11699468Y-13949055D02*
X11708991Y-13930008D01*
X11708991Y-13930008D02*
X11728039Y-13901436D01*
X11728039Y-13901436D02*
X11737563Y-13891912D01*
X11804229Y-13939531D02*
X11813753Y-13930008D01*
X11813753Y-13930008D02*
X11832801Y-13920484D01*
X11832801Y-13920484D02*
X11880420Y-13920484D01*
X11880420Y-13920484D02*
X11899468Y-13930008D01*
X11899468Y-13930008D02*
X11908991Y-13939531D01*
X11908991Y-13939531D02*
X11918515Y-13958579D01*
X11918515Y-13958579D02*
X11918515Y-13977627D01*
X11918515Y-13977627D02*
X11908991Y-14006198D01*
X11908991Y-14006198D02*
X11794706Y-14120484D01*
X11794706Y-14120484D02*
X11918515Y-14120484D01*
X12156610Y-14120484D02*
X12156610Y-13920484D01*
X12242325Y-14120484D02*
X12242325Y-14015722D01*
X12242325Y-14015722D02*
X12232801Y-13996674D01*
X12232801Y-13996674D02*
X12213753Y-13987150D01*
X12213753Y-13987150D02*
X12185182Y-13987150D01*
X12185182Y-13987150D02*
X12166134Y-13996674D01*
X12166134Y-13996674D02*
X12156610Y-14006198D01*
X12366134Y-14120484D02*
X12347087Y-14110960D01*
X12347087Y-14110960D02*
X12337563Y-14101436D01*
X12337563Y-14101436D02*
X12328039Y-14082388D01*
X12328039Y-14082388D02*
X12328039Y-14025246D01*
X12328039Y-14025246D02*
X12337563Y-14006198D01*
X12337563Y-14006198D02*
X12347087Y-13996674D01*
X12347087Y-13996674D02*
X12366134Y-13987150D01*
X12366134Y-13987150D02*
X12394706Y-13987150D01*
X12394706Y-13987150D02*
X12413753Y-13996674D01*
X12413753Y-13996674D02*
X12423277Y-14006198D01*
X12423277Y-14006198D02*
X12432801Y-14025246D01*
X12432801Y-14025246D02*
X12432801Y-14082388D01*
X12432801Y-14082388D02*
X12423277Y-14101436D01*
X12423277Y-14101436D02*
X12413753Y-14110960D01*
X12413753Y-14110960D02*
X12394706Y-14120484D01*
X12394706Y-14120484D02*
X12366134Y-14120484D01*
X12547087Y-14120484D02*
X12528039Y-14110960D01*
X12528039Y-14110960D02*
X12518515Y-14091912D01*
X12518515Y-14091912D02*
X12518515Y-13920484D01*
X12699468Y-14110960D02*
X12680420Y-14120484D01*
X12680420Y-14120484D02*
X12642325Y-14120484D01*
X12642325Y-14120484D02*
X12623277Y-14110960D01*
X12623277Y-14110960D02*
X12613753Y-14091912D01*
X12613753Y-14091912D02*
X12613753Y-14015722D01*
X12613753Y-14015722D02*
X12623277Y-13996674D01*
X12623277Y-13996674D02*
X12642325Y-13987150D01*
X12642325Y-13987150D02*
X12680420Y-13987150D01*
X12680420Y-13987150D02*
X12699468Y-13996674D01*
X12699468Y-13996674D02*
X12708991Y-14015722D01*
X12708991Y-14015722D02*
X12708991Y-14034769D01*
X12708991Y-14034769D02*
X12613753Y-14053817D01*
X12785182Y-14110960D02*
X12804230Y-14120484D01*
X12804230Y-14120484D02*
X12842325Y-14120484D01*
X12842325Y-14120484D02*
X12861372Y-14110960D01*
X12861372Y-14110960D02*
X12870896Y-14091912D01*
X12870896Y-14091912D02*
X12870896Y-14082388D01*
X12870896Y-14082388D02*
X12861372Y-14063341D01*
X12861372Y-14063341D02*
X12842325Y-14053817D01*
X12842325Y-14053817D02*
X12813753Y-14053817D01*
X12813753Y-14053817D02*
X12794706Y-14044293D01*
X12794706Y-14044293D02*
X12785182Y-14025246D01*
X12785182Y-14025246D02*
X12785182Y-14015722D01*
X12785182Y-14015722D02*
X12794706Y-13996674D01*
X12794706Y-13996674D02*
X12813753Y-13987150D01*
X12813753Y-13987150D02*
X12842325Y-13987150D01*
X12842325Y-13987150D02*
X12861372Y-13996674D01*
X12937563Y-14196674D02*
X12947087Y-14187150D01*
X12947087Y-14187150D02*
X12966134Y-14158579D01*
X12966134Y-14158579D02*
X12975658Y-14139531D01*
X12975658Y-14139531D02*
X12985182Y-14110960D01*
X12985182Y-14110960D02*
X12994706Y-14063341D01*
X12994706Y-14063341D02*
X12994706Y-14025246D01*
X12994706Y-14025246D02*
X12985182Y-13977627D01*
X12985182Y-13977627D02*
X12975658Y-13949055D01*
X12975658Y-13949055D02*
X12966134Y-13930008D01*
X12966134Y-13930008D02*
X12947087Y-13901436D01*
X12947087Y-13901436D02*
X12937563Y-13891912D01*
M02*
