%TF.GenerationSoftware,KiCad,Pcbnew,7.0.10-7.0.10~ubuntu20.04.1*%
%TF.CreationDate,2024-05-01T22:26:40+02:00*%
%TF.ProjectId,endeavour,656e6465-6176-46f7-9572-2e6b69636164,rev?*%
%TF.SameCoordinates,Original*%
%TF.FileFunction,Drillmap*%
%TF.FilePolarity,Positive*%
%FSLAX45Y45*%
G04 Gerber Fmt 4.5, Leading zero omitted, Abs format (unit mm)*
G04 Created by KiCad (PCBNEW 7.0.10-7.0.10~ubuntu20.04.1) date 2024-05-01 22:26:40*
%MOMM*%
%LPD*%
G01*
G04 APERTURE LIST*
%ADD10C,0.100000*%
%ADD11C,0.200000*%
%ADD12C,0.190500*%
%ADD13C,0.220000*%
G04 APERTURE END LIST*
D10*
X8167500Y-6000000D02*
X16367500Y-6000000D01*
X16367500Y-11800000D01*
X8167500Y-11800000D01*
X8167500Y-6000000D01*
D11*
D10*
X8758580Y-8546500D02*
X8823580Y-8611500D01*
X8823580Y-8546500D02*
X8758580Y-8611500D01*
X8758580Y-9124500D02*
X8823580Y-9189500D01*
X8823580Y-9124500D02*
X8758580Y-9189500D01*
D12*
X9568330Y-7360580D02*
G75*
G03*
X9377830Y-7360580I-95250J0D01*
G01*
X9377830Y-7360580D02*
G75*
G03*
X9568330Y-7360580I95250J0D01*
G01*
X9568330Y-7800000D02*
G75*
G03*
X9377830Y-7800000I-95250J0D01*
G01*
X9377830Y-7800000D02*
G75*
G03*
X9568330Y-7800000I95250J0D01*
G01*
D13*
X8490000Y-6215000D02*
X8490000Y-6435000D01*
X8380000Y-6325000D02*
X8600000Y-6325000D01*
X8490000Y-11362500D02*
X8490000Y-11582500D01*
X8380000Y-11472500D02*
X8600000Y-11472500D01*
X16040000Y-6215000D02*
X16040000Y-6435000D01*
X15930000Y-6325000D02*
X16150000Y-6325000D01*
X16040000Y-11365000D02*
X16040000Y-11585000D01*
X15930000Y-11475000D02*
X16150000Y-11475000D01*
D11*
X8423277Y-12116484D02*
X8423277Y-11916484D01*
X8423277Y-11916484D02*
X8470896Y-11916484D01*
X8470896Y-11916484D02*
X8499467Y-11926008D01*
X8499467Y-11926008D02*
X8518515Y-11945055D01*
X8518515Y-11945055D02*
X8528039Y-11964103D01*
X8528039Y-11964103D02*
X8537563Y-12002198D01*
X8537563Y-12002198D02*
X8537563Y-12030769D01*
X8537563Y-12030769D02*
X8528039Y-12068865D01*
X8528039Y-12068865D02*
X8518515Y-12087912D01*
X8518515Y-12087912D02*
X8499467Y-12106960D01*
X8499467Y-12106960D02*
X8470896Y-12116484D01*
X8470896Y-12116484D02*
X8423277Y-12116484D01*
X8623277Y-12116484D02*
X8623277Y-11983150D01*
X8623277Y-12021246D02*
X8632801Y-12002198D01*
X8632801Y-12002198D02*
X8642324Y-11992674D01*
X8642324Y-11992674D02*
X8661372Y-11983150D01*
X8661372Y-11983150D02*
X8680420Y-11983150D01*
X8747086Y-12116484D02*
X8747086Y-11983150D01*
X8747086Y-11916484D02*
X8737563Y-11926008D01*
X8737563Y-11926008D02*
X8747086Y-11935531D01*
X8747086Y-11935531D02*
X8756610Y-11926008D01*
X8756610Y-11926008D02*
X8747086Y-11916484D01*
X8747086Y-11916484D02*
X8747086Y-11935531D01*
X8870896Y-12116484D02*
X8851848Y-12106960D01*
X8851848Y-12106960D02*
X8842324Y-12087912D01*
X8842324Y-12087912D02*
X8842324Y-11916484D01*
X8975658Y-12116484D02*
X8956610Y-12106960D01*
X8956610Y-12106960D02*
X8947086Y-12087912D01*
X8947086Y-12087912D02*
X8947086Y-11916484D01*
X9204229Y-12116484D02*
X9204229Y-11916484D01*
X9204229Y-11916484D02*
X9270896Y-12059341D01*
X9270896Y-12059341D02*
X9337563Y-11916484D01*
X9337563Y-11916484D02*
X9337563Y-12116484D01*
X9518515Y-12116484D02*
X9518515Y-12011722D01*
X9518515Y-12011722D02*
X9508991Y-11992674D01*
X9508991Y-11992674D02*
X9489944Y-11983150D01*
X9489944Y-11983150D02*
X9451848Y-11983150D01*
X9451848Y-11983150D02*
X9432801Y-11992674D01*
X9518515Y-12106960D02*
X9499467Y-12116484D01*
X9499467Y-12116484D02*
X9451848Y-12116484D01*
X9451848Y-12116484D02*
X9432801Y-12106960D01*
X9432801Y-12106960D02*
X9423277Y-12087912D01*
X9423277Y-12087912D02*
X9423277Y-12068865D01*
X9423277Y-12068865D02*
X9432801Y-12049817D01*
X9432801Y-12049817D02*
X9451848Y-12040293D01*
X9451848Y-12040293D02*
X9499467Y-12040293D01*
X9499467Y-12040293D02*
X9518515Y-12030769D01*
X9613753Y-11983150D02*
X9613753Y-12183150D01*
X9613753Y-11992674D02*
X9632801Y-11983150D01*
X9632801Y-11983150D02*
X9670896Y-11983150D01*
X9670896Y-11983150D02*
X9689944Y-11992674D01*
X9689944Y-11992674D02*
X9699467Y-12002198D01*
X9699467Y-12002198D02*
X9708991Y-12021246D01*
X9708991Y-12021246D02*
X9708991Y-12078388D01*
X9708991Y-12078388D02*
X9699467Y-12097436D01*
X9699467Y-12097436D02*
X9689944Y-12106960D01*
X9689944Y-12106960D02*
X9670896Y-12116484D01*
X9670896Y-12116484D02*
X9632801Y-12116484D01*
X9632801Y-12116484D02*
X9613753Y-12106960D01*
X9794705Y-12097436D02*
X9804229Y-12106960D01*
X9804229Y-12106960D02*
X9794705Y-12116484D01*
X9794705Y-12116484D02*
X9785182Y-12106960D01*
X9785182Y-12106960D02*
X9794705Y-12097436D01*
X9794705Y-12097436D02*
X9794705Y-12116484D01*
X9794705Y-11992674D02*
X9804229Y-12002198D01*
X9804229Y-12002198D02*
X9794705Y-12011722D01*
X9794705Y-12011722D02*
X9785182Y-12002198D01*
X9785182Y-12002198D02*
X9794705Y-11992674D01*
X9794705Y-11992674D02*
X9794705Y-12011722D01*
D10*
X8097500Y-12412500D02*
X8162500Y-12477500D01*
X8162500Y-12412500D02*
X8097500Y-12477500D01*
D11*
X8461372Y-12336484D02*
X8480420Y-12336484D01*
X8480420Y-12336484D02*
X8499467Y-12346008D01*
X8499467Y-12346008D02*
X8508991Y-12355531D01*
X8508991Y-12355531D02*
X8518515Y-12374579D01*
X8518515Y-12374579D02*
X8528039Y-12412674D01*
X8528039Y-12412674D02*
X8528039Y-12460293D01*
X8528039Y-12460293D02*
X8518515Y-12498388D01*
X8518515Y-12498388D02*
X8508991Y-12517436D01*
X8508991Y-12517436D02*
X8499467Y-12526960D01*
X8499467Y-12526960D02*
X8480420Y-12536484D01*
X8480420Y-12536484D02*
X8461372Y-12536484D01*
X8461372Y-12536484D02*
X8442324Y-12526960D01*
X8442324Y-12526960D02*
X8432801Y-12517436D01*
X8432801Y-12517436D02*
X8423277Y-12498388D01*
X8423277Y-12498388D02*
X8413753Y-12460293D01*
X8413753Y-12460293D02*
X8413753Y-12412674D01*
X8413753Y-12412674D02*
X8423277Y-12374579D01*
X8423277Y-12374579D02*
X8432801Y-12355531D01*
X8432801Y-12355531D02*
X8442324Y-12346008D01*
X8442324Y-12346008D02*
X8461372Y-12336484D01*
X8613753Y-12517436D02*
X8623277Y-12526960D01*
X8623277Y-12526960D02*
X8613753Y-12536484D01*
X8613753Y-12536484D02*
X8604229Y-12526960D01*
X8604229Y-12526960D02*
X8613753Y-12517436D01*
X8613753Y-12517436D02*
X8613753Y-12536484D01*
X8794705Y-12336484D02*
X8756610Y-12336484D01*
X8756610Y-12336484D02*
X8737563Y-12346008D01*
X8737563Y-12346008D02*
X8728039Y-12355531D01*
X8728039Y-12355531D02*
X8708991Y-12384103D01*
X8708991Y-12384103D02*
X8699467Y-12422198D01*
X8699467Y-12422198D02*
X8699467Y-12498388D01*
X8699467Y-12498388D02*
X8708991Y-12517436D01*
X8708991Y-12517436D02*
X8718515Y-12526960D01*
X8718515Y-12526960D02*
X8737563Y-12536484D01*
X8737563Y-12536484D02*
X8775658Y-12536484D01*
X8775658Y-12536484D02*
X8794705Y-12526960D01*
X8794705Y-12526960D02*
X8804229Y-12517436D01*
X8804229Y-12517436D02*
X8813753Y-12498388D01*
X8813753Y-12498388D02*
X8813753Y-12450769D01*
X8813753Y-12450769D02*
X8804229Y-12431722D01*
X8804229Y-12431722D02*
X8794705Y-12422198D01*
X8794705Y-12422198D02*
X8775658Y-12412674D01*
X8775658Y-12412674D02*
X8737563Y-12412674D01*
X8737563Y-12412674D02*
X8718515Y-12422198D01*
X8718515Y-12422198D02*
X8708991Y-12431722D01*
X8708991Y-12431722D02*
X8699467Y-12450769D01*
X8994705Y-12336484D02*
X8899467Y-12336484D01*
X8899467Y-12336484D02*
X8889944Y-12431722D01*
X8889944Y-12431722D02*
X8899467Y-12422198D01*
X8899467Y-12422198D02*
X8918515Y-12412674D01*
X8918515Y-12412674D02*
X8966134Y-12412674D01*
X8966134Y-12412674D02*
X8985182Y-12422198D01*
X8985182Y-12422198D02*
X8994705Y-12431722D01*
X8994705Y-12431722D02*
X9004229Y-12450769D01*
X9004229Y-12450769D02*
X9004229Y-12498388D01*
X9004229Y-12498388D02*
X8994705Y-12517436D01*
X8994705Y-12517436D02*
X8985182Y-12526960D01*
X8985182Y-12526960D02*
X8966134Y-12536484D01*
X8966134Y-12536484D02*
X8918515Y-12536484D01*
X8918515Y-12536484D02*
X8899467Y-12526960D01*
X8899467Y-12526960D02*
X8889944Y-12517436D01*
X9128039Y-12336484D02*
X9147086Y-12336484D01*
X9147086Y-12336484D02*
X9166134Y-12346008D01*
X9166134Y-12346008D02*
X9175658Y-12355531D01*
X9175658Y-12355531D02*
X9185182Y-12374579D01*
X9185182Y-12374579D02*
X9194705Y-12412674D01*
X9194705Y-12412674D02*
X9194705Y-12460293D01*
X9194705Y-12460293D02*
X9185182Y-12498388D01*
X9185182Y-12498388D02*
X9175658Y-12517436D01*
X9175658Y-12517436D02*
X9166134Y-12526960D01*
X9166134Y-12526960D02*
X9147086Y-12536484D01*
X9147086Y-12536484D02*
X9128039Y-12536484D01*
X9128039Y-12536484D02*
X9108991Y-12526960D01*
X9108991Y-12526960D02*
X9099467Y-12517436D01*
X9099467Y-12517436D02*
X9089944Y-12498388D01*
X9089944Y-12498388D02*
X9080420Y-12460293D01*
X9080420Y-12460293D02*
X9080420Y-12412674D01*
X9080420Y-12412674D02*
X9089944Y-12374579D01*
X9089944Y-12374579D02*
X9099467Y-12355531D01*
X9099467Y-12355531D02*
X9108991Y-12346008D01*
X9108991Y-12346008D02*
X9128039Y-12336484D01*
X9280420Y-12536484D02*
X9280420Y-12403150D01*
X9280420Y-12422198D02*
X9289944Y-12412674D01*
X9289944Y-12412674D02*
X9308991Y-12403150D01*
X9308991Y-12403150D02*
X9337563Y-12403150D01*
X9337563Y-12403150D02*
X9356610Y-12412674D01*
X9356610Y-12412674D02*
X9366134Y-12431722D01*
X9366134Y-12431722D02*
X9366134Y-12536484D01*
X9366134Y-12431722D02*
X9375658Y-12412674D01*
X9375658Y-12412674D02*
X9394705Y-12403150D01*
X9394705Y-12403150D02*
X9423277Y-12403150D01*
X9423277Y-12403150D02*
X9442325Y-12412674D01*
X9442325Y-12412674D02*
X9451848Y-12431722D01*
X9451848Y-12431722D02*
X9451848Y-12536484D01*
X9547086Y-12536484D02*
X9547086Y-12403150D01*
X9547086Y-12422198D02*
X9556610Y-12412674D01*
X9556610Y-12412674D02*
X9575658Y-12403150D01*
X9575658Y-12403150D02*
X9604229Y-12403150D01*
X9604229Y-12403150D02*
X9623277Y-12412674D01*
X9623277Y-12412674D02*
X9632801Y-12431722D01*
X9632801Y-12431722D02*
X9632801Y-12536484D01*
X9632801Y-12431722D02*
X9642325Y-12412674D01*
X9642325Y-12412674D02*
X9661372Y-12403150D01*
X9661372Y-12403150D02*
X9689944Y-12403150D01*
X9689944Y-12403150D02*
X9708991Y-12412674D01*
X9708991Y-12412674D02*
X9718515Y-12431722D01*
X9718515Y-12431722D02*
X9718515Y-12536484D01*
X10108991Y-12326960D02*
X9937563Y-12584103D01*
X10366134Y-12336484D02*
X10385182Y-12336484D01*
X10385182Y-12336484D02*
X10404229Y-12346008D01*
X10404229Y-12346008D02*
X10413753Y-12355531D01*
X10413753Y-12355531D02*
X10423277Y-12374579D01*
X10423277Y-12374579D02*
X10432801Y-12412674D01*
X10432801Y-12412674D02*
X10432801Y-12460293D01*
X10432801Y-12460293D02*
X10423277Y-12498388D01*
X10423277Y-12498388D02*
X10413753Y-12517436D01*
X10413753Y-12517436D02*
X10404229Y-12526960D01*
X10404229Y-12526960D02*
X10385182Y-12536484D01*
X10385182Y-12536484D02*
X10366134Y-12536484D01*
X10366134Y-12536484D02*
X10347087Y-12526960D01*
X10347087Y-12526960D02*
X10337563Y-12517436D01*
X10337563Y-12517436D02*
X10328039Y-12498388D01*
X10328039Y-12498388D02*
X10318515Y-12460293D01*
X10318515Y-12460293D02*
X10318515Y-12412674D01*
X10318515Y-12412674D02*
X10328039Y-12374579D01*
X10328039Y-12374579D02*
X10337563Y-12355531D01*
X10337563Y-12355531D02*
X10347087Y-12346008D01*
X10347087Y-12346008D02*
X10366134Y-12336484D01*
X10518515Y-12517436D02*
X10528039Y-12526960D01*
X10528039Y-12526960D02*
X10518515Y-12536484D01*
X10518515Y-12536484D02*
X10508991Y-12526960D01*
X10508991Y-12526960D02*
X10518515Y-12517436D01*
X10518515Y-12517436D02*
X10518515Y-12536484D01*
X10651848Y-12336484D02*
X10670896Y-12336484D01*
X10670896Y-12336484D02*
X10689944Y-12346008D01*
X10689944Y-12346008D02*
X10699468Y-12355531D01*
X10699468Y-12355531D02*
X10708991Y-12374579D01*
X10708991Y-12374579D02*
X10718515Y-12412674D01*
X10718515Y-12412674D02*
X10718515Y-12460293D01*
X10718515Y-12460293D02*
X10708991Y-12498388D01*
X10708991Y-12498388D02*
X10699468Y-12517436D01*
X10699468Y-12517436D02*
X10689944Y-12526960D01*
X10689944Y-12526960D02*
X10670896Y-12536484D01*
X10670896Y-12536484D02*
X10651848Y-12536484D01*
X10651848Y-12536484D02*
X10632801Y-12526960D01*
X10632801Y-12526960D02*
X10623277Y-12517436D01*
X10623277Y-12517436D02*
X10613753Y-12498388D01*
X10613753Y-12498388D02*
X10604229Y-12460293D01*
X10604229Y-12460293D02*
X10604229Y-12412674D01*
X10604229Y-12412674D02*
X10613753Y-12374579D01*
X10613753Y-12374579D02*
X10623277Y-12355531D01*
X10623277Y-12355531D02*
X10632801Y-12346008D01*
X10632801Y-12346008D02*
X10651848Y-12336484D01*
X10794706Y-12355531D02*
X10804229Y-12346008D01*
X10804229Y-12346008D02*
X10823277Y-12336484D01*
X10823277Y-12336484D02*
X10870896Y-12336484D01*
X10870896Y-12336484D02*
X10889944Y-12346008D01*
X10889944Y-12346008D02*
X10899468Y-12355531D01*
X10899468Y-12355531D02*
X10908991Y-12374579D01*
X10908991Y-12374579D02*
X10908991Y-12393627D01*
X10908991Y-12393627D02*
X10899468Y-12422198D01*
X10899468Y-12422198D02*
X10785182Y-12536484D01*
X10785182Y-12536484D02*
X10908991Y-12536484D01*
X11089944Y-12336484D02*
X10994706Y-12336484D01*
X10994706Y-12336484D02*
X10985182Y-12431722D01*
X10985182Y-12431722D02*
X10994706Y-12422198D01*
X10994706Y-12422198D02*
X11013753Y-12412674D01*
X11013753Y-12412674D02*
X11061372Y-12412674D01*
X11061372Y-12412674D02*
X11080420Y-12422198D01*
X11080420Y-12422198D02*
X11089944Y-12431722D01*
X11089944Y-12431722D02*
X11099468Y-12450769D01*
X11099468Y-12450769D02*
X11099468Y-12498388D01*
X11099468Y-12498388D02*
X11089944Y-12517436D01*
X11089944Y-12517436D02*
X11080420Y-12526960D01*
X11080420Y-12526960D02*
X11061372Y-12536484D01*
X11061372Y-12536484D02*
X11013753Y-12536484D01*
X11013753Y-12536484D02*
X10994706Y-12526960D01*
X10994706Y-12526960D02*
X10985182Y-12517436D01*
X11270896Y-12336484D02*
X11232801Y-12336484D01*
X11232801Y-12336484D02*
X11213753Y-12346008D01*
X11213753Y-12346008D02*
X11204229Y-12355531D01*
X11204229Y-12355531D02*
X11185182Y-12384103D01*
X11185182Y-12384103D02*
X11175658Y-12422198D01*
X11175658Y-12422198D02*
X11175658Y-12498388D01*
X11175658Y-12498388D02*
X11185182Y-12517436D01*
X11185182Y-12517436D02*
X11194706Y-12526960D01*
X11194706Y-12526960D02*
X11213753Y-12536484D01*
X11213753Y-12536484D02*
X11251848Y-12536484D01*
X11251848Y-12536484D02*
X11270896Y-12526960D01*
X11270896Y-12526960D02*
X11280420Y-12517436D01*
X11280420Y-12517436D02*
X11289944Y-12498388D01*
X11289944Y-12498388D02*
X11289944Y-12450769D01*
X11289944Y-12450769D02*
X11280420Y-12431722D01*
X11280420Y-12431722D02*
X11270896Y-12422198D01*
X11270896Y-12422198D02*
X11251848Y-12412674D01*
X11251848Y-12412674D02*
X11213753Y-12412674D01*
X11213753Y-12412674D02*
X11194706Y-12422198D01*
X11194706Y-12422198D02*
X11185182Y-12431722D01*
X11185182Y-12431722D02*
X11175658Y-12450769D01*
X11366134Y-12336484D02*
X11366134Y-12374579D01*
X11442325Y-12336484D02*
X11442325Y-12374579D01*
X11737563Y-12612674D02*
X11728039Y-12603150D01*
X11728039Y-12603150D02*
X11708991Y-12574579D01*
X11708991Y-12574579D02*
X11699468Y-12555531D01*
X11699468Y-12555531D02*
X11689944Y-12526960D01*
X11689944Y-12526960D02*
X11680420Y-12479341D01*
X11680420Y-12479341D02*
X11680420Y-12441246D01*
X11680420Y-12441246D02*
X11689944Y-12393627D01*
X11689944Y-12393627D02*
X11699468Y-12365055D01*
X11699468Y-12365055D02*
X11708991Y-12346008D01*
X11708991Y-12346008D02*
X11728039Y-12317436D01*
X11728039Y-12317436D02*
X11737563Y-12307912D01*
X11804229Y-12355531D02*
X11813753Y-12346008D01*
X11813753Y-12346008D02*
X11832801Y-12336484D01*
X11832801Y-12336484D02*
X11880420Y-12336484D01*
X11880420Y-12336484D02*
X11899468Y-12346008D01*
X11899468Y-12346008D02*
X11908991Y-12355531D01*
X11908991Y-12355531D02*
X11918515Y-12374579D01*
X11918515Y-12374579D02*
X11918515Y-12393627D01*
X11918515Y-12393627D02*
X11908991Y-12422198D01*
X11908991Y-12422198D02*
X11794706Y-12536484D01*
X11794706Y-12536484D02*
X11918515Y-12536484D01*
X12156610Y-12536484D02*
X12156610Y-12336484D01*
X12242325Y-12536484D02*
X12242325Y-12431722D01*
X12242325Y-12431722D02*
X12232801Y-12412674D01*
X12232801Y-12412674D02*
X12213753Y-12403150D01*
X12213753Y-12403150D02*
X12185182Y-12403150D01*
X12185182Y-12403150D02*
X12166134Y-12412674D01*
X12166134Y-12412674D02*
X12156610Y-12422198D01*
X12366134Y-12536484D02*
X12347087Y-12526960D01*
X12347087Y-12526960D02*
X12337563Y-12517436D01*
X12337563Y-12517436D02*
X12328039Y-12498388D01*
X12328039Y-12498388D02*
X12328039Y-12441246D01*
X12328039Y-12441246D02*
X12337563Y-12422198D01*
X12337563Y-12422198D02*
X12347087Y-12412674D01*
X12347087Y-12412674D02*
X12366134Y-12403150D01*
X12366134Y-12403150D02*
X12394706Y-12403150D01*
X12394706Y-12403150D02*
X12413753Y-12412674D01*
X12413753Y-12412674D02*
X12423277Y-12422198D01*
X12423277Y-12422198D02*
X12432801Y-12441246D01*
X12432801Y-12441246D02*
X12432801Y-12498388D01*
X12432801Y-12498388D02*
X12423277Y-12517436D01*
X12423277Y-12517436D02*
X12413753Y-12526960D01*
X12413753Y-12526960D02*
X12394706Y-12536484D01*
X12394706Y-12536484D02*
X12366134Y-12536484D01*
X12547087Y-12536484D02*
X12528039Y-12526960D01*
X12528039Y-12526960D02*
X12518515Y-12507912D01*
X12518515Y-12507912D02*
X12518515Y-12336484D01*
X12699468Y-12526960D02*
X12680420Y-12536484D01*
X12680420Y-12536484D02*
X12642325Y-12536484D01*
X12642325Y-12536484D02*
X12623277Y-12526960D01*
X12623277Y-12526960D02*
X12613753Y-12507912D01*
X12613753Y-12507912D02*
X12613753Y-12431722D01*
X12613753Y-12431722D02*
X12623277Y-12412674D01*
X12623277Y-12412674D02*
X12642325Y-12403150D01*
X12642325Y-12403150D02*
X12680420Y-12403150D01*
X12680420Y-12403150D02*
X12699468Y-12412674D01*
X12699468Y-12412674D02*
X12708991Y-12431722D01*
X12708991Y-12431722D02*
X12708991Y-12450769D01*
X12708991Y-12450769D02*
X12613753Y-12469817D01*
X12785182Y-12526960D02*
X12804230Y-12536484D01*
X12804230Y-12536484D02*
X12842325Y-12536484D01*
X12842325Y-12536484D02*
X12861372Y-12526960D01*
X12861372Y-12526960D02*
X12870896Y-12507912D01*
X12870896Y-12507912D02*
X12870896Y-12498388D01*
X12870896Y-12498388D02*
X12861372Y-12479341D01*
X12861372Y-12479341D02*
X12842325Y-12469817D01*
X12842325Y-12469817D02*
X12813753Y-12469817D01*
X12813753Y-12469817D02*
X12794706Y-12460293D01*
X12794706Y-12460293D02*
X12785182Y-12441246D01*
X12785182Y-12441246D02*
X12785182Y-12431722D01*
X12785182Y-12431722D02*
X12794706Y-12412674D01*
X12794706Y-12412674D02*
X12813753Y-12403150D01*
X12813753Y-12403150D02*
X12842325Y-12403150D01*
X12842325Y-12403150D02*
X12861372Y-12412674D01*
X12937563Y-12612674D02*
X12947087Y-12603150D01*
X12947087Y-12603150D02*
X12966134Y-12574579D01*
X12966134Y-12574579D02*
X12975658Y-12555531D01*
X12975658Y-12555531D02*
X12985182Y-12526960D01*
X12985182Y-12526960D02*
X12994706Y-12479341D01*
X12994706Y-12479341D02*
X12994706Y-12441246D01*
X12994706Y-12441246D02*
X12985182Y-12393627D01*
X12985182Y-12393627D02*
X12975658Y-12365055D01*
X12975658Y-12365055D02*
X12966134Y-12346008D01*
X12966134Y-12346008D02*
X12947087Y-12317436D01*
X12947087Y-12317436D02*
X12937563Y-12307912D01*
X13299468Y-12612674D02*
X13289944Y-12603150D01*
X13289944Y-12603150D02*
X13270896Y-12574579D01*
X13270896Y-12574579D02*
X13261372Y-12555531D01*
X13261372Y-12555531D02*
X13251849Y-12526960D01*
X13251849Y-12526960D02*
X13242325Y-12479341D01*
X13242325Y-12479341D02*
X13242325Y-12441246D01*
X13242325Y-12441246D02*
X13251849Y-12393627D01*
X13251849Y-12393627D02*
X13261372Y-12365055D01*
X13261372Y-12365055D02*
X13270896Y-12346008D01*
X13270896Y-12346008D02*
X13289944Y-12317436D01*
X13289944Y-12317436D02*
X13299468Y-12307912D01*
X13375658Y-12403150D02*
X13375658Y-12536484D01*
X13375658Y-12422198D02*
X13385182Y-12412674D01*
X13385182Y-12412674D02*
X13404230Y-12403150D01*
X13404230Y-12403150D02*
X13432801Y-12403150D01*
X13432801Y-12403150D02*
X13451849Y-12412674D01*
X13451849Y-12412674D02*
X13461372Y-12431722D01*
X13461372Y-12431722D02*
X13461372Y-12536484D01*
X13585182Y-12536484D02*
X13566134Y-12526960D01*
X13566134Y-12526960D02*
X13556611Y-12517436D01*
X13556611Y-12517436D02*
X13547087Y-12498388D01*
X13547087Y-12498388D02*
X13547087Y-12441246D01*
X13547087Y-12441246D02*
X13556611Y-12422198D01*
X13556611Y-12422198D02*
X13566134Y-12412674D01*
X13566134Y-12412674D02*
X13585182Y-12403150D01*
X13585182Y-12403150D02*
X13613753Y-12403150D01*
X13613753Y-12403150D02*
X13632801Y-12412674D01*
X13632801Y-12412674D02*
X13642325Y-12422198D01*
X13642325Y-12422198D02*
X13651849Y-12441246D01*
X13651849Y-12441246D02*
X13651849Y-12498388D01*
X13651849Y-12498388D02*
X13642325Y-12517436D01*
X13642325Y-12517436D02*
X13632801Y-12526960D01*
X13632801Y-12526960D02*
X13613753Y-12536484D01*
X13613753Y-12536484D02*
X13585182Y-12536484D01*
X13708992Y-12403150D02*
X13785182Y-12403150D01*
X13737563Y-12336484D02*
X13737563Y-12507912D01*
X13737563Y-12507912D02*
X13747087Y-12526960D01*
X13747087Y-12526960D02*
X13766134Y-12536484D01*
X13766134Y-12536484D02*
X13785182Y-12536484D01*
X14004230Y-12403150D02*
X14004230Y-12603150D01*
X14004230Y-12412674D02*
X14023277Y-12403150D01*
X14023277Y-12403150D02*
X14061373Y-12403150D01*
X14061373Y-12403150D02*
X14080420Y-12412674D01*
X14080420Y-12412674D02*
X14089944Y-12422198D01*
X14089944Y-12422198D02*
X14099468Y-12441246D01*
X14099468Y-12441246D02*
X14099468Y-12498388D01*
X14099468Y-12498388D02*
X14089944Y-12517436D01*
X14089944Y-12517436D02*
X14080420Y-12526960D01*
X14080420Y-12526960D02*
X14061373Y-12536484D01*
X14061373Y-12536484D02*
X14023277Y-12536484D01*
X14023277Y-12536484D02*
X14004230Y-12526960D01*
X14213753Y-12536484D02*
X14194706Y-12526960D01*
X14194706Y-12526960D02*
X14185182Y-12507912D01*
X14185182Y-12507912D02*
X14185182Y-12336484D01*
X14375658Y-12536484D02*
X14375658Y-12431722D01*
X14375658Y-12431722D02*
X14366134Y-12412674D01*
X14366134Y-12412674D02*
X14347087Y-12403150D01*
X14347087Y-12403150D02*
X14308992Y-12403150D01*
X14308992Y-12403150D02*
X14289944Y-12412674D01*
X14375658Y-12526960D02*
X14356611Y-12536484D01*
X14356611Y-12536484D02*
X14308992Y-12536484D01*
X14308992Y-12536484D02*
X14289944Y-12526960D01*
X14289944Y-12526960D02*
X14280420Y-12507912D01*
X14280420Y-12507912D02*
X14280420Y-12488865D01*
X14280420Y-12488865D02*
X14289944Y-12469817D01*
X14289944Y-12469817D02*
X14308992Y-12460293D01*
X14308992Y-12460293D02*
X14356611Y-12460293D01*
X14356611Y-12460293D02*
X14375658Y-12450769D01*
X14442325Y-12403150D02*
X14518515Y-12403150D01*
X14470896Y-12336484D02*
X14470896Y-12507912D01*
X14470896Y-12507912D02*
X14480420Y-12526960D01*
X14480420Y-12526960D02*
X14499468Y-12536484D01*
X14499468Y-12536484D02*
X14518515Y-12536484D01*
X14661373Y-12526960D02*
X14642325Y-12536484D01*
X14642325Y-12536484D02*
X14604230Y-12536484D01*
X14604230Y-12536484D02*
X14585182Y-12526960D01*
X14585182Y-12526960D02*
X14575658Y-12507912D01*
X14575658Y-12507912D02*
X14575658Y-12431722D01*
X14575658Y-12431722D02*
X14585182Y-12412674D01*
X14585182Y-12412674D02*
X14604230Y-12403150D01*
X14604230Y-12403150D02*
X14642325Y-12403150D01*
X14642325Y-12403150D02*
X14661373Y-12412674D01*
X14661373Y-12412674D02*
X14670896Y-12431722D01*
X14670896Y-12431722D02*
X14670896Y-12450769D01*
X14670896Y-12450769D02*
X14575658Y-12469817D01*
X14842325Y-12536484D02*
X14842325Y-12336484D01*
X14842325Y-12526960D02*
X14823277Y-12536484D01*
X14823277Y-12536484D02*
X14785182Y-12536484D01*
X14785182Y-12536484D02*
X14766134Y-12526960D01*
X14766134Y-12526960D02*
X14756611Y-12517436D01*
X14756611Y-12517436D02*
X14747087Y-12498388D01*
X14747087Y-12498388D02*
X14747087Y-12441246D01*
X14747087Y-12441246D02*
X14756611Y-12422198D01*
X14756611Y-12422198D02*
X14766134Y-12412674D01*
X14766134Y-12412674D02*
X14785182Y-12403150D01*
X14785182Y-12403150D02*
X14823277Y-12403150D01*
X14823277Y-12403150D02*
X14842325Y-12412674D01*
X14918515Y-12612674D02*
X14928039Y-12603150D01*
X14928039Y-12603150D02*
X14947087Y-12574579D01*
X14947087Y-12574579D02*
X14956611Y-12555531D01*
X14956611Y-12555531D02*
X14966134Y-12526960D01*
X14966134Y-12526960D02*
X14975658Y-12479341D01*
X14975658Y-12479341D02*
X14975658Y-12441246D01*
X14975658Y-12441246D02*
X14966134Y-12393627D01*
X14966134Y-12393627D02*
X14956611Y-12365055D01*
X14956611Y-12365055D02*
X14947087Y-12346008D01*
X14947087Y-12346008D02*
X14928039Y-12317436D01*
X14928039Y-12317436D02*
X14918515Y-12307912D01*
D12*
X8162500Y-12709000D02*
G75*
G03*
X7972000Y-12709000I-95250J0D01*
G01*
X7972000Y-12709000D02*
G75*
G03*
X8162500Y-12709000I95250J0D01*
G01*
D11*
X8528039Y-12800484D02*
X8413753Y-12800484D01*
X8470896Y-12800484D02*
X8470896Y-12600484D01*
X8470896Y-12600484D02*
X8451848Y-12629055D01*
X8451848Y-12629055D02*
X8432801Y-12648103D01*
X8432801Y-12648103D02*
X8413753Y-12657627D01*
X8613753Y-12781436D02*
X8623277Y-12790960D01*
X8623277Y-12790960D02*
X8613753Y-12800484D01*
X8613753Y-12800484D02*
X8604229Y-12790960D01*
X8604229Y-12790960D02*
X8613753Y-12781436D01*
X8613753Y-12781436D02*
X8613753Y-12800484D01*
X8718515Y-12800484D02*
X8756610Y-12800484D01*
X8756610Y-12800484D02*
X8775658Y-12790960D01*
X8775658Y-12790960D02*
X8785182Y-12781436D01*
X8785182Y-12781436D02*
X8804229Y-12752865D01*
X8804229Y-12752865D02*
X8813753Y-12714769D01*
X8813753Y-12714769D02*
X8813753Y-12638579D01*
X8813753Y-12638579D02*
X8804229Y-12619531D01*
X8804229Y-12619531D02*
X8794705Y-12610008D01*
X8794705Y-12610008D02*
X8775658Y-12600484D01*
X8775658Y-12600484D02*
X8737563Y-12600484D01*
X8737563Y-12600484D02*
X8718515Y-12610008D01*
X8718515Y-12610008D02*
X8708991Y-12619531D01*
X8708991Y-12619531D02*
X8699467Y-12638579D01*
X8699467Y-12638579D02*
X8699467Y-12686198D01*
X8699467Y-12686198D02*
X8708991Y-12705246D01*
X8708991Y-12705246D02*
X8718515Y-12714769D01*
X8718515Y-12714769D02*
X8737563Y-12724293D01*
X8737563Y-12724293D02*
X8775658Y-12724293D01*
X8775658Y-12724293D02*
X8794705Y-12714769D01*
X8794705Y-12714769D02*
X8804229Y-12705246D01*
X8804229Y-12705246D02*
X8813753Y-12686198D01*
X8937563Y-12600484D02*
X8956610Y-12600484D01*
X8956610Y-12600484D02*
X8975658Y-12610008D01*
X8975658Y-12610008D02*
X8985182Y-12619531D01*
X8985182Y-12619531D02*
X8994705Y-12638579D01*
X8994705Y-12638579D02*
X9004229Y-12676674D01*
X9004229Y-12676674D02*
X9004229Y-12724293D01*
X9004229Y-12724293D02*
X8994705Y-12762388D01*
X8994705Y-12762388D02*
X8985182Y-12781436D01*
X8985182Y-12781436D02*
X8975658Y-12790960D01*
X8975658Y-12790960D02*
X8956610Y-12800484D01*
X8956610Y-12800484D02*
X8937563Y-12800484D01*
X8937563Y-12800484D02*
X8918515Y-12790960D01*
X8918515Y-12790960D02*
X8908991Y-12781436D01*
X8908991Y-12781436D02*
X8899467Y-12762388D01*
X8899467Y-12762388D02*
X8889944Y-12724293D01*
X8889944Y-12724293D02*
X8889944Y-12676674D01*
X8889944Y-12676674D02*
X8899467Y-12638579D01*
X8899467Y-12638579D02*
X8908991Y-12619531D01*
X8908991Y-12619531D02*
X8918515Y-12610008D01*
X8918515Y-12610008D02*
X8937563Y-12600484D01*
X9185182Y-12600484D02*
X9089944Y-12600484D01*
X9089944Y-12600484D02*
X9080420Y-12695722D01*
X9080420Y-12695722D02*
X9089944Y-12686198D01*
X9089944Y-12686198D02*
X9108991Y-12676674D01*
X9108991Y-12676674D02*
X9156610Y-12676674D01*
X9156610Y-12676674D02*
X9175658Y-12686198D01*
X9175658Y-12686198D02*
X9185182Y-12695722D01*
X9185182Y-12695722D02*
X9194705Y-12714769D01*
X9194705Y-12714769D02*
X9194705Y-12762388D01*
X9194705Y-12762388D02*
X9185182Y-12781436D01*
X9185182Y-12781436D02*
X9175658Y-12790960D01*
X9175658Y-12790960D02*
X9156610Y-12800484D01*
X9156610Y-12800484D02*
X9108991Y-12800484D01*
X9108991Y-12800484D02*
X9089944Y-12790960D01*
X9089944Y-12790960D02*
X9080420Y-12781436D01*
X9280420Y-12800484D02*
X9280420Y-12667150D01*
X9280420Y-12686198D02*
X9289944Y-12676674D01*
X9289944Y-12676674D02*
X9308991Y-12667150D01*
X9308991Y-12667150D02*
X9337563Y-12667150D01*
X9337563Y-12667150D02*
X9356610Y-12676674D01*
X9356610Y-12676674D02*
X9366134Y-12695722D01*
X9366134Y-12695722D02*
X9366134Y-12800484D01*
X9366134Y-12695722D02*
X9375658Y-12676674D01*
X9375658Y-12676674D02*
X9394705Y-12667150D01*
X9394705Y-12667150D02*
X9423277Y-12667150D01*
X9423277Y-12667150D02*
X9442325Y-12676674D01*
X9442325Y-12676674D02*
X9451848Y-12695722D01*
X9451848Y-12695722D02*
X9451848Y-12800484D01*
X9547086Y-12800484D02*
X9547086Y-12667150D01*
X9547086Y-12686198D02*
X9556610Y-12676674D01*
X9556610Y-12676674D02*
X9575658Y-12667150D01*
X9575658Y-12667150D02*
X9604229Y-12667150D01*
X9604229Y-12667150D02*
X9623277Y-12676674D01*
X9623277Y-12676674D02*
X9632801Y-12695722D01*
X9632801Y-12695722D02*
X9632801Y-12800484D01*
X9632801Y-12695722D02*
X9642325Y-12676674D01*
X9642325Y-12676674D02*
X9661372Y-12667150D01*
X9661372Y-12667150D02*
X9689944Y-12667150D01*
X9689944Y-12667150D02*
X9708991Y-12676674D01*
X9708991Y-12676674D02*
X9718515Y-12695722D01*
X9718515Y-12695722D02*
X9718515Y-12800484D01*
X10108991Y-12590960D02*
X9937563Y-12848103D01*
X10366134Y-12600484D02*
X10385182Y-12600484D01*
X10385182Y-12600484D02*
X10404229Y-12610008D01*
X10404229Y-12610008D02*
X10413753Y-12619531D01*
X10413753Y-12619531D02*
X10423277Y-12638579D01*
X10423277Y-12638579D02*
X10432801Y-12676674D01*
X10432801Y-12676674D02*
X10432801Y-12724293D01*
X10432801Y-12724293D02*
X10423277Y-12762388D01*
X10423277Y-12762388D02*
X10413753Y-12781436D01*
X10413753Y-12781436D02*
X10404229Y-12790960D01*
X10404229Y-12790960D02*
X10385182Y-12800484D01*
X10385182Y-12800484D02*
X10366134Y-12800484D01*
X10366134Y-12800484D02*
X10347087Y-12790960D01*
X10347087Y-12790960D02*
X10337563Y-12781436D01*
X10337563Y-12781436D02*
X10328039Y-12762388D01*
X10328039Y-12762388D02*
X10318515Y-12724293D01*
X10318515Y-12724293D02*
X10318515Y-12676674D01*
X10318515Y-12676674D02*
X10328039Y-12638579D01*
X10328039Y-12638579D02*
X10337563Y-12619531D01*
X10337563Y-12619531D02*
X10347087Y-12610008D01*
X10347087Y-12610008D02*
X10366134Y-12600484D01*
X10518515Y-12781436D02*
X10528039Y-12790960D01*
X10528039Y-12790960D02*
X10518515Y-12800484D01*
X10518515Y-12800484D02*
X10508991Y-12790960D01*
X10508991Y-12790960D02*
X10518515Y-12781436D01*
X10518515Y-12781436D02*
X10518515Y-12800484D01*
X10651848Y-12600484D02*
X10670896Y-12600484D01*
X10670896Y-12600484D02*
X10689944Y-12610008D01*
X10689944Y-12610008D02*
X10699468Y-12619531D01*
X10699468Y-12619531D02*
X10708991Y-12638579D01*
X10708991Y-12638579D02*
X10718515Y-12676674D01*
X10718515Y-12676674D02*
X10718515Y-12724293D01*
X10718515Y-12724293D02*
X10708991Y-12762388D01*
X10708991Y-12762388D02*
X10699468Y-12781436D01*
X10699468Y-12781436D02*
X10689944Y-12790960D01*
X10689944Y-12790960D02*
X10670896Y-12800484D01*
X10670896Y-12800484D02*
X10651848Y-12800484D01*
X10651848Y-12800484D02*
X10632801Y-12790960D01*
X10632801Y-12790960D02*
X10623277Y-12781436D01*
X10623277Y-12781436D02*
X10613753Y-12762388D01*
X10613753Y-12762388D02*
X10604229Y-12724293D01*
X10604229Y-12724293D02*
X10604229Y-12676674D01*
X10604229Y-12676674D02*
X10613753Y-12638579D01*
X10613753Y-12638579D02*
X10623277Y-12619531D01*
X10623277Y-12619531D02*
X10632801Y-12610008D01*
X10632801Y-12610008D02*
X10651848Y-12600484D01*
X10785182Y-12600484D02*
X10918515Y-12600484D01*
X10918515Y-12600484D02*
X10832801Y-12800484D01*
X11089944Y-12600484D02*
X10994706Y-12600484D01*
X10994706Y-12600484D02*
X10985182Y-12695722D01*
X10985182Y-12695722D02*
X10994706Y-12686198D01*
X10994706Y-12686198D02*
X11013753Y-12676674D01*
X11013753Y-12676674D02*
X11061372Y-12676674D01*
X11061372Y-12676674D02*
X11080420Y-12686198D01*
X11080420Y-12686198D02*
X11089944Y-12695722D01*
X11089944Y-12695722D02*
X11099468Y-12714769D01*
X11099468Y-12714769D02*
X11099468Y-12762388D01*
X11099468Y-12762388D02*
X11089944Y-12781436D01*
X11089944Y-12781436D02*
X11080420Y-12790960D01*
X11080420Y-12790960D02*
X11061372Y-12800484D01*
X11061372Y-12800484D02*
X11013753Y-12800484D01*
X11013753Y-12800484D02*
X10994706Y-12790960D01*
X10994706Y-12790960D02*
X10985182Y-12781436D01*
X11223277Y-12600484D02*
X11242325Y-12600484D01*
X11242325Y-12600484D02*
X11261372Y-12610008D01*
X11261372Y-12610008D02*
X11270896Y-12619531D01*
X11270896Y-12619531D02*
X11280420Y-12638579D01*
X11280420Y-12638579D02*
X11289944Y-12676674D01*
X11289944Y-12676674D02*
X11289944Y-12724293D01*
X11289944Y-12724293D02*
X11280420Y-12762388D01*
X11280420Y-12762388D02*
X11270896Y-12781436D01*
X11270896Y-12781436D02*
X11261372Y-12790960D01*
X11261372Y-12790960D02*
X11242325Y-12800484D01*
X11242325Y-12800484D02*
X11223277Y-12800484D01*
X11223277Y-12800484D02*
X11204229Y-12790960D01*
X11204229Y-12790960D02*
X11194706Y-12781436D01*
X11194706Y-12781436D02*
X11185182Y-12762388D01*
X11185182Y-12762388D02*
X11175658Y-12724293D01*
X11175658Y-12724293D02*
X11175658Y-12676674D01*
X11175658Y-12676674D02*
X11185182Y-12638579D01*
X11185182Y-12638579D02*
X11194706Y-12619531D01*
X11194706Y-12619531D02*
X11204229Y-12610008D01*
X11204229Y-12610008D02*
X11223277Y-12600484D01*
X11366134Y-12600484D02*
X11366134Y-12638579D01*
X11442325Y-12600484D02*
X11442325Y-12638579D01*
X11737563Y-12876674D02*
X11728039Y-12867150D01*
X11728039Y-12867150D02*
X11708991Y-12838579D01*
X11708991Y-12838579D02*
X11699468Y-12819531D01*
X11699468Y-12819531D02*
X11689944Y-12790960D01*
X11689944Y-12790960D02*
X11680420Y-12743341D01*
X11680420Y-12743341D02*
X11680420Y-12705246D01*
X11680420Y-12705246D02*
X11689944Y-12657627D01*
X11689944Y-12657627D02*
X11699468Y-12629055D01*
X11699468Y-12629055D02*
X11708991Y-12610008D01*
X11708991Y-12610008D02*
X11728039Y-12581436D01*
X11728039Y-12581436D02*
X11737563Y-12571912D01*
X11804229Y-12619531D02*
X11813753Y-12610008D01*
X11813753Y-12610008D02*
X11832801Y-12600484D01*
X11832801Y-12600484D02*
X11880420Y-12600484D01*
X11880420Y-12600484D02*
X11899468Y-12610008D01*
X11899468Y-12610008D02*
X11908991Y-12619531D01*
X11908991Y-12619531D02*
X11918515Y-12638579D01*
X11918515Y-12638579D02*
X11918515Y-12657627D01*
X11918515Y-12657627D02*
X11908991Y-12686198D01*
X11908991Y-12686198D02*
X11794706Y-12800484D01*
X11794706Y-12800484D02*
X11918515Y-12800484D01*
X12156610Y-12800484D02*
X12156610Y-12600484D01*
X12242325Y-12800484D02*
X12242325Y-12695722D01*
X12242325Y-12695722D02*
X12232801Y-12676674D01*
X12232801Y-12676674D02*
X12213753Y-12667150D01*
X12213753Y-12667150D02*
X12185182Y-12667150D01*
X12185182Y-12667150D02*
X12166134Y-12676674D01*
X12166134Y-12676674D02*
X12156610Y-12686198D01*
X12366134Y-12800484D02*
X12347087Y-12790960D01*
X12347087Y-12790960D02*
X12337563Y-12781436D01*
X12337563Y-12781436D02*
X12328039Y-12762388D01*
X12328039Y-12762388D02*
X12328039Y-12705246D01*
X12328039Y-12705246D02*
X12337563Y-12686198D01*
X12337563Y-12686198D02*
X12347087Y-12676674D01*
X12347087Y-12676674D02*
X12366134Y-12667150D01*
X12366134Y-12667150D02*
X12394706Y-12667150D01*
X12394706Y-12667150D02*
X12413753Y-12676674D01*
X12413753Y-12676674D02*
X12423277Y-12686198D01*
X12423277Y-12686198D02*
X12432801Y-12705246D01*
X12432801Y-12705246D02*
X12432801Y-12762388D01*
X12432801Y-12762388D02*
X12423277Y-12781436D01*
X12423277Y-12781436D02*
X12413753Y-12790960D01*
X12413753Y-12790960D02*
X12394706Y-12800484D01*
X12394706Y-12800484D02*
X12366134Y-12800484D01*
X12547087Y-12800484D02*
X12528039Y-12790960D01*
X12528039Y-12790960D02*
X12518515Y-12771912D01*
X12518515Y-12771912D02*
X12518515Y-12600484D01*
X12699468Y-12790960D02*
X12680420Y-12800484D01*
X12680420Y-12800484D02*
X12642325Y-12800484D01*
X12642325Y-12800484D02*
X12623277Y-12790960D01*
X12623277Y-12790960D02*
X12613753Y-12771912D01*
X12613753Y-12771912D02*
X12613753Y-12695722D01*
X12613753Y-12695722D02*
X12623277Y-12676674D01*
X12623277Y-12676674D02*
X12642325Y-12667150D01*
X12642325Y-12667150D02*
X12680420Y-12667150D01*
X12680420Y-12667150D02*
X12699468Y-12676674D01*
X12699468Y-12676674D02*
X12708991Y-12695722D01*
X12708991Y-12695722D02*
X12708991Y-12714769D01*
X12708991Y-12714769D02*
X12613753Y-12733817D01*
X12785182Y-12790960D02*
X12804230Y-12800484D01*
X12804230Y-12800484D02*
X12842325Y-12800484D01*
X12842325Y-12800484D02*
X12861372Y-12790960D01*
X12861372Y-12790960D02*
X12870896Y-12771912D01*
X12870896Y-12771912D02*
X12870896Y-12762388D01*
X12870896Y-12762388D02*
X12861372Y-12743341D01*
X12861372Y-12743341D02*
X12842325Y-12733817D01*
X12842325Y-12733817D02*
X12813753Y-12733817D01*
X12813753Y-12733817D02*
X12794706Y-12724293D01*
X12794706Y-12724293D02*
X12785182Y-12705246D01*
X12785182Y-12705246D02*
X12785182Y-12695722D01*
X12785182Y-12695722D02*
X12794706Y-12676674D01*
X12794706Y-12676674D02*
X12813753Y-12667150D01*
X12813753Y-12667150D02*
X12842325Y-12667150D01*
X12842325Y-12667150D02*
X12861372Y-12676674D01*
X12937563Y-12876674D02*
X12947087Y-12867150D01*
X12947087Y-12867150D02*
X12966134Y-12838579D01*
X12966134Y-12838579D02*
X12975658Y-12819531D01*
X12975658Y-12819531D02*
X12985182Y-12790960D01*
X12985182Y-12790960D02*
X12994706Y-12743341D01*
X12994706Y-12743341D02*
X12994706Y-12705246D01*
X12994706Y-12705246D02*
X12985182Y-12657627D01*
X12985182Y-12657627D02*
X12975658Y-12629055D01*
X12975658Y-12629055D02*
X12966134Y-12610008D01*
X12966134Y-12610008D02*
X12947087Y-12581436D01*
X12947087Y-12581436D02*
X12937563Y-12571912D01*
X13299468Y-12876674D02*
X13289944Y-12867150D01*
X13289944Y-12867150D02*
X13270896Y-12838579D01*
X13270896Y-12838579D02*
X13261372Y-12819531D01*
X13261372Y-12819531D02*
X13251849Y-12790960D01*
X13251849Y-12790960D02*
X13242325Y-12743341D01*
X13242325Y-12743341D02*
X13242325Y-12705246D01*
X13242325Y-12705246D02*
X13251849Y-12657627D01*
X13251849Y-12657627D02*
X13261372Y-12629055D01*
X13261372Y-12629055D02*
X13270896Y-12610008D01*
X13270896Y-12610008D02*
X13289944Y-12581436D01*
X13289944Y-12581436D02*
X13299468Y-12571912D01*
X13375658Y-12667150D02*
X13375658Y-12800484D01*
X13375658Y-12686198D02*
X13385182Y-12676674D01*
X13385182Y-12676674D02*
X13404230Y-12667150D01*
X13404230Y-12667150D02*
X13432801Y-12667150D01*
X13432801Y-12667150D02*
X13451849Y-12676674D01*
X13451849Y-12676674D02*
X13461372Y-12695722D01*
X13461372Y-12695722D02*
X13461372Y-12800484D01*
X13585182Y-12800484D02*
X13566134Y-12790960D01*
X13566134Y-12790960D02*
X13556611Y-12781436D01*
X13556611Y-12781436D02*
X13547087Y-12762388D01*
X13547087Y-12762388D02*
X13547087Y-12705246D01*
X13547087Y-12705246D02*
X13556611Y-12686198D01*
X13556611Y-12686198D02*
X13566134Y-12676674D01*
X13566134Y-12676674D02*
X13585182Y-12667150D01*
X13585182Y-12667150D02*
X13613753Y-12667150D01*
X13613753Y-12667150D02*
X13632801Y-12676674D01*
X13632801Y-12676674D02*
X13642325Y-12686198D01*
X13642325Y-12686198D02*
X13651849Y-12705246D01*
X13651849Y-12705246D02*
X13651849Y-12762388D01*
X13651849Y-12762388D02*
X13642325Y-12781436D01*
X13642325Y-12781436D02*
X13632801Y-12790960D01*
X13632801Y-12790960D02*
X13613753Y-12800484D01*
X13613753Y-12800484D02*
X13585182Y-12800484D01*
X13708992Y-12667150D02*
X13785182Y-12667150D01*
X13737563Y-12600484D02*
X13737563Y-12771912D01*
X13737563Y-12771912D02*
X13747087Y-12790960D01*
X13747087Y-12790960D02*
X13766134Y-12800484D01*
X13766134Y-12800484D02*
X13785182Y-12800484D01*
X14004230Y-12667150D02*
X14004230Y-12867150D01*
X14004230Y-12676674D02*
X14023277Y-12667150D01*
X14023277Y-12667150D02*
X14061373Y-12667150D01*
X14061373Y-12667150D02*
X14080420Y-12676674D01*
X14080420Y-12676674D02*
X14089944Y-12686198D01*
X14089944Y-12686198D02*
X14099468Y-12705246D01*
X14099468Y-12705246D02*
X14099468Y-12762388D01*
X14099468Y-12762388D02*
X14089944Y-12781436D01*
X14089944Y-12781436D02*
X14080420Y-12790960D01*
X14080420Y-12790960D02*
X14061373Y-12800484D01*
X14061373Y-12800484D02*
X14023277Y-12800484D01*
X14023277Y-12800484D02*
X14004230Y-12790960D01*
X14213753Y-12800484D02*
X14194706Y-12790960D01*
X14194706Y-12790960D02*
X14185182Y-12771912D01*
X14185182Y-12771912D02*
X14185182Y-12600484D01*
X14375658Y-12800484D02*
X14375658Y-12695722D01*
X14375658Y-12695722D02*
X14366134Y-12676674D01*
X14366134Y-12676674D02*
X14347087Y-12667150D01*
X14347087Y-12667150D02*
X14308992Y-12667150D01*
X14308992Y-12667150D02*
X14289944Y-12676674D01*
X14375658Y-12790960D02*
X14356611Y-12800484D01*
X14356611Y-12800484D02*
X14308992Y-12800484D01*
X14308992Y-12800484D02*
X14289944Y-12790960D01*
X14289944Y-12790960D02*
X14280420Y-12771912D01*
X14280420Y-12771912D02*
X14280420Y-12752865D01*
X14280420Y-12752865D02*
X14289944Y-12733817D01*
X14289944Y-12733817D02*
X14308992Y-12724293D01*
X14308992Y-12724293D02*
X14356611Y-12724293D01*
X14356611Y-12724293D02*
X14375658Y-12714769D01*
X14442325Y-12667150D02*
X14518515Y-12667150D01*
X14470896Y-12600484D02*
X14470896Y-12771912D01*
X14470896Y-12771912D02*
X14480420Y-12790960D01*
X14480420Y-12790960D02*
X14499468Y-12800484D01*
X14499468Y-12800484D02*
X14518515Y-12800484D01*
X14661373Y-12790960D02*
X14642325Y-12800484D01*
X14642325Y-12800484D02*
X14604230Y-12800484D01*
X14604230Y-12800484D02*
X14585182Y-12790960D01*
X14585182Y-12790960D02*
X14575658Y-12771912D01*
X14575658Y-12771912D02*
X14575658Y-12695722D01*
X14575658Y-12695722D02*
X14585182Y-12676674D01*
X14585182Y-12676674D02*
X14604230Y-12667150D01*
X14604230Y-12667150D02*
X14642325Y-12667150D01*
X14642325Y-12667150D02*
X14661373Y-12676674D01*
X14661373Y-12676674D02*
X14670896Y-12695722D01*
X14670896Y-12695722D02*
X14670896Y-12714769D01*
X14670896Y-12714769D02*
X14575658Y-12733817D01*
X14842325Y-12800484D02*
X14842325Y-12600484D01*
X14842325Y-12790960D02*
X14823277Y-12800484D01*
X14823277Y-12800484D02*
X14785182Y-12800484D01*
X14785182Y-12800484D02*
X14766134Y-12790960D01*
X14766134Y-12790960D02*
X14756611Y-12781436D01*
X14756611Y-12781436D02*
X14747087Y-12762388D01*
X14747087Y-12762388D02*
X14747087Y-12705246D01*
X14747087Y-12705246D02*
X14756611Y-12686198D01*
X14756611Y-12686198D02*
X14766134Y-12676674D01*
X14766134Y-12676674D02*
X14785182Y-12667150D01*
X14785182Y-12667150D02*
X14823277Y-12667150D01*
X14823277Y-12667150D02*
X14842325Y-12676674D01*
X14918515Y-12876674D02*
X14928039Y-12867150D01*
X14928039Y-12867150D02*
X14947087Y-12838579D01*
X14947087Y-12838579D02*
X14956611Y-12819531D01*
X14956611Y-12819531D02*
X14966134Y-12790960D01*
X14966134Y-12790960D02*
X14975658Y-12743341D01*
X14975658Y-12743341D02*
X14975658Y-12705246D01*
X14975658Y-12705246D02*
X14966134Y-12657627D01*
X14966134Y-12657627D02*
X14956611Y-12629055D01*
X14956611Y-12629055D02*
X14947087Y-12610008D01*
X14947087Y-12610008D02*
X14928039Y-12581436D01*
X14928039Y-12581436D02*
X14918515Y-12571912D01*
X8062500Y-12919500D02*
X8062500Y-13119500D01*
X7962500Y-13019500D02*
X8162500Y-13019500D01*
X8413753Y-12930031D02*
X8423277Y-12920508D01*
X8423277Y-12920508D02*
X8442324Y-12910984D01*
X8442324Y-12910984D02*
X8489944Y-12910984D01*
X8489944Y-12910984D02*
X8508991Y-12920508D01*
X8508991Y-12920508D02*
X8518515Y-12930031D01*
X8518515Y-12930031D02*
X8528039Y-12949079D01*
X8528039Y-12949079D02*
X8528039Y-12968127D01*
X8528039Y-12968127D02*
X8518515Y-12996698D01*
X8518515Y-12996698D02*
X8404229Y-13110984D01*
X8404229Y-13110984D02*
X8528039Y-13110984D01*
X8613753Y-13091936D02*
X8623277Y-13101460D01*
X8623277Y-13101460D02*
X8613753Y-13110984D01*
X8613753Y-13110984D02*
X8604229Y-13101460D01*
X8604229Y-13101460D02*
X8613753Y-13091936D01*
X8613753Y-13091936D02*
X8613753Y-13110984D01*
X8699467Y-12930031D02*
X8708991Y-12920508D01*
X8708991Y-12920508D02*
X8728039Y-12910984D01*
X8728039Y-12910984D02*
X8775658Y-12910984D01*
X8775658Y-12910984D02*
X8794705Y-12920508D01*
X8794705Y-12920508D02*
X8804229Y-12930031D01*
X8804229Y-12930031D02*
X8813753Y-12949079D01*
X8813753Y-12949079D02*
X8813753Y-12968127D01*
X8813753Y-12968127D02*
X8804229Y-12996698D01*
X8804229Y-12996698D02*
X8689944Y-13110984D01*
X8689944Y-13110984D02*
X8813753Y-13110984D01*
X8937563Y-12910984D02*
X8956610Y-12910984D01*
X8956610Y-12910984D02*
X8975658Y-12920508D01*
X8975658Y-12920508D02*
X8985182Y-12930031D01*
X8985182Y-12930031D02*
X8994705Y-12949079D01*
X8994705Y-12949079D02*
X9004229Y-12987174D01*
X9004229Y-12987174D02*
X9004229Y-13034793D01*
X9004229Y-13034793D02*
X8994705Y-13072888D01*
X8994705Y-13072888D02*
X8985182Y-13091936D01*
X8985182Y-13091936D02*
X8975658Y-13101460D01*
X8975658Y-13101460D02*
X8956610Y-13110984D01*
X8956610Y-13110984D02*
X8937563Y-13110984D01*
X8937563Y-13110984D02*
X8918515Y-13101460D01*
X8918515Y-13101460D02*
X8908991Y-13091936D01*
X8908991Y-13091936D02*
X8899467Y-13072888D01*
X8899467Y-13072888D02*
X8889944Y-13034793D01*
X8889944Y-13034793D02*
X8889944Y-12987174D01*
X8889944Y-12987174D02*
X8899467Y-12949079D01*
X8899467Y-12949079D02*
X8908991Y-12930031D01*
X8908991Y-12930031D02*
X8918515Y-12920508D01*
X8918515Y-12920508D02*
X8937563Y-12910984D01*
X9128039Y-12910984D02*
X9147086Y-12910984D01*
X9147086Y-12910984D02*
X9166134Y-12920508D01*
X9166134Y-12920508D02*
X9175658Y-12930031D01*
X9175658Y-12930031D02*
X9185182Y-12949079D01*
X9185182Y-12949079D02*
X9194705Y-12987174D01*
X9194705Y-12987174D02*
X9194705Y-13034793D01*
X9194705Y-13034793D02*
X9185182Y-13072888D01*
X9185182Y-13072888D02*
X9175658Y-13091936D01*
X9175658Y-13091936D02*
X9166134Y-13101460D01*
X9166134Y-13101460D02*
X9147086Y-13110984D01*
X9147086Y-13110984D02*
X9128039Y-13110984D01*
X9128039Y-13110984D02*
X9108991Y-13101460D01*
X9108991Y-13101460D02*
X9099467Y-13091936D01*
X9099467Y-13091936D02*
X9089944Y-13072888D01*
X9089944Y-13072888D02*
X9080420Y-13034793D01*
X9080420Y-13034793D02*
X9080420Y-12987174D01*
X9080420Y-12987174D02*
X9089944Y-12949079D01*
X9089944Y-12949079D02*
X9099467Y-12930031D01*
X9099467Y-12930031D02*
X9108991Y-12920508D01*
X9108991Y-12920508D02*
X9128039Y-12910984D01*
X9280420Y-13110984D02*
X9280420Y-12977650D01*
X9280420Y-12996698D02*
X9289944Y-12987174D01*
X9289944Y-12987174D02*
X9308991Y-12977650D01*
X9308991Y-12977650D02*
X9337563Y-12977650D01*
X9337563Y-12977650D02*
X9356610Y-12987174D01*
X9356610Y-12987174D02*
X9366134Y-13006222D01*
X9366134Y-13006222D02*
X9366134Y-13110984D01*
X9366134Y-13006222D02*
X9375658Y-12987174D01*
X9375658Y-12987174D02*
X9394705Y-12977650D01*
X9394705Y-12977650D02*
X9423277Y-12977650D01*
X9423277Y-12977650D02*
X9442325Y-12987174D01*
X9442325Y-12987174D02*
X9451848Y-13006222D01*
X9451848Y-13006222D02*
X9451848Y-13110984D01*
X9547086Y-13110984D02*
X9547086Y-12977650D01*
X9547086Y-12996698D02*
X9556610Y-12987174D01*
X9556610Y-12987174D02*
X9575658Y-12977650D01*
X9575658Y-12977650D02*
X9604229Y-12977650D01*
X9604229Y-12977650D02*
X9623277Y-12987174D01*
X9623277Y-12987174D02*
X9632801Y-13006222D01*
X9632801Y-13006222D02*
X9632801Y-13110984D01*
X9632801Y-13006222D02*
X9642325Y-12987174D01*
X9642325Y-12987174D02*
X9661372Y-12977650D01*
X9661372Y-12977650D02*
X9689944Y-12977650D01*
X9689944Y-12977650D02*
X9708991Y-12987174D01*
X9708991Y-12987174D02*
X9718515Y-13006222D01*
X9718515Y-13006222D02*
X9718515Y-13110984D01*
X10108991Y-12901460D02*
X9937563Y-13158603D01*
X10366134Y-12910984D02*
X10385182Y-12910984D01*
X10385182Y-12910984D02*
X10404229Y-12920508D01*
X10404229Y-12920508D02*
X10413753Y-12930031D01*
X10413753Y-12930031D02*
X10423277Y-12949079D01*
X10423277Y-12949079D02*
X10432801Y-12987174D01*
X10432801Y-12987174D02*
X10432801Y-13034793D01*
X10432801Y-13034793D02*
X10423277Y-13072888D01*
X10423277Y-13072888D02*
X10413753Y-13091936D01*
X10413753Y-13091936D02*
X10404229Y-13101460D01*
X10404229Y-13101460D02*
X10385182Y-13110984D01*
X10385182Y-13110984D02*
X10366134Y-13110984D01*
X10366134Y-13110984D02*
X10347087Y-13101460D01*
X10347087Y-13101460D02*
X10337563Y-13091936D01*
X10337563Y-13091936D02*
X10328039Y-13072888D01*
X10328039Y-13072888D02*
X10318515Y-13034793D01*
X10318515Y-13034793D02*
X10318515Y-12987174D01*
X10318515Y-12987174D02*
X10328039Y-12949079D01*
X10328039Y-12949079D02*
X10337563Y-12930031D01*
X10337563Y-12930031D02*
X10347087Y-12920508D01*
X10347087Y-12920508D02*
X10366134Y-12910984D01*
X10518515Y-13091936D02*
X10528039Y-13101460D01*
X10528039Y-13101460D02*
X10518515Y-13110984D01*
X10518515Y-13110984D02*
X10508991Y-13101460D01*
X10508991Y-13101460D02*
X10518515Y-13091936D01*
X10518515Y-13091936D02*
X10518515Y-13110984D01*
X10651848Y-12910984D02*
X10670896Y-12910984D01*
X10670896Y-12910984D02*
X10689944Y-12920508D01*
X10689944Y-12920508D02*
X10699468Y-12930031D01*
X10699468Y-12930031D02*
X10708991Y-12949079D01*
X10708991Y-12949079D02*
X10718515Y-12987174D01*
X10718515Y-12987174D02*
X10718515Y-13034793D01*
X10718515Y-13034793D02*
X10708991Y-13072888D01*
X10708991Y-13072888D02*
X10699468Y-13091936D01*
X10699468Y-13091936D02*
X10689944Y-13101460D01*
X10689944Y-13101460D02*
X10670896Y-13110984D01*
X10670896Y-13110984D02*
X10651848Y-13110984D01*
X10651848Y-13110984D02*
X10632801Y-13101460D01*
X10632801Y-13101460D02*
X10623277Y-13091936D01*
X10623277Y-13091936D02*
X10613753Y-13072888D01*
X10613753Y-13072888D02*
X10604229Y-13034793D01*
X10604229Y-13034793D02*
X10604229Y-12987174D01*
X10604229Y-12987174D02*
X10613753Y-12949079D01*
X10613753Y-12949079D02*
X10623277Y-12930031D01*
X10623277Y-12930031D02*
X10632801Y-12920508D01*
X10632801Y-12920508D02*
X10651848Y-12910984D01*
X10832801Y-12996698D02*
X10813753Y-12987174D01*
X10813753Y-12987174D02*
X10804229Y-12977650D01*
X10804229Y-12977650D02*
X10794706Y-12958603D01*
X10794706Y-12958603D02*
X10794706Y-12949079D01*
X10794706Y-12949079D02*
X10804229Y-12930031D01*
X10804229Y-12930031D02*
X10813753Y-12920508D01*
X10813753Y-12920508D02*
X10832801Y-12910984D01*
X10832801Y-12910984D02*
X10870896Y-12910984D01*
X10870896Y-12910984D02*
X10889944Y-12920508D01*
X10889944Y-12920508D02*
X10899468Y-12930031D01*
X10899468Y-12930031D02*
X10908991Y-12949079D01*
X10908991Y-12949079D02*
X10908991Y-12958603D01*
X10908991Y-12958603D02*
X10899468Y-12977650D01*
X10899468Y-12977650D02*
X10889944Y-12987174D01*
X10889944Y-12987174D02*
X10870896Y-12996698D01*
X10870896Y-12996698D02*
X10832801Y-12996698D01*
X10832801Y-12996698D02*
X10813753Y-13006222D01*
X10813753Y-13006222D02*
X10804229Y-13015746D01*
X10804229Y-13015746D02*
X10794706Y-13034793D01*
X10794706Y-13034793D02*
X10794706Y-13072888D01*
X10794706Y-13072888D02*
X10804229Y-13091936D01*
X10804229Y-13091936D02*
X10813753Y-13101460D01*
X10813753Y-13101460D02*
X10832801Y-13110984D01*
X10832801Y-13110984D02*
X10870896Y-13110984D01*
X10870896Y-13110984D02*
X10889944Y-13101460D01*
X10889944Y-13101460D02*
X10899468Y-13091936D01*
X10899468Y-13091936D02*
X10908991Y-13072888D01*
X10908991Y-13072888D02*
X10908991Y-13034793D01*
X10908991Y-13034793D02*
X10899468Y-13015746D01*
X10899468Y-13015746D02*
X10889944Y-13006222D01*
X10889944Y-13006222D02*
X10870896Y-12996698D01*
X11080420Y-12910984D02*
X11042325Y-12910984D01*
X11042325Y-12910984D02*
X11023277Y-12920508D01*
X11023277Y-12920508D02*
X11013753Y-12930031D01*
X11013753Y-12930031D02*
X10994706Y-12958603D01*
X10994706Y-12958603D02*
X10985182Y-12996698D01*
X10985182Y-12996698D02*
X10985182Y-13072888D01*
X10985182Y-13072888D02*
X10994706Y-13091936D01*
X10994706Y-13091936D02*
X11004229Y-13101460D01*
X11004229Y-13101460D02*
X11023277Y-13110984D01*
X11023277Y-13110984D02*
X11061372Y-13110984D01*
X11061372Y-13110984D02*
X11080420Y-13101460D01*
X11080420Y-13101460D02*
X11089944Y-13091936D01*
X11089944Y-13091936D02*
X11099468Y-13072888D01*
X11099468Y-13072888D02*
X11099468Y-13025269D01*
X11099468Y-13025269D02*
X11089944Y-13006222D01*
X11089944Y-13006222D02*
X11080420Y-12996698D01*
X11080420Y-12996698D02*
X11061372Y-12987174D01*
X11061372Y-12987174D02*
X11023277Y-12987174D01*
X11023277Y-12987174D02*
X11004229Y-12996698D01*
X11004229Y-12996698D02*
X10994706Y-13006222D01*
X10994706Y-13006222D02*
X10985182Y-13025269D01*
X11270896Y-12910984D02*
X11232801Y-12910984D01*
X11232801Y-12910984D02*
X11213753Y-12920508D01*
X11213753Y-12920508D02*
X11204229Y-12930031D01*
X11204229Y-12930031D02*
X11185182Y-12958603D01*
X11185182Y-12958603D02*
X11175658Y-12996698D01*
X11175658Y-12996698D02*
X11175658Y-13072888D01*
X11175658Y-13072888D02*
X11185182Y-13091936D01*
X11185182Y-13091936D02*
X11194706Y-13101460D01*
X11194706Y-13101460D02*
X11213753Y-13110984D01*
X11213753Y-13110984D02*
X11251848Y-13110984D01*
X11251848Y-13110984D02*
X11270896Y-13101460D01*
X11270896Y-13101460D02*
X11280420Y-13091936D01*
X11280420Y-13091936D02*
X11289944Y-13072888D01*
X11289944Y-13072888D02*
X11289944Y-13025269D01*
X11289944Y-13025269D02*
X11280420Y-13006222D01*
X11280420Y-13006222D02*
X11270896Y-12996698D01*
X11270896Y-12996698D02*
X11251848Y-12987174D01*
X11251848Y-12987174D02*
X11213753Y-12987174D01*
X11213753Y-12987174D02*
X11194706Y-12996698D01*
X11194706Y-12996698D02*
X11185182Y-13006222D01*
X11185182Y-13006222D02*
X11175658Y-13025269D01*
X11366134Y-12910984D02*
X11366134Y-12949079D01*
X11442325Y-12910984D02*
X11442325Y-12949079D01*
X11737563Y-13187174D02*
X11728039Y-13177650D01*
X11728039Y-13177650D02*
X11708991Y-13149079D01*
X11708991Y-13149079D02*
X11699468Y-13130031D01*
X11699468Y-13130031D02*
X11689944Y-13101460D01*
X11689944Y-13101460D02*
X11680420Y-13053841D01*
X11680420Y-13053841D02*
X11680420Y-13015746D01*
X11680420Y-13015746D02*
X11689944Y-12968127D01*
X11689944Y-12968127D02*
X11699468Y-12939555D01*
X11699468Y-12939555D02*
X11708991Y-12920508D01*
X11708991Y-12920508D02*
X11728039Y-12891936D01*
X11728039Y-12891936D02*
X11737563Y-12882412D01*
X11899468Y-12977650D02*
X11899468Y-13110984D01*
X11851848Y-12901460D02*
X11804229Y-13044317D01*
X11804229Y-13044317D02*
X11928039Y-13044317D01*
X12156610Y-13110984D02*
X12156610Y-12910984D01*
X12242325Y-13110984D02*
X12242325Y-13006222D01*
X12242325Y-13006222D02*
X12232801Y-12987174D01*
X12232801Y-12987174D02*
X12213753Y-12977650D01*
X12213753Y-12977650D02*
X12185182Y-12977650D01*
X12185182Y-12977650D02*
X12166134Y-12987174D01*
X12166134Y-12987174D02*
X12156610Y-12996698D01*
X12366134Y-13110984D02*
X12347087Y-13101460D01*
X12347087Y-13101460D02*
X12337563Y-13091936D01*
X12337563Y-13091936D02*
X12328039Y-13072888D01*
X12328039Y-13072888D02*
X12328039Y-13015746D01*
X12328039Y-13015746D02*
X12337563Y-12996698D01*
X12337563Y-12996698D02*
X12347087Y-12987174D01*
X12347087Y-12987174D02*
X12366134Y-12977650D01*
X12366134Y-12977650D02*
X12394706Y-12977650D01*
X12394706Y-12977650D02*
X12413753Y-12987174D01*
X12413753Y-12987174D02*
X12423277Y-12996698D01*
X12423277Y-12996698D02*
X12432801Y-13015746D01*
X12432801Y-13015746D02*
X12432801Y-13072888D01*
X12432801Y-13072888D02*
X12423277Y-13091936D01*
X12423277Y-13091936D02*
X12413753Y-13101460D01*
X12413753Y-13101460D02*
X12394706Y-13110984D01*
X12394706Y-13110984D02*
X12366134Y-13110984D01*
X12547087Y-13110984D02*
X12528039Y-13101460D01*
X12528039Y-13101460D02*
X12518515Y-13082412D01*
X12518515Y-13082412D02*
X12518515Y-12910984D01*
X12699468Y-13101460D02*
X12680420Y-13110984D01*
X12680420Y-13110984D02*
X12642325Y-13110984D01*
X12642325Y-13110984D02*
X12623277Y-13101460D01*
X12623277Y-13101460D02*
X12613753Y-13082412D01*
X12613753Y-13082412D02*
X12613753Y-13006222D01*
X12613753Y-13006222D02*
X12623277Y-12987174D01*
X12623277Y-12987174D02*
X12642325Y-12977650D01*
X12642325Y-12977650D02*
X12680420Y-12977650D01*
X12680420Y-12977650D02*
X12699468Y-12987174D01*
X12699468Y-12987174D02*
X12708991Y-13006222D01*
X12708991Y-13006222D02*
X12708991Y-13025269D01*
X12708991Y-13025269D02*
X12613753Y-13044317D01*
X12785182Y-13101460D02*
X12804230Y-13110984D01*
X12804230Y-13110984D02*
X12842325Y-13110984D01*
X12842325Y-13110984D02*
X12861372Y-13101460D01*
X12861372Y-13101460D02*
X12870896Y-13082412D01*
X12870896Y-13082412D02*
X12870896Y-13072888D01*
X12870896Y-13072888D02*
X12861372Y-13053841D01*
X12861372Y-13053841D02*
X12842325Y-13044317D01*
X12842325Y-13044317D02*
X12813753Y-13044317D01*
X12813753Y-13044317D02*
X12794706Y-13034793D01*
X12794706Y-13034793D02*
X12785182Y-13015746D01*
X12785182Y-13015746D02*
X12785182Y-13006222D01*
X12785182Y-13006222D02*
X12794706Y-12987174D01*
X12794706Y-12987174D02*
X12813753Y-12977650D01*
X12813753Y-12977650D02*
X12842325Y-12977650D01*
X12842325Y-12977650D02*
X12861372Y-12987174D01*
X12937563Y-13187174D02*
X12947087Y-13177650D01*
X12947087Y-13177650D02*
X12966134Y-13149079D01*
X12966134Y-13149079D02*
X12975658Y-13130031D01*
X12975658Y-13130031D02*
X12985182Y-13101460D01*
X12985182Y-13101460D02*
X12994706Y-13053841D01*
X12994706Y-13053841D02*
X12994706Y-13015746D01*
X12994706Y-13015746D02*
X12985182Y-12968127D01*
X12985182Y-12968127D02*
X12975658Y-12939555D01*
X12975658Y-12939555D02*
X12966134Y-12920508D01*
X12966134Y-12920508D02*
X12947087Y-12891936D01*
X12947087Y-12891936D02*
X12937563Y-12882412D01*
X13299468Y-13187174D02*
X13289944Y-13177650D01*
X13289944Y-13177650D02*
X13270896Y-13149079D01*
X13270896Y-13149079D02*
X13261372Y-13130031D01*
X13261372Y-13130031D02*
X13251849Y-13101460D01*
X13251849Y-13101460D02*
X13242325Y-13053841D01*
X13242325Y-13053841D02*
X13242325Y-13015746D01*
X13242325Y-13015746D02*
X13251849Y-12968127D01*
X13251849Y-12968127D02*
X13261372Y-12939555D01*
X13261372Y-12939555D02*
X13270896Y-12920508D01*
X13270896Y-12920508D02*
X13289944Y-12891936D01*
X13289944Y-12891936D02*
X13299468Y-12882412D01*
X13375658Y-12977650D02*
X13375658Y-13110984D01*
X13375658Y-12996698D02*
X13385182Y-12987174D01*
X13385182Y-12987174D02*
X13404230Y-12977650D01*
X13404230Y-12977650D02*
X13432801Y-12977650D01*
X13432801Y-12977650D02*
X13451849Y-12987174D01*
X13451849Y-12987174D02*
X13461372Y-13006222D01*
X13461372Y-13006222D02*
X13461372Y-13110984D01*
X13585182Y-13110984D02*
X13566134Y-13101460D01*
X13566134Y-13101460D02*
X13556611Y-13091936D01*
X13556611Y-13091936D02*
X13547087Y-13072888D01*
X13547087Y-13072888D02*
X13547087Y-13015746D01*
X13547087Y-13015746D02*
X13556611Y-12996698D01*
X13556611Y-12996698D02*
X13566134Y-12987174D01*
X13566134Y-12987174D02*
X13585182Y-12977650D01*
X13585182Y-12977650D02*
X13613753Y-12977650D01*
X13613753Y-12977650D02*
X13632801Y-12987174D01*
X13632801Y-12987174D02*
X13642325Y-12996698D01*
X13642325Y-12996698D02*
X13651849Y-13015746D01*
X13651849Y-13015746D02*
X13651849Y-13072888D01*
X13651849Y-13072888D02*
X13642325Y-13091936D01*
X13642325Y-13091936D02*
X13632801Y-13101460D01*
X13632801Y-13101460D02*
X13613753Y-13110984D01*
X13613753Y-13110984D02*
X13585182Y-13110984D01*
X13708992Y-12977650D02*
X13785182Y-12977650D01*
X13737563Y-12910984D02*
X13737563Y-13082412D01*
X13737563Y-13082412D02*
X13747087Y-13101460D01*
X13747087Y-13101460D02*
X13766134Y-13110984D01*
X13766134Y-13110984D02*
X13785182Y-13110984D01*
X14004230Y-12977650D02*
X14004230Y-13177650D01*
X14004230Y-12987174D02*
X14023277Y-12977650D01*
X14023277Y-12977650D02*
X14061373Y-12977650D01*
X14061373Y-12977650D02*
X14080420Y-12987174D01*
X14080420Y-12987174D02*
X14089944Y-12996698D01*
X14089944Y-12996698D02*
X14099468Y-13015746D01*
X14099468Y-13015746D02*
X14099468Y-13072888D01*
X14099468Y-13072888D02*
X14089944Y-13091936D01*
X14089944Y-13091936D02*
X14080420Y-13101460D01*
X14080420Y-13101460D02*
X14061373Y-13110984D01*
X14061373Y-13110984D02*
X14023277Y-13110984D01*
X14023277Y-13110984D02*
X14004230Y-13101460D01*
X14213753Y-13110984D02*
X14194706Y-13101460D01*
X14194706Y-13101460D02*
X14185182Y-13082412D01*
X14185182Y-13082412D02*
X14185182Y-12910984D01*
X14375658Y-13110984D02*
X14375658Y-13006222D01*
X14375658Y-13006222D02*
X14366134Y-12987174D01*
X14366134Y-12987174D02*
X14347087Y-12977650D01*
X14347087Y-12977650D02*
X14308992Y-12977650D01*
X14308992Y-12977650D02*
X14289944Y-12987174D01*
X14375658Y-13101460D02*
X14356611Y-13110984D01*
X14356611Y-13110984D02*
X14308992Y-13110984D01*
X14308992Y-13110984D02*
X14289944Y-13101460D01*
X14289944Y-13101460D02*
X14280420Y-13082412D01*
X14280420Y-13082412D02*
X14280420Y-13063365D01*
X14280420Y-13063365D02*
X14289944Y-13044317D01*
X14289944Y-13044317D02*
X14308992Y-13034793D01*
X14308992Y-13034793D02*
X14356611Y-13034793D01*
X14356611Y-13034793D02*
X14375658Y-13025269D01*
X14442325Y-12977650D02*
X14518515Y-12977650D01*
X14470896Y-12910984D02*
X14470896Y-13082412D01*
X14470896Y-13082412D02*
X14480420Y-13101460D01*
X14480420Y-13101460D02*
X14499468Y-13110984D01*
X14499468Y-13110984D02*
X14518515Y-13110984D01*
X14661373Y-13101460D02*
X14642325Y-13110984D01*
X14642325Y-13110984D02*
X14604230Y-13110984D01*
X14604230Y-13110984D02*
X14585182Y-13101460D01*
X14585182Y-13101460D02*
X14575658Y-13082412D01*
X14575658Y-13082412D02*
X14575658Y-13006222D01*
X14575658Y-13006222D02*
X14585182Y-12987174D01*
X14585182Y-12987174D02*
X14604230Y-12977650D01*
X14604230Y-12977650D02*
X14642325Y-12977650D01*
X14642325Y-12977650D02*
X14661373Y-12987174D01*
X14661373Y-12987174D02*
X14670896Y-13006222D01*
X14670896Y-13006222D02*
X14670896Y-13025269D01*
X14670896Y-13025269D02*
X14575658Y-13044317D01*
X14842325Y-13110984D02*
X14842325Y-12910984D01*
X14842325Y-13101460D02*
X14823277Y-13110984D01*
X14823277Y-13110984D02*
X14785182Y-13110984D01*
X14785182Y-13110984D02*
X14766134Y-13101460D01*
X14766134Y-13101460D02*
X14756611Y-13091936D01*
X14756611Y-13091936D02*
X14747087Y-13072888D01*
X14747087Y-13072888D02*
X14747087Y-13015746D01*
X14747087Y-13015746D02*
X14756611Y-12996698D01*
X14756611Y-12996698D02*
X14766134Y-12987174D01*
X14766134Y-12987174D02*
X14785182Y-12977650D01*
X14785182Y-12977650D02*
X14823277Y-12977650D01*
X14823277Y-12977650D02*
X14842325Y-12987174D01*
X14918515Y-13187174D02*
X14928039Y-13177650D01*
X14928039Y-13177650D02*
X14947087Y-13149079D01*
X14947087Y-13149079D02*
X14956611Y-13130031D01*
X14956611Y-13130031D02*
X14966134Y-13101460D01*
X14966134Y-13101460D02*
X14975658Y-13053841D01*
X14975658Y-13053841D02*
X14975658Y-13015746D01*
X14975658Y-13015746D02*
X14966134Y-12968127D01*
X14966134Y-12968127D02*
X14956611Y-12939555D01*
X14956611Y-12939555D02*
X14947087Y-12920508D01*
X14947087Y-12920508D02*
X14928039Y-12891936D01*
X14928039Y-12891936D02*
X14918515Y-12882412D01*
M02*
