G04 #@! TF.GenerationSoftware,KiCad,Pcbnew,7.0.10-7.0.10~ubuntu20.04.1*
G04 #@! TF.CreationDate,2024-05-01T22:25:19+02:00*
G04 #@! TF.ProjectId,endeavour,656e6465-6176-46f7-9572-2e6b69636164,rev?*
G04 #@! TF.SameCoordinates,Original*
G04 #@! TF.FileFunction,Legend,Bot*
G04 #@! TF.FilePolarity,Positive*
%FSLAX46Y46*%
G04 Gerber Fmt 4.6, Leading zero omitted, Abs format (unit mm)*
G04 Created by KiCad (PCBNEW 7.0.10-7.0.10~ubuntu20.04.1) date 2024-05-01 22:25:19*
%MOMM*%
%LPD*%
G01*
G04 APERTURE LIST*
G04 Aperture macros list*
%AMRoundRect*
0 Rectangle with rounded corners*
0 $1 Rounding radius*
0 $2 $3 $4 $5 $6 $7 $8 $9 X,Y pos of 4 corners*
0 Add a 4 corners polygon primitive as box body*
4,1,4,$2,$3,$4,$5,$6,$7,$8,$9,$2,$3,0*
0 Add four circle primitives for the rounded corners*
1,1,$1+$1,$2,$3*
1,1,$1+$1,$4,$5*
1,1,$1+$1,$6,$7*
1,1,$1+$1,$8,$9*
0 Add four rect primitives between the rounded corners*
20,1,$1+$1,$2,$3,$4,$5,0*
20,1,$1+$1,$4,$5,$6,$7,0*
20,1,$1+$1,$6,$7,$8,$9,0*
20,1,$1+$1,$8,$9,$2,$3,0*%
G04 Aperture macros list end*
%ADD10C,0.153000*%
%ADD11C,0.120000*%
%ADD12C,0.150000*%
%ADD13C,0.203200*%
%ADD14C,0.400000*%
%ADD15C,0.508000*%
%ADD16C,0.127000*%
%ADD17RoundRect,0.225000X-0.225000X-0.250000X0.225000X-0.250000X0.225000X0.250000X-0.225000X0.250000X0*%
%ADD18R,1.100000X0.250000*%
%ADD19R,0.300000X1.400000*%
%ADD20RoundRect,0.200000X-0.200000X-0.275000X0.200000X-0.275000X0.200000X0.275000X-0.200000X0.275000X0*%
%ADD21R,1.000000X1.500000*%
%ADD22RoundRect,0.225000X0.250000X-0.225000X0.250000X0.225000X-0.250000X0.225000X-0.250000X-0.225000X0*%
%ADD23RoundRect,0.250000X0.925000X-0.412500X0.925000X0.412500X-0.925000X0.412500X-0.925000X-0.412500X0*%
%ADD24R,1.700000X1.700000*%
%ADD25O,1.700000X1.700000*%
%ADD26C,2.200000*%
%ADD27RoundRect,0.200000X0.200000X0.275000X-0.200000X0.275000X-0.200000X-0.275000X0.200000X-0.275000X0*%
%ADD28R,0.950000X1.050000*%
%ADD29RoundRect,0.102000X-0.200000X-0.650000X0.200000X-0.650000X0.200000X0.650000X-0.200000X0.650000X0*%
%ADD30O,2.900000X1.200000*%
%ADD31C,1.800000*%
%ADD32C,1.600200*%
%ADD33C,1.905000*%
%ADD34C,2.209800*%
%ADD35RoundRect,0.102000X-0.600000X1.750000X-0.600000X-1.750000X0.600000X-1.750000X0.600000X1.750000X0*%
%ADD36RoundRect,0.102000X0.600000X-1.750000X0.600000X1.750000X-0.600000X1.750000X-0.600000X-1.750000X0*%
%ADD37RoundRect,0.102000X1.750000X0.600000X-1.750000X0.600000X-1.750000X-0.600000X1.750000X-0.600000X0*%
%ADD38O,1.800000X1.000000*%
%ADD39O,2.100000X1.000000*%
%ADD40C,0.650000*%
%ADD41RoundRect,0.075000X-0.075000X0.700000X-0.075000X-0.700000X0.075000X-0.700000X0.075000X0.700000X0*%
%ADD42RoundRect,0.075000X-0.700000X0.075000X-0.700000X-0.075000X0.700000X-0.075000X0.700000X0.075000X0*%
%ADD43RoundRect,0.375000X-0.625000X-0.375000X0.625000X-0.375000X0.625000X0.375000X-0.625000X0.375000X0*%
%ADD44RoundRect,0.500000X-0.500000X-1.400000X0.500000X-1.400000X0.500000X1.400000X-0.500000X1.400000X0*%
%ADD45RoundRect,0.150000X-0.512500X-0.150000X0.512500X-0.150000X0.512500X0.150000X-0.512500X0.150000X0*%
%ADD46C,2.000000*%
%ADD47RoundRect,0.200000X0.275000X-0.200000X0.275000X0.200000X-0.275000X0.200000X-0.275000X-0.200000X0*%
%ADD48RoundRect,0.200000X-0.275000X0.200000X-0.275000X-0.200000X0.275000X-0.200000X0.275000X0.200000X0*%
%ADD49RoundRect,0.218750X-0.218750X-0.256250X0.218750X-0.256250X0.218750X0.256250X-0.218750X0.256250X0*%
%ADD50RoundRect,0.225000X0.225000X0.250000X-0.225000X0.250000X-0.225000X-0.250000X0.225000X-0.250000X0*%
G04 APERTURE END LIST*
D10*
X145108866Y-82322044D02*
X144966009Y-82369663D01*
X144966009Y-82369663D02*
X144727914Y-82369663D01*
X144727914Y-82369663D02*
X144632676Y-82322044D01*
X144632676Y-82322044D02*
X144585057Y-82274424D01*
X144585057Y-82274424D02*
X144537438Y-82179186D01*
X144537438Y-82179186D02*
X144537438Y-82083948D01*
X144537438Y-82083948D02*
X144585057Y-81988710D01*
X144585057Y-81988710D02*
X144632676Y-81941091D01*
X144632676Y-81941091D02*
X144727914Y-81893472D01*
X144727914Y-81893472D02*
X144918390Y-81845853D01*
X144918390Y-81845853D02*
X145013628Y-81798234D01*
X145013628Y-81798234D02*
X145061247Y-81750615D01*
X145061247Y-81750615D02*
X145108866Y-81655377D01*
X145108866Y-81655377D02*
X145108866Y-81560139D01*
X145108866Y-81560139D02*
X145061247Y-81464901D01*
X145061247Y-81464901D02*
X145013628Y-81417282D01*
X145013628Y-81417282D02*
X144918390Y-81369663D01*
X144918390Y-81369663D02*
X144680295Y-81369663D01*
X144680295Y-81369663D02*
X144537438Y-81417282D01*
X144108866Y-82369663D02*
X144108866Y-81369663D01*
X144108866Y-81369663D02*
X143537438Y-82369663D01*
X143537438Y-82369663D02*
X143537438Y-81369663D01*
X143061247Y-82369663D02*
X143061247Y-81369663D01*
X143061247Y-81369663D02*
X142823152Y-81369663D01*
X142823152Y-81369663D02*
X142680295Y-81417282D01*
X142680295Y-81417282D02*
X142585057Y-81512520D01*
X142585057Y-81512520D02*
X142537438Y-81607758D01*
X142537438Y-81607758D02*
X142489819Y-81798234D01*
X142489819Y-81798234D02*
X142489819Y-81941091D01*
X142489819Y-81941091D02*
X142537438Y-82131567D01*
X142537438Y-82131567D02*
X142585057Y-82226805D01*
X142585057Y-82226805D02*
X142680295Y-82322044D01*
X142680295Y-82322044D02*
X142823152Y-82369663D01*
X142823152Y-82369663D02*
X143061247Y-82369663D01*
X141299342Y-82369663D02*
X141299342Y-81369663D01*
X141299342Y-81369663D02*
X140918390Y-81369663D01*
X140918390Y-81369663D02*
X140823152Y-81417282D01*
X140823152Y-81417282D02*
X140775533Y-81464901D01*
X140775533Y-81464901D02*
X140727914Y-81560139D01*
X140727914Y-81560139D02*
X140727914Y-81702996D01*
X140727914Y-81702996D02*
X140775533Y-81798234D01*
X140775533Y-81798234D02*
X140823152Y-81845853D01*
X140823152Y-81845853D02*
X140918390Y-81893472D01*
X140918390Y-81893472D02*
X141299342Y-81893472D01*
X140394580Y-81369663D02*
X140156485Y-82369663D01*
X140156485Y-82369663D02*
X139966009Y-81655377D01*
X139966009Y-81655377D02*
X139775533Y-82369663D01*
X139775533Y-82369663D02*
X139537438Y-81369663D01*
X138585057Y-82369663D02*
X138918390Y-81893472D01*
X139156485Y-82369663D02*
X139156485Y-81369663D01*
X139156485Y-81369663D02*
X138775533Y-81369663D01*
X138775533Y-81369663D02*
X138680295Y-81417282D01*
X138680295Y-81417282D02*
X138632676Y-81464901D01*
X138632676Y-81464901D02*
X138585057Y-81560139D01*
X138585057Y-81560139D02*
X138585057Y-81702996D01*
X138585057Y-81702996D02*
X138632676Y-81798234D01*
X138632676Y-81798234D02*
X138680295Y-81845853D01*
X138680295Y-81845853D02*
X138775533Y-81893472D01*
X138775533Y-81893472D02*
X139156485Y-81893472D01*
X145085057Y-83119663D02*
X145561247Y-83119663D01*
X145561247Y-83119663D02*
X145608866Y-83595853D01*
X145608866Y-83595853D02*
X145561247Y-83548234D01*
X145561247Y-83548234D02*
X145466009Y-83500615D01*
X145466009Y-83500615D02*
X145227914Y-83500615D01*
X145227914Y-83500615D02*
X145132676Y-83548234D01*
X145132676Y-83548234D02*
X145085057Y-83595853D01*
X145085057Y-83595853D02*
X145037438Y-83691091D01*
X145037438Y-83691091D02*
X145037438Y-83929186D01*
X145037438Y-83929186D02*
X145085057Y-84024424D01*
X145085057Y-84024424D02*
X145132676Y-84072044D01*
X145132676Y-84072044D02*
X145227914Y-84119663D01*
X145227914Y-84119663D02*
X145466009Y-84119663D01*
X145466009Y-84119663D02*
X145561247Y-84072044D01*
X145561247Y-84072044D02*
X145608866Y-84024424D01*
X144751723Y-83119663D02*
X144418390Y-84119663D01*
X144418390Y-84119663D02*
X144085057Y-83119663D01*
X142156485Y-82869663D02*
X141537438Y-82869663D01*
X141537438Y-82869663D02*
X141870771Y-83250615D01*
X141870771Y-83250615D02*
X141727914Y-83250615D01*
X141727914Y-83250615D02*
X141632676Y-83298234D01*
X141632676Y-83298234D02*
X141585057Y-83345853D01*
X141585057Y-83345853D02*
X141537438Y-83441091D01*
X141537438Y-83441091D02*
X141537438Y-83679186D01*
X141537438Y-83679186D02*
X141585057Y-83774424D01*
X141585057Y-83774424D02*
X141632676Y-83822044D01*
X141632676Y-83822044D02*
X141727914Y-83869663D01*
X141727914Y-83869663D02*
X142013628Y-83869663D01*
X142013628Y-83869663D02*
X142108866Y-83822044D01*
X142108866Y-83822044D02*
X142156485Y-83774424D01*
X141108866Y-83774424D02*
X141061247Y-83822044D01*
X141061247Y-83822044D02*
X141108866Y-83869663D01*
X141108866Y-83869663D02*
X141156485Y-83822044D01*
X141156485Y-83822044D02*
X141108866Y-83774424D01*
X141108866Y-83774424D02*
X141108866Y-83869663D01*
X140727914Y-82869663D02*
X140108867Y-82869663D01*
X140108867Y-82869663D02*
X140442200Y-83250615D01*
X140442200Y-83250615D02*
X140299343Y-83250615D01*
X140299343Y-83250615D02*
X140204105Y-83298234D01*
X140204105Y-83298234D02*
X140156486Y-83345853D01*
X140156486Y-83345853D02*
X140108867Y-83441091D01*
X140108867Y-83441091D02*
X140108867Y-83679186D01*
X140108867Y-83679186D02*
X140156486Y-83774424D01*
X140156486Y-83774424D02*
X140204105Y-83822044D01*
X140204105Y-83822044D02*
X140299343Y-83869663D01*
X140299343Y-83869663D02*
X140585057Y-83869663D01*
X140585057Y-83869663D02*
X140680295Y-83822044D01*
X140680295Y-83822044D02*
X140727914Y-83774424D01*
X139823152Y-82869663D02*
X139489819Y-83869663D01*
X139489819Y-83869663D02*
X139156486Y-82869663D01*
X118954104Y-99369663D02*
X118382676Y-99369663D01*
X118668390Y-100369663D02*
X118668390Y-99369663D01*
X118049342Y-100369663D02*
X118049342Y-99369663D01*
X118049342Y-99369663D02*
X117716009Y-100083948D01*
X117716009Y-100083948D02*
X117382676Y-99369663D01*
X117382676Y-99369663D02*
X117382676Y-100369663D01*
X116954104Y-100322044D02*
X116811247Y-100369663D01*
X116811247Y-100369663D02*
X116573152Y-100369663D01*
X116573152Y-100369663D02*
X116477914Y-100322044D01*
X116477914Y-100322044D02*
X116430295Y-100274424D01*
X116430295Y-100274424D02*
X116382676Y-100179186D01*
X116382676Y-100179186D02*
X116382676Y-100083948D01*
X116382676Y-100083948D02*
X116430295Y-99988710D01*
X116430295Y-99988710D02*
X116477914Y-99941091D01*
X116477914Y-99941091D02*
X116573152Y-99893472D01*
X116573152Y-99893472D02*
X116763628Y-99845853D01*
X116763628Y-99845853D02*
X116858866Y-99798234D01*
X116858866Y-99798234D02*
X116906485Y-99750615D01*
X116906485Y-99750615D02*
X116954104Y-99655377D01*
X116954104Y-99655377D02*
X116954104Y-99560139D01*
X116954104Y-99560139D02*
X116906485Y-99464901D01*
X116906485Y-99464901D02*
X116858866Y-99417282D01*
X116858866Y-99417282D02*
X116763628Y-99369663D01*
X116763628Y-99369663D02*
X116525533Y-99369663D01*
X116525533Y-99369663D02*
X116382676Y-99417282D01*
X118704104Y-97619663D02*
X118132676Y-97619663D01*
X118418390Y-98619663D02*
X118418390Y-97619663D01*
X117799342Y-98619663D02*
X117799342Y-97619663D01*
X117799342Y-97619663D02*
X117561247Y-97619663D01*
X117561247Y-97619663D02*
X117418390Y-97667282D01*
X117418390Y-97667282D02*
X117323152Y-97762520D01*
X117323152Y-97762520D02*
X117275533Y-97857758D01*
X117275533Y-97857758D02*
X117227914Y-98048234D01*
X117227914Y-98048234D02*
X117227914Y-98191091D01*
X117227914Y-98191091D02*
X117275533Y-98381567D01*
X117275533Y-98381567D02*
X117323152Y-98476805D01*
X117323152Y-98476805D02*
X117418390Y-98572044D01*
X117418390Y-98572044D02*
X117561247Y-98619663D01*
X117561247Y-98619663D02*
X117799342Y-98619663D01*
X116799342Y-98619663D02*
X116799342Y-97619663D01*
X118954104Y-96119663D02*
X118382676Y-96119663D01*
X118668390Y-97119663D02*
X118668390Y-96119663D01*
X118049342Y-97119663D02*
X118049342Y-96119663D01*
X118049342Y-96119663D02*
X117811247Y-96119663D01*
X117811247Y-96119663D02*
X117668390Y-96167282D01*
X117668390Y-96167282D02*
X117573152Y-96262520D01*
X117573152Y-96262520D02*
X117525533Y-96357758D01*
X117525533Y-96357758D02*
X117477914Y-96548234D01*
X117477914Y-96548234D02*
X117477914Y-96691091D01*
X117477914Y-96691091D02*
X117525533Y-96881567D01*
X117525533Y-96881567D02*
X117573152Y-96976805D01*
X117573152Y-96976805D02*
X117668390Y-97072044D01*
X117668390Y-97072044D02*
X117811247Y-97119663D01*
X117811247Y-97119663D02*
X118049342Y-97119663D01*
X116858866Y-96119663D02*
X116668390Y-96119663D01*
X116668390Y-96119663D02*
X116573152Y-96167282D01*
X116573152Y-96167282D02*
X116477914Y-96262520D01*
X116477914Y-96262520D02*
X116430295Y-96452996D01*
X116430295Y-96452996D02*
X116430295Y-96786329D01*
X116430295Y-96786329D02*
X116477914Y-96976805D01*
X116477914Y-96976805D02*
X116573152Y-97072044D01*
X116573152Y-97072044D02*
X116668390Y-97119663D01*
X116668390Y-97119663D02*
X116858866Y-97119663D01*
X116858866Y-97119663D02*
X116954104Y-97072044D01*
X116954104Y-97072044D02*
X117049342Y-96976805D01*
X117049342Y-96976805D02*
X117096961Y-96786329D01*
X117096961Y-96786329D02*
X117096961Y-96452996D01*
X117096961Y-96452996D02*
X117049342Y-96262520D01*
X117049342Y-96262520D02*
X116954104Y-96167282D01*
X116954104Y-96167282D02*
X116858866Y-96119663D01*
X118954104Y-94119663D02*
X118382676Y-94119663D01*
X118668390Y-95119663D02*
X118668390Y-94119663D01*
X117477914Y-95024424D02*
X117525533Y-95072044D01*
X117525533Y-95072044D02*
X117668390Y-95119663D01*
X117668390Y-95119663D02*
X117763628Y-95119663D01*
X117763628Y-95119663D02*
X117906485Y-95072044D01*
X117906485Y-95072044D02*
X118001723Y-94976805D01*
X118001723Y-94976805D02*
X118049342Y-94881567D01*
X118049342Y-94881567D02*
X118096961Y-94691091D01*
X118096961Y-94691091D02*
X118096961Y-94548234D01*
X118096961Y-94548234D02*
X118049342Y-94357758D01*
X118049342Y-94357758D02*
X118001723Y-94262520D01*
X118001723Y-94262520D02*
X117906485Y-94167282D01*
X117906485Y-94167282D02*
X117763628Y-94119663D01*
X117763628Y-94119663D02*
X117668390Y-94119663D01*
X117668390Y-94119663D02*
X117525533Y-94167282D01*
X117525533Y-94167282D02*
X117477914Y-94214901D01*
X117049342Y-95119663D02*
X117049342Y-94119663D01*
X116477914Y-95119663D02*
X116906485Y-94548234D01*
X116477914Y-94119663D02*
X117049342Y-94691091D01*
X116792857Y-90109424D02*
X116840476Y-90157044D01*
X116840476Y-90157044D02*
X116983333Y-90204663D01*
X116983333Y-90204663D02*
X117078571Y-90204663D01*
X117078571Y-90204663D02*
X117221428Y-90157044D01*
X117221428Y-90157044D02*
X117316666Y-90061805D01*
X117316666Y-90061805D02*
X117364285Y-89966567D01*
X117364285Y-89966567D02*
X117411904Y-89776091D01*
X117411904Y-89776091D02*
X117411904Y-89633234D01*
X117411904Y-89633234D02*
X117364285Y-89442758D01*
X117364285Y-89442758D02*
X117316666Y-89347520D01*
X117316666Y-89347520D02*
X117221428Y-89252282D01*
X117221428Y-89252282D02*
X117078571Y-89204663D01*
X117078571Y-89204663D02*
X116983333Y-89204663D01*
X116983333Y-89204663D02*
X116840476Y-89252282D01*
X116840476Y-89252282D02*
X116792857Y-89299901D01*
X115840476Y-90204663D02*
X116411904Y-90204663D01*
X116126190Y-90204663D02*
X116126190Y-89204663D01*
X116126190Y-89204663D02*
X116221428Y-89347520D01*
X116221428Y-89347520D02*
X116316666Y-89442758D01*
X116316666Y-89442758D02*
X116411904Y-89490377D01*
X114935714Y-89204663D02*
X115411904Y-89204663D01*
X115411904Y-89204663D02*
X115459523Y-89680853D01*
X115459523Y-89680853D02*
X115411904Y-89633234D01*
X115411904Y-89633234D02*
X115316666Y-89585615D01*
X115316666Y-89585615D02*
X115078571Y-89585615D01*
X115078571Y-89585615D02*
X114983333Y-89633234D01*
X114983333Y-89633234D02*
X114935714Y-89680853D01*
X114935714Y-89680853D02*
X114888095Y-89776091D01*
X114888095Y-89776091D02*
X114888095Y-90014186D01*
X114888095Y-90014186D02*
X114935714Y-90109424D01*
X114935714Y-90109424D02*
X114983333Y-90157044D01*
X114983333Y-90157044D02*
X115078571Y-90204663D01*
X115078571Y-90204663D02*
X115316666Y-90204663D01*
X115316666Y-90204663D02*
X115411904Y-90157044D01*
X115411904Y-90157044D02*
X115459523Y-90109424D01*
X153261904Y-75754663D02*
X153261904Y-76564186D01*
X153261904Y-76564186D02*
X153214285Y-76659424D01*
X153214285Y-76659424D02*
X153166666Y-76707044D01*
X153166666Y-76707044D02*
X153071428Y-76754663D01*
X153071428Y-76754663D02*
X152880952Y-76754663D01*
X152880952Y-76754663D02*
X152785714Y-76707044D01*
X152785714Y-76707044D02*
X152738095Y-76659424D01*
X152738095Y-76659424D02*
X152690476Y-76564186D01*
X152690476Y-76564186D02*
X152690476Y-75754663D01*
X152166666Y-76754663D02*
X151976190Y-76754663D01*
X151976190Y-76754663D02*
X151880952Y-76707044D01*
X151880952Y-76707044D02*
X151833333Y-76659424D01*
X151833333Y-76659424D02*
X151738095Y-76516567D01*
X151738095Y-76516567D02*
X151690476Y-76326091D01*
X151690476Y-76326091D02*
X151690476Y-75945139D01*
X151690476Y-75945139D02*
X151738095Y-75849901D01*
X151738095Y-75849901D02*
X151785714Y-75802282D01*
X151785714Y-75802282D02*
X151880952Y-75754663D01*
X151880952Y-75754663D02*
X152071428Y-75754663D01*
X152071428Y-75754663D02*
X152166666Y-75802282D01*
X152166666Y-75802282D02*
X152214285Y-75849901D01*
X152214285Y-75849901D02*
X152261904Y-75945139D01*
X152261904Y-75945139D02*
X152261904Y-76183234D01*
X152261904Y-76183234D02*
X152214285Y-76278472D01*
X152214285Y-76278472D02*
X152166666Y-76326091D01*
X152166666Y-76326091D02*
X152071428Y-76373710D01*
X152071428Y-76373710D02*
X151880952Y-76373710D01*
X151880952Y-76373710D02*
X151785714Y-76326091D01*
X151785714Y-76326091D02*
X151738095Y-76278472D01*
X151738095Y-76278472D02*
X151690476Y-76183234D01*
X151495336Y-88311904D02*
X150685813Y-88311904D01*
X150685813Y-88311904D02*
X150590575Y-88264285D01*
X150590575Y-88264285D02*
X150542956Y-88216666D01*
X150542956Y-88216666D02*
X150495336Y-88121428D01*
X150495336Y-88121428D02*
X150495336Y-87930952D01*
X150495336Y-87930952D02*
X150542956Y-87835714D01*
X150542956Y-87835714D02*
X150590575Y-87788095D01*
X150590575Y-87788095D02*
X150685813Y-87740476D01*
X150685813Y-87740476D02*
X151495336Y-87740476D01*
X151495336Y-86835714D02*
X151495336Y-87026190D01*
X151495336Y-87026190D02*
X151447717Y-87121428D01*
X151447717Y-87121428D02*
X151400098Y-87169047D01*
X151400098Y-87169047D02*
X151257241Y-87264285D01*
X151257241Y-87264285D02*
X151066765Y-87311904D01*
X151066765Y-87311904D02*
X150685813Y-87311904D01*
X150685813Y-87311904D02*
X150590575Y-87264285D01*
X150590575Y-87264285D02*
X150542956Y-87216666D01*
X150542956Y-87216666D02*
X150495336Y-87121428D01*
X150495336Y-87121428D02*
X150495336Y-86930952D01*
X150495336Y-86930952D02*
X150542956Y-86835714D01*
X150542956Y-86835714D02*
X150590575Y-86788095D01*
X150590575Y-86788095D02*
X150685813Y-86740476D01*
X150685813Y-86740476D02*
X150923908Y-86740476D01*
X150923908Y-86740476D02*
X151019146Y-86788095D01*
X151019146Y-86788095D02*
X151066765Y-86835714D01*
X151066765Y-86835714D02*
X151114384Y-86930952D01*
X151114384Y-86930952D02*
X151114384Y-87121428D01*
X151114384Y-87121428D02*
X151066765Y-87216666D01*
X151066765Y-87216666D02*
X151019146Y-87264285D01*
X151019146Y-87264285D02*
X150923908Y-87311904D01*
X143967857Y-97884663D02*
X144301190Y-97408472D01*
X144539285Y-97884663D02*
X144539285Y-96884663D01*
X144539285Y-96884663D02*
X144158333Y-96884663D01*
X144158333Y-96884663D02*
X144063095Y-96932282D01*
X144063095Y-96932282D02*
X144015476Y-96979901D01*
X144015476Y-96979901D02*
X143967857Y-97075139D01*
X143967857Y-97075139D02*
X143967857Y-97217996D01*
X143967857Y-97217996D02*
X144015476Y-97313234D01*
X144015476Y-97313234D02*
X144063095Y-97360853D01*
X144063095Y-97360853D02*
X144158333Y-97408472D01*
X144158333Y-97408472D02*
X144539285Y-97408472D01*
X143015476Y-97884663D02*
X143586904Y-97884663D01*
X143301190Y-97884663D02*
X143301190Y-96884663D01*
X143301190Y-96884663D02*
X143396428Y-97027520D01*
X143396428Y-97027520D02*
X143491666Y-97122758D01*
X143491666Y-97122758D02*
X143586904Y-97170377D01*
X142063095Y-97884663D02*
X142634523Y-97884663D01*
X142348809Y-97884663D02*
X142348809Y-96884663D01*
X142348809Y-96884663D02*
X142444047Y-97027520D01*
X142444047Y-97027520D02*
X142539285Y-97122758D01*
X142539285Y-97122758D02*
X142634523Y-97170377D01*
X143967857Y-93054663D02*
X144301190Y-92578472D01*
X144539285Y-93054663D02*
X144539285Y-92054663D01*
X144539285Y-92054663D02*
X144158333Y-92054663D01*
X144158333Y-92054663D02*
X144063095Y-92102282D01*
X144063095Y-92102282D02*
X144015476Y-92149901D01*
X144015476Y-92149901D02*
X143967857Y-92245139D01*
X143967857Y-92245139D02*
X143967857Y-92387996D01*
X143967857Y-92387996D02*
X144015476Y-92483234D01*
X144015476Y-92483234D02*
X144063095Y-92530853D01*
X144063095Y-92530853D02*
X144158333Y-92578472D01*
X144158333Y-92578472D02*
X144539285Y-92578472D01*
X143015476Y-93054663D02*
X143586904Y-93054663D01*
X143301190Y-93054663D02*
X143301190Y-92054663D01*
X143301190Y-92054663D02*
X143396428Y-92197520D01*
X143396428Y-92197520D02*
X143491666Y-92292758D01*
X143491666Y-92292758D02*
X143586904Y-92340377D01*
X142396428Y-92054663D02*
X142301190Y-92054663D01*
X142301190Y-92054663D02*
X142205952Y-92102282D01*
X142205952Y-92102282D02*
X142158333Y-92149901D01*
X142158333Y-92149901D02*
X142110714Y-92245139D01*
X142110714Y-92245139D02*
X142063095Y-92435615D01*
X142063095Y-92435615D02*
X142063095Y-92673710D01*
X142063095Y-92673710D02*
X142110714Y-92864186D01*
X142110714Y-92864186D02*
X142158333Y-92959424D01*
X142158333Y-92959424D02*
X142205952Y-93007044D01*
X142205952Y-93007044D02*
X142301190Y-93054663D01*
X142301190Y-93054663D02*
X142396428Y-93054663D01*
X142396428Y-93054663D02*
X142491666Y-93007044D01*
X142491666Y-93007044D02*
X142539285Y-92959424D01*
X142539285Y-92959424D02*
X142586904Y-92864186D01*
X142586904Y-92864186D02*
X142634523Y-92673710D01*
X142634523Y-92673710D02*
X142634523Y-92435615D01*
X142634523Y-92435615D02*
X142586904Y-92245139D01*
X142586904Y-92245139D02*
X142539285Y-92149901D01*
X142539285Y-92149901D02*
X142491666Y-92102282D01*
X142491666Y-92102282D02*
X142396428Y-92054663D01*
X143983333Y-87004663D02*
X143983333Y-87718948D01*
X143983333Y-87718948D02*
X144030952Y-87861805D01*
X144030952Y-87861805D02*
X144126190Y-87957044D01*
X144126190Y-87957044D02*
X144269047Y-88004663D01*
X144269047Y-88004663D02*
X144364285Y-88004663D01*
X143507142Y-88004663D02*
X143507142Y-87004663D01*
X143507142Y-87004663D02*
X143126190Y-87004663D01*
X143126190Y-87004663D02*
X143030952Y-87052282D01*
X143030952Y-87052282D02*
X142983333Y-87099901D01*
X142983333Y-87099901D02*
X142935714Y-87195139D01*
X142935714Y-87195139D02*
X142935714Y-87337996D01*
X142935714Y-87337996D02*
X142983333Y-87433234D01*
X142983333Y-87433234D02*
X143030952Y-87480853D01*
X143030952Y-87480853D02*
X143126190Y-87528472D01*
X143126190Y-87528472D02*
X143507142Y-87528472D01*
X141983333Y-88004663D02*
X142554761Y-88004663D01*
X142269047Y-88004663D02*
X142269047Y-87004663D01*
X142269047Y-87004663D02*
X142364285Y-87147520D01*
X142364285Y-87147520D02*
X142459523Y-87242758D01*
X142459523Y-87242758D02*
X142554761Y-87290377D01*
X144017857Y-78289424D02*
X144065476Y-78337044D01*
X144065476Y-78337044D02*
X144208333Y-78384663D01*
X144208333Y-78384663D02*
X144303571Y-78384663D01*
X144303571Y-78384663D02*
X144446428Y-78337044D01*
X144446428Y-78337044D02*
X144541666Y-78241805D01*
X144541666Y-78241805D02*
X144589285Y-78146567D01*
X144589285Y-78146567D02*
X144636904Y-77956091D01*
X144636904Y-77956091D02*
X144636904Y-77813234D01*
X144636904Y-77813234D02*
X144589285Y-77622758D01*
X144589285Y-77622758D02*
X144541666Y-77527520D01*
X144541666Y-77527520D02*
X144446428Y-77432282D01*
X144446428Y-77432282D02*
X144303571Y-77384663D01*
X144303571Y-77384663D02*
X144208333Y-77384663D01*
X144208333Y-77384663D02*
X144065476Y-77432282D01*
X144065476Y-77432282D02*
X144017857Y-77479901D01*
X143065476Y-78384663D02*
X143636904Y-78384663D01*
X143351190Y-78384663D02*
X143351190Y-77384663D01*
X143351190Y-77384663D02*
X143446428Y-77527520D01*
X143446428Y-77527520D02*
X143541666Y-77622758D01*
X143541666Y-77622758D02*
X143636904Y-77670377D01*
X142208333Y-77717996D02*
X142208333Y-78384663D01*
X142446428Y-77337044D02*
X142684523Y-78051329D01*
X142684523Y-78051329D02*
X142065476Y-78051329D01*
X146509424Y-80832142D02*
X146557044Y-80784523D01*
X146557044Y-80784523D02*
X146604663Y-80641666D01*
X146604663Y-80641666D02*
X146604663Y-80546428D01*
X146604663Y-80546428D02*
X146557044Y-80403571D01*
X146557044Y-80403571D02*
X146461805Y-80308333D01*
X146461805Y-80308333D02*
X146366567Y-80260714D01*
X146366567Y-80260714D02*
X146176091Y-80213095D01*
X146176091Y-80213095D02*
X146033234Y-80213095D01*
X146033234Y-80213095D02*
X145842758Y-80260714D01*
X145842758Y-80260714D02*
X145747520Y-80308333D01*
X145747520Y-80308333D02*
X145652282Y-80403571D01*
X145652282Y-80403571D02*
X145604663Y-80546428D01*
X145604663Y-80546428D02*
X145604663Y-80641666D01*
X145604663Y-80641666D02*
X145652282Y-80784523D01*
X145652282Y-80784523D02*
X145699901Y-80832142D01*
X146604663Y-81784523D02*
X146604663Y-81213095D01*
X146604663Y-81498809D02*
X145604663Y-81498809D01*
X145604663Y-81498809D02*
X145747520Y-81403571D01*
X145747520Y-81403571D02*
X145842758Y-81308333D01*
X145842758Y-81308333D02*
X145890377Y-81213095D01*
X145604663Y-82117857D02*
X145604663Y-82736904D01*
X145604663Y-82736904D02*
X145985615Y-82403571D01*
X145985615Y-82403571D02*
X145985615Y-82546428D01*
X145985615Y-82546428D02*
X146033234Y-82641666D01*
X146033234Y-82641666D02*
X146080853Y-82689285D01*
X146080853Y-82689285D02*
X146176091Y-82736904D01*
X146176091Y-82736904D02*
X146414186Y-82736904D01*
X146414186Y-82736904D02*
X146509424Y-82689285D01*
X146509424Y-82689285D02*
X146557044Y-82641666D01*
X146557044Y-82641666D02*
X146604663Y-82546428D01*
X146604663Y-82546428D02*
X146604663Y-82260714D01*
X146604663Y-82260714D02*
X146557044Y-82165476D01*
X146557044Y-82165476D02*
X146509424Y-82117857D01*
X151189424Y-81308333D02*
X151237044Y-81260714D01*
X151237044Y-81260714D02*
X151284663Y-81117857D01*
X151284663Y-81117857D02*
X151284663Y-81022619D01*
X151284663Y-81022619D02*
X151237044Y-80879762D01*
X151237044Y-80879762D02*
X151141805Y-80784524D01*
X151141805Y-80784524D02*
X151046567Y-80736905D01*
X151046567Y-80736905D02*
X150856091Y-80689286D01*
X150856091Y-80689286D02*
X150713234Y-80689286D01*
X150713234Y-80689286D02*
X150522758Y-80736905D01*
X150522758Y-80736905D02*
X150427520Y-80784524D01*
X150427520Y-80784524D02*
X150332282Y-80879762D01*
X150332282Y-80879762D02*
X150284663Y-81022619D01*
X150284663Y-81022619D02*
X150284663Y-81117857D01*
X150284663Y-81117857D02*
X150332282Y-81260714D01*
X150332282Y-81260714D02*
X150379901Y-81308333D01*
X150713234Y-81879762D02*
X150665615Y-81784524D01*
X150665615Y-81784524D02*
X150617996Y-81736905D01*
X150617996Y-81736905D02*
X150522758Y-81689286D01*
X150522758Y-81689286D02*
X150475139Y-81689286D01*
X150475139Y-81689286D02*
X150379901Y-81736905D01*
X150379901Y-81736905D02*
X150332282Y-81784524D01*
X150332282Y-81784524D02*
X150284663Y-81879762D01*
X150284663Y-81879762D02*
X150284663Y-82070238D01*
X150284663Y-82070238D02*
X150332282Y-82165476D01*
X150332282Y-82165476D02*
X150379901Y-82213095D01*
X150379901Y-82213095D02*
X150475139Y-82260714D01*
X150475139Y-82260714D02*
X150522758Y-82260714D01*
X150522758Y-82260714D02*
X150617996Y-82213095D01*
X150617996Y-82213095D02*
X150665615Y-82165476D01*
X150665615Y-82165476D02*
X150713234Y-82070238D01*
X150713234Y-82070238D02*
X150713234Y-81879762D01*
X150713234Y-81879762D02*
X150760853Y-81784524D01*
X150760853Y-81784524D02*
X150808472Y-81736905D01*
X150808472Y-81736905D02*
X150903710Y-81689286D01*
X150903710Y-81689286D02*
X151094186Y-81689286D01*
X151094186Y-81689286D02*
X151189424Y-81736905D01*
X151189424Y-81736905D02*
X151237044Y-81784524D01*
X151237044Y-81784524D02*
X151284663Y-81879762D01*
X151284663Y-81879762D02*
X151284663Y-82070238D01*
X151284663Y-82070238D02*
X151237044Y-82165476D01*
X151237044Y-82165476D02*
X151189424Y-82213095D01*
X151189424Y-82213095D02*
X151094186Y-82260714D01*
X151094186Y-82260714D02*
X150903710Y-82260714D01*
X150903710Y-82260714D02*
X150808472Y-82213095D01*
X150808472Y-82213095D02*
X150760853Y-82165476D01*
X150760853Y-82165476D02*
X150713234Y-82070238D01*
X155066666Y-69609424D02*
X155114285Y-69657044D01*
X155114285Y-69657044D02*
X155257142Y-69704663D01*
X155257142Y-69704663D02*
X155352380Y-69704663D01*
X155352380Y-69704663D02*
X155495237Y-69657044D01*
X155495237Y-69657044D02*
X155590475Y-69561805D01*
X155590475Y-69561805D02*
X155638094Y-69466567D01*
X155638094Y-69466567D02*
X155685713Y-69276091D01*
X155685713Y-69276091D02*
X155685713Y-69133234D01*
X155685713Y-69133234D02*
X155638094Y-68942758D01*
X155638094Y-68942758D02*
X155590475Y-68847520D01*
X155590475Y-68847520D02*
X155495237Y-68752282D01*
X155495237Y-68752282D02*
X155352380Y-68704663D01*
X155352380Y-68704663D02*
X155257142Y-68704663D01*
X155257142Y-68704663D02*
X155114285Y-68752282D01*
X155114285Y-68752282D02*
X155066666Y-68799901D01*
X154733332Y-68704663D02*
X154066666Y-68704663D01*
X154066666Y-68704663D02*
X154495237Y-69704663D01*
X144709424Y-71583333D02*
X144757044Y-71535714D01*
X144757044Y-71535714D02*
X144804663Y-71392857D01*
X144804663Y-71392857D02*
X144804663Y-71297619D01*
X144804663Y-71297619D02*
X144757044Y-71154762D01*
X144757044Y-71154762D02*
X144661805Y-71059524D01*
X144661805Y-71059524D02*
X144566567Y-71011905D01*
X144566567Y-71011905D02*
X144376091Y-70964286D01*
X144376091Y-70964286D02*
X144233234Y-70964286D01*
X144233234Y-70964286D02*
X144042758Y-71011905D01*
X144042758Y-71011905D02*
X143947520Y-71059524D01*
X143947520Y-71059524D02*
X143852282Y-71154762D01*
X143852282Y-71154762D02*
X143804663Y-71297619D01*
X143804663Y-71297619D02*
X143804663Y-71392857D01*
X143804663Y-71392857D02*
X143852282Y-71535714D01*
X143852282Y-71535714D02*
X143899901Y-71583333D01*
X143804663Y-72440476D02*
X143804663Y-72250000D01*
X143804663Y-72250000D02*
X143852282Y-72154762D01*
X143852282Y-72154762D02*
X143899901Y-72107143D01*
X143899901Y-72107143D02*
X144042758Y-72011905D01*
X144042758Y-72011905D02*
X144233234Y-71964286D01*
X144233234Y-71964286D02*
X144614186Y-71964286D01*
X144614186Y-71964286D02*
X144709424Y-72011905D01*
X144709424Y-72011905D02*
X144757044Y-72059524D01*
X144757044Y-72059524D02*
X144804663Y-72154762D01*
X144804663Y-72154762D02*
X144804663Y-72345238D01*
X144804663Y-72345238D02*
X144757044Y-72440476D01*
X144757044Y-72440476D02*
X144709424Y-72488095D01*
X144709424Y-72488095D02*
X144614186Y-72535714D01*
X144614186Y-72535714D02*
X144376091Y-72535714D01*
X144376091Y-72535714D02*
X144280853Y-72488095D01*
X144280853Y-72488095D02*
X144233234Y-72440476D01*
X144233234Y-72440476D02*
X144185615Y-72345238D01*
X144185615Y-72345238D02*
X144185615Y-72154762D01*
X144185615Y-72154762D02*
X144233234Y-72059524D01*
X144233234Y-72059524D02*
X144280853Y-72011905D01*
X144280853Y-72011905D02*
X144376091Y-71964286D01*
X153259424Y-71583333D02*
X153307044Y-71535714D01*
X153307044Y-71535714D02*
X153354663Y-71392857D01*
X153354663Y-71392857D02*
X153354663Y-71297619D01*
X153354663Y-71297619D02*
X153307044Y-71154762D01*
X153307044Y-71154762D02*
X153211805Y-71059524D01*
X153211805Y-71059524D02*
X153116567Y-71011905D01*
X153116567Y-71011905D02*
X152926091Y-70964286D01*
X152926091Y-70964286D02*
X152783234Y-70964286D01*
X152783234Y-70964286D02*
X152592758Y-71011905D01*
X152592758Y-71011905D02*
X152497520Y-71059524D01*
X152497520Y-71059524D02*
X152402282Y-71154762D01*
X152402282Y-71154762D02*
X152354663Y-71297619D01*
X152354663Y-71297619D02*
X152354663Y-71392857D01*
X152354663Y-71392857D02*
X152402282Y-71535714D01*
X152402282Y-71535714D02*
X152449901Y-71583333D01*
X152354663Y-72488095D02*
X152354663Y-72011905D01*
X152354663Y-72011905D02*
X152830853Y-71964286D01*
X152830853Y-71964286D02*
X152783234Y-72011905D01*
X152783234Y-72011905D02*
X152735615Y-72107143D01*
X152735615Y-72107143D02*
X152735615Y-72345238D01*
X152735615Y-72345238D02*
X152783234Y-72440476D01*
X152783234Y-72440476D02*
X152830853Y-72488095D01*
X152830853Y-72488095D02*
X152926091Y-72535714D01*
X152926091Y-72535714D02*
X153164186Y-72535714D01*
X153164186Y-72535714D02*
X153259424Y-72488095D01*
X153259424Y-72488095D02*
X153307044Y-72440476D01*
X153307044Y-72440476D02*
X153354663Y-72345238D01*
X153354663Y-72345238D02*
X153354663Y-72107143D01*
X153354663Y-72107143D02*
X153307044Y-72011905D01*
X153307044Y-72011905D02*
X153259424Y-71964286D01*
X106124663Y-64920476D02*
X106838948Y-64920476D01*
X106838948Y-64920476D02*
X106981805Y-64872857D01*
X106981805Y-64872857D02*
X107077044Y-64777619D01*
X107077044Y-64777619D02*
X107124663Y-64634762D01*
X107124663Y-64634762D02*
X107124663Y-64539524D01*
X107124663Y-65920476D02*
X107124663Y-65349048D01*
X107124663Y-65634762D02*
X106124663Y-65634762D01*
X106124663Y-65634762D02*
X106267520Y-65539524D01*
X106267520Y-65539524D02*
X106362758Y-65444286D01*
X106362758Y-65444286D02*
X106410377Y-65349048D01*
X106124663Y-66539524D02*
X106124663Y-66634762D01*
X106124663Y-66634762D02*
X106172282Y-66730000D01*
X106172282Y-66730000D02*
X106219901Y-66777619D01*
X106219901Y-66777619D02*
X106315139Y-66825238D01*
X106315139Y-66825238D02*
X106505615Y-66872857D01*
X106505615Y-66872857D02*
X106743710Y-66872857D01*
X106743710Y-66872857D02*
X106934186Y-66825238D01*
X106934186Y-66825238D02*
X107029424Y-66777619D01*
X107029424Y-66777619D02*
X107077044Y-66730000D01*
X107077044Y-66730000D02*
X107124663Y-66634762D01*
X107124663Y-66634762D02*
X107124663Y-66539524D01*
X107124663Y-66539524D02*
X107077044Y-66444286D01*
X107077044Y-66444286D02*
X107029424Y-66396667D01*
X107029424Y-66396667D02*
X106934186Y-66349048D01*
X106934186Y-66349048D02*
X106743710Y-66301429D01*
X106743710Y-66301429D02*
X106505615Y-66301429D01*
X106505615Y-66301429D02*
X106315139Y-66349048D01*
X106315139Y-66349048D02*
X106219901Y-66396667D01*
X106219901Y-66396667D02*
X106172282Y-66444286D01*
X106172282Y-66444286D02*
X106124663Y-66539524D01*
X156374663Y-64960476D02*
X157088948Y-64960476D01*
X157088948Y-64960476D02*
X157231805Y-64912857D01*
X157231805Y-64912857D02*
X157327044Y-64817619D01*
X157327044Y-64817619D02*
X157374663Y-64674762D01*
X157374663Y-64674762D02*
X157374663Y-64579524D01*
X157374663Y-65960476D02*
X157374663Y-65389048D01*
X157374663Y-65674762D02*
X156374663Y-65674762D01*
X156374663Y-65674762D02*
X156517520Y-65579524D01*
X156517520Y-65579524D02*
X156612758Y-65484286D01*
X156612758Y-65484286D02*
X156660377Y-65389048D01*
X157374663Y-66912857D02*
X157374663Y-66341429D01*
X157374663Y-66627143D02*
X156374663Y-66627143D01*
X156374663Y-66627143D02*
X156517520Y-66531905D01*
X156517520Y-66531905D02*
X156612758Y-66436667D01*
X156612758Y-66436667D02*
X156660377Y-66341429D01*
X127413095Y-106795336D02*
X127413095Y-105985813D01*
X127413095Y-105985813D02*
X127460714Y-105890575D01*
X127460714Y-105890575D02*
X127508333Y-105842956D01*
X127508333Y-105842956D02*
X127603571Y-105795336D01*
X127603571Y-105795336D02*
X127794047Y-105795336D01*
X127794047Y-105795336D02*
X127889285Y-105842956D01*
X127889285Y-105842956D02*
X127936904Y-105890575D01*
X127936904Y-105890575D02*
X127984523Y-105985813D01*
X127984523Y-105985813D02*
X127984523Y-106795336D01*
X128413095Y-106700098D02*
X128460714Y-106747717D01*
X128460714Y-106747717D02*
X128555952Y-106795336D01*
X128555952Y-106795336D02*
X128794047Y-106795336D01*
X128794047Y-106795336D02*
X128889285Y-106747717D01*
X128889285Y-106747717D02*
X128936904Y-106700098D01*
X128936904Y-106700098D02*
X128984523Y-106604860D01*
X128984523Y-106604860D02*
X128984523Y-106509622D01*
X128984523Y-106509622D02*
X128936904Y-106366765D01*
X128936904Y-106366765D02*
X128365476Y-105795336D01*
X128365476Y-105795336D02*
X128984523Y-105795336D01*
X122554663Y-96838095D02*
X123364186Y-96838095D01*
X123364186Y-96838095D02*
X123459424Y-96885714D01*
X123459424Y-96885714D02*
X123507044Y-96933333D01*
X123507044Y-96933333D02*
X123554663Y-97028571D01*
X123554663Y-97028571D02*
X123554663Y-97219047D01*
X123554663Y-97219047D02*
X123507044Y-97314285D01*
X123507044Y-97314285D02*
X123459424Y-97361904D01*
X123459424Y-97361904D02*
X123364186Y-97409523D01*
X123364186Y-97409523D02*
X122554663Y-97409523D01*
X122554663Y-97790476D02*
X122554663Y-98409523D01*
X122554663Y-98409523D02*
X122935615Y-98076190D01*
X122935615Y-98076190D02*
X122935615Y-98219047D01*
X122935615Y-98219047D02*
X122983234Y-98314285D01*
X122983234Y-98314285D02*
X123030853Y-98361904D01*
X123030853Y-98361904D02*
X123126091Y-98409523D01*
X123126091Y-98409523D02*
X123364186Y-98409523D01*
X123364186Y-98409523D02*
X123459424Y-98361904D01*
X123459424Y-98361904D02*
X123507044Y-98314285D01*
X123507044Y-98314285D02*
X123554663Y-98219047D01*
X123554663Y-98219047D02*
X123554663Y-97933333D01*
X123554663Y-97933333D02*
X123507044Y-97838095D01*
X123507044Y-97838095D02*
X123459424Y-97790476D01*
X100994663Y-114391666D02*
X101708948Y-114391666D01*
X101708948Y-114391666D02*
X101851805Y-114344047D01*
X101851805Y-114344047D02*
X101947044Y-114248809D01*
X101947044Y-114248809D02*
X101994663Y-114105952D01*
X101994663Y-114105952D02*
X101994663Y-114010714D01*
X101994663Y-114915476D02*
X101994663Y-115105952D01*
X101994663Y-115105952D02*
X101947044Y-115201190D01*
X101947044Y-115201190D02*
X101899424Y-115248809D01*
X101899424Y-115248809D02*
X101756567Y-115344047D01*
X101756567Y-115344047D02*
X101566091Y-115391666D01*
X101566091Y-115391666D02*
X101185139Y-115391666D01*
X101185139Y-115391666D02*
X101089901Y-115344047D01*
X101089901Y-115344047D02*
X101042282Y-115296428D01*
X101042282Y-115296428D02*
X100994663Y-115201190D01*
X100994663Y-115201190D02*
X100994663Y-115010714D01*
X100994663Y-115010714D02*
X101042282Y-114915476D01*
X101042282Y-114915476D02*
X101089901Y-114867857D01*
X101089901Y-114867857D02*
X101185139Y-114820238D01*
X101185139Y-114820238D02*
X101423234Y-114820238D01*
X101423234Y-114820238D02*
X101518472Y-114867857D01*
X101518472Y-114867857D02*
X101566091Y-114915476D01*
X101566091Y-114915476D02*
X101613710Y-115010714D01*
X101613710Y-115010714D02*
X101613710Y-115201190D01*
X101613710Y-115201190D02*
X101566091Y-115296428D01*
X101566091Y-115296428D02*
X101518472Y-115344047D01*
X101518472Y-115344047D02*
X101423234Y-115391666D01*
X156374663Y-114416666D02*
X157088948Y-114416666D01*
X157088948Y-114416666D02*
X157231805Y-114369047D01*
X157231805Y-114369047D02*
X157327044Y-114273809D01*
X157327044Y-114273809D02*
X157374663Y-114130952D01*
X157374663Y-114130952D02*
X157374663Y-114035714D01*
X156803234Y-115035714D02*
X156755615Y-114940476D01*
X156755615Y-114940476D02*
X156707996Y-114892857D01*
X156707996Y-114892857D02*
X156612758Y-114845238D01*
X156612758Y-114845238D02*
X156565139Y-114845238D01*
X156565139Y-114845238D02*
X156469901Y-114892857D01*
X156469901Y-114892857D02*
X156422282Y-114940476D01*
X156422282Y-114940476D02*
X156374663Y-115035714D01*
X156374663Y-115035714D02*
X156374663Y-115226190D01*
X156374663Y-115226190D02*
X156422282Y-115321428D01*
X156422282Y-115321428D02*
X156469901Y-115369047D01*
X156469901Y-115369047D02*
X156565139Y-115416666D01*
X156565139Y-115416666D02*
X156612758Y-115416666D01*
X156612758Y-115416666D02*
X156707996Y-115369047D01*
X156707996Y-115369047D02*
X156755615Y-115321428D01*
X156755615Y-115321428D02*
X156803234Y-115226190D01*
X156803234Y-115226190D02*
X156803234Y-115035714D01*
X156803234Y-115035714D02*
X156850853Y-114940476D01*
X156850853Y-114940476D02*
X156898472Y-114892857D01*
X156898472Y-114892857D02*
X156993710Y-114845238D01*
X156993710Y-114845238D02*
X157184186Y-114845238D01*
X157184186Y-114845238D02*
X157279424Y-114892857D01*
X157279424Y-114892857D02*
X157327044Y-114940476D01*
X157327044Y-114940476D02*
X157374663Y-115035714D01*
X157374663Y-115035714D02*
X157374663Y-115226190D01*
X157374663Y-115226190D02*
X157327044Y-115321428D01*
X157327044Y-115321428D02*
X157279424Y-115369047D01*
X157279424Y-115369047D02*
X157184186Y-115416666D01*
X157184186Y-115416666D02*
X156993710Y-115416666D01*
X156993710Y-115416666D02*
X156898472Y-115369047D01*
X156898472Y-115369047D02*
X156850853Y-115321428D01*
X156850853Y-115321428D02*
X156803234Y-115226190D01*
X141878472Y-106523809D02*
X142354663Y-106523809D01*
X141354663Y-106190476D02*
X141878472Y-106523809D01*
X141878472Y-106523809D02*
X141354663Y-106857142D01*
X141354663Y-107095238D02*
X141354663Y-107714285D01*
X141354663Y-107714285D02*
X141735615Y-107380952D01*
X141735615Y-107380952D02*
X141735615Y-107523809D01*
X141735615Y-107523809D02*
X141783234Y-107619047D01*
X141783234Y-107619047D02*
X141830853Y-107666666D01*
X141830853Y-107666666D02*
X141926091Y-107714285D01*
X141926091Y-107714285D02*
X142164186Y-107714285D01*
X142164186Y-107714285D02*
X142259424Y-107666666D01*
X142259424Y-107666666D02*
X142307044Y-107619047D01*
X142307044Y-107619047D02*
X142354663Y-107523809D01*
X142354663Y-107523809D02*
X142354663Y-107238095D01*
X142354663Y-107238095D02*
X142307044Y-107142857D01*
X142307044Y-107142857D02*
X142259424Y-107095238D01*
X99878472Y-106523809D02*
X100354663Y-106523809D01*
X99354663Y-106190476D02*
X99878472Y-106523809D01*
X99878472Y-106523809D02*
X99354663Y-106857142D01*
X100354663Y-107714285D02*
X100354663Y-107142857D01*
X100354663Y-107428571D02*
X99354663Y-107428571D01*
X99354663Y-107428571D02*
X99497520Y-107333333D01*
X99497520Y-107333333D02*
X99592758Y-107238095D01*
X99592758Y-107238095D02*
X99640377Y-107142857D01*
X133876190Y-111728472D02*
X133876190Y-112204663D01*
X134209523Y-111204663D02*
X133876190Y-111728472D01*
X133876190Y-111728472D02*
X133542857Y-111204663D01*
X133257142Y-111299901D02*
X133209523Y-111252282D01*
X133209523Y-111252282D02*
X133114285Y-111204663D01*
X133114285Y-111204663D02*
X132876190Y-111204663D01*
X132876190Y-111204663D02*
X132780952Y-111252282D01*
X132780952Y-111252282D02*
X132733333Y-111299901D01*
X132733333Y-111299901D02*
X132685714Y-111395139D01*
X132685714Y-111395139D02*
X132685714Y-111490377D01*
X132685714Y-111490377D02*
X132733333Y-111633234D01*
X132733333Y-111633234D02*
X133304761Y-112204663D01*
X133304761Y-112204663D02*
X132685714Y-112204663D01*
X114316666Y-98454663D02*
X114649999Y-97978472D01*
X114888094Y-98454663D02*
X114888094Y-97454663D01*
X114888094Y-97454663D02*
X114507142Y-97454663D01*
X114507142Y-97454663D02*
X114411904Y-97502282D01*
X114411904Y-97502282D02*
X114364285Y-97549901D01*
X114364285Y-97549901D02*
X114316666Y-97645139D01*
X114316666Y-97645139D02*
X114316666Y-97787996D01*
X114316666Y-97787996D02*
X114364285Y-97883234D01*
X114364285Y-97883234D02*
X114411904Y-97930853D01*
X114411904Y-97930853D02*
X114507142Y-97978472D01*
X114507142Y-97978472D02*
X114888094Y-97978472D01*
X113840475Y-98454663D02*
X113649999Y-98454663D01*
X113649999Y-98454663D02*
X113554761Y-98407044D01*
X113554761Y-98407044D02*
X113507142Y-98359424D01*
X113507142Y-98359424D02*
X113411904Y-98216567D01*
X113411904Y-98216567D02*
X113364285Y-98026091D01*
X113364285Y-98026091D02*
X113364285Y-97645139D01*
X113364285Y-97645139D02*
X113411904Y-97549901D01*
X113411904Y-97549901D02*
X113459523Y-97502282D01*
X113459523Y-97502282D02*
X113554761Y-97454663D01*
X113554761Y-97454663D02*
X113745237Y-97454663D01*
X113745237Y-97454663D02*
X113840475Y-97502282D01*
X113840475Y-97502282D02*
X113888094Y-97549901D01*
X113888094Y-97549901D02*
X113935713Y-97645139D01*
X113935713Y-97645139D02*
X113935713Y-97883234D01*
X113935713Y-97883234D02*
X113888094Y-97978472D01*
X113888094Y-97978472D02*
X113840475Y-98026091D01*
X113840475Y-98026091D02*
X113745237Y-98073710D01*
X113745237Y-98073710D02*
X113554761Y-98073710D01*
X113554761Y-98073710D02*
X113459523Y-98026091D01*
X113459523Y-98026091D02*
X113411904Y-97978472D01*
X113411904Y-97978472D02*
X113364285Y-97883234D01*
X101604663Y-107261905D02*
X102414186Y-107261905D01*
X102414186Y-107261905D02*
X102509424Y-107309524D01*
X102509424Y-107309524D02*
X102557044Y-107357143D01*
X102557044Y-107357143D02*
X102604663Y-107452381D01*
X102604663Y-107452381D02*
X102604663Y-107642857D01*
X102604663Y-107642857D02*
X102557044Y-107738095D01*
X102557044Y-107738095D02*
X102509424Y-107785714D01*
X102509424Y-107785714D02*
X102414186Y-107833333D01*
X102414186Y-107833333D02*
X101604663Y-107833333D01*
X102604663Y-108833333D02*
X102604663Y-108261905D01*
X102604663Y-108547619D02*
X101604663Y-108547619D01*
X101604663Y-108547619D02*
X101747520Y-108452381D01*
X101747520Y-108452381D02*
X101842758Y-108357143D01*
X101842758Y-108357143D02*
X101890377Y-108261905D01*
X102604663Y-109785714D02*
X102604663Y-109214286D01*
X102604663Y-109500000D02*
X101604663Y-109500000D01*
X101604663Y-109500000D02*
X101747520Y-109404762D01*
X101747520Y-109404762D02*
X101842758Y-109309524D01*
X101842758Y-109309524D02*
X101890377Y-109214286D01*
X143604663Y-110988095D02*
X144414186Y-110988095D01*
X144414186Y-110988095D02*
X144509424Y-111035714D01*
X144509424Y-111035714D02*
X144557044Y-111083333D01*
X144557044Y-111083333D02*
X144604663Y-111178571D01*
X144604663Y-111178571D02*
X144604663Y-111369047D01*
X144604663Y-111369047D02*
X144557044Y-111464285D01*
X144557044Y-111464285D02*
X144509424Y-111511904D01*
X144509424Y-111511904D02*
X144414186Y-111559523D01*
X144414186Y-111559523D02*
X143604663Y-111559523D01*
X144033234Y-112178571D02*
X143985615Y-112083333D01*
X143985615Y-112083333D02*
X143937996Y-112035714D01*
X143937996Y-112035714D02*
X143842758Y-111988095D01*
X143842758Y-111988095D02*
X143795139Y-111988095D01*
X143795139Y-111988095D02*
X143699901Y-112035714D01*
X143699901Y-112035714D02*
X143652282Y-112083333D01*
X143652282Y-112083333D02*
X143604663Y-112178571D01*
X143604663Y-112178571D02*
X143604663Y-112369047D01*
X143604663Y-112369047D02*
X143652282Y-112464285D01*
X143652282Y-112464285D02*
X143699901Y-112511904D01*
X143699901Y-112511904D02*
X143795139Y-112559523D01*
X143795139Y-112559523D02*
X143842758Y-112559523D01*
X143842758Y-112559523D02*
X143937996Y-112511904D01*
X143937996Y-112511904D02*
X143985615Y-112464285D01*
X143985615Y-112464285D02*
X144033234Y-112369047D01*
X144033234Y-112369047D02*
X144033234Y-112178571D01*
X144033234Y-112178571D02*
X144080853Y-112083333D01*
X144080853Y-112083333D02*
X144128472Y-112035714D01*
X144128472Y-112035714D02*
X144223710Y-111988095D01*
X144223710Y-111988095D02*
X144414186Y-111988095D01*
X144414186Y-111988095D02*
X144509424Y-112035714D01*
X144509424Y-112035714D02*
X144557044Y-112083333D01*
X144557044Y-112083333D02*
X144604663Y-112178571D01*
X144604663Y-112178571D02*
X144604663Y-112369047D01*
X144604663Y-112369047D02*
X144557044Y-112464285D01*
X144557044Y-112464285D02*
X144509424Y-112511904D01*
X144509424Y-112511904D02*
X144414186Y-112559523D01*
X144414186Y-112559523D02*
X144223710Y-112559523D01*
X144223710Y-112559523D02*
X144128472Y-112511904D01*
X144128472Y-112511904D02*
X144080853Y-112464285D01*
X144080853Y-112464285D02*
X144033234Y-112369047D01*
X105388095Y-93045336D02*
X105388095Y-92235813D01*
X105388095Y-92235813D02*
X105435714Y-92140575D01*
X105435714Y-92140575D02*
X105483333Y-92092956D01*
X105483333Y-92092956D02*
X105578571Y-92045336D01*
X105578571Y-92045336D02*
X105769047Y-92045336D01*
X105769047Y-92045336D02*
X105864285Y-92092956D01*
X105864285Y-92092956D02*
X105911904Y-92140575D01*
X105911904Y-92140575D02*
X105959523Y-92235813D01*
X105959523Y-92235813D02*
X105959523Y-93045336D01*
X106340476Y-93045336D02*
X107007142Y-93045336D01*
X107007142Y-93045336D02*
X106578571Y-92045336D01*
X138854663Y-62357142D02*
X138378472Y-62023809D01*
X138854663Y-61785714D02*
X137854663Y-61785714D01*
X137854663Y-61785714D02*
X137854663Y-62166666D01*
X137854663Y-62166666D02*
X137902282Y-62261904D01*
X137902282Y-62261904D02*
X137949901Y-62309523D01*
X137949901Y-62309523D02*
X138045139Y-62357142D01*
X138045139Y-62357142D02*
X138187996Y-62357142D01*
X138187996Y-62357142D02*
X138283234Y-62309523D01*
X138283234Y-62309523D02*
X138330853Y-62261904D01*
X138330853Y-62261904D02*
X138378472Y-62166666D01*
X138378472Y-62166666D02*
X138378472Y-61785714D01*
X137854663Y-62690476D02*
X137854663Y-63309523D01*
X137854663Y-63309523D02*
X138235615Y-62976190D01*
X138235615Y-62976190D02*
X138235615Y-63119047D01*
X138235615Y-63119047D02*
X138283234Y-63214285D01*
X138283234Y-63214285D02*
X138330853Y-63261904D01*
X138330853Y-63261904D02*
X138426091Y-63309523D01*
X138426091Y-63309523D02*
X138664186Y-63309523D01*
X138664186Y-63309523D02*
X138759424Y-63261904D01*
X138759424Y-63261904D02*
X138807044Y-63214285D01*
X138807044Y-63214285D02*
X138854663Y-63119047D01*
X138854663Y-63119047D02*
X138854663Y-62833333D01*
X138854663Y-62833333D02*
X138807044Y-62738095D01*
X138807044Y-62738095D02*
X138759424Y-62690476D01*
X138854663Y-64261904D02*
X138854663Y-63690476D01*
X138854663Y-63976190D02*
X137854663Y-63976190D01*
X137854663Y-63976190D02*
X137997520Y-63880952D01*
X137997520Y-63880952D02*
X138092758Y-63785714D01*
X138092758Y-63785714D02*
X138140377Y-63690476D01*
X115433975Y-93774663D02*
X115767308Y-93298472D01*
X116005403Y-93774663D02*
X116005403Y-92774663D01*
X116005403Y-92774663D02*
X115624451Y-92774663D01*
X115624451Y-92774663D02*
X115529213Y-92822282D01*
X115529213Y-92822282D02*
X115481594Y-92869901D01*
X115481594Y-92869901D02*
X115433975Y-92965139D01*
X115433975Y-92965139D02*
X115433975Y-93107996D01*
X115433975Y-93107996D02*
X115481594Y-93203234D01*
X115481594Y-93203234D02*
X115529213Y-93250853D01*
X115529213Y-93250853D02*
X115624451Y-93298472D01*
X115624451Y-93298472D02*
X116005403Y-93298472D01*
X115053022Y-92869901D02*
X115005403Y-92822282D01*
X115005403Y-92822282D02*
X114910165Y-92774663D01*
X114910165Y-92774663D02*
X114672070Y-92774663D01*
X114672070Y-92774663D02*
X114576832Y-92822282D01*
X114576832Y-92822282D02*
X114529213Y-92869901D01*
X114529213Y-92869901D02*
X114481594Y-92965139D01*
X114481594Y-92965139D02*
X114481594Y-93060377D01*
X114481594Y-93060377D02*
X114529213Y-93203234D01*
X114529213Y-93203234D02*
X115100641Y-93774663D01*
X115100641Y-93774663D02*
X114481594Y-93774663D01*
X113624451Y-92774663D02*
X113814927Y-92774663D01*
X113814927Y-92774663D02*
X113910165Y-92822282D01*
X113910165Y-92822282D02*
X113957784Y-92869901D01*
X113957784Y-92869901D02*
X114053022Y-93012758D01*
X114053022Y-93012758D02*
X114100641Y-93203234D01*
X114100641Y-93203234D02*
X114100641Y-93584186D01*
X114100641Y-93584186D02*
X114053022Y-93679424D01*
X114053022Y-93679424D02*
X114005403Y-93727044D01*
X114005403Y-93727044D02*
X113910165Y-93774663D01*
X113910165Y-93774663D02*
X113719689Y-93774663D01*
X113719689Y-93774663D02*
X113624451Y-93727044D01*
X113624451Y-93727044D02*
X113576832Y-93679424D01*
X113576832Y-93679424D02*
X113529213Y-93584186D01*
X113529213Y-93584186D02*
X113529213Y-93346091D01*
X113529213Y-93346091D02*
X113576832Y-93250853D01*
X113576832Y-93250853D02*
X113624451Y-93203234D01*
X113624451Y-93203234D02*
X113719689Y-93155615D01*
X113719689Y-93155615D02*
X113910165Y-93155615D01*
X113910165Y-93155615D02*
X114005403Y-93203234D01*
X114005403Y-93203234D02*
X114053022Y-93250853D01*
X114053022Y-93250853D02*
X114100641Y-93346091D01*
X105792857Y-76954663D02*
X106126190Y-76478472D01*
X106364285Y-76954663D02*
X106364285Y-75954663D01*
X106364285Y-75954663D02*
X105983333Y-75954663D01*
X105983333Y-75954663D02*
X105888095Y-76002282D01*
X105888095Y-76002282D02*
X105840476Y-76049901D01*
X105840476Y-76049901D02*
X105792857Y-76145139D01*
X105792857Y-76145139D02*
X105792857Y-76287996D01*
X105792857Y-76287996D02*
X105840476Y-76383234D01*
X105840476Y-76383234D02*
X105888095Y-76430853D01*
X105888095Y-76430853D02*
X105983333Y-76478472D01*
X105983333Y-76478472D02*
X106364285Y-76478472D01*
X105411904Y-76049901D02*
X105364285Y-76002282D01*
X105364285Y-76002282D02*
X105269047Y-75954663D01*
X105269047Y-75954663D02*
X105030952Y-75954663D01*
X105030952Y-75954663D02*
X104935714Y-76002282D01*
X104935714Y-76002282D02*
X104888095Y-76049901D01*
X104888095Y-76049901D02*
X104840476Y-76145139D01*
X104840476Y-76145139D02*
X104840476Y-76240377D01*
X104840476Y-76240377D02*
X104888095Y-76383234D01*
X104888095Y-76383234D02*
X105459523Y-76954663D01*
X105459523Y-76954663D02*
X104840476Y-76954663D01*
X103935714Y-75954663D02*
X104411904Y-75954663D01*
X104411904Y-75954663D02*
X104459523Y-76430853D01*
X104459523Y-76430853D02*
X104411904Y-76383234D01*
X104411904Y-76383234D02*
X104316666Y-76335615D01*
X104316666Y-76335615D02*
X104078571Y-76335615D01*
X104078571Y-76335615D02*
X103983333Y-76383234D01*
X103983333Y-76383234D02*
X103935714Y-76430853D01*
X103935714Y-76430853D02*
X103888095Y-76526091D01*
X103888095Y-76526091D02*
X103888095Y-76764186D01*
X103888095Y-76764186D02*
X103935714Y-76859424D01*
X103935714Y-76859424D02*
X103983333Y-76907044D01*
X103983333Y-76907044D02*
X104078571Y-76954663D01*
X104078571Y-76954663D02*
X104316666Y-76954663D01*
X104316666Y-76954663D02*
X104411904Y-76907044D01*
X104411904Y-76907044D02*
X104459523Y-76859424D01*
X133354663Y-105357142D02*
X132878472Y-105023809D01*
X133354663Y-104785714D02*
X132354663Y-104785714D01*
X132354663Y-104785714D02*
X132354663Y-105166666D01*
X132354663Y-105166666D02*
X132402282Y-105261904D01*
X132402282Y-105261904D02*
X132449901Y-105309523D01*
X132449901Y-105309523D02*
X132545139Y-105357142D01*
X132545139Y-105357142D02*
X132687996Y-105357142D01*
X132687996Y-105357142D02*
X132783234Y-105309523D01*
X132783234Y-105309523D02*
X132830853Y-105261904D01*
X132830853Y-105261904D02*
X132878472Y-105166666D01*
X132878472Y-105166666D02*
X132878472Y-104785714D01*
X133354663Y-106309523D02*
X133354663Y-105738095D01*
X133354663Y-106023809D02*
X132354663Y-106023809D01*
X132354663Y-106023809D02*
X132497520Y-105928571D01*
X132497520Y-105928571D02*
X132592758Y-105833333D01*
X132592758Y-105833333D02*
X132640377Y-105738095D01*
X133354663Y-106785714D02*
X133354663Y-106976190D01*
X133354663Y-106976190D02*
X133307044Y-107071428D01*
X133307044Y-107071428D02*
X133259424Y-107119047D01*
X133259424Y-107119047D02*
X133116567Y-107214285D01*
X133116567Y-107214285D02*
X132926091Y-107261904D01*
X132926091Y-107261904D02*
X132545139Y-107261904D01*
X132545139Y-107261904D02*
X132449901Y-107214285D01*
X132449901Y-107214285D02*
X132402282Y-107166666D01*
X132402282Y-107166666D02*
X132354663Y-107071428D01*
X132354663Y-107071428D02*
X132354663Y-106880952D01*
X132354663Y-106880952D02*
X132402282Y-106785714D01*
X132402282Y-106785714D02*
X132449901Y-106738095D01*
X132449901Y-106738095D02*
X132545139Y-106690476D01*
X132545139Y-106690476D02*
X132783234Y-106690476D01*
X132783234Y-106690476D02*
X132878472Y-106738095D01*
X132878472Y-106738095D02*
X132926091Y-106785714D01*
X132926091Y-106785714D02*
X132973710Y-106880952D01*
X132973710Y-106880952D02*
X132973710Y-107071428D01*
X132973710Y-107071428D02*
X132926091Y-107166666D01*
X132926091Y-107166666D02*
X132878472Y-107214285D01*
X132878472Y-107214285D02*
X132783234Y-107261904D01*
X131604663Y-105357142D02*
X131128472Y-105023809D01*
X131604663Y-104785714D02*
X130604663Y-104785714D01*
X130604663Y-104785714D02*
X130604663Y-105166666D01*
X130604663Y-105166666D02*
X130652282Y-105261904D01*
X130652282Y-105261904D02*
X130699901Y-105309523D01*
X130699901Y-105309523D02*
X130795139Y-105357142D01*
X130795139Y-105357142D02*
X130937996Y-105357142D01*
X130937996Y-105357142D02*
X131033234Y-105309523D01*
X131033234Y-105309523D02*
X131080853Y-105261904D01*
X131080853Y-105261904D02*
X131128472Y-105166666D01*
X131128472Y-105166666D02*
X131128472Y-104785714D01*
X131604663Y-106309523D02*
X131604663Y-105738095D01*
X131604663Y-106023809D02*
X130604663Y-106023809D01*
X130604663Y-106023809D02*
X130747520Y-105928571D01*
X130747520Y-105928571D02*
X130842758Y-105833333D01*
X130842758Y-105833333D02*
X130890377Y-105738095D01*
X131033234Y-106880952D02*
X130985615Y-106785714D01*
X130985615Y-106785714D02*
X130937996Y-106738095D01*
X130937996Y-106738095D02*
X130842758Y-106690476D01*
X130842758Y-106690476D02*
X130795139Y-106690476D01*
X130795139Y-106690476D02*
X130699901Y-106738095D01*
X130699901Y-106738095D02*
X130652282Y-106785714D01*
X130652282Y-106785714D02*
X130604663Y-106880952D01*
X130604663Y-106880952D02*
X130604663Y-107071428D01*
X130604663Y-107071428D02*
X130652282Y-107166666D01*
X130652282Y-107166666D02*
X130699901Y-107214285D01*
X130699901Y-107214285D02*
X130795139Y-107261904D01*
X130795139Y-107261904D02*
X130842758Y-107261904D01*
X130842758Y-107261904D02*
X130937996Y-107214285D01*
X130937996Y-107214285D02*
X130985615Y-107166666D01*
X130985615Y-107166666D02*
X131033234Y-107071428D01*
X131033234Y-107071428D02*
X131033234Y-106880952D01*
X131033234Y-106880952D02*
X131080853Y-106785714D01*
X131080853Y-106785714D02*
X131128472Y-106738095D01*
X131128472Y-106738095D02*
X131223710Y-106690476D01*
X131223710Y-106690476D02*
X131414186Y-106690476D01*
X131414186Y-106690476D02*
X131509424Y-106738095D01*
X131509424Y-106738095D02*
X131557044Y-106785714D01*
X131557044Y-106785714D02*
X131604663Y-106880952D01*
X131604663Y-106880952D02*
X131604663Y-107071428D01*
X131604663Y-107071428D02*
X131557044Y-107166666D01*
X131557044Y-107166666D02*
X131509424Y-107214285D01*
X131509424Y-107214285D02*
X131414186Y-107261904D01*
X131414186Y-107261904D02*
X131223710Y-107261904D01*
X131223710Y-107261904D02*
X131128472Y-107214285D01*
X131128472Y-107214285D02*
X131080853Y-107166666D01*
X131080853Y-107166666D02*
X131033234Y-107071428D01*
X99924663Y-88282142D02*
X99448472Y-87948809D01*
X99924663Y-87710714D02*
X98924663Y-87710714D01*
X98924663Y-87710714D02*
X98924663Y-88091666D01*
X98924663Y-88091666D02*
X98972282Y-88186904D01*
X98972282Y-88186904D02*
X99019901Y-88234523D01*
X99019901Y-88234523D02*
X99115139Y-88282142D01*
X99115139Y-88282142D02*
X99257996Y-88282142D01*
X99257996Y-88282142D02*
X99353234Y-88234523D01*
X99353234Y-88234523D02*
X99400853Y-88186904D01*
X99400853Y-88186904D02*
X99448472Y-88091666D01*
X99448472Y-88091666D02*
X99448472Y-87710714D01*
X99924663Y-89234523D02*
X99924663Y-88663095D01*
X99924663Y-88948809D02*
X98924663Y-88948809D01*
X98924663Y-88948809D02*
X99067520Y-88853571D01*
X99067520Y-88853571D02*
X99162758Y-88758333D01*
X99162758Y-88758333D02*
X99210377Y-88663095D01*
X98924663Y-90139285D02*
X98924663Y-89663095D01*
X98924663Y-89663095D02*
X99400853Y-89615476D01*
X99400853Y-89615476D02*
X99353234Y-89663095D01*
X99353234Y-89663095D02*
X99305615Y-89758333D01*
X99305615Y-89758333D02*
X99305615Y-89996428D01*
X99305615Y-89996428D02*
X99353234Y-90091666D01*
X99353234Y-90091666D02*
X99400853Y-90139285D01*
X99400853Y-90139285D02*
X99496091Y-90186904D01*
X99496091Y-90186904D02*
X99734186Y-90186904D01*
X99734186Y-90186904D02*
X99829424Y-90139285D01*
X99829424Y-90139285D02*
X99877044Y-90091666D01*
X99877044Y-90091666D02*
X99924663Y-89996428D01*
X99924663Y-89996428D02*
X99924663Y-89758333D01*
X99924663Y-89758333D02*
X99877044Y-89663095D01*
X99877044Y-89663095D02*
X99829424Y-89615476D01*
X155542857Y-77654663D02*
X155876190Y-77178472D01*
X156114285Y-77654663D02*
X156114285Y-76654663D01*
X156114285Y-76654663D02*
X155733333Y-76654663D01*
X155733333Y-76654663D02*
X155638095Y-76702282D01*
X155638095Y-76702282D02*
X155590476Y-76749901D01*
X155590476Y-76749901D02*
X155542857Y-76845139D01*
X155542857Y-76845139D02*
X155542857Y-76987996D01*
X155542857Y-76987996D02*
X155590476Y-77083234D01*
X155590476Y-77083234D02*
X155638095Y-77130853D01*
X155638095Y-77130853D02*
X155733333Y-77178472D01*
X155733333Y-77178472D02*
X156114285Y-77178472D01*
X154590476Y-77654663D02*
X155161904Y-77654663D01*
X154876190Y-77654663D02*
X154876190Y-76654663D01*
X154876190Y-76654663D02*
X154971428Y-76797520D01*
X154971428Y-76797520D02*
X155066666Y-76892758D01*
X155066666Y-76892758D02*
X155161904Y-76940377D01*
X153733333Y-76987996D02*
X153733333Y-77654663D01*
X153971428Y-76607044D02*
X154209523Y-77321329D01*
X154209523Y-77321329D02*
X153590476Y-77321329D01*
X155567857Y-98054663D02*
X155901190Y-97578472D01*
X156139285Y-98054663D02*
X156139285Y-97054663D01*
X156139285Y-97054663D02*
X155758333Y-97054663D01*
X155758333Y-97054663D02*
X155663095Y-97102282D01*
X155663095Y-97102282D02*
X155615476Y-97149901D01*
X155615476Y-97149901D02*
X155567857Y-97245139D01*
X155567857Y-97245139D02*
X155567857Y-97387996D01*
X155567857Y-97387996D02*
X155615476Y-97483234D01*
X155615476Y-97483234D02*
X155663095Y-97530853D01*
X155663095Y-97530853D02*
X155758333Y-97578472D01*
X155758333Y-97578472D02*
X156139285Y-97578472D01*
X154615476Y-98054663D02*
X155186904Y-98054663D01*
X154901190Y-98054663D02*
X154901190Y-97054663D01*
X154901190Y-97054663D02*
X154996428Y-97197520D01*
X154996428Y-97197520D02*
X155091666Y-97292758D01*
X155091666Y-97292758D02*
X155186904Y-97340377D01*
X154282142Y-97054663D02*
X153663095Y-97054663D01*
X153663095Y-97054663D02*
X153996428Y-97435615D01*
X153996428Y-97435615D02*
X153853571Y-97435615D01*
X153853571Y-97435615D02*
X153758333Y-97483234D01*
X153758333Y-97483234D02*
X153710714Y-97530853D01*
X153710714Y-97530853D02*
X153663095Y-97626091D01*
X153663095Y-97626091D02*
X153663095Y-97864186D01*
X153663095Y-97864186D02*
X153710714Y-97959424D01*
X153710714Y-97959424D02*
X153758333Y-98007044D01*
X153758333Y-98007044D02*
X153853571Y-98054663D01*
X153853571Y-98054663D02*
X154139285Y-98054663D01*
X154139285Y-98054663D02*
X154234523Y-98007044D01*
X154234523Y-98007044D02*
X154282142Y-97959424D01*
X155542857Y-82584663D02*
X155876190Y-82108472D01*
X156114285Y-82584663D02*
X156114285Y-81584663D01*
X156114285Y-81584663D02*
X155733333Y-81584663D01*
X155733333Y-81584663D02*
X155638095Y-81632282D01*
X155638095Y-81632282D02*
X155590476Y-81679901D01*
X155590476Y-81679901D02*
X155542857Y-81775139D01*
X155542857Y-81775139D02*
X155542857Y-81917996D01*
X155542857Y-81917996D02*
X155590476Y-82013234D01*
X155590476Y-82013234D02*
X155638095Y-82060853D01*
X155638095Y-82060853D02*
X155733333Y-82108472D01*
X155733333Y-82108472D02*
X156114285Y-82108472D01*
X154590476Y-82584663D02*
X155161904Y-82584663D01*
X154876190Y-82584663D02*
X154876190Y-81584663D01*
X154876190Y-81584663D02*
X154971428Y-81727520D01*
X154971428Y-81727520D02*
X155066666Y-81822758D01*
X155066666Y-81822758D02*
X155161904Y-81870377D01*
X154209523Y-81679901D02*
X154161904Y-81632282D01*
X154161904Y-81632282D02*
X154066666Y-81584663D01*
X154066666Y-81584663D02*
X153828571Y-81584663D01*
X153828571Y-81584663D02*
X153733333Y-81632282D01*
X153733333Y-81632282D02*
X153685714Y-81679901D01*
X153685714Y-81679901D02*
X153638095Y-81775139D01*
X153638095Y-81775139D02*
X153638095Y-81870377D01*
X153638095Y-81870377D02*
X153685714Y-82013234D01*
X153685714Y-82013234D02*
X154257142Y-82584663D01*
X154257142Y-82584663D02*
X153638095Y-82584663D01*
X155066666Y-102984663D02*
X155399999Y-102508472D01*
X155638094Y-102984663D02*
X155638094Y-101984663D01*
X155638094Y-101984663D02*
X155257142Y-101984663D01*
X155257142Y-101984663D02*
X155161904Y-102032282D01*
X155161904Y-102032282D02*
X155114285Y-102079901D01*
X155114285Y-102079901D02*
X155066666Y-102175139D01*
X155066666Y-102175139D02*
X155066666Y-102317996D01*
X155066666Y-102317996D02*
X155114285Y-102413234D01*
X155114285Y-102413234D02*
X155161904Y-102460853D01*
X155161904Y-102460853D02*
X155257142Y-102508472D01*
X155257142Y-102508472D02*
X155638094Y-102508472D01*
X154495237Y-102413234D02*
X154590475Y-102365615D01*
X154590475Y-102365615D02*
X154638094Y-102317996D01*
X154638094Y-102317996D02*
X154685713Y-102222758D01*
X154685713Y-102222758D02*
X154685713Y-102175139D01*
X154685713Y-102175139D02*
X154638094Y-102079901D01*
X154638094Y-102079901D02*
X154590475Y-102032282D01*
X154590475Y-102032282D02*
X154495237Y-101984663D01*
X154495237Y-101984663D02*
X154304761Y-101984663D01*
X154304761Y-101984663D02*
X154209523Y-102032282D01*
X154209523Y-102032282D02*
X154161904Y-102079901D01*
X154161904Y-102079901D02*
X154114285Y-102175139D01*
X154114285Y-102175139D02*
X154114285Y-102222758D01*
X154114285Y-102222758D02*
X154161904Y-102317996D01*
X154161904Y-102317996D02*
X154209523Y-102365615D01*
X154209523Y-102365615D02*
X154304761Y-102413234D01*
X154304761Y-102413234D02*
X154495237Y-102413234D01*
X154495237Y-102413234D02*
X154590475Y-102460853D01*
X154590475Y-102460853D02*
X154638094Y-102508472D01*
X154638094Y-102508472D02*
X154685713Y-102603710D01*
X154685713Y-102603710D02*
X154685713Y-102794186D01*
X154685713Y-102794186D02*
X154638094Y-102889424D01*
X154638094Y-102889424D02*
X154590475Y-102937044D01*
X154590475Y-102937044D02*
X154495237Y-102984663D01*
X154495237Y-102984663D02*
X154304761Y-102984663D01*
X154304761Y-102984663D02*
X154209523Y-102937044D01*
X154209523Y-102937044D02*
X154161904Y-102889424D01*
X154161904Y-102889424D02*
X154114285Y-102794186D01*
X154114285Y-102794186D02*
X154114285Y-102603710D01*
X154114285Y-102603710D02*
X154161904Y-102508472D01*
X154161904Y-102508472D02*
X154209523Y-102460853D01*
X154209523Y-102460853D02*
X154304761Y-102413234D01*
X119604663Y-77083333D02*
X119128472Y-76750000D01*
X119604663Y-76511905D02*
X118604663Y-76511905D01*
X118604663Y-76511905D02*
X118604663Y-76892857D01*
X118604663Y-76892857D02*
X118652282Y-76988095D01*
X118652282Y-76988095D02*
X118699901Y-77035714D01*
X118699901Y-77035714D02*
X118795139Y-77083333D01*
X118795139Y-77083333D02*
X118937996Y-77083333D01*
X118937996Y-77083333D02*
X119033234Y-77035714D01*
X119033234Y-77035714D02*
X119080853Y-76988095D01*
X119080853Y-76988095D02*
X119128472Y-76892857D01*
X119128472Y-76892857D02*
X119128472Y-76511905D01*
X118604663Y-77940476D02*
X118604663Y-77750000D01*
X118604663Y-77750000D02*
X118652282Y-77654762D01*
X118652282Y-77654762D02*
X118699901Y-77607143D01*
X118699901Y-77607143D02*
X118842758Y-77511905D01*
X118842758Y-77511905D02*
X119033234Y-77464286D01*
X119033234Y-77464286D02*
X119414186Y-77464286D01*
X119414186Y-77464286D02*
X119509424Y-77511905D01*
X119509424Y-77511905D02*
X119557044Y-77559524D01*
X119557044Y-77559524D02*
X119604663Y-77654762D01*
X119604663Y-77654762D02*
X119604663Y-77845238D01*
X119604663Y-77845238D02*
X119557044Y-77940476D01*
X119557044Y-77940476D02*
X119509424Y-77988095D01*
X119509424Y-77988095D02*
X119414186Y-78035714D01*
X119414186Y-78035714D02*
X119176091Y-78035714D01*
X119176091Y-78035714D02*
X119080853Y-77988095D01*
X119080853Y-77988095D02*
X119033234Y-77940476D01*
X119033234Y-77940476D02*
X118985615Y-77845238D01*
X118985615Y-77845238D02*
X118985615Y-77654762D01*
X118985615Y-77654762D02*
X119033234Y-77559524D01*
X119033234Y-77559524D02*
X119080853Y-77511905D01*
X119080853Y-77511905D02*
X119176091Y-77464286D01*
X117104663Y-77083333D02*
X116628472Y-76750000D01*
X117104663Y-76511905D02*
X116104663Y-76511905D01*
X116104663Y-76511905D02*
X116104663Y-76892857D01*
X116104663Y-76892857D02*
X116152282Y-76988095D01*
X116152282Y-76988095D02*
X116199901Y-77035714D01*
X116199901Y-77035714D02*
X116295139Y-77083333D01*
X116295139Y-77083333D02*
X116437996Y-77083333D01*
X116437996Y-77083333D02*
X116533234Y-77035714D01*
X116533234Y-77035714D02*
X116580853Y-76988095D01*
X116580853Y-76988095D02*
X116628472Y-76892857D01*
X116628472Y-76892857D02*
X116628472Y-76511905D01*
X116104663Y-77988095D02*
X116104663Y-77511905D01*
X116104663Y-77511905D02*
X116580853Y-77464286D01*
X116580853Y-77464286D02*
X116533234Y-77511905D01*
X116533234Y-77511905D02*
X116485615Y-77607143D01*
X116485615Y-77607143D02*
X116485615Y-77845238D01*
X116485615Y-77845238D02*
X116533234Y-77940476D01*
X116533234Y-77940476D02*
X116580853Y-77988095D01*
X116580853Y-77988095D02*
X116676091Y-78035714D01*
X116676091Y-78035714D02*
X116914186Y-78035714D01*
X116914186Y-78035714D02*
X117009424Y-77988095D01*
X117009424Y-77988095D02*
X117057044Y-77940476D01*
X117057044Y-77940476D02*
X117104663Y-77845238D01*
X117104663Y-77845238D02*
X117104663Y-77607143D01*
X117104663Y-77607143D02*
X117057044Y-77511905D01*
X117057044Y-77511905D02*
X117009424Y-77464286D01*
X114604663Y-77083333D02*
X114128472Y-76750000D01*
X114604663Y-76511905D02*
X113604663Y-76511905D01*
X113604663Y-76511905D02*
X113604663Y-76892857D01*
X113604663Y-76892857D02*
X113652282Y-76988095D01*
X113652282Y-76988095D02*
X113699901Y-77035714D01*
X113699901Y-77035714D02*
X113795139Y-77083333D01*
X113795139Y-77083333D02*
X113937996Y-77083333D01*
X113937996Y-77083333D02*
X114033234Y-77035714D01*
X114033234Y-77035714D02*
X114080853Y-76988095D01*
X114080853Y-76988095D02*
X114128472Y-76892857D01*
X114128472Y-76892857D02*
X114128472Y-76511905D01*
X113937996Y-77940476D02*
X114604663Y-77940476D01*
X113557044Y-77702381D02*
X114271329Y-77464286D01*
X114271329Y-77464286D02*
X114271329Y-78083333D01*
X122424663Y-82833333D02*
X121948472Y-82500000D01*
X122424663Y-82261905D02*
X121424663Y-82261905D01*
X121424663Y-82261905D02*
X121424663Y-82642857D01*
X121424663Y-82642857D02*
X121472282Y-82738095D01*
X121472282Y-82738095D02*
X121519901Y-82785714D01*
X121519901Y-82785714D02*
X121615139Y-82833333D01*
X121615139Y-82833333D02*
X121757996Y-82833333D01*
X121757996Y-82833333D02*
X121853234Y-82785714D01*
X121853234Y-82785714D02*
X121900853Y-82738095D01*
X121900853Y-82738095D02*
X121948472Y-82642857D01*
X121948472Y-82642857D02*
X121948472Y-82261905D01*
X122424663Y-83785714D02*
X122424663Y-83214286D01*
X122424663Y-83500000D02*
X121424663Y-83500000D01*
X121424663Y-83500000D02*
X121567520Y-83404762D01*
X121567520Y-83404762D02*
X121662758Y-83309524D01*
X121662758Y-83309524D02*
X121710377Y-83214286D01*
X110341666Y-91884663D02*
X110817856Y-91884663D01*
X110817856Y-91884663D02*
X110817856Y-90884663D01*
X109484523Y-91884663D02*
X110055951Y-91884663D01*
X109770237Y-91884663D02*
X109770237Y-90884663D01*
X109770237Y-90884663D02*
X109865475Y-91027520D01*
X109865475Y-91027520D02*
X109960713Y-91122758D01*
X109960713Y-91122758D02*
X110055951Y-91170377D01*
X127189424Y-82357142D02*
X127237044Y-82309523D01*
X127237044Y-82309523D02*
X127284663Y-82166666D01*
X127284663Y-82166666D02*
X127284663Y-82071428D01*
X127284663Y-82071428D02*
X127237044Y-81928571D01*
X127237044Y-81928571D02*
X127141805Y-81833333D01*
X127141805Y-81833333D02*
X127046567Y-81785714D01*
X127046567Y-81785714D02*
X126856091Y-81738095D01*
X126856091Y-81738095D02*
X126713234Y-81738095D01*
X126713234Y-81738095D02*
X126522758Y-81785714D01*
X126522758Y-81785714D02*
X126427520Y-81833333D01*
X126427520Y-81833333D02*
X126332282Y-81928571D01*
X126332282Y-81928571D02*
X126284663Y-82071428D01*
X126284663Y-82071428D02*
X126284663Y-82166666D01*
X126284663Y-82166666D02*
X126332282Y-82309523D01*
X126332282Y-82309523D02*
X126379901Y-82357142D01*
X126379901Y-82738095D02*
X126332282Y-82785714D01*
X126332282Y-82785714D02*
X126284663Y-82880952D01*
X126284663Y-82880952D02*
X126284663Y-83119047D01*
X126284663Y-83119047D02*
X126332282Y-83214285D01*
X126332282Y-83214285D02*
X126379901Y-83261904D01*
X126379901Y-83261904D02*
X126475139Y-83309523D01*
X126475139Y-83309523D02*
X126570377Y-83309523D01*
X126570377Y-83309523D02*
X126713234Y-83261904D01*
X126713234Y-83261904D02*
X127284663Y-82690476D01*
X127284663Y-82690476D02*
X127284663Y-83309523D01*
X127284663Y-84261904D02*
X127284663Y-83690476D01*
X127284663Y-83976190D02*
X126284663Y-83976190D01*
X126284663Y-83976190D02*
X126427520Y-83880952D01*
X126427520Y-83880952D02*
X126522758Y-83785714D01*
X126522758Y-83785714D02*
X126570377Y-83690476D01*
X110767857Y-86179424D02*
X110815476Y-86227044D01*
X110815476Y-86227044D02*
X110958333Y-86274663D01*
X110958333Y-86274663D02*
X111053571Y-86274663D01*
X111053571Y-86274663D02*
X111196428Y-86227044D01*
X111196428Y-86227044D02*
X111291666Y-86131805D01*
X111291666Y-86131805D02*
X111339285Y-86036567D01*
X111339285Y-86036567D02*
X111386904Y-85846091D01*
X111386904Y-85846091D02*
X111386904Y-85703234D01*
X111386904Y-85703234D02*
X111339285Y-85512758D01*
X111339285Y-85512758D02*
X111291666Y-85417520D01*
X111291666Y-85417520D02*
X111196428Y-85322282D01*
X111196428Y-85322282D02*
X111053571Y-85274663D01*
X111053571Y-85274663D02*
X110958333Y-85274663D01*
X110958333Y-85274663D02*
X110815476Y-85322282D01*
X110815476Y-85322282D02*
X110767857Y-85369901D01*
X109815476Y-86274663D02*
X110386904Y-86274663D01*
X110101190Y-86274663D02*
X110101190Y-85274663D01*
X110101190Y-85274663D02*
X110196428Y-85417520D01*
X110196428Y-85417520D02*
X110291666Y-85512758D01*
X110291666Y-85512758D02*
X110386904Y-85560377D01*
X108863095Y-86274663D02*
X109434523Y-86274663D01*
X109148809Y-86274663D02*
X109148809Y-85274663D01*
X109148809Y-85274663D02*
X109244047Y-85417520D01*
X109244047Y-85417520D02*
X109339285Y-85512758D01*
X109339285Y-85512758D02*
X109434523Y-85560377D01*
X109292857Y-94359424D02*
X109340476Y-94407044D01*
X109340476Y-94407044D02*
X109483333Y-94454663D01*
X109483333Y-94454663D02*
X109578571Y-94454663D01*
X109578571Y-94454663D02*
X109721428Y-94407044D01*
X109721428Y-94407044D02*
X109816666Y-94311805D01*
X109816666Y-94311805D02*
X109864285Y-94216567D01*
X109864285Y-94216567D02*
X109911904Y-94026091D01*
X109911904Y-94026091D02*
X109911904Y-93883234D01*
X109911904Y-93883234D02*
X109864285Y-93692758D01*
X109864285Y-93692758D02*
X109816666Y-93597520D01*
X109816666Y-93597520D02*
X109721428Y-93502282D01*
X109721428Y-93502282D02*
X109578571Y-93454663D01*
X109578571Y-93454663D02*
X109483333Y-93454663D01*
X109483333Y-93454663D02*
X109340476Y-93502282D01*
X109340476Y-93502282D02*
X109292857Y-93549901D01*
X108340476Y-94454663D02*
X108911904Y-94454663D01*
X108626190Y-94454663D02*
X108626190Y-93454663D01*
X108626190Y-93454663D02*
X108721428Y-93597520D01*
X108721428Y-93597520D02*
X108816666Y-93692758D01*
X108816666Y-93692758D02*
X108911904Y-93740377D01*
X107721428Y-93454663D02*
X107626190Y-93454663D01*
X107626190Y-93454663D02*
X107530952Y-93502282D01*
X107530952Y-93502282D02*
X107483333Y-93549901D01*
X107483333Y-93549901D02*
X107435714Y-93645139D01*
X107435714Y-93645139D02*
X107388095Y-93835615D01*
X107388095Y-93835615D02*
X107388095Y-94073710D01*
X107388095Y-94073710D02*
X107435714Y-94264186D01*
X107435714Y-94264186D02*
X107483333Y-94359424D01*
X107483333Y-94359424D02*
X107530952Y-94407044D01*
X107530952Y-94407044D02*
X107626190Y-94454663D01*
X107626190Y-94454663D02*
X107721428Y-94454663D01*
X107721428Y-94454663D02*
X107816666Y-94407044D01*
X107816666Y-94407044D02*
X107864285Y-94359424D01*
X107864285Y-94359424D02*
X107911904Y-94264186D01*
X107911904Y-94264186D02*
X107959523Y-94073710D01*
X107959523Y-94073710D02*
X107959523Y-93835615D01*
X107959523Y-93835615D02*
X107911904Y-93645139D01*
X107911904Y-93645139D02*
X107864285Y-93549901D01*
X107864285Y-93549901D02*
X107816666Y-93502282D01*
X107816666Y-93502282D02*
X107721428Y-93454663D01*
X106566666Y-86109424D02*
X106614285Y-86157044D01*
X106614285Y-86157044D02*
X106757142Y-86204663D01*
X106757142Y-86204663D02*
X106852380Y-86204663D01*
X106852380Y-86204663D02*
X106995237Y-86157044D01*
X106995237Y-86157044D02*
X107090475Y-86061805D01*
X107090475Y-86061805D02*
X107138094Y-85966567D01*
X107138094Y-85966567D02*
X107185713Y-85776091D01*
X107185713Y-85776091D02*
X107185713Y-85633234D01*
X107185713Y-85633234D02*
X107138094Y-85442758D01*
X107138094Y-85442758D02*
X107090475Y-85347520D01*
X107090475Y-85347520D02*
X106995237Y-85252282D01*
X106995237Y-85252282D02*
X106852380Y-85204663D01*
X106852380Y-85204663D02*
X106757142Y-85204663D01*
X106757142Y-85204663D02*
X106614285Y-85252282D01*
X106614285Y-85252282D02*
X106566666Y-85299901D01*
X106090475Y-86204663D02*
X105899999Y-86204663D01*
X105899999Y-86204663D02*
X105804761Y-86157044D01*
X105804761Y-86157044D02*
X105757142Y-86109424D01*
X105757142Y-86109424D02*
X105661904Y-85966567D01*
X105661904Y-85966567D02*
X105614285Y-85776091D01*
X105614285Y-85776091D02*
X105614285Y-85395139D01*
X105614285Y-85395139D02*
X105661904Y-85299901D01*
X105661904Y-85299901D02*
X105709523Y-85252282D01*
X105709523Y-85252282D02*
X105804761Y-85204663D01*
X105804761Y-85204663D02*
X105995237Y-85204663D01*
X105995237Y-85204663D02*
X106090475Y-85252282D01*
X106090475Y-85252282D02*
X106138094Y-85299901D01*
X106138094Y-85299901D02*
X106185713Y-85395139D01*
X106185713Y-85395139D02*
X106185713Y-85633234D01*
X106185713Y-85633234D02*
X106138094Y-85728472D01*
X106138094Y-85728472D02*
X106090475Y-85776091D01*
X106090475Y-85776091D02*
X105995237Y-85823710D01*
X105995237Y-85823710D02*
X105804761Y-85823710D01*
X105804761Y-85823710D02*
X105709523Y-85776091D01*
X105709523Y-85776091D02*
X105661904Y-85728472D01*
X105661904Y-85728472D02*
X105614285Y-85633234D01*
X103505542Y-95308333D02*
X103553162Y-95260714D01*
X103553162Y-95260714D02*
X103600781Y-95117857D01*
X103600781Y-95117857D02*
X103600781Y-95022619D01*
X103600781Y-95022619D02*
X103553162Y-94879762D01*
X103553162Y-94879762D02*
X103457923Y-94784524D01*
X103457923Y-94784524D02*
X103362685Y-94736905D01*
X103362685Y-94736905D02*
X103172209Y-94689286D01*
X103172209Y-94689286D02*
X103029352Y-94689286D01*
X103029352Y-94689286D02*
X102838876Y-94736905D01*
X102838876Y-94736905D02*
X102743638Y-94784524D01*
X102743638Y-94784524D02*
X102648400Y-94879762D01*
X102648400Y-94879762D02*
X102600781Y-95022619D01*
X102600781Y-95022619D02*
X102600781Y-95117857D01*
X102600781Y-95117857D02*
X102648400Y-95260714D01*
X102648400Y-95260714D02*
X102696019Y-95308333D01*
X102696019Y-95689286D02*
X102648400Y-95736905D01*
X102648400Y-95736905D02*
X102600781Y-95832143D01*
X102600781Y-95832143D02*
X102600781Y-96070238D01*
X102600781Y-96070238D02*
X102648400Y-96165476D01*
X102648400Y-96165476D02*
X102696019Y-96213095D01*
X102696019Y-96213095D02*
X102791257Y-96260714D01*
X102791257Y-96260714D02*
X102886495Y-96260714D01*
X102886495Y-96260714D02*
X103029352Y-96213095D01*
X103029352Y-96213095D02*
X103600781Y-95641667D01*
X103600781Y-95641667D02*
X103600781Y-96260714D01*
X99009424Y-95308333D02*
X99057044Y-95260714D01*
X99057044Y-95260714D02*
X99104663Y-95117857D01*
X99104663Y-95117857D02*
X99104663Y-95022619D01*
X99104663Y-95022619D02*
X99057044Y-94879762D01*
X99057044Y-94879762D02*
X98961805Y-94784524D01*
X98961805Y-94784524D02*
X98866567Y-94736905D01*
X98866567Y-94736905D02*
X98676091Y-94689286D01*
X98676091Y-94689286D02*
X98533234Y-94689286D01*
X98533234Y-94689286D02*
X98342758Y-94736905D01*
X98342758Y-94736905D02*
X98247520Y-94784524D01*
X98247520Y-94784524D02*
X98152282Y-94879762D01*
X98152282Y-94879762D02*
X98104663Y-95022619D01*
X98104663Y-95022619D02*
X98104663Y-95117857D01*
X98104663Y-95117857D02*
X98152282Y-95260714D01*
X98152282Y-95260714D02*
X98199901Y-95308333D01*
X99104663Y-96260714D02*
X99104663Y-95689286D01*
X99104663Y-95975000D02*
X98104663Y-95975000D01*
X98104663Y-95975000D02*
X98247520Y-95879762D01*
X98247520Y-95879762D02*
X98342758Y-95784524D01*
X98342758Y-95784524D02*
X98390377Y-95689286D01*
D11*
X116234420Y-90740000D02*
X116515580Y-90740000D01*
X116234420Y-91760000D02*
X116515580Y-91760000D01*
D12*
X150175000Y-75875000D02*
X150175000Y-76100000D01*
X150175000Y-75875000D02*
X146925000Y-75875000D01*
X150175000Y-79125000D02*
X150175000Y-78900000D01*
X150175000Y-79125000D02*
X146925000Y-79125000D01*
X146925000Y-75875000D02*
X146925000Y-76100000D01*
X146925000Y-79125000D02*
X146925000Y-78900000D01*
D11*
X150650000Y-76100000D02*
X150410000Y-75770000D01*
X150890000Y-75770000D01*
X150650000Y-76100000D01*
G36*
X150650000Y-76100000D02*
G01*
X150410000Y-75770000D01*
X150890000Y-75770000D01*
X150650000Y-76100000D01*
G37*
D12*
X150025000Y-89225000D02*
X149800000Y-89225000D01*
X150025000Y-89225000D02*
X150025000Y-85875000D01*
X146900000Y-89225000D02*
X146675000Y-89225000D01*
X146675000Y-89225000D02*
X146675000Y-85875000D01*
X150025000Y-85875000D02*
X149800000Y-85875000D01*
X146675000Y-85875000D02*
X146900000Y-85875000D01*
D11*
X150130000Y-90077500D02*
X149800000Y-89837500D01*
X150130000Y-89597500D01*
X150130000Y-90077500D01*
G36*
X150130000Y-90077500D02*
G01*
X149800000Y-89837500D01*
X150130000Y-89597500D01*
X150130000Y-90077500D01*
G37*
X143087742Y-95477500D02*
X143562258Y-95477500D01*
X143087742Y-96522500D02*
X143562258Y-96522500D01*
X143087742Y-93477500D02*
X143562258Y-93477500D01*
X143087742Y-94522500D02*
X143562258Y-94522500D01*
X141100000Y-86750000D02*
X145200000Y-86750000D01*
X141100000Y-84750000D02*
X141100000Y-86750000D01*
X141550000Y-84250000D02*
X142150000Y-84250000D01*
X141850000Y-84550000D02*
X141550000Y-84250000D01*
X141850000Y-84550000D02*
X142150000Y-84250000D01*
X145200000Y-86750000D02*
X145200000Y-84750000D01*
X145200000Y-84750000D02*
X141100000Y-84750000D01*
X143234420Y-75990000D02*
X143515580Y-75990000D01*
X143234420Y-77010000D02*
X143515580Y-77010000D01*
X147140000Y-81615580D02*
X147140000Y-81334420D01*
X148160000Y-81615580D02*
X148160000Y-81334420D01*
X148890000Y-81615580D02*
X148890000Y-81334420D01*
X149910000Y-81615580D02*
X149910000Y-81334420D01*
X154734420Y-69990000D02*
X155015580Y-69990000D01*
X154734420Y-71010000D02*
X155015580Y-71010000D01*
X148160000Y-74572500D02*
X145140000Y-74572500D01*
X148160000Y-70362500D02*
X148160000Y-74572500D01*
X145140000Y-74572500D02*
X145140000Y-70362500D01*
X149040000Y-74572500D02*
X149040000Y-70362500D01*
X152060000Y-70362500D02*
X152060000Y-74572500D01*
X152060000Y-74572500D02*
X149040000Y-74572500D01*
X105230000Y-68330000D02*
X89870000Y-68330000D01*
X105230000Y-65730000D02*
X102630000Y-65730000D01*
X105230000Y-63130000D02*
X103900000Y-63130000D01*
X102630000Y-65730000D02*
X102630000Y-63130000D01*
X105230000Y-64460000D02*
X105230000Y-63130000D01*
X105230000Y-68330000D02*
X105230000Y-65730000D01*
X102630000Y-63130000D02*
X89870000Y-63130000D01*
X89870000Y-68330000D02*
X89870000Y-63130000D01*
X155480000Y-63170000D02*
X154150000Y-63170000D01*
X155480000Y-65770000D02*
X152880000Y-65770000D01*
X155480000Y-68370000D02*
X155480000Y-65770000D01*
X152880000Y-63170000D02*
X147740000Y-63170000D01*
X155480000Y-64500000D02*
X155480000Y-63170000D01*
X155480000Y-68370000D02*
X147740000Y-68370000D01*
X152880000Y-65770000D02*
X152880000Y-63170000D01*
X147740000Y-68370000D02*
X147740000Y-63170000D01*
X129315000Y-107115000D02*
X127035000Y-107115000D01*
X126715000Y-109995000D02*
X126715000Y-110535000D01*
X126715000Y-110535000D02*
X129325000Y-110535000D01*
D13*
X119141600Y-92421600D02*
X141158400Y-92421600D01*
X141158400Y-92421600D02*
X141158400Y-102378400D01*
X119141600Y-98800000D02*
X119141600Y-92421600D01*
X119141600Y-100800000D02*
X119141600Y-98800000D01*
X119141600Y-102378400D02*
X119141600Y-100800000D01*
X141158400Y-102378400D02*
X119141600Y-102378400D01*
X119141600Y-100800000D02*
G75*
G03*
X119141600Y-98800000I0J1000000D01*
G01*
D14*
X119950000Y-93000000D02*
G75*
G03*
X119550000Y-93000000I-200000J0D01*
G01*
X119550000Y-93000000D02*
G75*
G03*
X119950000Y-93000000I200000J0D01*
G01*
D11*
X89820000Y-116055000D02*
X89820000Y-113395000D01*
X97500000Y-113395000D02*
X89820000Y-113395000D01*
X97500000Y-116055000D02*
X97500000Y-113395000D01*
X97500000Y-116055000D02*
X89820000Y-116055000D01*
X100100000Y-113395000D02*
X98770000Y-113395000D01*
X100100000Y-114725000D02*
X100100000Y-113395000D01*
D15*
X109031000Y-70646700D02*
G75*
G03*
X108269000Y-70646700I-381000J0D01*
G01*
X108269000Y-70646700D02*
G75*
G03*
X109031000Y-70646700I381000J0D01*
G01*
D11*
X145200000Y-116080000D02*
X145200000Y-113420000D01*
X152880000Y-113420000D02*
X145200000Y-113420000D01*
X152880000Y-116080000D02*
X152880000Y-113420000D01*
X152880000Y-116080000D02*
X145200000Y-116080000D01*
X155480000Y-113420000D02*
X154150000Y-113420000D01*
X155480000Y-114750000D02*
X155480000Y-113420000D01*
D16*
X146950000Y-108500000D02*
X146950000Y-101500000D01*
X145910000Y-108500000D02*
X146950000Y-108500000D01*
X142850000Y-108500000D02*
X143890000Y-108500000D01*
X146950000Y-101500000D02*
X145910000Y-101500000D01*
X143890000Y-101500000D02*
X142850000Y-101500000D01*
X142850000Y-101500000D02*
X142850000Y-108500000D01*
X96166118Y-99000000D02*
X96166118Y-106000000D01*
X97206118Y-99000000D02*
X96166118Y-99000000D01*
X100266118Y-99000000D02*
X99226118Y-99000000D01*
X96166118Y-106000000D02*
X97206118Y-106000000D01*
X99226118Y-106000000D02*
X100266118Y-106000000D01*
X100266118Y-106000000D02*
X100266118Y-99000000D01*
X125400000Y-115300000D02*
X132400000Y-115300000D01*
X125400000Y-114260000D02*
X125400000Y-115300000D01*
X125400000Y-111200000D02*
X125400000Y-112240000D01*
X132400000Y-115300000D02*
X132400000Y-114260000D01*
X132400000Y-112240000D02*
X132400000Y-111200000D01*
X132400000Y-111200000D02*
X125400000Y-111200000D01*
D11*
X115028376Y-97022500D02*
X114553860Y-97022500D01*
X115028376Y-95977500D02*
X114553860Y-95977500D01*
X113176118Y-107160000D02*
X113176118Y-108110000D01*
X113176118Y-108110000D02*
X112226118Y-108110000D01*
X113176118Y-98840000D02*
X113176118Y-97890000D01*
X113176118Y-97890000D02*
X112226118Y-97890000D01*
X102956118Y-107160000D02*
X102956118Y-108110000D01*
X102956118Y-108110000D02*
X103906118Y-108110000D01*
X102956118Y-98840000D02*
X102956118Y-97890000D01*
X102956118Y-97890000D02*
X103906118Y-97890000D01*
X103906118Y-97275000D02*
X103436118Y-97615000D01*
X103436118Y-96935000D01*
X103906118Y-97275000D01*
G36*
X103906118Y-97275000D02*
G01*
X103436118Y-97615000D01*
X103436118Y-96935000D01*
X103906118Y-97275000D01*
G37*
X136160000Y-116640000D02*
X135680000Y-116640000D01*
X135920000Y-116310000D01*
X136160000Y-116640000D01*
G36*
X136160000Y-116640000D02*
G01*
X135680000Y-116640000D01*
X135920000Y-116310000D01*
X136160000Y-116640000D01*
G37*
X140960000Y-109590000D02*
X140960000Y-110850000D01*
X140960000Y-116410000D02*
X140960000Y-115150000D01*
X137200000Y-109590000D02*
X140960000Y-109590000D01*
X137200000Y-116410000D02*
X140960000Y-116410000D01*
X105252500Y-91640000D02*
X104772500Y-91640000D01*
X105012500Y-91310000D01*
X105252500Y-91640000D01*
G36*
X105252500Y-91640000D02*
G01*
X104772500Y-91640000D01*
X105012500Y-91310000D01*
X105252500Y-91640000D01*
G37*
X106312500Y-91360000D02*
X105512500Y-91360000D01*
X106312500Y-91360000D02*
X107112500Y-91360000D01*
X106312500Y-88240000D02*
X105512500Y-88240000D01*
X106312500Y-88240000D02*
X107112500Y-88240000D01*
X140422500Y-63312258D02*
X140422500Y-62837742D01*
X139377500Y-63312258D02*
X139377500Y-62837742D01*
X115028376Y-94227500D02*
X114553860Y-94227500D01*
X115028376Y-95272500D02*
X114553860Y-95272500D01*
X107912742Y-77022500D02*
X108387258Y-77022500D01*
X107912742Y-75977500D02*
X108387258Y-75977500D01*
X133172500Y-109162258D02*
X133172500Y-108687742D01*
X132127500Y-109162258D02*
X132127500Y-108687742D01*
X131622500Y-109162258D02*
X131622500Y-108687742D01*
X130577500Y-109162258D02*
X130577500Y-108687742D01*
X100377500Y-88687742D02*
X100377500Y-89162258D01*
X101422500Y-88687742D02*
X101422500Y-89162258D01*
X154712742Y-79222500D02*
X155187258Y-79222500D01*
X154712742Y-78177500D02*
X155187258Y-78177500D01*
X154687742Y-98577500D02*
X155162258Y-98577500D01*
X154687742Y-99622500D02*
X155162258Y-99622500D01*
X154662742Y-81222500D02*
X155137258Y-81222500D01*
X154662742Y-80177500D02*
X155137258Y-80177500D01*
X154662742Y-100577500D02*
X155137258Y-100577500D01*
X154662742Y-101622500D02*
X155137258Y-101622500D01*
X119672500Y-80037742D02*
X119672500Y-80512258D01*
X118627500Y-80037742D02*
X118627500Y-80512258D01*
X117172500Y-80037742D02*
X117172500Y-80512258D01*
X116127500Y-80037742D02*
X116127500Y-80512258D01*
X113627500Y-80037742D02*
X113627500Y-80512258D01*
X114672500Y-80037742D02*
X114672500Y-80512258D01*
X122877500Y-82762742D02*
X122877500Y-83237258D01*
X123922500Y-82762742D02*
X123922500Y-83237258D01*
X110012221Y-90510000D02*
X110337779Y-90510000D01*
X110012221Y-89490000D02*
X110337779Y-89490000D01*
X125910000Y-83140580D02*
X125910000Y-82859420D01*
X124890000Y-83140580D02*
X124890000Y-82859420D01*
X110265580Y-86740000D02*
X109984420Y-86740000D01*
X110265580Y-87760000D02*
X109984420Y-87760000D01*
X108790580Y-91990000D02*
X108509420Y-91990000D01*
X108790580Y-93010000D02*
X108509420Y-93010000D01*
X106034420Y-87760000D02*
X106315580Y-87760000D01*
X106034420Y-86740000D02*
X106315580Y-86740000D01*
X102226118Y-95615580D02*
X102226118Y-95334420D01*
X101206118Y-95615580D02*
X101206118Y-95334420D01*
X100476118Y-95615580D02*
X100476118Y-95334420D01*
X99456118Y-95615580D02*
X99456118Y-95334420D01*
%LPC*%
D17*
X115600000Y-91250000D03*
X117150000Y-91250000D03*
D18*
X150700000Y-76500000D03*
X150700000Y-77000000D03*
X150700000Y-77500000D03*
X150700000Y-78000000D03*
X150700000Y-78500000D03*
X146400000Y-78500000D03*
X146400000Y-78000000D03*
X146400000Y-77500000D03*
X146400000Y-77000000D03*
X146400000Y-76500000D03*
D19*
X149350000Y-89750000D03*
X148850000Y-89750000D03*
X148350000Y-89750000D03*
X147850000Y-89750000D03*
X147350000Y-89750000D03*
X147350000Y-85350000D03*
X147850000Y-85350000D03*
X148350000Y-85350000D03*
X148850000Y-85350000D03*
X149350000Y-85350000D03*
D20*
X142500000Y-96000000D03*
X144150000Y-96000000D03*
X142500000Y-94000000D03*
X144150000Y-94000000D03*
D21*
X141850000Y-85750000D03*
X143150000Y-85750000D03*
X144450000Y-85750000D03*
D17*
X142600000Y-76500000D03*
X144150000Y-76500000D03*
D22*
X147650000Y-82250000D03*
X147650000Y-80700000D03*
X149400000Y-82250000D03*
X149400000Y-80700000D03*
D17*
X154100000Y-70500000D03*
X155650000Y-70500000D03*
D23*
X146650000Y-70575000D03*
X146650000Y-73650000D03*
X150550000Y-73650000D03*
X150550000Y-70575000D03*
D24*
X103900000Y-64460000D03*
D25*
X103900000Y-67000000D03*
X101360000Y-64460000D03*
X101360000Y-67000000D03*
X98820000Y-64460000D03*
X98820000Y-67000000D03*
X96280000Y-64460000D03*
X96280000Y-67000000D03*
X93740000Y-64460000D03*
X93740000Y-67000000D03*
X91200000Y-64460000D03*
X91200000Y-67000000D03*
X149070000Y-67040000D03*
X149070000Y-64500000D03*
X151610000Y-67040000D03*
X151610000Y-64500000D03*
X154150000Y-67040000D03*
D24*
X154150000Y-64500000D03*
D26*
X160400000Y-63250000D03*
X84900000Y-63250000D03*
D27*
X115650000Y-100000000D03*
X115650000Y-98250000D03*
D28*
X128900000Y-109750000D03*
X128900000Y-107900000D03*
X127450000Y-107900000D03*
X127450000Y-109750000D03*
D29*
X119750000Y-91550000D03*
X120400000Y-91550000D03*
X121050000Y-91550000D03*
X121700000Y-91550000D03*
X122350000Y-91550000D03*
X123000000Y-91550000D03*
X123650000Y-91550000D03*
X124300000Y-91550000D03*
X124950000Y-91550000D03*
X125600000Y-91550000D03*
X126250000Y-91550000D03*
X126900000Y-91550000D03*
X127550000Y-91550000D03*
X128200000Y-91550000D03*
X128850000Y-91550000D03*
X129500000Y-91550000D03*
X130150000Y-91550000D03*
X130800000Y-91550000D03*
X131450000Y-91550000D03*
X132100000Y-91550000D03*
X132750000Y-91550000D03*
X133400000Y-91550000D03*
X134050000Y-91550000D03*
X134700000Y-91550000D03*
X135350000Y-91550000D03*
X136000000Y-91550000D03*
X136650000Y-91550000D03*
X137300000Y-91550000D03*
X137950000Y-91550000D03*
X138600000Y-91550000D03*
X139250000Y-91550000D03*
X139900000Y-91550000D03*
X140550000Y-91550000D03*
X140550000Y-103250000D03*
X139900000Y-103250000D03*
X139250000Y-103250000D03*
X138600000Y-103250000D03*
X137950000Y-103250000D03*
X137300000Y-103250000D03*
X136650000Y-103250000D03*
X136000000Y-103250000D03*
X135350000Y-103250000D03*
X134700000Y-103250000D03*
X134050000Y-103250000D03*
X133400000Y-103250000D03*
X132750000Y-103250000D03*
X132100000Y-103250000D03*
X131450000Y-103250000D03*
X130800000Y-103250000D03*
X130150000Y-103250000D03*
X129500000Y-103250000D03*
X128850000Y-103250000D03*
X128200000Y-103250000D03*
X127550000Y-103250000D03*
X126900000Y-103250000D03*
X126250000Y-103250000D03*
X125600000Y-103250000D03*
X124950000Y-103250000D03*
X124300000Y-103250000D03*
X123650000Y-103250000D03*
X123000000Y-103250000D03*
X122350000Y-103250000D03*
X121700000Y-103250000D03*
X121050000Y-103250000D03*
X120400000Y-103250000D03*
X119750000Y-103250000D03*
D30*
X154750000Y-73350000D03*
X154750000Y-86150000D03*
X154750000Y-93750000D03*
X154750000Y-106550000D03*
D31*
X126950000Y-62600000D03*
X142650000Y-62600000D03*
X127550000Y-67500000D03*
X142050000Y-67500000D03*
D25*
X91150000Y-114725000D03*
X93690000Y-114725000D03*
X96230000Y-114725000D03*
D24*
X98770000Y-114725000D03*
D32*
X106160800Y-78749300D03*
X108650000Y-78749300D03*
X106160800Y-72856500D03*
X108650000Y-72856500D03*
D33*
X94730800Y-78000000D03*
X94730800Y-73605800D03*
D26*
X160400000Y-114750000D03*
D25*
X146530000Y-114750000D03*
X149070000Y-114750000D03*
X151610000Y-114750000D03*
D24*
X154150000Y-114750000D03*
D34*
X116400000Y-72250000D03*
X116400000Y-65250002D03*
D35*
X144900000Y-107750000D03*
X144900000Y-102250000D03*
D36*
X98216118Y-99750000D03*
X98216118Y-105250000D03*
D37*
X126150000Y-113250000D03*
X131650000Y-113250000D03*
D27*
X115616118Y-96500000D03*
X113966118Y-96500000D03*
D38*
X84230800Y-93000000D03*
D39*
X88410800Y-93000000D03*
D38*
X84230800Y-84360000D03*
D39*
X88410800Y-84360000D03*
D40*
X87910800Y-91570000D03*
X87910800Y-85790000D03*
D41*
X104316118Y-97325000D03*
X104816118Y-97325000D03*
X105316118Y-97325000D03*
X105816118Y-97325000D03*
X106316118Y-97325000D03*
X106816118Y-97325000D03*
X107316118Y-97325000D03*
X107816118Y-97325000D03*
X108316118Y-97325000D03*
X108816118Y-97325000D03*
X109316118Y-97325000D03*
X109816118Y-97325000D03*
X110316118Y-97325000D03*
X110816118Y-97325000D03*
X111316118Y-97325000D03*
X111816118Y-97325000D03*
D42*
X113741118Y-99250000D03*
X113741118Y-99750000D03*
X113741118Y-100250000D03*
X113741118Y-100750000D03*
X113741118Y-101250000D03*
X113741118Y-101750000D03*
X113741118Y-102250000D03*
X113741118Y-102750000D03*
X113741118Y-103250000D03*
X113741118Y-103750000D03*
X113741118Y-104250000D03*
X113741118Y-104750000D03*
X113741118Y-105250000D03*
X113741118Y-105750000D03*
X113741118Y-106250000D03*
X113741118Y-106750000D03*
D41*
X111816118Y-108675000D03*
X111316118Y-108675000D03*
X110816118Y-108675000D03*
X110316118Y-108675000D03*
X109816118Y-108675000D03*
X109316118Y-108675000D03*
X108816118Y-108675000D03*
X108316118Y-108675000D03*
X107816118Y-108675000D03*
X107316118Y-108675000D03*
X106816118Y-108675000D03*
X106316118Y-108675000D03*
X105816118Y-108675000D03*
X105316118Y-108675000D03*
X104816118Y-108675000D03*
X104316118Y-108675000D03*
D42*
X102391118Y-106750000D03*
X102391118Y-106250000D03*
X102391118Y-105750000D03*
X102391118Y-105250000D03*
X102391118Y-104750000D03*
X102391118Y-104250000D03*
X102391118Y-103750000D03*
X102391118Y-103250000D03*
X102391118Y-102750000D03*
X102391118Y-102250000D03*
X102391118Y-101750000D03*
X102391118Y-101250000D03*
X102391118Y-100750000D03*
X102391118Y-100250000D03*
X102391118Y-99750000D03*
X102391118Y-99250000D03*
D43*
X135900000Y-110700000D03*
D44*
X142200000Y-113000000D03*
D43*
X135900000Y-113000000D03*
X135900000Y-115300000D03*
D45*
X107450000Y-90750000D03*
X107450000Y-89800000D03*
X107450000Y-88850000D03*
X105175000Y-88850000D03*
X105175000Y-89800000D03*
X105175000Y-90750000D03*
D46*
X137900000Y-73000000D03*
X137900000Y-79500000D03*
X142400000Y-73000000D03*
X142400000Y-79500000D03*
X124150000Y-73000000D03*
X124150000Y-79500000D03*
X128650000Y-73000000D03*
X128650000Y-79500000D03*
D47*
X139900000Y-62250000D03*
X139900000Y-63900000D03*
D27*
X113966118Y-94750000D03*
X115616118Y-94750000D03*
D20*
X108975000Y-76500000D03*
X107325000Y-76500000D03*
D47*
X132650000Y-108100000D03*
X132650000Y-109750000D03*
X131100000Y-108100000D03*
X131100000Y-109750000D03*
D48*
X100900000Y-89750000D03*
X100900000Y-88100000D03*
D20*
X155775000Y-78700000D03*
X154125000Y-78700000D03*
X154100000Y-99100000D03*
X155750000Y-99100000D03*
X155725000Y-80700000D03*
X154075000Y-80700000D03*
X154075000Y-101100000D03*
X155725000Y-101100000D03*
D48*
X119150000Y-79450000D03*
X119150000Y-81100000D03*
X116650000Y-79450000D03*
X116650000Y-81100000D03*
X114150000Y-81100000D03*
X114150000Y-79450000D03*
X123400000Y-83825000D03*
X123400000Y-82175000D03*
D49*
X110962500Y-90000000D03*
X109387500Y-90000000D03*
D25*
X114570000Y-114725000D03*
X117110000Y-114725000D03*
D24*
X119650000Y-114725000D03*
D22*
X125400000Y-82225000D03*
X125400000Y-83775000D03*
D50*
X109350000Y-87250000D03*
X110900000Y-87250000D03*
X107875000Y-92500000D03*
X109425000Y-92500000D03*
D17*
X106950000Y-87250000D03*
X105400000Y-87250000D03*
D22*
X101716118Y-94700000D03*
X101716118Y-96250000D03*
X99966118Y-94700000D03*
X99966118Y-96250000D03*
D26*
X84900000Y-114725000D03*
%LPD*%
M02*
