G04 #@! TF.GenerationSoftware,KiCad,Pcbnew,7.0.10-7.0.10~ubuntu20.04.1*
G04 #@! TF.CreationDate,2024-05-01T22:25:20+02:00*
G04 #@! TF.ProjectId,endeavour,656e6465-6176-46f7-9572-2e6b69636164,rev?*
G04 #@! TF.SameCoordinates,Original*
G04 #@! TF.FileFunction,Soldermask,Bot*
G04 #@! TF.FilePolarity,Negative*
%FSLAX46Y46*%
G04 Gerber Fmt 4.6, Leading zero omitted, Abs format (unit mm)*
G04 Created by KiCad (PCBNEW 7.0.10-7.0.10~ubuntu20.04.1) date 2024-05-01 22:25:20*
%MOMM*%
%LPD*%
G01*
G04 APERTURE LIST*
G04 Aperture macros list*
%AMRoundRect*
0 Rectangle with rounded corners*
0 $1 Rounding radius*
0 $2 $3 $4 $5 $6 $7 $8 $9 X,Y pos of 4 corners*
0 Add a 4 corners polygon primitive as box body*
4,1,4,$2,$3,$4,$5,$6,$7,$8,$9,$2,$3,0*
0 Add four circle primitives for the rounded corners*
1,1,$1+$1,$2,$3*
1,1,$1+$1,$4,$5*
1,1,$1+$1,$6,$7*
1,1,$1+$1,$8,$9*
0 Add four rect primitives between the rounded corners*
20,1,$1+$1,$2,$3,$4,$5,0*
20,1,$1+$1,$4,$5,$6,$7,0*
20,1,$1+$1,$6,$7,$8,$9,0*
20,1,$1+$1,$8,$9,$2,$3,0*%
G04 Aperture macros list end*
%ADD10RoundRect,0.225000X-0.225000X-0.250000X0.225000X-0.250000X0.225000X0.250000X-0.225000X0.250000X0*%
%ADD11R,1.100000X0.250000*%
%ADD12R,0.300000X1.400000*%
%ADD13RoundRect,0.200000X-0.200000X-0.275000X0.200000X-0.275000X0.200000X0.275000X-0.200000X0.275000X0*%
%ADD14R,1.000000X1.500000*%
%ADD15RoundRect,0.225000X0.250000X-0.225000X0.250000X0.225000X-0.250000X0.225000X-0.250000X-0.225000X0*%
%ADD16RoundRect,0.250000X0.925000X-0.412500X0.925000X0.412500X-0.925000X0.412500X-0.925000X-0.412500X0*%
%ADD17R,1.700000X1.700000*%
%ADD18O,1.700000X1.700000*%
%ADD19C,2.200000*%
%ADD20RoundRect,0.200000X0.200000X0.275000X-0.200000X0.275000X-0.200000X-0.275000X0.200000X-0.275000X0*%
%ADD21R,0.950000X1.050000*%
%ADD22RoundRect,0.102000X-0.200000X-0.650000X0.200000X-0.650000X0.200000X0.650000X-0.200000X0.650000X0*%
%ADD23O,2.900000X1.200000*%
%ADD24C,1.800000*%
%ADD25C,1.600200*%
%ADD26C,1.905000*%
%ADD27C,2.209800*%
%ADD28RoundRect,0.102000X-0.600000X1.750000X-0.600000X-1.750000X0.600000X-1.750000X0.600000X1.750000X0*%
%ADD29RoundRect,0.102000X0.600000X-1.750000X0.600000X1.750000X-0.600000X1.750000X-0.600000X-1.750000X0*%
%ADD30RoundRect,0.102000X1.750000X0.600000X-1.750000X0.600000X-1.750000X-0.600000X1.750000X-0.600000X0*%
%ADD31O,1.800000X1.000000*%
%ADD32O,2.100000X1.000000*%
%ADD33C,0.650000*%
%ADD34RoundRect,0.075000X-0.075000X0.700000X-0.075000X-0.700000X0.075000X-0.700000X0.075000X0.700000X0*%
%ADD35RoundRect,0.075000X-0.700000X0.075000X-0.700000X-0.075000X0.700000X-0.075000X0.700000X0.075000X0*%
%ADD36RoundRect,0.375000X-0.625000X-0.375000X0.625000X-0.375000X0.625000X0.375000X-0.625000X0.375000X0*%
%ADD37RoundRect,0.500000X-0.500000X-1.400000X0.500000X-1.400000X0.500000X1.400000X-0.500000X1.400000X0*%
%ADD38RoundRect,0.150000X-0.512500X-0.150000X0.512500X-0.150000X0.512500X0.150000X-0.512500X0.150000X0*%
%ADD39C,2.000000*%
%ADD40RoundRect,0.200000X0.275000X-0.200000X0.275000X0.200000X-0.275000X0.200000X-0.275000X-0.200000X0*%
%ADD41RoundRect,0.200000X-0.275000X0.200000X-0.275000X-0.200000X0.275000X-0.200000X0.275000X0.200000X0*%
%ADD42RoundRect,0.218750X-0.218750X-0.256250X0.218750X-0.256250X0.218750X0.256250X-0.218750X0.256250X0*%
%ADD43RoundRect,0.225000X0.225000X0.250000X-0.225000X0.250000X-0.225000X-0.250000X0.225000X-0.250000X0*%
G04 APERTURE END LIST*
D10*
X115600000Y-91250000D03*
X117150000Y-91250000D03*
D11*
X150700000Y-76500000D03*
X150700000Y-77000000D03*
X150700000Y-77500000D03*
X150700000Y-78000000D03*
X150700000Y-78500000D03*
X146400000Y-78500000D03*
X146400000Y-78000000D03*
X146400000Y-77500000D03*
X146400000Y-77000000D03*
X146400000Y-76500000D03*
D12*
X149350000Y-89750000D03*
X148850000Y-89750000D03*
X148350000Y-89750000D03*
X147850000Y-89750000D03*
X147350000Y-89750000D03*
X147350000Y-85350000D03*
X147850000Y-85350000D03*
X148350000Y-85350000D03*
X148850000Y-85350000D03*
X149350000Y-85350000D03*
D13*
X142500000Y-96000000D03*
X144150000Y-96000000D03*
X142500000Y-94000000D03*
X144150000Y-94000000D03*
D14*
X141850000Y-85750000D03*
X143150000Y-85750000D03*
X144450000Y-85750000D03*
D10*
X142600000Y-76500000D03*
X144150000Y-76500000D03*
D15*
X147650000Y-82250000D03*
X147650000Y-80700000D03*
X149400000Y-82250000D03*
X149400000Y-80700000D03*
D10*
X154100000Y-70500000D03*
X155650000Y-70500000D03*
D16*
X146650000Y-70575000D03*
X146650000Y-73650000D03*
X150550000Y-73650000D03*
X150550000Y-70575000D03*
D17*
X103900000Y-64460000D03*
D18*
X103900000Y-67000000D03*
X101360000Y-64460000D03*
X101360000Y-67000000D03*
X98820000Y-64460000D03*
X98820000Y-67000000D03*
X96280000Y-64460000D03*
X96280000Y-67000000D03*
X93740000Y-64460000D03*
X93740000Y-67000000D03*
X91200000Y-64460000D03*
X91200000Y-67000000D03*
X149070000Y-67040000D03*
X149070000Y-64500000D03*
X151610000Y-67040000D03*
X151610000Y-64500000D03*
X154150000Y-67040000D03*
D17*
X154150000Y-64500000D03*
D19*
X160400000Y-63250000D03*
X84900000Y-63250000D03*
D20*
X115650000Y-100000000D03*
X115650000Y-98250000D03*
D21*
X128900000Y-109750000D03*
X128900000Y-107900000D03*
X127450000Y-107900000D03*
X127450000Y-109750000D03*
D22*
X119750000Y-91550000D03*
X120400000Y-91550000D03*
X121050000Y-91550000D03*
X121700000Y-91550000D03*
X122350000Y-91550000D03*
X123000000Y-91550000D03*
X123650000Y-91550000D03*
X124300000Y-91550000D03*
X124950000Y-91550000D03*
X125600000Y-91550000D03*
X126250000Y-91550000D03*
X126900000Y-91550000D03*
X127550000Y-91550000D03*
X128200000Y-91550000D03*
X128850000Y-91550000D03*
X129500000Y-91550000D03*
X130150000Y-91550000D03*
X130800000Y-91550000D03*
X131450000Y-91550000D03*
X132100000Y-91550000D03*
X132750000Y-91550000D03*
X133400000Y-91550000D03*
X134050000Y-91550000D03*
X134700000Y-91550000D03*
X135350000Y-91550000D03*
X136000000Y-91550000D03*
X136650000Y-91550000D03*
X137300000Y-91550000D03*
X137950000Y-91550000D03*
X138600000Y-91550000D03*
X139250000Y-91550000D03*
X139900000Y-91550000D03*
X140550000Y-91550000D03*
X140550000Y-103250000D03*
X139900000Y-103250000D03*
X139250000Y-103250000D03*
X138600000Y-103250000D03*
X137950000Y-103250000D03*
X137300000Y-103250000D03*
X136650000Y-103250000D03*
X136000000Y-103250000D03*
X135350000Y-103250000D03*
X134700000Y-103250000D03*
X134050000Y-103250000D03*
X133400000Y-103250000D03*
X132750000Y-103250000D03*
X132100000Y-103250000D03*
X131450000Y-103250000D03*
X130800000Y-103250000D03*
X130150000Y-103250000D03*
X129500000Y-103250000D03*
X128850000Y-103250000D03*
X128200000Y-103250000D03*
X127550000Y-103250000D03*
X126900000Y-103250000D03*
X126250000Y-103250000D03*
X125600000Y-103250000D03*
X124950000Y-103250000D03*
X124300000Y-103250000D03*
X123650000Y-103250000D03*
X123000000Y-103250000D03*
X122350000Y-103250000D03*
X121700000Y-103250000D03*
X121050000Y-103250000D03*
X120400000Y-103250000D03*
X119750000Y-103250000D03*
D23*
X154750000Y-73350000D03*
X154750000Y-86150000D03*
X154750000Y-93750000D03*
X154750000Y-106550000D03*
D24*
X126950000Y-62600000D03*
X142650000Y-62600000D03*
X127550000Y-67500000D03*
X142050000Y-67500000D03*
D18*
X91150000Y-114725000D03*
X93690000Y-114725000D03*
X96230000Y-114725000D03*
D17*
X98770000Y-114725000D03*
D25*
X106160800Y-78749300D03*
X108650000Y-78749300D03*
X106160800Y-72856500D03*
X108650000Y-72856500D03*
D26*
X94730800Y-78000000D03*
X94730800Y-73605800D03*
D19*
X160400000Y-114750000D03*
D18*
X146530000Y-114750000D03*
X149070000Y-114750000D03*
X151610000Y-114750000D03*
D17*
X154150000Y-114750000D03*
D27*
X116400000Y-72250000D03*
X116400000Y-65250002D03*
D28*
X144900000Y-107750000D03*
X144900000Y-102250000D03*
D29*
X98216118Y-99750000D03*
X98216118Y-105250000D03*
D30*
X126150000Y-113250000D03*
X131650000Y-113250000D03*
D20*
X115616118Y-96500000D03*
X113966118Y-96500000D03*
D31*
X84230800Y-93000000D03*
D32*
X88410800Y-93000000D03*
D31*
X84230800Y-84360000D03*
D32*
X88410800Y-84360000D03*
D33*
X87910800Y-91570000D03*
X87910800Y-85790000D03*
D34*
X104316118Y-97325000D03*
X104816118Y-97325000D03*
X105316118Y-97325000D03*
X105816118Y-97325000D03*
X106316118Y-97325000D03*
X106816118Y-97325000D03*
X107316118Y-97325000D03*
X107816118Y-97325000D03*
X108316118Y-97325000D03*
X108816118Y-97325000D03*
X109316118Y-97325000D03*
X109816118Y-97325000D03*
X110316118Y-97325000D03*
X110816118Y-97325000D03*
X111316118Y-97325000D03*
X111816118Y-97325000D03*
D35*
X113741118Y-99250000D03*
X113741118Y-99750000D03*
X113741118Y-100250000D03*
X113741118Y-100750000D03*
X113741118Y-101250000D03*
X113741118Y-101750000D03*
X113741118Y-102250000D03*
X113741118Y-102750000D03*
X113741118Y-103250000D03*
X113741118Y-103750000D03*
X113741118Y-104250000D03*
X113741118Y-104750000D03*
X113741118Y-105250000D03*
X113741118Y-105750000D03*
X113741118Y-106250000D03*
X113741118Y-106750000D03*
D34*
X111816118Y-108675000D03*
X111316118Y-108675000D03*
X110816118Y-108675000D03*
X110316118Y-108675000D03*
X109816118Y-108675000D03*
X109316118Y-108675000D03*
X108816118Y-108675000D03*
X108316118Y-108675000D03*
X107816118Y-108675000D03*
X107316118Y-108675000D03*
X106816118Y-108675000D03*
X106316118Y-108675000D03*
X105816118Y-108675000D03*
X105316118Y-108675000D03*
X104816118Y-108675000D03*
X104316118Y-108675000D03*
D35*
X102391118Y-106750000D03*
X102391118Y-106250000D03*
X102391118Y-105750000D03*
X102391118Y-105250000D03*
X102391118Y-104750000D03*
X102391118Y-104250000D03*
X102391118Y-103750000D03*
X102391118Y-103250000D03*
X102391118Y-102750000D03*
X102391118Y-102250000D03*
X102391118Y-101750000D03*
X102391118Y-101250000D03*
X102391118Y-100750000D03*
X102391118Y-100250000D03*
X102391118Y-99750000D03*
X102391118Y-99250000D03*
D36*
X135900000Y-110700000D03*
D37*
X142200000Y-113000000D03*
D36*
X135900000Y-113000000D03*
X135900000Y-115300000D03*
D38*
X107450000Y-90750000D03*
X107450000Y-89800000D03*
X107450000Y-88850000D03*
X105175000Y-88850000D03*
X105175000Y-89800000D03*
X105175000Y-90750000D03*
D39*
X137900000Y-73000000D03*
X137900000Y-79500000D03*
X142400000Y-73000000D03*
X142400000Y-79500000D03*
X124150000Y-73000000D03*
X124150000Y-79500000D03*
X128650000Y-73000000D03*
X128650000Y-79500000D03*
D40*
X139900000Y-62250000D03*
X139900000Y-63900000D03*
D20*
X113966118Y-94750000D03*
X115616118Y-94750000D03*
D13*
X108975000Y-76500000D03*
X107325000Y-76500000D03*
D40*
X132650000Y-108100000D03*
X132650000Y-109750000D03*
X131100000Y-108100000D03*
X131100000Y-109750000D03*
D41*
X100900000Y-89750000D03*
X100900000Y-88100000D03*
D13*
X155775000Y-78700000D03*
X154125000Y-78700000D03*
X154100000Y-99100000D03*
X155750000Y-99100000D03*
X155725000Y-80700000D03*
X154075000Y-80700000D03*
X154075000Y-101100000D03*
X155725000Y-101100000D03*
D41*
X119150000Y-79450000D03*
X119150000Y-81100000D03*
X116650000Y-79450000D03*
X116650000Y-81100000D03*
X114150000Y-81100000D03*
X114150000Y-79450000D03*
X123400000Y-83825000D03*
X123400000Y-82175000D03*
D42*
X110962500Y-90000000D03*
X109387500Y-90000000D03*
D18*
X114570000Y-114725000D03*
X117110000Y-114725000D03*
D17*
X119650000Y-114725000D03*
D15*
X125400000Y-82225000D03*
X125400000Y-83775000D03*
D43*
X109350000Y-87250000D03*
X110900000Y-87250000D03*
X107875000Y-92500000D03*
X109425000Y-92500000D03*
D10*
X106950000Y-87250000D03*
X105400000Y-87250000D03*
D15*
X101716118Y-94700000D03*
X101716118Y-96250000D03*
X99966118Y-94700000D03*
X99966118Y-96250000D03*
D19*
X84900000Y-114725000D03*
M02*
