G04 #@! TF.GenerationSoftware,KiCad,Pcbnew,7.0.10-7.0.10~ubuntu20.04.1*
G04 #@! TF.CreationDate,2024-05-01T22:25:19+02:00*
G04 #@! TF.ProjectId,endeavour,656e6465-6176-46f7-9572-2e6b69636164,rev?*
G04 #@! TF.SameCoordinates,Original*
G04 #@! TF.FileFunction,Paste,Top*
G04 #@! TF.FilePolarity,Positive*
%FSLAX46Y46*%
G04 Gerber Fmt 4.6, Leading zero omitted, Abs format (unit mm)*
G04 Created by KiCad (PCBNEW 7.0.10-7.0.10~ubuntu20.04.1) date 2024-05-01 22:25:19*
%MOMM*%
%LPD*%
G01*
G04 APERTURE LIST*
G04 Aperture macros list*
%AMRoundRect*
0 Rectangle with rounded corners*
0 $1 Rounding radius*
0 $2 $3 $4 $5 $6 $7 $8 $9 X,Y pos of 4 corners*
0 Add a 4 corners polygon primitive as box body*
4,1,4,$2,$3,$4,$5,$6,$7,$8,$9,$2,$3,0*
0 Add four circle primitives for the rounded corners*
1,1,$1+$1,$2,$3*
1,1,$1+$1,$4,$5*
1,1,$1+$1,$6,$7*
1,1,$1+$1,$8,$9*
0 Add four rect primitives between the rounded corners*
20,1,$1+$1,$2,$3,$4,$5,0*
20,1,$1+$1,$4,$5,$6,$7,0*
20,1,$1+$1,$6,$7,$8,$9,0*
20,1,$1+$1,$8,$9,$2,$3,0*%
G04 Aperture macros list end*
%ADD10RoundRect,0.218750X0.256250X-0.218750X0.256250X0.218750X-0.256250X0.218750X-0.256250X-0.218750X0*%
%ADD11RoundRect,0.218750X-0.218750X-0.256250X0.218750X-0.256250X0.218750X0.256250X-0.218750X0.256250X0*%
%ADD12R,1.200000X2.500000*%
%ADD13R,1.350000X1.900000*%
%ADD14R,1.800000X1.170000*%
%ADD15R,1.350000X1.550000*%
%ADD16R,1.000000X1.200000*%
%ADD17R,1.100000X0.750000*%
%ADD18R,1.100000X0.850000*%
%ADD19RoundRect,0.250000X-0.265000X-0.250000X0.265000X-0.250000X0.265000X0.250000X-0.265000X0.250000X0*%
%ADD20RoundRect,0.075000X-0.075000X-0.662500X0.075000X-0.662500X0.075000X0.662500X-0.075000X0.662500X0*%
%ADD21RoundRect,0.075000X-0.662500X-0.075000X0.662500X-0.075000X0.662500X0.075000X-0.662500X0.075000X0*%
%ADD22RoundRect,0.325000X1.175000X-0.325000X1.175000X0.325000X-1.175000X0.325000X-1.175000X-0.325000X0*%
%ADD23O,2.900000X1.200000*%
%ADD24R,0.300000X1.900000*%
%ADD25R,2.794000X2.209800*%
%ADD26R,2.794000X2.794000*%
%ADD27R,0.300000X1.400000*%
%ADD28R,1.130000X2.440000*%
%ADD29O,1.800000X1.000000*%
%ADD30O,2.100000X1.000000*%
%ADD31RoundRect,0.150000X-0.425000X0.150000X-0.425000X-0.150000X0.425000X-0.150000X0.425000X0.150000X0*%
%ADD32RoundRect,0.075000X-0.500000X0.075000X-0.500000X-0.075000X0.500000X-0.075000X0.500000X0.075000X0*%
%ADD33RoundRect,0.200000X0.275000X-0.200000X0.275000X0.200000X-0.275000X0.200000X-0.275000X-0.200000X0*%
%ADD34RoundRect,0.200000X-0.200000X-0.275000X0.200000X-0.275000X0.200000X0.275000X-0.200000X0.275000X0*%
%ADD35RoundRect,0.200000X-0.275000X0.200000X-0.275000X-0.200000X0.275000X-0.200000X0.275000X0.200000X0*%
%ADD36RoundRect,0.225000X-0.225000X-0.250000X0.225000X-0.250000X0.225000X0.250000X-0.225000X0.250000X0*%
%ADD37RoundRect,0.225000X0.250000X-0.225000X0.250000X0.225000X-0.250000X0.225000X-0.250000X-0.225000X0*%
G04 APERTURE END LIST*
D10*
X119150000Y-79462500D03*
X119150000Y-81037500D03*
X116650000Y-79462500D03*
X116650000Y-81037500D03*
X114150000Y-79462500D03*
X114150000Y-81037500D03*
D11*
X85225000Y-82000000D03*
X83650000Y-82000000D03*
D12*
X100400000Y-85900000D03*
X97900000Y-85900000D03*
X95400000Y-85900000D03*
X100400000Y-91400000D03*
X97900000Y-91400000D03*
X95400000Y-91400000D03*
D13*
X96930800Y-105175000D03*
X96930800Y-99205000D03*
D14*
X86455800Y-97180000D03*
D15*
X86230800Y-108500000D03*
D16*
X95955800Y-108675000D03*
X92255800Y-108675000D03*
D17*
X86105800Y-98390000D03*
D18*
X86105800Y-99440000D03*
X86105800Y-100540000D03*
X86105800Y-101640000D03*
X86105800Y-102740000D03*
X86105800Y-103840000D03*
X86105800Y-104940000D03*
X86105800Y-106040000D03*
D19*
X133752500Y-100970000D03*
X133752500Y-99730000D03*
X133752500Y-98490000D03*
X133752500Y-97250000D03*
X133752500Y-96010000D03*
X133752500Y-94770000D03*
X133752500Y-93530000D03*
X132472500Y-100970000D03*
X132472500Y-99730000D03*
X132472500Y-98490000D03*
X132472500Y-97250000D03*
X132472500Y-96010000D03*
X132472500Y-94770000D03*
X132472500Y-93530000D03*
X131192500Y-100970000D03*
X131192500Y-99730000D03*
X131192500Y-98490000D03*
X131192500Y-97250000D03*
X131192500Y-96010000D03*
X131192500Y-94770000D03*
X131192500Y-93530000D03*
X129912500Y-100970000D03*
X129912500Y-99730000D03*
X129912500Y-98490000D03*
X129912500Y-97250000D03*
X129912500Y-96010000D03*
X129912500Y-94770000D03*
X129912500Y-93530000D03*
X128632500Y-100970000D03*
X128632500Y-99730000D03*
X128632500Y-98490000D03*
X128632500Y-97250000D03*
X128632500Y-96010000D03*
X128632500Y-94770000D03*
X128632500Y-93530000D03*
X127352500Y-100970000D03*
X127352500Y-99730000D03*
X127352500Y-98490000D03*
X127352500Y-97250000D03*
X127352500Y-96010000D03*
X127352500Y-94770000D03*
X127352500Y-93530000D03*
X126072500Y-100970000D03*
X126072500Y-99730000D03*
X126072500Y-98490000D03*
X126072500Y-97250000D03*
X126072500Y-96010000D03*
X126072500Y-94770000D03*
X126072500Y-93530000D03*
D20*
X121162500Y-86587500D03*
X121662500Y-86587500D03*
X122162500Y-86587500D03*
X122662500Y-86587500D03*
X123162500Y-86587500D03*
X123662500Y-86587500D03*
X124162500Y-86587500D03*
X124662500Y-86587500D03*
X125162500Y-86587500D03*
X125662500Y-86587500D03*
X126162500Y-86587500D03*
X126662500Y-86587500D03*
X127162500Y-86587500D03*
X127662500Y-86587500D03*
X128162500Y-86587500D03*
X128662500Y-86587500D03*
X129162500Y-86587500D03*
X129662500Y-86587500D03*
X130162500Y-86587500D03*
X130662500Y-86587500D03*
X131162500Y-86587500D03*
X131662500Y-86587500D03*
X132162500Y-86587500D03*
X132662500Y-86587500D03*
X133162500Y-86587500D03*
X133662500Y-86587500D03*
X134162500Y-86587500D03*
X134662500Y-86587500D03*
X135162500Y-86587500D03*
X135662500Y-86587500D03*
X136162500Y-86587500D03*
X136662500Y-86587500D03*
X137162500Y-86587500D03*
X137662500Y-86587500D03*
X138162500Y-86587500D03*
X138662500Y-86587500D03*
D21*
X140575000Y-88500000D03*
X140575000Y-89000000D03*
X140575000Y-89500000D03*
X140575000Y-90000000D03*
X140575000Y-90500000D03*
X140575000Y-91000000D03*
X140575000Y-91500000D03*
X140575000Y-92000000D03*
X140575000Y-92500000D03*
X140575000Y-93000000D03*
X140575000Y-93500000D03*
X140575000Y-94000000D03*
X140575000Y-94500000D03*
X140575000Y-95000000D03*
X140575000Y-95500000D03*
X140575000Y-96000000D03*
X140575000Y-96500000D03*
X140575000Y-97000000D03*
X140575000Y-97500000D03*
X140575000Y-98000000D03*
X140575000Y-98500000D03*
X140575000Y-99000000D03*
X140575000Y-99500000D03*
X140575000Y-100000000D03*
X140575000Y-100500000D03*
X140575000Y-101000000D03*
X140575000Y-101500000D03*
X140575000Y-102000000D03*
X140575000Y-102500000D03*
X140575000Y-103000000D03*
X140575000Y-103500000D03*
X140575000Y-104000000D03*
X140575000Y-104500000D03*
X140575000Y-105000000D03*
X140575000Y-105500000D03*
X140575000Y-106000000D03*
D20*
X138662500Y-107912500D03*
X138162500Y-107912500D03*
X137662500Y-107912500D03*
X137162500Y-107912500D03*
X136662500Y-107912500D03*
X136162500Y-107912500D03*
X135662500Y-107912500D03*
X135162500Y-107912500D03*
X134662500Y-107912500D03*
X134162500Y-107912500D03*
X133662500Y-107912500D03*
X133162500Y-107912500D03*
X132662500Y-107912500D03*
X132162500Y-107912500D03*
X131662500Y-107912500D03*
X131162500Y-107912500D03*
X130662500Y-107912500D03*
X130162500Y-107912500D03*
X129662500Y-107912500D03*
X129162500Y-107912500D03*
X128662500Y-107912500D03*
X128162500Y-107912500D03*
X127662500Y-107912500D03*
X127162500Y-107912500D03*
X126662500Y-107912500D03*
X126162500Y-107912500D03*
X125662500Y-107912500D03*
X125162500Y-107912500D03*
X124662500Y-107912500D03*
X124162500Y-107912500D03*
X123662500Y-107912500D03*
X123162500Y-107912500D03*
X122662500Y-107912500D03*
X122162500Y-107912500D03*
X121662500Y-107912500D03*
X121162500Y-107912500D03*
D21*
X119250000Y-106000000D03*
X119250000Y-105500000D03*
X119250000Y-105000000D03*
X119250000Y-104500000D03*
X119250000Y-104000000D03*
X119250000Y-103500000D03*
X119250000Y-103000000D03*
X119250000Y-102500000D03*
X119250000Y-102000000D03*
X119250000Y-101500000D03*
X119250000Y-101000000D03*
X119250000Y-100500000D03*
X119250000Y-100000000D03*
X119250000Y-99500000D03*
X119250000Y-99000000D03*
X119250000Y-98500000D03*
X119250000Y-98000000D03*
X119250000Y-97500000D03*
X119250000Y-97000000D03*
X119250000Y-96500000D03*
X119250000Y-96000000D03*
X119250000Y-95500000D03*
X119250000Y-95000000D03*
X119250000Y-94500000D03*
X119250000Y-94000000D03*
X119250000Y-93500000D03*
X119250000Y-93000000D03*
X119250000Y-92500000D03*
X119250000Y-92000000D03*
X119250000Y-91500000D03*
X119250000Y-91000000D03*
X119250000Y-90500000D03*
X119250000Y-90000000D03*
X119250000Y-89500000D03*
X119250000Y-89000000D03*
X119250000Y-88500000D03*
D22*
X151050000Y-76250000D03*
X151050000Y-78750000D03*
X151050000Y-80750000D03*
X151050000Y-83250000D03*
D23*
X154750000Y-73350000D03*
X154750000Y-86150000D03*
D22*
X151050000Y-96650000D03*
X151050000Y-99150000D03*
X151050000Y-101150000D03*
X151050000Y-103650000D03*
D23*
X154750000Y-93750000D03*
X154750000Y-106550000D03*
D24*
X139050000Y-68500000D03*
X138550000Y-68500000D03*
X138050000Y-68500000D03*
X137550000Y-68500000D03*
X137050000Y-68500000D03*
X136550000Y-68500000D03*
X136050000Y-68500000D03*
X135550000Y-68500000D03*
X135050000Y-68500000D03*
X134550000Y-68500000D03*
X134050000Y-68500000D03*
X133550000Y-68500000D03*
X133050000Y-68500000D03*
X132550000Y-68500000D03*
X132050000Y-68500000D03*
X131550000Y-68500000D03*
X131050000Y-68500000D03*
X130550000Y-68500000D03*
X130050000Y-68500000D03*
D25*
X120100018Y-66150043D03*
D26*
X112700000Y-73550000D03*
D25*
X112700000Y-64150001D03*
D27*
X143650000Y-99550000D03*
X144150000Y-99550000D03*
X144650000Y-99550000D03*
X145150000Y-99550000D03*
X145650000Y-99550000D03*
X145650000Y-103950000D03*
X145150000Y-103950000D03*
X144650000Y-103950000D03*
X144150000Y-103950000D03*
X143650000Y-103950000D03*
D28*
X105130000Y-93672500D03*
X105130000Y-85072500D03*
X107670000Y-93672500D03*
X107670000Y-85072500D03*
D29*
X84230800Y-93000000D03*
D30*
X88410800Y-93000000D03*
D29*
X84230800Y-84360000D03*
D30*
X88410800Y-84360000D03*
D31*
X89055800Y-85480000D03*
X89055800Y-86280000D03*
D32*
X88985800Y-86930000D03*
X88985800Y-87930000D03*
X88985800Y-89430000D03*
X88985800Y-90430000D03*
D31*
X89055800Y-91080000D03*
X89055800Y-91880000D03*
X89055800Y-91880000D03*
X89055800Y-91080000D03*
D32*
X88985800Y-89930000D03*
X88985800Y-88930000D03*
X88985800Y-88430000D03*
X88985800Y-87430000D03*
D31*
X89055800Y-86280000D03*
X89055800Y-85480000D03*
D27*
X128150000Y-110500000D03*
X128650000Y-110500000D03*
X129150000Y-110500000D03*
X129650000Y-110500000D03*
X130150000Y-110500000D03*
X130150000Y-114900000D03*
X129650000Y-114900000D03*
X129150000Y-114900000D03*
X128650000Y-114900000D03*
X128150000Y-114900000D03*
D33*
X104966118Y-96100000D03*
X104966118Y-97750000D03*
X108466118Y-96100000D03*
X108466118Y-97750000D03*
D34*
X93000000Y-83500000D03*
X91350000Y-83500000D03*
D35*
X92150000Y-91575000D03*
X92150000Y-89925000D03*
D33*
X92150000Y-85350000D03*
X92150000Y-87000000D03*
D34*
X96475000Y-83500000D03*
X94825000Y-83500000D03*
D35*
X109966118Y-100925000D03*
X109966118Y-102575000D03*
X106466118Y-101075000D03*
X106466118Y-99425000D03*
D33*
X111716118Y-99425000D03*
X111716118Y-101075000D03*
D36*
X135700000Y-115250000D03*
X134150000Y-115250000D03*
X91375000Y-93750000D03*
X92925000Y-93750000D03*
D37*
X138650000Y-113750000D03*
X138650000Y-115300000D03*
X104716118Y-99500000D03*
X104716118Y-101050000D03*
X108216118Y-99500000D03*
X108216118Y-101050000D03*
M02*
