G04 #@! TF.GenerationSoftware,KiCad,Pcbnew,7.0.10-7.0.10~ubuntu20.04.1*
G04 #@! TF.CreationDate,2024-05-01T22:25:19+02:00*
G04 #@! TF.ProjectId,endeavour,656e6465-6176-46f7-9572-2e6b69636164,rev?*
G04 #@! TF.SameCoordinates,Original*
G04 #@! TF.FileFunction,Copper,L1,Top*
G04 #@! TF.FilePolarity,Positive*
%FSLAX46Y46*%
G04 Gerber Fmt 4.6, Leading zero omitted, Abs format (unit mm)*
G04 Created by KiCad (PCBNEW 7.0.10-7.0.10~ubuntu20.04.1) date 2024-05-01 22:25:19*
%MOMM*%
%LPD*%
G01*
G04 APERTURE LIST*
G04 Aperture macros list*
%AMRoundRect*
0 Rectangle with rounded corners*
0 $1 Rounding radius*
0 $2 $3 $4 $5 $6 $7 $8 $9 X,Y pos of 4 corners*
0 Add a 4 corners polygon primitive as box body*
4,1,4,$2,$3,$4,$5,$6,$7,$8,$9,$2,$3,0*
0 Add four circle primitives for the rounded corners*
1,1,$1+$1,$2,$3*
1,1,$1+$1,$4,$5*
1,1,$1+$1,$6,$7*
1,1,$1+$1,$8,$9*
0 Add four rect primitives between the rounded corners*
20,1,$1+$1,$2,$3,$4,$5,0*
20,1,$1+$1,$4,$5,$6,$7,0*
20,1,$1+$1,$6,$7,$8,$9,0*
20,1,$1+$1,$8,$9,$2,$3,0*%
G04 Aperture macros list end*
G04 #@! TA.AperFunction,ComponentPad*
%ADD10R,1.700000X1.700000*%
G04 #@! TD*
G04 #@! TA.AperFunction,ComponentPad*
%ADD11O,1.700000X1.700000*%
G04 #@! TD*
G04 #@! TA.AperFunction,SMDPad,CuDef*
%ADD12RoundRect,0.218750X0.256250X-0.218750X0.256250X0.218750X-0.256250X0.218750X-0.256250X-0.218750X0*%
G04 #@! TD*
G04 #@! TA.AperFunction,SMDPad,CuDef*
%ADD13RoundRect,0.218750X-0.218750X-0.256250X0.218750X-0.256250X0.218750X0.256250X-0.218750X0.256250X0*%
G04 #@! TD*
G04 #@! TA.AperFunction,SMDPad,CuDef*
%ADD14R,1.200000X2.500000*%
G04 #@! TD*
G04 #@! TA.AperFunction,SMDPad,CuDef*
%ADD15R,1.350000X1.900000*%
G04 #@! TD*
G04 #@! TA.AperFunction,SMDPad,CuDef*
%ADD16R,1.800000X1.170000*%
G04 #@! TD*
G04 #@! TA.AperFunction,SMDPad,CuDef*
%ADD17R,1.350000X1.550000*%
G04 #@! TD*
G04 #@! TA.AperFunction,SMDPad,CuDef*
%ADD18R,1.000000X1.200000*%
G04 #@! TD*
G04 #@! TA.AperFunction,SMDPad,CuDef*
%ADD19R,1.100000X0.750000*%
G04 #@! TD*
G04 #@! TA.AperFunction,SMDPad,CuDef*
%ADD20R,1.100000X0.850000*%
G04 #@! TD*
G04 #@! TA.AperFunction,HeatsinkPad*
%ADD21R,8.930000X8.700000*%
G04 #@! TD*
G04 #@! TA.AperFunction,SMDPad,CuDef*
%ADD22RoundRect,0.075000X-0.075000X-0.662500X0.075000X-0.662500X0.075000X0.662500X-0.075000X0.662500X0*%
G04 #@! TD*
G04 #@! TA.AperFunction,SMDPad,CuDef*
%ADD23RoundRect,0.075000X-0.662500X-0.075000X0.662500X-0.075000X0.662500X0.075000X-0.662500X0.075000X0*%
G04 #@! TD*
G04 #@! TA.AperFunction,ComponentPad*
%ADD24O,2.900000X1.200000*%
G04 #@! TD*
G04 #@! TA.AperFunction,SMDPad,CuDef*
%ADD25RoundRect,0.325000X1.175000X-0.325000X1.175000X0.325000X-1.175000X0.325000X-1.175000X-0.325000X0*%
G04 #@! TD*
G04 #@! TA.AperFunction,ComponentPad*
%ADD26C,1.800000*%
G04 #@! TD*
G04 #@! TA.AperFunction,SMDPad,CuDef*
%ADD27R,0.300000X1.900000*%
G04 #@! TD*
G04 #@! TA.AperFunction,ComponentPad*
%ADD28C,1.600200*%
G04 #@! TD*
G04 #@! TA.AperFunction,ComponentPad*
%ADD29C,2.209800*%
G04 #@! TD*
G04 #@! TA.AperFunction,SMDPad,CuDef*
%ADD30R,2.794000X2.209800*%
G04 #@! TD*
G04 #@! TA.AperFunction,SMDPad,CuDef*
%ADD31R,2.794000X2.794000*%
G04 #@! TD*
G04 #@! TA.AperFunction,SMDPad,CuDef*
%ADD32R,0.300000X1.400000*%
G04 #@! TD*
G04 #@! TA.AperFunction,SMDPad,CuDef*
%ADD33R,1.130000X2.440000*%
G04 #@! TD*
G04 #@! TA.AperFunction,ComponentPad*
%ADD34O,1.800000X1.000000*%
G04 #@! TD*
G04 #@! TA.AperFunction,ComponentPad*
%ADD35O,2.100000X1.000000*%
G04 #@! TD*
G04 #@! TA.AperFunction,SMDPad,CuDef*
%ADD36RoundRect,0.150000X-0.425000X0.150000X-0.425000X-0.150000X0.425000X-0.150000X0.425000X0.150000X0*%
G04 #@! TD*
G04 #@! TA.AperFunction,SMDPad,CuDef*
%ADD37RoundRect,0.075000X-0.500000X0.075000X-0.500000X-0.075000X0.500000X-0.075000X0.500000X0.075000X0*%
G04 #@! TD*
G04 #@! TA.AperFunction,ComponentPad*
%ADD38C,2.000000*%
G04 #@! TD*
G04 #@! TA.AperFunction,SMDPad,CuDef*
%ADD39RoundRect,0.200000X0.275000X-0.200000X0.275000X0.200000X-0.275000X0.200000X-0.275000X-0.200000X0*%
G04 #@! TD*
G04 #@! TA.AperFunction,SMDPad,CuDef*
%ADD40RoundRect,0.200000X-0.200000X-0.275000X0.200000X-0.275000X0.200000X0.275000X-0.200000X0.275000X0*%
G04 #@! TD*
G04 #@! TA.AperFunction,SMDPad,CuDef*
%ADD41RoundRect,0.200000X-0.275000X0.200000X-0.275000X-0.200000X0.275000X-0.200000X0.275000X0.200000X0*%
G04 #@! TD*
G04 #@! TA.AperFunction,SMDPad,CuDef*
%ADD42RoundRect,0.225000X-0.225000X-0.250000X0.225000X-0.250000X0.225000X0.250000X-0.225000X0.250000X0*%
G04 #@! TD*
G04 #@! TA.AperFunction,SMDPad,CuDef*
%ADD43RoundRect,0.225000X0.250000X-0.225000X0.250000X0.225000X-0.250000X0.225000X-0.250000X-0.225000X0*%
G04 #@! TD*
G04 #@! TA.AperFunction,ViaPad*
%ADD44C,0.650000*%
G04 #@! TD*
G04 #@! TA.AperFunction,Conductor*
%ADD45C,0.500000*%
G04 #@! TD*
G04 #@! TA.AperFunction,Conductor*
%ADD46C,0.250000*%
G04 #@! TD*
G04 APERTURE END LIST*
D10*
X103900000Y-64460000D03*
D11*
X103900000Y-67000000D03*
X101360000Y-64460000D03*
X101360000Y-67000000D03*
X98820000Y-64460000D03*
X98820000Y-67000000D03*
X96280000Y-64460000D03*
X96280000Y-67000000D03*
X93740000Y-64460000D03*
X93740000Y-67000000D03*
X91200000Y-64460000D03*
X91200000Y-67000000D03*
X149070000Y-67040000D03*
X149070000Y-64500000D03*
X151610000Y-67040000D03*
X151610000Y-64500000D03*
X154150000Y-67040000D03*
D10*
X154150000Y-64500000D03*
D12*
X119150000Y-79462500D03*
X119150000Y-81037500D03*
X116650000Y-79462500D03*
X116650000Y-81037500D03*
X114150000Y-79462500D03*
X114150000Y-81037500D03*
D13*
X85225000Y-82000000D03*
X83650000Y-82000000D03*
D14*
X100400000Y-85900000D03*
X97900000Y-85900000D03*
X95400000Y-85900000D03*
X100400000Y-91400000D03*
X97900000Y-91400000D03*
X95400000Y-91400000D03*
D15*
X96930800Y-105175000D03*
X96930800Y-99205000D03*
D16*
X86455800Y-97180000D03*
D17*
X86230800Y-108500000D03*
D18*
X95955800Y-108675000D03*
X92255800Y-108675000D03*
D19*
X86105800Y-98390000D03*
D20*
X86105800Y-99440000D03*
X86105800Y-100540000D03*
X86105800Y-101640000D03*
X86105800Y-102740000D03*
X86105800Y-103840000D03*
X86105800Y-104940000D03*
X86105800Y-106040000D03*
D21*
X129912500Y-97250000D03*
D22*
X121162500Y-86587500D03*
X121662500Y-86587500D03*
X122162500Y-86587500D03*
X122662500Y-86587500D03*
X123162500Y-86587500D03*
X123662500Y-86587500D03*
X124162500Y-86587500D03*
X124662500Y-86587500D03*
X125162500Y-86587500D03*
X125662500Y-86587500D03*
X126162500Y-86587500D03*
X126662500Y-86587500D03*
X127162500Y-86587500D03*
X127662500Y-86587500D03*
X128162500Y-86587500D03*
X128662500Y-86587500D03*
X129162500Y-86587500D03*
X129662500Y-86587500D03*
X130162500Y-86587500D03*
X130662500Y-86587500D03*
X131162500Y-86587500D03*
X131662500Y-86587500D03*
X132162500Y-86587500D03*
X132662500Y-86587500D03*
X133162500Y-86587500D03*
X133662500Y-86587500D03*
X134162500Y-86587500D03*
X134662500Y-86587500D03*
X135162500Y-86587500D03*
X135662500Y-86587500D03*
X136162500Y-86587500D03*
X136662500Y-86587500D03*
X137162500Y-86587500D03*
X137662500Y-86587500D03*
X138162500Y-86587500D03*
X138662500Y-86587500D03*
D23*
X140575000Y-88500000D03*
X140575000Y-89000000D03*
X140575000Y-89500000D03*
X140575000Y-90000000D03*
X140575000Y-90500000D03*
X140575000Y-91000000D03*
X140575000Y-91500000D03*
X140575000Y-92000000D03*
X140575000Y-92500000D03*
X140575000Y-93000000D03*
X140575000Y-93500000D03*
X140575000Y-94000000D03*
X140575000Y-94500000D03*
X140575000Y-95000000D03*
X140575000Y-95500000D03*
X140575000Y-96000000D03*
X140575000Y-96500000D03*
X140575000Y-97000000D03*
X140575000Y-97500000D03*
X140575000Y-98000000D03*
X140575000Y-98500000D03*
X140575000Y-99000000D03*
X140575000Y-99500000D03*
X140575000Y-100000000D03*
X140575000Y-100500000D03*
X140575000Y-101000000D03*
X140575000Y-101500000D03*
X140575000Y-102000000D03*
X140575000Y-102500000D03*
X140575000Y-103000000D03*
X140575000Y-103500000D03*
X140575000Y-104000000D03*
X140575000Y-104500000D03*
X140575000Y-105000000D03*
X140575000Y-105500000D03*
X140575000Y-106000000D03*
D22*
X138662500Y-107912500D03*
X138162500Y-107912500D03*
X137662500Y-107912500D03*
X137162500Y-107912500D03*
X136662500Y-107912500D03*
X136162500Y-107912500D03*
X135662500Y-107912500D03*
X135162500Y-107912500D03*
X134662500Y-107912500D03*
X134162500Y-107912500D03*
X133662500Y-107912500D03*
X133162500Y-107912500D03*
X132662500Y-107912500D03*
X132162500Y-107912500D03*
X131662500Y-107912500D03*
X131162500Y-107912500D03*
X130662500Y-107912500D03*
X130162500Y-107912500D03*
X129662500Y-107912500D03*
X129162500Y-107912500D03*
X128662500Y-107912500D03*
X128162500Y-107912500D03*
X127662500Y-107912500D03*
X127162500Y-107912500D03*
X126662500Y-107912500D03*
X126162500Y-107912500D03*
X125662500Y-107912500D03*
X125162500Y-107912500D03*
X124662500Y-107912500D03*
X124162500Y-107912500D03*
X123662500Y-107912500D03*
X123162500Y-107912500D03*
X122662500Y-107912500D03*
X122162500Y-107912500D03*
X121662500Y-107912500D03*
X121162500Y-107912500D03*
D23*
X119250000Y-106000000D03*
X119250000Y-105500000D03*
X119250000Y-105000000D03*
X119250000Y-104500000D03*
X119250000Y-104000000D03*
X119250000Y-103500000D03*
X119250000Y-103000000D03*
X119250000Y-102500000D03*
X119250000Y-102000000D03*
X119250000Y-101500000D03*
X119250000Y-101000000D03*
X119250000Y-100500000D03*
X119250000Y-100000000D03*
X119250000Y-99500000D03*
X119250000Y-99000000D03*
X119250000Y-98500000D03*
X119250000Y-98000000D03*
X119250000Y-97500000D03*
X119250000Y-97000000D03*
X119250000Y-96500000D03*
X119250000Y-96000000D03*
X119250000Y-95500000D03*
X119250000Y-95000000D03*
X119250000Y-94500000D03*
X119250000Y-94000000D03*
X119250000Y-93500000D03*
X119250000Y-93000000D03*
X119250000Y-92500000D03*
X119250000Y-92000000D03*
X119250000Y-91500000D03*
X119250000Y-91000000D03*
X119250000Y-90500000D03*
X119250000Y-90000000D03*
X119250000Y-89500000D03*
X119250000Y-89000000D03*
X119250000Y-88500000D03*
D24*
X154750000Y-73350000D03*
X154750000Y-86150000D03*
D25*
X151050000Y-76250000D03*
X151050000Y-78750000D03*
X151050000Y-80750000D03*
X151050000Y-83250000D03*
D24*
X154750000Y-93750000D03*
X154750000Y-106550000D03*
D25*
X151050000Y-96650000D03*
X151050000Y-99150000D03*
X151050000Y-101150000D03*
X151050000Y-103650000D03*
D26*
X126950000Y-62600000D03*
X142650000Y-62600000D03*
X127550000Y-67500000D03*
X142050000Y-67500000D03*
D27*
X139050000Y-68500000D03*
X138550000Y-68500000D03*
X138050000Y-68500000D03*
X137550000Y-68500000D03*
X137050000Y-68500000D03*
X136550000Y-68500000D03*
X136050000Y-68500000D03*
X135550000Y-68500000D03*
X135050000Y-68500000D03*
X134550000Y-68500000D03*
X134050000Y-68500000D03*
X133550000Y-68500000D03*
X133050000Y-68500000D03*
X132550000Y-68500000D03*
X132050000Y-68500000D03*
X131550000Y-68500000D03*
X131050000Y-68500000D03*
X130550000Y-68500000D03*
X130050000Y-68500000D03*
D11*
X91150000Y-114725000D03*
X93690000Y-114725000D03*
X96230000Y-114725000D03*
D10*
X98770000Y-114725000D03*
D28*
X106160800Y-78749300D03*
X108650000Y-78749300D03*
X106160800Y-72856500D03*
X108650000Y-72856500D03*
D11*
X146530000Y-114750000D03*
X149070000Y-114750000D03*
X151610000Y-114750000D03*
D10*
X154150000Y-114750000D03*
D29*
X116400000Y-72250000D03*
X116400000Y-65250002D03*
D30*
X120100018Y-66150043D03*
D31*
X112700000Y-73550000D03*
D30*
X112700000Y-64150001D03*
D32*
X143650000Y-99550000D03*
X144150000Y-99550000D03*
X144650000Y-99550000D03*
X145150000Y-99550000D03*
X145650000Y-99550000D03*
X145650000Y-103950000D03*
X145150000Y-103950000D03*
X144650000Y-103950000D03*
X144150000Y-103950000D03*
X143650000Y-103950000D03*
D33*
X105130000Y-93672500D03*
X105130000Y-85072500D03*
X107670000Y-93672500D03*
X107670000Y-85072500D03*
D34*
X84230800Y-93000000D03*
D35*
X88410800Y-93000000D03*
D34*
X84230800Y-84360000D03*
D35*
X88410800Y-84360000D03*
D36*
X89055800Y-85480000D03*
X89055800Y-86280000D03*
D37*
X88985800Y-86930000D03*
X88985800Y-87930000D03*
X88985800Y-89430000D03*
X88985800Y-90430000D03*
D36*
X89055800Y-91080000D03*
X89055800Y-91880000D03*
X89055800Y-91880000D03*
X89055800Y-91080000D03*
D37*
X88985800Y-89930000D03*
X88985800Y-88930000D03*
X88985800Y-88430000D03*
X88985800Y-87430000D03*
D36*
X89055800Y-86280000D03*
X89055800Y-85480000D03*
D32*
X128150000Y-110500000D03*
X128650000Y-110500000D03*
X129150000Y-110500000D03*
X129650000Y-110500000D03*
X130150000Y-110500000D03*
X130150000Y-114900000D03*
X129650000Y-114900000D03*
X129150000Y-114900000D03*
X128650000Y-114900000D03*
X128150000Y-114900000D03*
D38*
X137900000Y-73000000D03*
X137900000Y-79500000D03*
X142400000Y-73000000D03*
X142400000Y-79500000D03*
X124150000Y-73000000D03*
X124150000Y-79500000D03*
X128650000Y-73000000D03*
X128650000Y-79500000D03*
D39*
X104966118Y-96100000D03*
X104966118Y-97750000D03*
X108466118Y-96100000D03*
X108466118Y-97750000D03*
D40*
X93000000Y-83500000D03*
X91350000Y-83500000D03*
D41*
X92150000Y-91575000D03*
X92150000Y-89925000D03*
D39*
X92150000Y-85350000D03*
X92150000Y-87000000D03*
D40*
X96475000Y-83500000D03*
X94825000Y-83500000D03*
D41*
X109966118Y-100925000D03*
X109966118Y-102575000D03*
X106466118Y-101075000D03*
X106466118Y-99425000D03*
D39*
X111716118Y-99425000D03*
X111716118Y-101075000D03*
D11*
X114570000Y-114725000D03*
X117110000Y-114725000D03*
D10*
X119650000Y-114725000D03*
D42*
X135700000Y-115250000D03*
X134150000Y-115250000D03*
X91375000Y-93750000D03*
X92925000Y-93750000D03*
D43*
X138650000Y-113750000D03*
X138650000Y-115300000D03*
X104716118Y-99500000D03*
X104716118Y-101050000D03*
X108216118Y-99500000D03*
X108216118Y-101050000D03*
D44*
X114850000Y-70300000D03*
X102900000Y-86000000D03*
X153400000Y-95250000D03*
X155650000Y-76250000D03*
X152650000Y-84500000D03*
X143400000Y-83250000D03*
X144150000Y-77750000D03*
X148650000Y-92250000D03*
X148150000Y-91500000D03*
X135650000Y-85000000D03*
X144950000Y-94000000D03*
X143550000Y-95200000D03*
X131650000Y-112000000D03*
X119150000Y-78500000D03*
X116650000Y-78500000D03*
X114150000Y-78500000D03*
X123400000Y-85250000D03*
X130150000Y-84750000D03*
X153150000Y-80700000D03*
X153150000Y-78700000D03*
X122900000Y-69250000D03*
X114900000Y-64250000D03*
X107900000Y-75000000D03*
X137650000Y-65250000D03*
X135150000Y-65250000D03*
X133650000Y-65250000D03*
X132150000Y-65250000D03*
X130650000Y-65250000D03*
X108650000Y-85250000D03*
X123650000Y-95500000D03*
X102150000Y-77250000D03*
X102900000Y-78000000D03*
X122150000Y-101250000D03*
X121150000Y-101250000D03*
X140150000Y-88000000D03*
X139150000Y-87000000D03*
X119650000Y-88000000D03*
X120650000Y-87000000D03*
X137900000Y-113000000D03*
X137650000Y-115250000D03*
X137900000Y-111250000D03*
X133650000Y-110000000D03*
X138900000Y-90000000D03*
X85650000Y-83500000D03*
X153150000Y-101100000D03*
X153150000Y-99100000D03*
X146150000Y-101000000D03*
X142150000Y-95250000D03*
X84400000Y-100750000D03*
X92150000Y-107250000D03*
X92150000Y-103000000D03*
X100650000Y-90750000D03*
X142400000Y-101000000D03*
X144400000Y-102500000D03*
X144400000Y-105750000D03*
X141900000Y-99500000D03*
X139250000Y-96750000D03*
X138600000Y-96000000D03*
X136000000Y-99250000D03*
X137950000Y-96750000D03*
X137300000Y-97500000D03*
X136650000Y-98250000D03*
X95400000Y-87000000D03*
X96650000Y-90500000D03*
X122400000Y-95500000D03*
X117650000Y-90250000D03*
X109900000Y-100000000D03*
X121900000Y-94000000D03*
X136400000Y-86500000D03*
X126400000Y-114750000D03*
X131650000Y-115000000D03*
X129150000Y-113500000D03*
X104966118Y-102750000D03*
X109816118Y-107400000D03*
X103216118Y-107500000D03*
X107716118Y-102500000D03*
X108716118Y-102750000D03*
X112466118Y-100750000D03*
X111216118Y-98750000D03*
X103716118Y-94750000D03*
X103716118Y-97350000D03*
X108466118Y-98750000D03*
X106716118Y-98750000D03*
X105216118Y-98750000D03*
X91030800Y-85500000D03*
X91030800Y-91900000D03*
X90130800Y-86300000D03*
X90130800Y-91100000D03*
X117650000Y-99750000D03*
X120650000Y-99250000D03*
X117400000Y-97250000D03*
X117900000Y-96500000D03*
X120650000Y-96000000D03*
X120650000Y-97000000D03*
X124900000Y-89000000D03*
X125400000Y-88000000D03*
X125650000Y-89500000D03*
X127150000Y-89000000D03*
X128400000Y-88750000D03*
X127900000Y-90250000D03*
X129500000Y-90500000D03*
X130150000Y-89500000D03*
X133400000Y-88750000D03*
X132750000Y-89500000D03*
X132100000Y-90500000D03*
X141900000Y-104000000D03*
X141900000Y-103000000D03*
X137400000Y-101750000D03*
X136150000Y-101750000D03*
X135650000Y-109250000D03*
X123000000Y-93250000D03*
X126900000Y-93250000D03*
X134700000Y-92500000D03*
X121700000Y-90500000D03*
X121700000Y-89250000D03*
X124650000Y-109250000D03*
X128900000Y-111750000D03*
X129500000Y-104250000D03*
X129150000Y-106750000D03*
X136000000Y-104250000D03*
X136650000Y-105000000D03*
X134700000Y-104750000D03*
X136400000Y-106250000D03*
X131450000Y-105000000D03*
X133400000Y-104500000D03*
X132750000Y-105500000D03*
X134050000Y-105500000D03*
X137950000Y-105000000D03*
X137950000Y-106000000D03*
X139250000Y-105500000D03*
X141850000Y-105000000D03*
X131450000Y-101250000D03*
X128850000Y-101250000D03*
X124950000Y-101250000D03*
X125400000Y-106000000D03*
X126250000Y-105000000D03*
X127550000Y-104250000D03*
X124300000Y-104250000D03*
X121700000Y-104250000D03*
X124950000Y-105000000D03*
X123650000Y-105000000D03*
X122350000Y-105000000D03*
X121050000Y-105000000D03*
D45*
X114850000Y-70300000D02*
X112700000Y-72450000D01*
D46*
X102900000Y-86000000D02*
X102900000Y-85250000D01*
X102900000Y-85250000D02*
X101150000Y-83500000D01*
D45*
X104202500Y-86000000D02*
X102900000Y-86000000D01*
X150850000Y-96650000D02*
X152900000Y-96650000D01*
X153400000Y-95250000D02*
X153400000Y-96150000D01*
X153400000Y-96150000D02*
X152900000Y-96650000D01*
X151610000Y-106540000D02*
X153650000Y-104500000D01*
X153650000Y-104500000D02*
X157650000Y-100500000D01*
X151050000Y-103650000D02*
X152800000Y-103650000D01*
X152800000Y-103650000D02*
X153650000Y-104500000D01*
X157650000Y-100500000D02*
X157650000Y-88250000D01*
X151610000Y-114750000D02*
X151610000Y-106540000D01*
D46*
X147400000Y-98750000D02*
X149800000Y-101150000D01*
X149800000Y-101150000D02*
X151050000Y-101150000D01*
X140575000Y-96000000D02*
X145286396Y-96000000D01*
X145286396Y-96000000D02*
X148436396Y-99150000D01*
X148436396Y-99150000D02*
X151050000Y-99150000D01*
D45*
X151050000Y-76250000D02*
X155650000Y-76250000D01*
X152650000Y-84500000D02*
X152300000Y-84500000D01*
X152300000Y-84500000D02*
X151050000Y-83250000D01*
X157650000Y-88250000D02*
X157650000Y-84500000D01*
X157650000Y-84500000D02*
X157650000Y-64750000D01*
X152650000Y-84500000D02*
X157650000Y-84500000D01*
D46*
X148150000Y-88000000D02*
X148150000Y-89600000D01*
X149400000Y-80750000D02*
X151050000Y-80750000D01*
X148150000Y-88000000D02*
X148150000Y-82000000D01*
X148150000Y-82000000D02*
X149400000Y-80750000D01*
X140575000Y-93000000D02*
X143950000Y-93000000D01*
X143950000Y-93000000D02*
X147550000Y-89400000D01*
X149550001Y-78750000D02*
X151050000Y-78750000D01*
X147550000Y-89400000D02*
X147550000Y-80750001D01*
X147550000Y-80750001D02*
X149550001Y-78750000D01*
X144150000Y-82500000D02*
X143400000Y-83250000D01*
X144150000Y-77750000D02*
X144150000Y-82500000D01*
X148150000Y-91500000D02*
X145650000Y-94000000D01*
X145650000Y-94000000D02*
X144950000Y-94000000D01*
X143550000Y-95200000D02*
X145700000Y-95200000D01*
X145700000Y-95200000D02*
X148650000Y-92250000D01*
X135162500Y-85487500D02*
X135650000Y-85000000D01*
X135162500Y-86587500D02*
X135162500Y-85487500D01*
X140575000Y-91500000D02*
X141627208Y-91500000D01*
X141627208Y-91500000D02*
X144950000Y-88177208D01*
X144950000Y-88177208D02*
X144950000Y-74050000D01*
X144950000Y-74050000D02*
X150350000Y-68650000D01*
X150350000Y-68650000D02*
X150350000Y-65760000D01*
X150350000Y-65760000D02*
X151610000Y-64500000D01*
X151610000Y-67040000D02*
X151610000Y-68540000D01*
X151610000Y-68540000D02*
X145400000Y-74750000D01*
X145400000Y-74750000D02*
X145400000Y-88363604D01*
X145400000Y-88363604D02*
X141763604Y-92000000D01*
X141763604Y-92000000D02*
X140575000Y-92000000D01*
X141900000Y-92500000D02*
X145900000Y-88500000D01*
X145900000Y-75290000D02*
X154150000Y-67040000D01*
X140575000Y-92500000D02*
X141900000Y-92500000D01*
X145900000Y-88500000D02*
X145900000Y-75290000D01*
X144250000Y-93500000D02*
X140575000Y-93500000D01*
X148150000Y-89600000D02*
X144250000Y-93500000D01*
X140575000Y-94000000D02*
X144950000Y-94000000D01*
X142850000Y-94500000D02*
X143550000Y-95200000D01*
X140575000Y-94500000D02*
X142850000Y-94500000D01*
D45*
X108650000Y-72856500D02*
X108650000Y-64500000D01*
X125150000Y-64250000D02*
X138650000Y-64250000D01*
X108650000Y-64500000D02*
X111400000Y-61750000D01*
X111400000Y-61750000D02*
X122650000Y-61750000D01*
X122650000Y-61750000D02*
X125150000Y-64250000D01*
X117850000Y-70250000D02*
X112700000Y-65100000D01*
X112700000Y-65100000D02*
X112700000Y-64150001D01*
D46*
X112700000Y-72450000D02*
X112700000Y-73550000D01*
D45*
X122900000Y-69250000D02*
X120100018Y-66450018D01*
D46*
X120100018Y-66450018D02*
X120100018Y-66150043D01*
D45*
X114900000Y-64250000D02*
X112799999Y-64250000D01*
X112799999Y-64250000D02*
X112700000Y-64150001D01*
D46*
X129730761Y-112000000D02*
X131650000Y-112000000D01*
X129650000Y-111919239D02*
X129730761Y-112000000D01*
X131162500Y-107912500D02*
X131162500Y-110012500D01*
X130500000Y-114900000D02*
X130150000Y-114900000D01*
X131162500Y-110012500D02*
X132400000Y-111250000D01*
X132400000Y-111250000D02*
X132400000Y-113000000D01*
X132400000Y-113000000D02*
X130500000Y-114900000D01*
X95955800Y-108675000D02*
X95955800Y-111910800D01*
X95955800Y-111910800D02*
X98770000Y-114725000D01*
X119150000Y-79462500D02*
X119150000Y-78500000D01*
X116650000Y-79462500D02*
X116650000Y-78500000D01*
X114150000Y-79462500D02*
X114150000Y-78500000D01*
X126162500Y-86587500D02*
X126162500Y-85739708D01*
X126162500Y-85739708D02*
X123922792Y-83500000D01*
X123922792Y-83500000D02*
X120150000Y-83500000D01*
X120150000Y-83500000D02*
X119150000Y-82500000D01*
X119150000Y-82500000D02*
X119150000Y-81037500D01*
X125162500Y-86587500D02*
X125162500Y-85376104D01*
X125162500Y-85376104D02*
X123786396Y-84000000D01*
X123786396Y-84000000D02*
X117650000Y-84000000D01*
X117650000Y-84000000D02*
X116650000Y-83000000D01*
X116650000Y-83000000D02*
X116650000Y-81037500D01*
X124162500Y-86587500D02*
X124162500Y-85012500D01*
X124162500Y-85012500D02*
X123650000Y-84500000D01*
X115650000Y-84500000D02*
X114150000Y-83000000D01*
X123650000Y-84500000D02*
X115650000Y-84500000D01*
X114150000Y-83000000D02*
X114150000Y-81037500D01*
X123662500Y-85512500D02*
X123400000Y-85250000D01*
X123662500Y-86587500D02*
X123662500Y-85512500D01*
X128162500Y-86587500D02*
X128162500Y-81512500D01*
X128162500Y-81512500D02*
X126150000Y-79500000D01*
X126150000Y-79500000D02*
X124150000Y-79500000D01*
X124150000Y-73000000D02*
X124150000Y-79500000D01*
X137900000Y-73000000D02*
X137900000Y-79500000D01*
X130162500Y-86587500D02*
X130162500Y-84762500D01*
X130150000Y-84750000D02*
X130162500Y-84762500D01*
X150850000Y-80750000D02*
X153100000Y-80750000D01*
X150850000Y-78750000D02*
X153100000Y-78750000D01*
X142400000Y-79500000D02*
X142400000Y-73000000D01*
D45*
X128650000Y-73000000D02*
X128650000Y-79500000D01*
X128650000Y-73000000D02*
X125900000Y-70250000D01*
X125900000Y-70250000D02*
X117850000Y-70250000D01*
D46*
X112700000Y-74499999D02*
X112700000Y-72450000D01*
X120100018Y-67100042D02*
X120750042Y-67100042D01*
X134050000Y-68500000D02*
X134050000Y-70300000D01*
X134050000Y-70300000D02*
X133850000Y-70500000D01*
X133850000Y-70500000D02*
X133850000Y-81333340D01*
X133850000Y-81333340D02*
X138162500Y-85645840D01*
X138162500Y-85645840D02*
X138162500Y-86587500D01*
X133050000Y-68500000D02*
X133050000Y-70000000D01*
X133050000Y-70000000D02*
X133400000Y-70350000D01*
X133400000Y-70350000D02*
X133400000Y-81519736D01*
X133400000Y-81519736D02*
X137662500Y-85782236D01*
X137662500Y-85782236D02*
X137662500Y-86587500D01*
X131550000Y-68500000D02*
X131550000Y-69750000D01*
X131550000Y-69750000D02*
X132100000Y-70300000D01*
X132100000Y-70300000D02*
X132100000Y-83200000D01*
X132100000Y-83200000D02*
X134162500Y-85262500D01*
X134162500Y-85262500D02*
X134162500Y-86587500D01*
X140575000Y-90000000D02*
X141786396Y-90000000D01*
X141786396Y-90000000D02*
X142400000Y-89386396D01*
X142400000Y-89386396D02*
X142400000Y-87863604D01*
X135000000Y-70650000D02*
X135550000Y-70100000D01*
X142400000Y-87863604D02*
X135000000Y-80463604D01*
X135000000Y-80463604D02*
X135000000Y-70650000D01*
X135550000Y-70100000D02*
X135550000Y-68500000D01*
X140575000Y-89500000D02*
X141650000Y-89500000D01*
X141650000Y-89500000D02*
X141900000Y-89250000D01*
X141900000Y-89250000D02*
X141900000Y-88000000D01*
X141900000Y-88000000D02*
X134550000Y-80650000D01*
X134550000Y-80650000D02*
X134550000Y-68500000D01*
X133162500Y-86587500D02*
X133162500Y-85782236D01*
X133162500Y-85782236D02*
X130600000Y-83219736D01*
X130600000Y-83219736D02*
X130600000Y-70550000D01*
X130600000Y-70550000D02*
X130050000Y-70000000D01*
X130050000Y-70000000D02*
X130050000Y-68500000D01*
X132550000Y-68500000D02*
X132550000Y-83013604D01*
X132550000Y-83013604D02*
X134662500Y-85126104D01*
X134662500Y-85126104D02*
X134662500Y-86587500D01*
X131050000Y-68500000D02*
X131050000Y-83033340D01*
X131050000Y-83033340D02*
X133662500Y-85645840D01*
X133662500Y-85645840D02*
X133662500Y-86587500D01*
X96280000Y-64460000D02*
X94915000Y-65825000D01*
X110900000Y-83590812D02*
X110900000Y-89863604D01*
X94915000Y-65825000D02*
X94915000Y-71015000D01*
X94915000Y-71015000D02*
X96150000Y-72250000D01*
X96150000Y-72250000D02*
X96150000Y-75000000D01*
X96150000Y-75000000D02*
X102150000Y-81000000D01*
X108309188Y-81000000D02*
X110900000Y-83590812D01*
X102150000Y-81000000D02*
X108309188Y-81000000D01*
X110900000Y-89863604D02*
X114536396Y-93500000D01*
X114536396Y-93500000D02*
X119250000Y-93500000D01*
D45*
X107900000Y-75000000D02*
X105650000Y-75000000D01*
X105650000Y-75000000D02*
X104150000Y-73500000D01*
X104150000Y-73500000D02*
X104150000Y-71000000D01*
X104150000Y-71000000D02*
X105900000Y-69250000D01*
X105900000Y-69250000D02*
X105900000Y-66460000D01*
X105900000Y-66460000D02*
X103900000Y-64460000D01*
D46*
X130550000Y-68500000D02*
X130550000Y-65350000D01*
X130650000Y-65250000D02*
X130550000Y-65350000D01*
X132050000Y-65350000D02*
X132150000Y-65250000D01*
X132050000Y-68500000D02*
X132050000Y-65350000D01*
X133550000Y-68500000D02*
X133550000Y-65350000D01*
X133650000Y-65250000D02*
X133550000Y-65350000D01*
X135050000Y-68500000D02*
X135050000Y-65350000D01*
X135150000Y-65250000D02*
X135050000Y-65350000D01*
X138050000Y-65650000D02*
X137650000Y-65250000D01*
X138050000Y-68500000D02*
X138050000Y-65650000D01*
X138650000Y-64250000D02*
X138550000Y-64350000D01*
X138550000Y-64350000D02*
X138550000Y-68500000D01*
D45*
X157650000Y-64750000D02*
X155150000Y-62250000D01*
X155150000Y-62250000D02*
X145900000Y-62250000D01*
X145900000Y-62250000D02*
X143900000Y-64250000D01*
X143900000Y-64250000D02*
X138650000Y-64250000D01*
D46*
X104400000Y-75750000D02*
X102275000Y-73625000D01*
X102275000Y-73625000D02*
X101400000Y-72750000D01*
X101360000Y-67000000D02*
X101360000Y-72710000D01*
X101360000Y-72710000D02*
X102275000Y-73625000D01*
X101360000Y-64460000D02*
X100150000Y-65670000D01*
X100150000Y-65670000D02*
X100150000Y-72250000D01*
X112900000Y-82863604D02*
X112900000Y-88750000D01*
X100150000Y-72250000D02*
X104150000Y-76250000D01*
X110718198Y-80681802D02*
X112900000Y-82863604D01*
X104150000Y-76250000D02*
X109036396Y-76250000D01*
X109036396Y-76250000D02*
X110718198Y-77931802D01*
X110718198Y-77931802D02*
X110718198Y-80681802D01*
X112900000Y-88750000D02*
X115150000Y-91000000D01*
X115150000Y-91000000D02*
X119250000Y-91000000D01*
X103900000Y-76750000D02*
X99275000Y-72125000D01*
X98820000Y-67000000D02*
X98820000Y-71670000D01*
X98820000Y-71670000D02*
X99275000Y-72125000D01*
X98820000Y-64460000D02*
X97455000Y-65825000D01*
X97455000Y-65825000D02*
X97455000Y-74918604D01*
X97455000Y-74918604D02*
X102536396Y-80000000D01*
X102536396Y-80000000D02*
X108581980Y-80000000D01*
X108581980Y-80000000D02*
X111900000Y-83318020D01*
X111900000Y-83318020D02*
X111900000Y-89500000D01*
X111900000Y-89500000D02*
X114400000Y-92000000D01*
X114400000Y-92000000D02*
X119250000Y-92000000D01*
X115650000Y-93000000D02*
X114672792Y-93000000D01*
X114672792Y-93000000D02*
X111400000Y-89727208D01*
X111400000Y-89727208D02*
X111400000Y-83454416D01*
X102400000Y-80500000D02*
X96650000Y-74750000D01*
X111400000Y-83454416D02*
X108445584Y-80500000D01*
X108445584Y-80500000D02*
X102400000Y-80500000D01*
X96650000Y-74750000D02*
X96650000Y-67370000D01*
X96650000Y-67370000D02*
X96280000Y-67000000D01*
X93650000Y-67000000D02*
X93400000Y-67250000D01*
X93740000Y-67000000D02*
X93650000Y-67000000D01*
X108172792Y-81500000D02*
X110400000Y-83727208D01*
X93400000Y-67250000D02*
X93393300Y-67256700D01*
X93393300Y-67256700D02*
X93393300Y-74493300D01*
X93393300Y-74493300D02*
X94400000Y-75500000D01*
X94400000Y-75500000D02*
X95786396Y-75500000D01*
X114400000Y-94000000D02*
X119250000Y-94000000D01*
X95786396Y-75500000D02*
X101786396Y-81500000D01*
X101786396Y-81500000D02*
X108172792Y-81500000D01*
X110400000Y-83727208D02*
X110400000Y-90000000D01*
X110400000Y-90000000D02*
X114400000Y-94000000D01*
X93393300Y-68256700D02*
X93400000Y-68250000D01*
X93393300Y-70756700D02*
X93393300Y-68256700D01*
X119250000Y-94500000D02*
X114150000Y-94500000D01*
X92400000Y-65800000D02*
X93740000Y-64460000D01*
X114150000Y-94500000D02*
X109900000Y-90250000D01*
X101650000Y-82000000D02*
X95650000Y-76000000D01*
X109900000Y-90250000D02*
X109900000Y-83863604D01*
X109900000Y-83863604D02*
X108036396Y-82000000D01*
X95650000Y-76000000D02*
X94150000Y-76000000D01*
X108036396Y-82000000D02*
X101650000Y-82000000D01*
X94150000Y-76000000D02*
X92400000Y-74250000D01*
X92400000Y-74250000D02*
X92400000Y-65800000D01*
X91200000Y-67000000D02*
X91200000Y-74050000D01*
X91200000Y-74050000D02*
X93650000Y-76500000D01*
X93650000Y-76500000D02*
X95400000Y-76500000D01*
X109400000Y-84000000D02*
X109400000Y-90500000D01*
X95400000Y-76500000D02*
X101400000Y-82500000D01*
X101400000Y-82500000D02*
X107900000Y-82500000D01*
X107900000Y-82500000D02*
X109400000Y-84000000D01*
X113900000Y-95000000D02*
X119250000Y-95000000D01*
X109400000Y-90500000D02*
X113900000Y-95000000D01*
X119250000Y-95500000D02*
X113400000Y-95500000D01*
X113400000Y-95500000D02*
X106400000Y-88500000D01*
X95305355Y-79655355D02*
X93555355Y-79655355D01*
X106400000Y-88500000D02*
X106400000Y-83500000D01*
X98650000Y-83000000D02*
X95305355Y-79655355D01*
X106400000Y-83500000D02*
X105900000Y-83000000D01*
X93555355Y-79655355D02*
X89400000Y-75500000D01*
X105900000Y-83000000D02*
X98650000Y-83000000D01*
X89400000Y-66260000D02*
X91200000Y-64460000D01*
X89400000Y-75500000D02*
X89400000Y-66260000D01*
X119250000Y-89500000D02*
X114650000Y-89500000D01*
X113400000Y-82727208D02*
X111168198Y-80495406D01*
X111168198Y-77745406D02*
X109172792Y-75750000D01*
X114650000Y-89500000D02*
X113400000Y-88250000D01*
X113400000Y-88250000D02*
X113400000Y-82727208D01*
X109172792Y-75750000D02*
X104400000Y-75750000D01*
X111168198Y-80495406D02*
X111168198Y-77745406D01*
X119250000Y-91500000D02*
X114900000Y-91500000D01*
X112400000Y-89000000D02*
X112400000Y-83000000D01*
X114900000Y-91500000D02*
X112400000Y-89000000D01*
X108900000Y-76750000D02*
X103900000Y-76750000D01*
X112400000Y-83000000D02*
X110150000Y-80750000D01*
X110150000Y-80750000D02*
X110150000Y-78000000D01*
X110150000Y-78000000D02*
X108900000Y-76750000D01*
X93400000Y-70750000D02*
X93393300Y-70756700D01*
X93393300Y-70756700D02*
X93393300Y-74493300D01*
X119250000Y-93000000D02*
X115650000Y-93000000D01*
X115650000Y-93000000D02*
X114900000Y-93000000D01*
X107670000Y-85072500D02*
X108472500Y-85072500D01*
X108472500Y-85072500D02*
X108650000Y-85250000D01*
D45*
X120650000Y-87000000D02*
X119650000Y-88000000D01*
X120650000Y-87000000D02*
X120750000Y-87000000D01*
X120750000Y-87000000D02*
X121162500Y-86587500D01*
X124900000Y-95500000D02*
X128162500Y-95500000D01*
X124900000Y-95500000D02*
X122400000Y-95500000D01*
D46*
X97900000Y-106750000D02*
X93150000Y-106750000D01*
X93150000Y-106750000D02*
X92440000Y-106040000D01*
X92440000Y-106040000D02*
X86105800Y-106040000D01*
D45*
X102150000Y-77250000D02*
X103650000Y-78750000D01*
X103650000Y-78750000D02*
X103900000Y-78750000D01*
X102900000Y-78000000D02*
X103650000Y-78750000D01*
X103900000Y-78750000D02*
X103900700Y-78749300D01*
X103900700Y-78749300D02*
X106160800Y-78749300D01*
X122150000Y-101250000D02*
X121650000Y-101250000D01*
X119650000Y-88100000D02*
X119650000Y-88000000D01*
D46*
X137650000Y-115250000D02*
X135700000Y-115250000D01*
D45*
X138650000Y-113750000D02*
X141900000Y-113750000D01*
X141900000Y-113750000D02*
X142900000Y-114750000D01*
X142900000Y-114750000D02*
X146530000Y-114750000D01*
X138650000Y-113750000D02*
X137900000Y-113000000D01*
D46*
X138650000Y-115300000D02*
X137700000Y-115300000D01*
X137700000Y-115300000D02*
X137650000Y-115250000D01*
D45*
X137900000Y-111250000D02*
X132400000Y-116750000D01*
D46*
X136662500Y-107912500D02*
X136662500Y-109500000D01*
X133650000Y-110000000D02*
X136162500Y-110000000D01*
X136162500Y-110000000D02*
X136662500Y-109500000D01*
X138650000Y-91000000D02*
X138150000Y-90500000D01*
X140575000Y-91000000D02*
X138650000Y-91000000D01*
X138150000Y-89000000D02*
X139650000Y-87500000D01*
X138150000Y-90500000D02*
X138150000Y-89000000D01*
X139400000Y-90500000D02*
X138900000Y-90000000D01*
X140575000Y-90500000D02*
X139400000Y-90500000D01*
X96475000Y-83500000D02*
X101150000Y-83500000D01*
X94825000Y-83500000D02*
X93325000Y-82000000D01*
X93325000Y-82000000D02*
X85225000Y-82000000D01*
X85400000Y-83250000D02*
X84400000Y-83250000D01*
X84400000Y-83250000D02*
X83650000Y-82500000D01*
X85650000Y-83500000D02*
X85400000Y-83250000D01*
X83650000Y-82500000D02*
X83650000Y-82000000D01*
D45*
X126900000Y-116750000D02*
X123650000Y-116750000D01*
X123650000Y-116750000D02*
X96400000Y-116750000D01*
X123525000Y-111875000D02*
X123650000Y-112000000D01*
X123650000Y-112000000D02*
X123650000Y-116750000D01*
D46*
X153100000Y-101150000D02*
X153150000Y-101100000D01*
X150850000Y-101150000D02*
X153100000Y-101150000D01*
X150850000Y-99150000D02*
X153100000Y-99150000D01*
X140575000Y-96500000D02*
X145150000Y-96500000D01*
X145150000Y-96500000D02*
X147400000Y-98750000D01*
D45*
X149070000Y-114750000D02*
X149070000Y-115830000D01*
X149070000Y-115830000D02*
X148150000Y-116750000D01*
X148150000Y-116750000D02*
X132400000Y-116750000D01*
D46*
X145650000Y-102750000D02*
X145650000Y-103950000D01*
X146800000Y-101600000D02*
X145650000Y-102750000D01*
X146800000Y-99063604D02*
X146800000Y-101600000D01*
X144736396Y-97000000D02*
X146800000Y-99063604D01*
X140575000Y-97000000D02*
X144736396Y-97000000D01*
X145600000Y-101000000D02*
X146150000Y-101000000D01*
X145150000Y-100550000D02*
X145600000Y-101000000D01*
X145150000Y-99550000D02*
X145150000Y-100550000D01*
X141900000Y-95500000D02*
X142150000Y-95250000D01*
X140575000Y-95500000D02*
X141900000Y-95500000D01*
X88410800Y-84360000D02*
X90490000Y-84360000D01*
X90490000Y-84360000D02*
X91350000Y-83500000D01*
X93000000Y-83500000D02*
X93000000Y-84500000D01*
X93000000Y-84500000D02*
X92150000Y-85350000D01*
X91030800Y-85500000D02*
X92000000Y-85500000D01*
X92000000Y-85500000D02*
X92150000Y-85350000D01*
X88985800Y-87430000D02*
X91720000Y-87430000D01*
X91720000Y-87430000D02*
X92150000Y-87000000D01*
X92925000Y-93750000D02*
X92925000Y-92350000D01*
X92925000Y-92350000D02*
X92150000Y-91575000D01*
X91030800Y-91900000D02*
X91825000Y-91900000D01*
X91825000Y-91900000D02*
X92150000Y-91575000D01*
X88410800Y-93000000D02*
X90625000Y-93000000D01*
X90625000Y-93000000D02*
X91375000Y-93750000D01*
X88985800Y-90430000D02*
X91645000Y-90430000D01*
X91645000Y-90430000D02*
X92150000Y-89925000D01*
D45*
X96400000Y-116750000D02*
X90150000Y-116750000D01*
X96230000Y-114725000D02*
X96230000Y-116580000D01*
X96230000Y-116580000D02*
X96400000Y-116750000D01*
X132400000Y-116750000D02*
X126900000Y-116750000D01*
X90150000Y-116750000D02*
X84400000Y-111000000D01*
X84400000Y-103250000D02*
X84910000Y-102740000D01*
X84400000Y-111000000D02*
X84400000Y-103250000D01*
X84910000Y-102740000D02*
X86105800Y-102740000D01*
X86105800Y-100540000D02*
X84610000Y-100540000D01*
X84610000Y-100540000D02*
X84400000Y-100750000D01*
D46*
X103913604Y-104650000D02*
X101206802Y-101943198D01*
X93790000Y-101640000D02*
X94093198Y-101943198D01*
X94093198Y-101943198D02*
X101206802Y-101943198D01*
X94025000Y-103625000D02*
X93400000Y-104250000D01*
X86105800Y-104940000D02*
X92710000Y-104940000D01*
X92710000Y-104940000D02*
X93400000Y-104250000D01*
X93900000Y-103000000D02*
X93400000Y-103500000D01*
X86105800Y-103840000D02*
X93060000Y-103840000D01*
X93060000Y-103840000D02*
X93400000Y-103500000D01*
X86105800Y-101640000D02*
X93790000Y-101640000D01*
X119250000Y-102000000D02*
X114172792Y-102000000D01*
X114172792Y-102000000D02*
X111522792Y-104650000D01*
X111522792Y-104650000D02*
X103913604Y-104650000D01*
X92840000Y-99440000D02*
X86105800Y-99440000D01*
X94650000Y-101250000D02*
X93775000Y-100375000D01*
X93775000Y-100375000D02*
X92900000Y-99500000D01*
X92840000Y-99440000D02*
X93775000Y-100375000D01*
X95150000Y-100750000D02*
X93275000Y-98875000D01*
X93275000Y-98875000D02*
X92900000Y-98500000D01*
X86105800Y-98390000D02*
X92790000Y-98390000D01*
X92790000Y-98390000D02*
X93275000Y-98875000D01*
X92400000Y-103000000D02*
X92150000Y-103000000D01*
X92255800Y-107355800D02*
X92150000Y-107250000D01*
X92255800Y-108675000D02*
X92255800Y-107355800D01*
X119250000Y-102500000D02*
X114309188Y-102500000D01*
X114309188Y-102500000D02*
X111709188Y-105100000D01*
X111709188Y-105100000D02*
X103727208Y-105100000D01*
X103727208Y-105100000D02*
X101127208Y-102500000D01*
X101127208Y-102500000D02*
X92900000Y-102500000D01*
X92900000Y-102500000D02*
X92400000Y-103000000D01*
X119250000Y-103000000D02*
X114445584Y-103000000D01*
X114445584Y-103000000D02*
X111895584Y-105550000D01*
X111895584Y-105550000D02*
X103450000Y-105550000D01*
X103450000Y-105550000D02*
X100900000Y-103000000D01*
X100900000Y-103000000D02*
X93900000Y-103000000D01*
X119250000Y-104000000D02*
X114081980Y-104000000D01*
X114081980Y-104000000D02*
X112081980Y-106000000D01*
X112081980Y-106000000D02*
X103263604Y-106000000D01*
X103263604Y-106000000D02*
X100888604Y-103625000D01*
X100888604Y-103625000D02*
X94025000Y-103625000D01*
X114218376Y-104500000D02*
X112559188Y-106159188D01*
X97900000Y-106750000D02*
X111968376Y-106750000D01*
X111968376Y-106750000D02*
X112559188Y-106159188D01*
X119250000Y-104500000D02*
X114218376Y-104500000D01*
X119250000Y-101500000D02*
X114036396Y-101500000D01*
X111336396Y-104200000D02*
X104100000Y-104200000D01*
X101150000Y-101250000D02*
X94650000Y-101250000D01*
X114036396Y-101500000D02*
X111336396Y-104200000D01*
X104100000Y-104200000D02*
X101150000Y-101250000D01*
X119250000Y-101000000D02*
X113900000Y-101000000D01*
X101400000Y-100750000D02*
X95150000Y-100750000D01*
X113900000Y-101000000D02*
X111150000Y-103750000D01*
X111150000Y-103750000D02*
X104400000Y-103750000D01*
X104400000Y-103750000D02*
X101400000Y-100750000D01*
X100650000Y-90750000D02*
X101650000Y-89750000D01*
X109400000Y-92967500D02*
X109400000Y-94863604D01*
X101650000Y-89750000D02*
X106182500Y-89750000D01*
X106182500Y-89750000D02*
X109400000Y-92967500D01*
X109400000Y-94863604D02*
X113036396Y-98500000D01*
X113036396Y-98500000D02*
X119250000Y-98500000D01*
X100650000Y-90750000D02*
X100650000Y-92419200D01*
X100650000Y-92419200D02*
X100730800Y-92500000D01*
D45*
X104202500Y-86000000D02*
X105130000Y-85072500D01*
D46*
X119250000Y-98000000D02*
X113400000Y-98000000D01*
X113400000Y-98000000D02*
X109850000Y-94450000D01*
X109850000Y-94450000D02*
X109850000Y-92781104D01*
X109850000Y-92781104D02*
X106318896Y-89250000D01*
X106318896Y-89250000D02*
X101900000Y-89250000D01*
X101900000Y-89250000D02*
X100730800Y-88080800D01*
X100730800Y-88080800D02*
X100730800Y-84800000D01*
X142400000Y-101000000D02*
X144200000Y-101000000D01*
X144200000Y-101000000D02*
X144650000Y-100550000D01*
X144650000Y-100550000D02*
X144650000Y-99550000D01*
X140575000Y-102000000D02*
X143980761Y-102000000D01*
X143980761Y-102000000D02*
X144130761Y-101850000D01*
X144130761Y-101850000D02*
X144669239Y-101850000D01*
X145150000Y-102330761D02*
X145150000Y-103950000D01*
X144669239Y-101850000D02*
X145150000Y-102330761D01*
X144650000Y-102750000D02*
X144400000Y-102500000D01*
X144650000Y-103950000D02*
X144650000Y-102750000D01*
X144150000Y-105500000D02*
X144400000Y-105750000D01*
X144150000Y-103950000D02*
X144150000Y-105500000D01*
X140575000Y-97500000D02*
X144600000Y-97500000D01*
X144600000Y-97500000D02*
X145650000Y-98550000D01*
X145650000Y-98550000D02*
X145650000Y-99550000D01*
X140575000Y-98000000D02*
X143600000Y-98000000D01*
X143600000Y-98000000D02*
X144150000Y-98550000D01*
X144150000Y-98550000D02*
X144150000Y-99550000D01*
X140575000Y-98500000D02*
X143150000Y-98500000D01*
X143150000Y-98500000D02*
X143650000Y-99000000D01*
X143650000Y-99000000D02*
X143650000Y-99550000D01*
X140575000Y-106000000D02*
X142650000Y-106000000D01*
X142650000Y-106000000D02*
X143650000Y-105000000D01*
X143650000Y-105000000D02*
X143650000Y-103950000D01*
X140575000Y-99500000D02*
X141900000Y-99500000D01*
X139250000Y-96750000D02*
X139250000Y-98700000D01*
X139250000Y-98700000D02*
X139550000Y-99000000D01*
X139550000Y-99000000D02*
X140575000Y-99000000D01*
X138539213Y-100060787D02*
X137939213Y-99460786D01*
X138978427Y-100500000D02*
X138539213Y-100060787D01*
X138539213Y-100060787D02*
X137950000Y-99471574D01*
X137950000Y-99471574D02*
X137950000Y-96750000D01*
X139057411Y-99942589D02*
X139114823Y-100000000D01*
X138600000Y-99485178D02*
X138600000Y-96000000D01*
X139057411Y-99942589D02*
X138600000Y-99485178D01*
X137371015Y-99528984D02*
X137771015Y-99928985D01*
X137771015Y-99928985D02*
X138842031Y-101000000D01*
X137300000Y-97500000D02*
X137300000Y-99457970D01*
X137300000Y-99457970D02*
X137771015Y-99928985D01*
X138705635Y-101500000D02*
X137252817Y-100047183D01*
X136650000Y-98250000D02*
X136650000Y-99444366D01*
X136650000Y-99444366D02*
X137252817Y-100047183D01*
X139069239Y-102500000D02*
X136484619Y-99915381D01*
X136484619Y-99915381D02*
X136069239Y-99500000D01*
X136000000Y-99250000D02*
X136000000Y-99430762D01*
X136000000Y-99430762D02*
X136484619Y-99915381D01*
X139114823Y-100000000D02*
X140575000Y-100000000D01*
X140575000Y-100500000D02*
X138978427Y-100500000D01*
X138842031Y-101000000D02*
X140575000Y-101000000D01*
X140575000Y-101500000D02*
X138705635Y-101500000D01*
X140575000Y-102500000D02*
X139069239Y-102500000D01*
X119250000Y-100500000D02*
X114400000Y-100500000D01*
X114400000Y-100500000D02*
X107670000Y-93770000D01*
X107670000Y-93770000D02*
X107670000Y-93672500D01*
D45*
X105130000Y-93672500D02*
X105130000Y-95936118D01*
D46*
X105130000Y-95936118D02*
X104966118Y-96100000D01*
X95730800Y-92500000D02*
X95650000Y-92500000D01*
X95650000Y-92500000D02*
X95400000Y-92250000D01*
X95400000Y-92250000D02*
X95400000Y-90000000D01*
X96400000Y-89750000D02*
X96650000Y-90000000D01*
X95400000Y-90000000D02*
X95650000Y-89750000D01*
X95650000Y-89750000D02*
X96400000Y-89750000D01*
X96650000Y-90000000D02*
X96650000Y-90500000D01*
X95400000Y-87000000D02*
X95400000Y-85130800D01*
X95400000Y-85130800D02*
X95730800Y-84800000D01*
D45*
X128162500Y-95500000D02*
X129912500Y-97250000D01*
D46*
X117900000Y-90000000D02*
X117650000Y-90250000D01*
X119250000Y-90000000D02*
X117900000Y-90000000D01*
D45*
X124950000Y-101250000D02*
X122150000Y-101250000D01*
D46*
X109900000Y-100000000D02*
X109900000Y-100858882D01*
X109900000Y-100858882D02*
X109966118Y-100925000D01*
X108466118Y-96100000D02*
X109966118Y-97600000D01*
X109966118Y-97600000D02*
X109966118Y-98419239D01*
X109966118Y-98419239D02*
X110598440Y-99051561D01*
X110598440Y-99051561D02*
X110598440Y-99957322D01*
X110598440Y-99957322D02*
X111716118Y-101075000D01*
X120650000Y-108382042D02*
X120692958Y-108382042D01*
X120692958Y-108382042D02*
X121162500Y-107912500D01*
X119250000Y-92500000D02*
X120055264Y-92500000D01*
X120055264Y-92500000D02*
X121150000Y-93594736D01*
X121150000Y-93594736D02*
X121150000Y-94750000D01*
X121150000Y-94750000D02*
X121400000Y-95000000D01*
X120892764Y-100257236D02*
X120312500Y-100257236D01*
X121400000Y-95000000D02*
X121400000Y-99750000D01*
X121400000Y-99750000D02*
X120892764Y-100257236D01*
D45*
X123525000Y-111875000D02*
X120650000Y-109000000D01*
D46*
X126162500Y-107912500D02*
X126162500Y-109237500D01*
X126162500Y-109237500D02*
X123525000Y-111875000D01*
X121900000Y-94000000D02*
X121900000Y-92250000D01*
X121900000Y-92250000D02*
X122650000Y-91500000D01*
D45*
X139575000Y-87500000D02*
X138762500Y-86687500D01*
D46*
X136487500Y-86587500D02*
X136662500Y-86587500D01*
X136400000Y-86500000D02*
X136487500Y-86587500D01*
X136312500Y-86587500D02*
X136400000Y-86500000D01*
X140575000Y-89000000D02*
X140575000Y-88500000D01*
D45*
X140575000Y-88500000D02*
X139650000Y-87575000D01*
X138762500Y-86687500D02*
X138762500Y-86587500D01*
X119250000Y-88500000D02*
X119650000Y-88100000D01*
X138662500Y-107912500D02*
X138662500Y-110487500D01*
X138662500Y-110487500D02*
X137900000Y-111250000D01*
X120650000Y-108382042D02*
X120180458Y-107912500D01*
X120650000Y-109000000D02*
X120650000Y-108382042D01*
X119250000Y-106000000D02*
X119250000Y-106982042D01*
X119250000Y-106982042D02*
X120180458Y-107912500D01*
X120180458Y-107912500D02*
X121062500Y-107912500D01*
D46*
X131650000Y-115000000D02*
X130650000Y-116000000D01*
X129250000Y-116000000D02*
X129150000Y-115900000D01*
X129150000Y-115900000D02*
X129150000Y-114900000D01*
X130650000Y-116000000D02*
X129250000Y-116000000D01*
X128150000Y-116000000D02*
X128550000Y-116000000D01*
X127650000Y-116000000D02*
X128150000Y-116000000D01*
X126400000Y-114750000D02*
X127650000Y-116000000D01*
X129400000Y-113500000D02*
X129150000Y-113500000D01*
X104966118Y-102750000D02*
X104966118Y-101300000D01*
X104966118Y-101300000D02*
X104716118Y-101050000D01*
X109816118Y-107400000D02*
X103316118Y-107400000D01*
X103316118Y-107400000D02*
X103216118Y-107500000D01*
X111716118Y-101075000D02*
X110941118Y-101850000D01*
X110941118Y-101850000D02*
X108366118Y-101850000D01*
X108366118Y-101850000D02*
X107716118Y-102500000D01*
X108716118Y-102750000D02*
X109791118Y-102750000D01*
X109791118Y-102750000D02*
X109966118Y-102575000D01*
X108216118Y-101050000D02*
X109841118Y-101050000D01*
X109841118Y-101050000D02*
X109966118Y-100925000D01*
X112466118Y-100750000D02*
X112041118Y-100750000D01*
X112041118Y-100750000D02*
X111716118Y-101075000D01*
X111216118Y-98750000D02*
X111216118Y-98925000D01*
X111216118Y-98925000D02*
X111716118Y-99425000D01*
D45*
X108466118Y-96100000D02*
X104966118Y-96100000D01*
D46*
X104966118Y-97750000D02*
X104966118Y-99500000D01*
X108466118Y-97750000D02*
X108466118Y-98750000D01*
X103716118Y-97350000D02*
X103716118Y-94750000D01*
X103716118Y-97350000D02*
X103716118Y-99800000D01*
X103716118Y-99800000D02*
X104966118Y-101050000D01*
X106716118Y-101075000D02*
X104991118Y-101075000D01*
X104991118Y-101075000D02*
X104966118Y-101050000D01*
X108466118Y-101050000D02*
X106741118Y-101050000D01*
X106741118Y-101050000D02*
X106716118Y-101075000D01*
X108466118Y-99500000D02*
X108466118Y-98750000D01*
X106716118Y-99425000D02*
X106716118Y-98750000D01*
X104966118Y-99500000D02*
X104966118Y-99000000D01*
X104966118Y-99000000D02*
X105216118Y-98750000D01*
X89885800Y-88655000D02*
X89885800Y-89000000D01*
X89885800Y-89000000D02*
X89885800Y-89172764D01*
X89885800Y-89000000D02*
X97230800Y-89000000D01*
X97230800Y-89000000D02*
X98230800Y-90000000D01*
X98230800Y-90000000D02*
X98230800Y-92500000D01*
X88985800Y-87930000D02*
X97300800Y-87930000D01*
X97300800Y-87930000D02*
X98230800Y-87000000D01*
X98230800Y-87000000D02*
X98230800Y-84800000D01*
X88343036Y-88930000D02*
X87980800Y-88567764D01*
X87980800Y-88567764D02*
X87980800Y-88292236D01*
X87980800Y-88292236D02*
X88343036Y-87930000D01*
X88985800Y-88930000D02*
X88343036Y-88930000D01*
X88343036Y-87930000D02*
X88985800Y-87930000D01*
X89628564Y-89430000D02*
X88985800Y-89430000D01*
X89885800Y-89172764D02*
X89628564Y-89430000D01*
X88985800Y-88430000D02*
X89660800Y-88430000D01*
X89660800Y-88430000D02*
X89885800Y-88655000D01*
D45*
X89055800Y-85480000D02*
X91010800Y-85480000D01*
X91010800Y-85480000D02*
X91030800Y-85500000D01*
X89055800Y-91880000D02*
X91010800Y-91880000D01*
X91030800Y-91900000D02*
X91010800Y-91880000D01*
X89055800Y-86280000D02*
X90110800Y-86280000D01*
X90110800Y-86280000D02*
X90130800Y-86300000D01*
X89055800Y-91080000D02*
X90110800Y-91080000D01*
X90110800Y-91080000D02*
X90130800Y-91100000D01*
D46*
X117900000Y-99500000D02*
X117650000Y-99750000D01*
X119250000Y-99500000D02*
X117900000Y-99500000D01*
X120400000Y-99000000D02*
X120650000Y-99250000D01*
X119250000Y-99000000D02*
X120400000Y-99000000D01*
X117650000Y-97500000D02*
X117400000Y-97250000D01*
X119250000Y-97500000D02*
X117650000Y-97500000D01*
X119250000Y-96500000D02*
X117900000Y-96500000D01*
X119250000Y-97000000D02*
X120650000Y-97000000D01*
X119250000Y-96000000D02*
X120650000Y-96000000D01*
X119250000Y-100000000D02*
X120055264Y-100000000D01*
X120055264Y-100000000D02*
X120312500Y-100257236D01*
X120312500Y-100257236D02*
X120312500Y-104250000D01*
X120312500Y-104250000D02*
X120312500Y-104500000D01*
X120312500Y-103757236D02*
X120312500Y-104250000D01*
X121162500Y-106362500D02*
X120600000Y-105800000D01*
X120600000Y-105800000D02*
X120300000Y-105500000D01*
X120312500Y-104250000D02*
X120312500Y-105512500D01*
X120312500Y-105512500D02*
X120600000Y-105800000D01*
X119250000Y-103500000D02*
X120055264Y-103500000D01*
X120055264Y-103500000D02*
X120312500Y-103757236D01*
X120312500Y-104742764D02*
X120055264Y-105000000D01*
X120055264Y-105000000D02*
X119250000Y-105000000D01*
X125569239Y-88750000D02*
X125150000Y-88750000D01*
X125150000Y-88750000D02*
X124900000Y-89000000D01*
X126662500Y-87656739D02*
X125569239Y-88750000D01*
X126662500Y-86587500D02*
X126662500Y-87656739D01*
X125662500Y-87737500D02*
X125400000Y-88000000D01*
X125662500Y-86587500D02*
X125662500Y-87737500D01*
X127162500Y-86587500D02*
X127162500Y-87987500D01*
X127162500Y-87987500D02*
X125650000Y-89500000D01*
X127662500Y-86587500D02*
X127662500Y-88487500D01*
X127662500Y-88487500D02*
X127150000Y-89000000D01*
X128400000Y-88750000D02*
X128662500Y-88487500D01*
X128662500Y-88487500D02*
X128662500Y-86587500D01*
X129162500Y-86587500D02*
X129162500Y-88931865D01*
X129162500Y-88931865D02*
X127900000Y-90194365D01*
X127900000Y-90194365D02*
X127900000Y-90250000D01*
D45*
X123000000Y-93250000D02*
X124150000Y-93250000D01*
X124150000Y-93250000D02*
X126900000Y-93250000D01*
D46*
X124662500Y-86587500D02*
X124662500Y-88318261D01*
X124662500Y-88318261D02*
X124150000Y-88830761D01*
X124150000Y-88830761D02*
X124150000Y-93250000D01*
X121700000Y-90500000D02*
X123162500Y-89037500D01*
X123162500Y-89037500D02*
X123162500Y-86587500D01*
X122650000Y-90250000D02*
X122650000Y-91500000D01*
X123662500Y-86587500D02*
X123662500Y-89237500D01*
X123662500Y-89237500D02*
X122650000Y-90250000D01*
X129662500Y-86587500D02*
X129662500Y-89068261D01*
X129662500Y-89068261D02*
X129500000Y-89230761D01*
X129500000Y-89230761D02*
X129500000Y-90500000D01*
X130150000Y-89500000D02*
X130662500Y-88987500D01*
X130662500Y-88987500D02*
X130662500Y-86587500D01*
X131162500Y-86587500D02*
X131162500Y-88462500D01*
X131162500Y-88462500D02*
X132100000Y-89400000D01*
X132100000Y-89400000D02*
X132100000Y-90500000D01*
X131662500Y-86587500D02*
X131662500Y-87876104D01*
X131662500Y-87876104D02*
X132750000Y-88963604D01*
X132750000Y-88963604D02*
X132750000Y-89500000D01*
X133383340Y-88750000D02*
X133400000Y-88750000D01*
X132162500Y-87529160D02*
X133383340Y-88750000D01*
X132162500Y-86587500D02*
X132162500Y-87529160D01*
X136019736Y-87750000D02*
X136400000Y-87750000D01*
X136400000Y-87750000D02*
X136805264Y-87750000D01*
X133019736Y-87750000D02*
X136400000Y-87750000D01*
X132662500Y-86587500D02*
X132662500Y-87392764D01*
X132662500Y-87392764D02*
X133019736Y-87750000D01*
X136805264Y-87750000D02*
X136700000Y-87855264D01*
D45*
X136700000Y-87855264D02*
X136700000Y-90500000D01*
D46*
X135662500Y-86587500D02*
X135662500Y-87392764D01*
X135662500Y-87392764D02*
X136019736Y-87750000D01*
X136805264Y-87750000D02*
X137162500Y-87392764D01*
X137162500Y-87392764D02*
X137162500Y-86587500D01*
X136162500Y-86587500D02*
X136312500Y-86587500D01*
D45*
X136700000Y-90500000D02*
X134700000Y-92500000D01*
D46*
X140575000Y-95000000D02*
X132162500Y-95000000D01*
X132162500Y-95000000D02*
X129912500Y-97250000D01*
X141400000Y-103500000D02*
X141900000Y-104000000D01*
X140575000Y-103500000D02*
X141400000Y-103500000D01*
X140575000Y-103000000D02*
X141900000Y-103000000D01*
X137519736Y-101750000D02*
X137400000Y-101750000D01*
X139769736Y-104000000D02*
X137519736Y-101750000D01*
X140575000Y-104000000D02*
X139769736Y-104000000D01*
X140575000Y-104500000D02*
X138900000Y-104500000D01*
X138900000Y-104500000D02*
X136150000Y-101750000D01*
X135650000Y-109250000D02*
X136162500Y-108737500D01*
X136162500Y-108737500D02*
X136162500Y-107912500D01*
X140575000Y-106000000D02*
X139750000Y-106000000D01*
X139750000Y-106000000D02*
X138662500Y-107087500D01*
X138662500Y-107087500D02*
X138662500Y-107912500D01*
X138162500Y-107912500D02*
X138662500Y-107912500D01*
X121162500Y-107912500D02*
X121162500Y-106362500D01*
X120300000Y-105500000D02*
X119250000Y-105500000D01*
X119250000Y-105500000D02*
X119250000Y-106000000D01*
X119250000Y-105000000D02*
X119250000Y-105500000D01*
D45*
X134700000Y-92500000D02*
X129950000Y-97250000D01*
D46*
X129950000Y-97250000D02*
X129912500Y-97250000D01*
X119250000Y-90000000D02*
X120055264Y-90000000D01*
X121050000Y-89005264D02*
X121050000Y-88662500D01*
X120055264Y-90000000D02*
X121050000Y-89005264D01*
X121050000Y-88662500D02*
X122162500Y-87550000D01*
X122162500Y-87550000D02*
X122162500Y-86587500D01*
X119250000Y-88500000D02*
X119250000Y-89000000D01*
X121662500Y-86587500D02*
X121162500Y-86587500D01*
X122662500Y-88287500D02*
X121700000Y-89250000D01*
X122662500Y-86587500D02*
X122662500Y-88287500D01*
X128550000Y-116000000D02*
X128650000Y-115900000D01*
X128650000Y-115900000D02*
X128650000Y-114900000D01*
X124662500Y-109237500D02*
X124650000Y-109250000D01*
X124662500Y-107912500D02*
X124662500Y-109237500D01*
X128150000Y-114900000D02*
X128150000Y-113419239D01*
X128150000Y-113419239D02*
X129650000Y-111919239D01*
X129650000Y-111919239D02*
X129650000Y-110500000D01*
X129650000Y-113750000D02*
X129400000Y-113500000D01*
X129650000Y-114900000D02*
X129650000Y-113750000D01*
X127650000Y-111750000D02*
X128900000Y-111750000D01*
X128900000Y-111750000D02*
X129150000Y-111500000D01*
X129150000Y-111500000D02*
X129150000Y-110500000D01*
X126662500Y-107912500D02*
X126662500Y-110762500D01*
X126662500Y-110762500D02*
X127650000Y-111750000D01*
X127662500Y-107912500D02*
X127662500Y-106987500D01*
X127662500Y-106987500D02*
X129500000Y-105150000D01*
X129500000Y-105150000D02*
X129500000Y-104250000D01*
X129162500Y-106762500D02*
X129150000Y-106750000D01*
X129162500Y-107912500D02*
X129162500Y-106762500D01*
X130150000Y-110500000D02*
X130150000Y-107925000D01*
X130150000Y-107925000D02*
X130162500Y-107912500D01*
X129650000Y-110500000D02*
X129650000Y-107925000D01*
X129650000Y-107925000D02*
X129662500Y-107912500D01*
X128650000Y-110500000D02*
X128650000Y-107925000D01*
X128650000Y-107925000D02*
X128662500Y-107912500D01*
X128150000Y-110500000D02*
X128150000Y-107925000D01*
X128150000Y-107925000D02*
X128162500Y-107912500D01*
X136000000Y-104250000D02*
X136000000Y-104650000D01*
X135150000Y-105500000D02*
X135150000Y-105955635D01*
X136000000Y-104650000D02*
X135150000Y-105500000D01*
X135150000Y-105955635D02*
X134662500Y-106443135D01*
X134662500Y-106443135D02*
X134662500Y-107912500D01*
X135162500Y-107912500D02*
X135162500Y-106851104D01*
X135162500Y-106851104D02*
X135700000Y-106313604D01*
X135700000Y-106313604D02*
X135700000Y-105950000D01*
X135700000Y-105950000D02*
X136650000Y-105000000D01*
X134162500Y-107912500D02*
X134162500Y-106306739D01*
X134162500Y-106306739D02*
X134700000Y-105769239D01*
X134700000Y-105769239D02*
X134700000Y-104750000D01*
X135662500Y-106987500D02*
X136400000Y-106250000D01*
X135662500Y-107912500D02*
X135662500Y-106987500D01*
X133662500Y-107912500D02*
X133662500Y-106143135D01*
X133662500Y-106143135D02*
X134050000Y-105755635D01*
X134050000Y-105755635D02*
X134050000Y-105500000D01*
X133162500Y-107912500D02*
X133162500Y-106006739D01*
X133162500Y-106006739D02*
X133400000Y-105769239D01*
X133400000Y-105769239D02*
X133400000Y-104500000D01*
X129912500Y-97250000D02*
X132100000Y-99437500D01*
X132100000Y-99437500D02*
X132100000Y-106763604D01*
X132100000Y-106763604D02*
X132162500Y-106826104D01*
X132162500Y-106826104D02*
X132162500Y-107912500D01*
X132662500Y-107912500D02*
X132662500Y-105587500D01*
X132662500Y-105587500D02*
X132750000Y-105500000D01*
X131662500Y-106962500D02*
X131450000Y-106750000D01*
X131662500Y-107912500D02*
X131662500Y-106962500D01*
X131450000Y-106750000D02*
X131450000Y-105000000D01*
X130662500Y-107912500D02*
X130662500Y-98000000D01*
X130662500Y-98000000D02*
X129912500Y-97250000D01*
X137950000Y-105000000D02*
X137162500Y-105787500D01*
X137162500Y-105787500D02*
X137162500Y-107912500D01*
X137950000Y-106000000D02*
X137662500Y-106287500D01*
X137662500Y-106287500D02*
X137662500Y-107912500D01*
X141850000Y-105000000D02*
X140575000Y-105000000D01*
X140575000Y-105500000D02*
X139250000Y-105500000D01*
X131450000Y-101250000D02*
X131450000Y-98787500D01*
X131450000Y-98787500D02*
X129912500Y-97250000D01*
X128850000Y-101250000D02*
X131450000Y-101250000D01*
D45*
X124950000Y-101250000D02*
X128850000Y-101250000D01*
D46*
X126662500Y-107912500D02*
X126662500Y-105506739D01*
X126662500Y-105506739D02*
X126900000Y-105269239D01*
X126900000Y-105269239D02*
X126900000Y-100262500D01*
X126900000Y-100262500D02*
X129912500Y-97250000D01*
X126250000Y-105000000D02*
X126050000Y-105200000D01*
X126050000Y-105200000D02*
X126050000Y-106619736D01*
X126050000Y-106619736D02*
X125662500Y-107007236D01*
X125662500Y-107007236D02*
X125662500Y-107912500D01*
X125162500Y-107912500D02*
X125162500Y-106237500D01*
X125162500Y-106237500D02*
X125400000Y-106000000D01*
X127550000Y-104250000D02*
X127550000Y-106100000D01*
X127550000Y-106100000D02*
X127162500Y-106487500D01*
X127162500Y-106487500D02*
X127162500Y-107912500D01*
X124162500Y-107912500D02*
X124162500Y-106043135D01*
X124162500Y-106043135D02*
X124950000Y-105255635D01*
X124950000Y-105255635D02*
X124950000Y-105000000D01*
X123662500Y-107912500D02*
X123662500Y-105906739D01*
X123662500Y-105906739D02*
X124300000Y-105269239D01*
X124300000Y-105269239D02*
X124300000Y-104250000D01*
X121662500Y-107912500D02*
X121662500Y-105868135D01*
X121662500Y-105868135D02*
X121050000Y-105255635D01*
X121050000Y-105255635D02*
X121050000Y-105000000D01*
X122162500Y-107912500D02*
X122162500Y-105731739D01*
X122162500Y-105731739D02*
X121700000Y-105269239D01*
X121700000Y-105269239D02*
X121700000Y-104250000D01*
X123162500Y-107912500D02*
X123162500Y-105487500D01*
X123162500Y-105487500D02*
X123650000Y-105000000D01*
X122662500Y-107912500D02*
X122662500Y-105312500D01*
X122662500Y-105312500D02*
X122350000Y-105000000D01*
G04 #@! TA.AperFunction,Conductor*
G36*
X109906314Y-108225381D02*
G01*
X109932572Y-108246399D01*
X110064542Y-108385315D01*
X110092886Y-108433380D01*
X110259231Y-108960137D01*
X110264898Y-108992772D01*
X110293459Y-109744877D01*
X110287976Y-109786335D01*
X109844264Y-111216074D01*
X109844264Y-111216076D01*
X109848676Y-111220488D01*
X109882161Y-111281811D01*
X109877703Y-111350064D01*
X109764263Y-111666075D01*
X109899955Y-111722223D01*
X109954374Y-111766044D01*
X109976463Y-111832330D01*
X109961793Y-111889895D01*
X109964263Y-111896074D01*
X109964264Y-111896074D01*
X109964264Y-111896075D01*
X109964848Y-111896148D01*
X110028926Y-111923995D01*
X110067778Y-111982066D01*
X110069067Y-112051924D01*
X110064597Y-112065242D01*
X110024264Y-112166072D01*
X110024263Y-112166078D01*
X110014264Y-112306074D01*
X110014264Y-112306075D01*
X110254264Y-112566075D01*
X110534264Y-112666075D01*
X110771412Y-112732773D01*
X110830617Y-112769872D01*
X110860367Y-112833092D01*
X110861411Y-112841844D01*
X110888372Y-113165382D01*
X110874322Y-113233824D01*
X110836309Y-113276983D01*
X110554263Y-113476074D01*
X110709887Y-113609466D01*
X110747977Y-113668040D01*
X110751065Y-113726465D01*
X110710793Y-113941252D01*
X110680324Y-114002191D01*
X110613824Y-114074736D01*
X110567277Y-114106547D01*
X109936312Y-114351399D01*
X109911512Y-114358165D01*
X109314277Y-114456072D01*
X108384258Y-114616076D01*
X107994263Y-114756074D01*
X107704264Y-114936074D01*
X107674265Y-115036067D01*
X107674261Y-115036087D01*
X107648215Y-115244462D01*
X107625565Y-115301866D01*
X107363992Y-115662656D01*
X107341349Y-115686469D01*
X107115111Y-115868563D01*
X107080358Y-115882933D01*
X107072975Y-115899601D01*
X107056097Y-115916063D01*
X106967463Y-115987403D01*
X106915117Y-116012175D01*
X106538445Y-116091013D01*
X106489992Y-116091482D01*
X106163935Y-116029796D01*
X106126765Y-116016353D01*
X105986539Y-115938450D01*
X105937496Y-115888685D01*
X105937478Y-115888600D01*
X105871255Y-115874395D01*
X105870146Y-115873786D01*
X105712360Y-115786127D01*
X105680414Y-115760687D01*
X105244264Y-115276075D01*
X105233950Y-115266074D01*
X104914264Y-114956075D01*
X104856928Y-114936074D01*
X104684934Y-114876076D01*
X105954264Y-114876076D01*
X105974263Y-115086074D01*
X105974264Y-115086075D01*
X106134264Y-115266075D01*
X106348647Y-115330390D01*
X106407202Y-115368507D01*
X106435854Y-115432232D01*
X106425506Y-115501331D01*
X106379442Y-115553866D01*
X106363900Y-115562238D01*
X106044262Y-115706075D01*
X106044302Y-115706253D01*
X106045346Y-115706062D01*
X106924264Y-115696075D01*
X106924261Y-115696074D01*
X106924263Y-115696074D01*
X106550744Y-115563786D01*
X106494122Y-115522850D01*
X106468621Y-115457800D01*
X106482336Y-115389290D01*
X106530914Y-115339070D01*
X106564251Y-115326077D01*
X106694264Y-115296075D01*
X106874264Y-115086075D01*
X106894264Y-114816075D01*
X106774264Y-114696075D01*
X106774263Y-114696074D01*
X106594264Y-114626075D01*
X106394264Y-114606075D01*
X106394263Y-114606075D01*
X106394262Y-114606075D01*
X106074263Y-114696075D01*
X105954264Y-114876072D01*
X105954264Y-114876076D01*
X104684934Y-114876076D01*
X104054264Y-114656075D01*
X104054259Y-114656074D01*
X104054256Y-114656073D01*
X103162923Y-114487710D01*
X103145926Y-114483232D01*
X102748868Y-114347871D01*
X102691767Y-114307608D01*
X102691595Y-114307391D01*
X102280847Y-113787669D01*
X102254722Y-113722867D01*
X102267780Y-113654228D01*
X102275789Y-113640768D01*
X102333737Y-113556075D01*
X107074263Y-113556075D01*
X107074264Y-113556074D01*
X107074264Y-113556075D01*
X107284264Y-113506075D01*
X108434264Y-112896075D01*
X108424264Y-112826075D01*
X108424263Y-112826073D01*
X108024265Y-112686075D01*
X108024264Y-112686075D01*
X107984265Y-112690923D01*
X107694265Y-112726074D01*
X107484263Y-112796075D01*
X107264263Y-112996075D01*
X107074263Y-113556074D01*
X107074263Y-113556075D01*
X102333737Y-113556075D01*
X102354264Y-113526075D01*
X102258429Y-113476074D01*
X102155524Y-113422384D01*
X102106263Y-113375758D01*
X102082378Y-113335531D01*
X102065080Y-113267842D01*
X102087123Y-113201541D01*
X102141513Y-113157682D01*
X102192998Y-113148292D01*
X102434264Y-113156075D01*
X102239337Y-113004465D01*
X102198505Y-112947768D01*
X102194807Y-112877997D01*
X102229417Y-112817301D01*
X102250909Y-112806075D01*
X104584264Y-112806075D01*
X104614263Y-112916073D01*
X104614265Y-112916077D01*
X104764260Y-113136071D01*
X104764265Y-113136076D01*
X104994262Y-113296074D01*
X104994264Y-113296075D01*
X105388010Y-113386074D01*
X105694263Y-113456075D01*
X105694263Y-113456074D01*
X105694264Y-113456075D01*
X105714264Y-113386075D01*
X105384264Y-112846075D01*
X104944264Y-112726075D01*
X104584264Y-112806075D01*
X102250909Y-112806075D01*
X102291347Y-112784953D01*
X102295070Y-112784273D01*
X102704264Y-112716075D01*
X103004264Y-112466075D01*
X103194264Y-112176075D01*
X103194263Y-112176074D01*
X103194264Y-112176074D01*
X103148547Y-112142549D01*
X103106127Y-112087031D01*
X103100456Y-112017392D01*
X103125047Y-111965096D01*
X103204264Y-111866075D01*
X103114264Y-111386075D01*
X102902920Y-111001813D01*
X102890429Y-110968523D01*
X102637935Y-109812878D01*
X102635304Y-109778909D01*
X102659719Y-109376075D01*
X102692640Y-108832868D01*
X102706823Y-108782352D01*
X102938110Y-108345476D01*
X102986873Y-108295439D01*
X103018601Y-108282959D01*
X103220528Y-108234218D01*
X103287324Y-108236626D01*
X103713178Y-108372537D01*
X103734495Y-108381612D01*
X104563892Y-108830462D01*
X104583395Y-108843546D01*
X104853829Y-109064810D01*
X105124264Y-109286075D01*
X105220932Y-109244645D01*
X105290303Y-109236331D01*
X105308988Y-109240983D01*
X105564264Y-109326075D01*
X105564269Y-109326076D01*
X105564267Y-109326076D01*
X105814263Y-109376075D01*
X105814263Y-109376074D01*
X105814264Y-109376075D01*
X106162744Y-109266552D01*
X106165796Y-109265637D01*
X106425721Y-109191372D01*
X106463540Y-109186659D01*
X106774264Y-109196075D01*
X107200951Y-109205350D01*
X107262725Y-109223399D01*
X107464264Y-109346075D01*
X107621010Y-109326481D01*
X107627517Y-109325842D01*
X107904264Y-109306075D01*
X108054074Y-109176238D01*
X108054422Y-109175940D01*
X108577021Y-108732224D01*
X108592373Y-108721095D01*
X109060939Y-108433380D01*
X109143956Y-108382405D01*
X109165597Y-108371859D01*
X109565272Y-108223142D01*
X109604512Y-108215421D01*
X109838674Y-108207868D01*
X109906314Y-108225381D01*
G37*
G04 #@! TD.AperFunction*
M02*
