M48
; DRILL file {KiCad 7.0.10-7.0.10~ubuntu20.04.1} date Wed 01 May 2024 22:26:14 CEST
; FORMAT={-:-/ absolute / metric / decimal}
; #@! TF.CreationDate,2024-05-01T22:26:14+02:00
; #@! TF.GenerationSoftware,Kicad,Pcbnew,7.0.10-7.0.10~ubuntu20.04.1
; #@! TF.FileFunction,Plated,1,2,PTH
FMAT,2
METRIC
; #@! TA.AperFunction,Plated,PTH,ViaDrill
T1C0.350
; #@! TA.AperFunction,Plated,PTH,ComponentDrill
T2C0.600
; #@! TA.AperFunction,Plated,PTH,ComponentDrill
T3C1.000
; #@! TA.AperFunction,Plated,PTH,ComponentDrill
T4C1.092
; #@! TA.AperFunction,Plated,PTH,ComponentDrill
T5C1.100
; #@! TA.AperFunction,Plated,PTH,ComponentDrill
T6C1.300
; #@! TA.AperFunction,Plated,PTH,ComponentDrill
T7C1.702
%
G90
G05
T1
X84.4Y-100.75
X85.65Y-83.5
X90.131Y-86.3
X90.131Y-91.1
X91.031Y-85.5
X91.031Y-91.9
X92.15Y-103.0
X92.15Y-107.25
X95.4Y-87.0
X96.65Y-90.5
X100.65Y-90.75
X102.15Y-77.25
X102.9Y-78.0
X102.9Y-86.0
X103.216Y-107.5
X103.716Y-94.75
X103.716Y-97.35
X104.966Y-102.75
X105.216Y-98.75
X106.716Y-98.75
X107.716Y-102.5
X107.9Y-75.0
X108.466Y-98.75
X108.65Y-85.25
X108.716Y-102.75
X109.816Y-107.4
X109.9Y-100.0
X111.216Y-98.75
X112.466Y-100.75
X114.15Y-78.5
X114.85Y-70.3
X114.9Y-64.25
X116.65Y-78.5
X117.4Y-97.25
X117.65Y-90.25
X117.65Y-99.75
X117.9Y-96.5
X119.15Y-78.5
X119.65Y-88.0
X120.65Y-87.0
X120.65Y-96.0
X120.65Y-97.0
X120.65Y-99.25
X121.05Y-105.0
X121.15Y-101.25
X121.7Y-89.25
X121.7Y-90.5
X121.7Y-104.25
X121.9Y-94.0
X122.15Y-101.25
X122.35Y-105.0
X122.4Y-95.5
X122.9Y-69.25
X123.0Y-93.25
X123.4Y-85.25
X123.65Y-95.5
X123.65Y-105.0
X124.3Y-104.25
X124.65Y-109.25
X124.9Y-89.0
X124.95Y-101.25
X124.95Y-105.0
X125.4Y-88.0
X125.4Y-106.0
X125.65Y-89.5
X126.25Y-105.0
X126.4Y-114.75
X126.9Y-93.25
X127.15Y-89.0
X127.55Y-104.25
X127.9Y-90.25
X128.4Y-88.75
X128.85Y-101.25
X128.9Y-111.75
X129.15Y-106.75
X129.15Y-113.5
X129.5Y-90.5
X129.5Y-104.25
X130.15Y-84.75
X130.15Y-89.5
X130.65Y-65.25
X131.45Y-101.25
X131.45Y-105.0
X131.65Y-112.0
X131.65Y-115.0
X132.1Y-90.5
X132.15Y-65.25
X132.75Y-89.5
X132.75Y-105.5
X133.4Y-88.75
X133.4Y-104.5
X133.65Y-65.25
X133.65Y-110.0
X134.05Y-105.5
X134.7Y-92.5
X134.7Y-104.75
X135.15Y-65.25
X135.65Y-85.0
X135.65Y-109.25
X136.0Y-99.25
X136.0Y-104.25
X136.15Y-101.75
X136.4Y-86.5
X136.4Y-106.25
X136.65Y-98.25
X136.65Y-105.0
X137.3Y-97.5
X137.4Y-101.75
X137.65Y-65.25
X137.65Y-115.25
X137.9Y-111.25
X137.9Y-113.0
X137.95Y-96.75
X137.95Y-105.0
X137.95Y-106.0
X138.6Y-96.0
X138.9Y-90.0
X139.15Y-87.0
X139.25Y-96.75
X139.25Y-105.5
X140.15Y-88.0
X141.85Y-105.0
X141.9Y-99.5
X141.9Y-103.0
X141.9Y-104.0
X142.15Y-95.25
X142.4Y-101.0
X143.4Y-83.25
X143.55Y-95.2
X144.15Y-77.75
X144.4Y-102.5
X144.4Y-105.75
X144.95Y-94.0
X146.15Y-101.0
X148.15Y-91.5
X148.65Y-92.25
X152.65Y-84.5
X153.15Y-78.7
X153.15Y-80.7
X153.15Y-99.1
X153.15Y-101.1
X153.4Y-95.25
X155.65Y-76.25
T3
X91.15Y-114.725
X91.2Y-64.46
X91.2Y-67.0
X93.69Y-114.725
X93.74Y-64.46
X93.74Y-67.0
X96.23Y-114.725
X96.28Y-64.46
X96.28Y-67.0
X98.77Y-114.725
X98.82Y-64.46
X98.82Y-67.0
X101.36Y-64.46
X101.36Y-67.0
X103.9Y-64.46
X103.9Y-67.0
X114.57Y-114.725
X117.11Y-114.725
X119.65Y-114.725
X146.53Y-114.75
X149.07Y-64.5
X149.07Y-67.04
X149.07Y-114.75
X151.61Y-64.5
X151.61Y-67.04
X151.61Y-114.75
X154.15Y-64.5
X154.15Y-67.04
X154.15Y-114.75
T4
X106.161Y-72.856
X106.161Y-78.749
X108.65Y-72.856
X108.65Y-78.749
T5
X124.15Y-73.0
X124.15Y-79.5
X128.65Y-73.0
X128.65Y-79.5
X137.9Y-73.0
X137.9Y-79.5
X142.4Y-73.0
X142.4Y-79.5
T6
X126.95Y-62.6
X127.55Y-67.5
X142.05Y-67.5
X142.65Y-62.6
T7
X116.4Y-65.25
X116.4Y-72.25
T2
X84.631Y-84.36G85X83.831Y-84.36
G05
X84.631Y-93.0G85X83.831Y-93.0
G05
X88.961Y-84.36G85X87.861Y-84.36
G05
X88.961Y-93.0G85X87.861Y-93.0
G05
X153.9Y-73.35G85X155.6Y-73.35
G05
X153.9Y-86.15G85X155.6Y-86.15
G05
X153.9Y-93.75G85X155.6Y-93.75
G05
X153.9Y-106.55G85X155.6Y-106.55
G05
M30
