G04 #@! TF.GenerationSoftware,KiCad,Pcbnew,7.0.10-7.0.10~ubuntu20.04.1*
G04 #@! TF.CreationDate,2024-05-01T22:25:19+02:00*
G04 #@! TF.ProjectId,endeavour,656e6465-6176-46f7-9572-2e6b69636164,rev?*
G04 #@! TF.SameCoordinates,Original*
G04 #@! TF.FileFunction,Legend,Top*
G04 #@! TF.FilePolarity,Positive*
%FSLAX46Y46*%
G04 Gerber Fmt 4.6, Leading zero omitted, Abs format (unit mm)*
G04 Created by KiCad (PCBNEW 7.0.10-7.0.10~ubuntu20.04.1) date 2024-05-01 22:25:19*
%MOMM*%
%LPD*%
G01*
G04 APERTURE LIST*
G04 Aperture macros list*
%AMRoundRect*
0 Rectangle with rounded corners*
0 $1 Rounding radius*
0 $2 $3 $4 $5 $6 $7 $8 $9 X,Y pos of 4 corners*
0 Add a 4 corners polygon primitive as box body*
4,1,4,$2,$3,$4,$5,$6,$7,$8,$9,$2,$3,0*
0 Add four circle primitives for the rounded corners*
1,1,$1+$1,$2,$3*
1,1,$1+$1,$4,$5*
1,1,$1+$1,$6,$7*
1,1,$1+$1,$8,$9*
0 Add four rect primitives between the rounded corners*
20,1,$1+$1,$2,$3,$4,$5,0*
20,1,$1+$1,$4,$5,$6,$7,0*
20,1,$1+$1,$6,$7,$8,$9,0*
20,1,$1+$1,$8,$9,$2,$3,0*%
G04 Aperture macros list end*
%ADD10C,0.153000*%
%ADD11C,0.160000*%
%ADD12C,0.150000*%
%ADD13C,0.120000*%
%ADD14C,0.200000*%
%ADD15C,0.127000*%
%ADD16C,0.508000*%
%ADD17C,0.152400*%
%ADD18R,1.700000X1.700000*%
%ADD19O,1.700000X1.700000*%
%ADD20C,2.200000*%
%ADD21RoundRect,0.218750X0.256250X-0.218750X0.256250X0.218750X-0.256250X0.218750X-0.256250X-0.218750X0*%
%ADD22RoundRect,0.218750X-0.218750X-0.256250X0.218750X-0.256250X0.218750X0.256250X-0.218750X0.256250X0*%
%ADD23RoundRect,0.102000X-0.600000X-1.250000X0.600000X-1.250000X0.600000X1.250000X-0.600000X1.250000X0*%
%ADD24R,1.350000X1.900000*%
%ADD25R,1.800000X1.170000*%
%ADD26R,1.350000X1.550000*%
%ADD27R,1.000000X1.200000*%
%ADD28R,1.100000X0.750000*%
%ADD29R,1.100000X0.850000*%
%ADD30R,8.930000X8.700000*%
%ADD31RoundRect,0.075000X-0.075000X-0.662500X0.075000X-0.662500X0.075000X0.662500X-0.075000X0.662500X0*%
%ADD32RoundRect,0.075000X-0.662500X-0.075000X0.662500X-0.075000X0.662500X0.075000X-0.662500X0.075000X0*%
%ADD33O,2.900000X1.200000*%
%ADD34RoundRect,0.325000X1.175000X-0.325000X1.175000X0.325000X-1.175000X0.325000X-1.175000X-0.325000X0*%
%ADD35C,1.800000*%
%ADD36R,0.300000X1.900000*%
%ADD37C,1.600200*%
%ADD38C,1.905000*%
%ADD39C,2.209800*%
%ADD40R,2.794000X2.209800*%
%ADD41R,2.794000X2.794000*%
%ADD42R,0.300000X1.400000*%
%ADD43RoundRect,0.102000X-0.565000X1.220000X-0.565000X-1.220000X0.565000X-1.220000X0.565000X1.220000X0*%
%ADD44O,1.800000X1.000000*%
%ADD45O,2.100000X1.000000*%
%ADD46RoundRect,0.150000X-0.425000X0.150000X-0.425000X-0.150000X0.425000X-0.150000X0.425000X0.150000X0*%
%ADD47RoundRect,0.075000X-0.500000X0.075000X-0.500000X-0.075000X0.500000X-0.075000X0.500000X0.075000X0*%
%ADD48C,0.650000*%
%ADD49C,2.000000*%
%ADD50RoundRect,0.200000X0.275000X-0.200000X0.275000X0.200000X-0.275000X0.200000X-0.275000X-0.200000X0*%
%ADD51RoundRect,0.200000X-0.200000X-0.275000X0.200000X-0.275000X0.200000X0.275000X-0.200000X0.275000X0*%
%ADD52RoundRect,0.200000X-0.275000X0.200000X-0.275000X-0.200000X0.275000X-0.200000X0.275000X0.200000X0*%
%ADD53RoundRect,0.225000X-0.225000X-0.250000X0.225000X-0.250000X0.225000X0.250000X-0.225000X0.250000X0*%
%ADD54RoundRect,0.225000X0.250000X-0.225000X0.250000X0.225000X-0.250000X0.225000X-0.250000X-0.225000X0*%
G04 APERTURE END LIST*
D10*
X151488752Y-70869663D02*
X151488752Y-71679186D01*
X151488752Y-71679186D02*
X151536371Y-71774424D01*
X151536371Y-71774424D02*
X151583990Y-71822044D01*
X151583990Y-71822044D02*
X151679228Y-71869663D01*
X151679228Y-71869663D02*
X151869704Y-71869663D01*
X151869704Y-71869663D02*
X151964942Y-71822044D01*
X151964942Y-71822044D02*
X152012561Y-71774424D01*
X152012561Y-71774424D02*
X152060180Y-71679186D01*
X152060180Y-71679186D02*
X152060180Y-70869663D01*
X152488752Y-71822044D02*
X152631609Y-71869663D01*
X152631609Y-71869663D02*
X152869704Y-71869663D01*
X152869704Y-71869663D02*
X152964942Y-71822044D01*
X152964942Y-71822044D02*
X153012561Y-71774424D01*
X153012561Y-71774424D02*
X153060180Y-71679186D01*
X153060180Y-71679186D02*
X153060180Y-71583948D01*
X153060180Y-71583948D02*
X153012561Y-71488710D01*
X153012561Y-71488710D02*
X152964942Y-71441091D01*
X152964942Y-71441091D02*
X152869704Y-71393472D01*
X152869704Y-71393472D02*
X152679228Y-71345853D01*
X152679228Y-71345853D02*
X152583990Y-71298234D01*
X152583990Y-71298234D02*
X152536371Y-71250615D01*
X152536371Y-71250615D02*
X152488752Y-71155377D01*
X152488752Y-71155377D02*
X152488752Y-71060139D01*
X152488752Y-71060139D02*
X152536371Y-70964901D01*
X152536371Y-70964901D02*
X152583990Y-70917282D01*
X152583990Y-70917282D02*
X152679228Y-70869663D01*
X152679228Y-70869663D02*
X152917323Y-70869663D01*
X152917323Y-70869663D02*
X153060180Y-70917282D01*
X153822085Y-71345853D02*
X153964942Y-71393472D01*
X153964942Y-71393472D02*
X154012561Y-71441091D01*
X154012561Y-71441091D02*
X154060180Y-71536329D01*
X154060180Y-71536329D02*
X154060180Y-71679186D01*
X154060180Y-71679186D02*
X154012561Y-71774424D01*
X154012561Y-71774424D02*
X153964942Y-71822044D01*
X153964942Y-71822044D02*
X153869704Y-71869663D01*
X153869704Y-71869663D02*
X153488752Y-71869663D01*
X153488752Y-71869663D02*
X153488752Y-70869663D01*
X153488752Y-70869663D02*
X153822085Y-70869663D01*
X153822085Y-70869663D02*
X153917323Y-70917282D01*
X153917323Y-70917282D02*
X153964942Y-70964901D01*
X153964942Y-70964901D02*
X154012561Y-71060139D01*
X154012561Y-71060139D02*
X154012561Y-71155377D01*
X154012561Y-71155377D02*
X153964942Y-71250615D01*
X153964942Y-71250615D02*
X153917323Y-71298234D01*
X153917323Y-71298234D02*
X153822085Y-71345853D01*
X153822085Y-71345853D02*
X153488752Y-71345853D01*
X155203038Y-70964901D02*
X155250657Y-70917282D01*
X155250657Y-70917282D02*
X155345895Y-70869663D01*
X155345895Y-70869663D02*
X155583990Y-70869663D01*
X155583990Y-70869663D02*
X155679228Y-70917282D01*
X155679228Y-70917282D02*
X155726847Y-70964901D01*
X155726847Y-70964901D02*
X155774466Y-71060139D01*
X155774466Y-71060139D02*
X155774466Y-71155377D01*
X155774466Y-71155377D02*
X155726847Y-71298234D01*
X155726847Y-71298234D02*
X155155419Y-71869663D01*
X155155419Y-71869663D02*
X155774466Y-71869663D01*
X151488752Y-91219663D02*
X151488752Y-92029186D01*
X151488752Y-92029186D02*
X151536371Y-92124424D01*
X151536371Y-92124424D02*
X151583990Y-92172044D01*
X151583990Y-92172044D02*
X151679228Y-92219663D01*
X151679228Y-92219663D02*
X151869704Y-92219663D01*
X151869704Y-92219663D02*
X151964942Y-92172044D01*
X151964942Y-92172044D02*
X152012561Y-92124424D01*
X152012561Y-92124424D02*
X152060180Y-92029186D01*
X152060180Y-92029186D02*
X152060180Y-91219663D01*
X152488752Y-92172044D02*
X152631609Y-92219663D01*
X152631609Y-92219663D02*
X152869704Y-92219663D01*
X152869704Y-92219663D02*
X152964942Y-92172044D01*
X152964942Y-92172044D02*
X153012561Y-92124424D01*
X153012561Y-92124424D02*
X153060180Y-92029186D01*
X153060180Y-92029186D02*
X153060180Y-91933948D01*
X153060180Y-91933948D02*
X153012561Y-91838710D01*
X153012561Y-91838710D02*
X152964942Y-91791091D01*
X152964942Y-91791091D02*
X152869704Y-91743472D01*
X152869704Y-91743472D02*
X152679228Y-91695853D01*
X152679228Y-91695853D02*
X152583990Y-91648234D01*
X152583990Y-91648234D02*
X152536371Y-91600615D01*
X152536371Y-91600615D02*
X152488752Y-91505377D01*
X152488752Y-91505377D02*
X152488752Y-91410139D01*
X152488752Y-91410139D02*
X152536371Y-91314901D01*
X152536371Y-91314901D02*
X152583990Y-91267282D01*
X152583990Y-91267282D02*
X152679228Y-91219663D01*
X152679228Y-91219663D02*
X152917323Y-91219663D01*
X152917323Y-91219663D02*
X153060180Y-91267282D01*
X153822085Y-91695853D02*
X153964942Y-91743472D01*
X153964942Y-91743472D02*
X154012561Y-91791091D01*
X154012561Y-91791091D02*
X154060180Y-91886329D01*
X154060180Y-91886329D02*
X154060180Y-92029186D01*
X154060180Y-92029186D02*
X154012561Y-92124424D01*
X154012561Y-92124424D02*
X153964942Y-92172044D01*
X153964942Y-92172044D02*
X153869704Y-92219663D01*
X153869704Y-92219663D02*
X153488752Y-92219663D01*
X153488752Y-92219663D02*
X153488752Y-91219663D01*
X153488752Y-91219663D02*
X153822085Y-91219663D01*
X153822085Y-91219663D02*
X153917323Y-91267282D01*
X153917323Y-91267282D02*
X153964942Y-91314901D01*
X153964942Y-91314901D02*
X154012561Y-91410139D01*
X154012561Y-91410139D02*
X154012561Y-91505377D01*
X154012561Y-91505377D02*
X153964942Y-91600615D01*
X153964942Y-91600615D02*
X153917323Y-91648234D01*
X153917323Y-91648234D02*
X153822085Y-91695853D01*
X153822085Y-91695853D02*
X153488752Y-91695853D01*
X155774466Y-92219663D02*
X155203038Y-92219663D01*
X155488752Y-92219663D02*
X155488752Y-91219663D01*
X155488752Y-91219663D02*
X155393514Y-91362520D01*
X155393514Y-91362520D02*
X155298276Y-91457758D01*
X155298276Y-91457758D02*
X155203038Y-91505377D01*
X155917323Y-66452996D02*
X155917323Y-67262520D01*
X155917323Y-67262520D02*
X155869704Y-67357758D01*
X155869704Y-67357758D02*
X155822085Y-67405377D01*
X155822085Y-67405377D02*
X155726847Y-67452996D01*
X155726847Y-67452996D02*
X155583990Y-67452996D01*
X155583990Y-67452996D02*
X155488752Y-67405377D01*
X155917323Y-67072044D02*
X155822085Y-67119663D01*
X155822085Y-67119663D02*
X155631609Y-67119663D01*
X155631609Y-67119663D02*
X155536371Y-67072044D01*
X155536371Y-67072044D02*
X155488752Y-67024424D01*
X155488752Y-67024424D02*
X155441133Y-66929186D01*
X155441133Y-66929186D02*
X155441133Y-66643472D01*
X155441133Y-66643472D02*
X155488752Y-66548234D01*
X155488752Y-66548234D02*
X155536371Y-66500615D01*
X155536371Y-66500615D02*
X155631609Y-66452996D01*
X155631609Y-66452996D02*
X155822085Y-66452996D01*
X155822085Y-66452996D02*
X155917323Y-66500615D01*
X156917323Y-67119663D02*
X156345895Y-67119663D01*
X156631609Y-67119663D02*
X156631609Y-66119663D01*
X156631609Y-66119663D02*
X156536371Y-66262520D01*
X156536371Y-66262520D02*
X156441133Y-66357758D01*
X156441133Y-66357758D02*
X156345895Y-66405377D01*
X157536371Y-66119663D02*
X157631609Y-66119663D01*
X157631609Y-66119663D02*
X157726847Y-66167282D01*
X157726847Y-66167282D02*
X157774466Y-66214901D01*
X157774466Y-66214901D02*
X157822085Y-66310139D01*
X157822085Y-66310139D02*
X157869704Y-66500615D01*
X157869704Y-66500615D02*
X157869704Y-66738710D01*
X157869704Y-66738710D02*
X157822085Y-66929186D01*
X157822085Y-66929186D02*
X157774466Y-67024424D01*
X157774466Y-67024424D02*
X157726847Y-67072044D01*
X157726847Y-67072044D02*
X157631609Y-67119663D01*
X157631609Y-67119663D02*
X157536371Y-67119663D01*
X157536371Y-67119663D02*
X157441133Y-67072044D01*
X157441133Y-67072044D02*
X157393514Y-67024424D01*
X157393514Y-67024424D02*
X157345895Y-66929186D01*
X157345895Y-66929186D02*
X157298276Y-66738710D01*
X157298276Y-66738710D02*
X157298276Y-66500615D01*
X157298276Y-66500615D02*
X157345895Y-66310139D01*
X157345895Y-66310139D02*
X157393514Y-66214901D01*
X157393514Y-66214901D02*
X157441133Y-66167282D01*
X157441133Y-66167282D02*
X157536371Y-66119663D01*
X158488752Y-66119663D02*
X158583990Y-66119663D01*
X158583990Y-66119663D02*
X158679228Y-66167282D01*
X158679228Y-66167282D02*
X158726847Y-66214901D01*
X158726847Y-66214901D02*
X158774466Y-66310139D01*
X158774466Y-66310139D02*
X158822085Y-66500615D01*
X158822085Y-66500615D02*
X158822085Y-66738710D01*
X158822085Y-66738710D02*
X158774466Y-66929186D01*
X158774466Y-66929186D02*
X158726847Y-67024424D01*
X158726847Y-67024424D02*
X158679228Y-67072044D01*
X158679228Y-67072044D02*
X158583990Y-67119663D01*
X158583990Y-67119663D02*
X158488752Y-67119663D01*
X158488752Y-67119663D02*
X158393514Y-67072044D01*
X158393514Y-67072044D02*
X158345895Y-67024424D01*
X158345895Y-67024424D02*
X158298276Y-66929186D01*
X158298276Y-66929186D02*
X158250657Y-66738710D01*
X158250657Y-66738710D02*
X158250657Y-66500615D01*
X158250657Y-66500615D02*
X158298276Y-66310139D01*
X158298276Y-66310139D02*
X158345895Y-66214901D01*
X158345895Y-66214901D02*
X158393514Y-66167282D01*
X158393514Y-66167282D02*
X158488752Y-66119663D01*
X156012561Y-64167282D02*
X155917323Y-64119663D01*
X155917323Y-64119663D02*
X155774466Y-64119663D01*
X155774466Y-64119663D02*
X155631609Y-64167282D01*
X155631609Y-64167282D02*
X155536371Y-64262520D01*
X155536371Y-64262520D02*
X155488752Y-64357758D01*
X155488752Y-64357758D02*
X155441133Y-64548234D01*
X155441133Y-64548234D02*
X155441133Y-64691091D01*
X155441133Y-64691091D02*
X155488752Y-64881567D01*
X155488752Y-64881567D02*
X155536371Y-64976805D01*
X155536371Y-64976805D02*
X155631609Y-65072044D01*
X155631609Y-65072044D02*
X155774466Y-65119663D01*
X155774466Y-65119663D02*
X155869704Y-65119663D01*
X155869704Y-65119663D02*
X156012561Y-65072044D01*
X156012561Y-65072044D02*
X156060180Y-65024424D01*
X156060180Y-65024424D02*
X156060180Y-64691091D01*
X156060180Y-64691091D02*
X155869704Y-64691091D01*
X156488752Y-65119663D02*
X156488752Y-64119663D01*
X156488752Y-64119663D02*
X157060180Y-65119663D01*
X157060180Y-65119663D02*
X157060180Y-64119663D01*
X157536371Y-65119663D02*
X157536371Y-64119663D01*
X157536371Y-64119663D02*
X157774466Y-64119663D01*
X157774466Y-64119663D02*
X157917323Y-64167282D01*
X157917323Y-64167282D02*
X158012561Y-64262520D01*
X158012561Y-64262520D02*
X158060180Y-64357758D01*
X158060180Y-64357758D02*
X158107799Y-64548234D01*
X158107799Y-64548234D02*
X158107799Y-64691091D01*
X158107799Y-64691091D02*
X158060180Y-64881567D01*
X158060180Y-64881567D02*
X158012561Y-64976805D01*
X158012561Y-64976805D02*
X157917323Y-65072044D01*
X157917323Y-65072044D02*
X157774466Y-65119663D01*
X157774466Y-65119663D02*
X157536371Y-65119663D01*
X150917323Y-62452996D02*
X150917323Y-63262520D01*
X150917323Y-63262520D02*
X150869704Y-63357758D01*
X150869704Y-63357758D02*
X150822085Y-63405377D01*
X150822085Y-63405377D02*
X150726847Y-63452996D01*
X150726847Y-63452996D02*
X150583990Y-63452996D01*
X150583990Y-63452996D02*
X150488752Y-63405377D01*
X150917323Y-63072044D02*
X150822085Y-63119663D01*
X150822085Y-63119663D02*
X150631609Y-63119663D01*
X150631609Y-63119663D02*
X150536371Y-63072044D01*
X150536371Y-63072044D02*
X150488752Y-63024424D01*
X150488752Y-63024424D02*
X150441133Y-62929186D01*
X150441133Y-62929186D02*
X150441133Y-62643472D01*
X150441133Y-62643472D02*
X150488752Y-62548234D01*
X150488752Y-62548234D02*
X150536371Y-62500615D01*
X150536371Y-62500615D02*
X150631609Y-62452996D01*
X150631609Y-62452996D02*
X150822085Y-62452996D01*
X150822085Y-62452996D02*
X150917323Y-62500615D01*
X151917323Y-63119663D02*
X151345895Y-63119663D01*
X151631609Y-63119663D02*
X151631609Y-62119663D01*
X151631609Y-62119663D02*
X151536371Y-62262520D01*
X151536371Y-62262520D02*
X151441133Y-62357758D01*
X151441133Y-62357758D02*
X151345895Y-62405377D01*
X152536371Y-62119663D02*
X152631609Y-62119663D01*
X152631609Y-62119663D02*
X152726847Y-62167282D01*
X152726847Y-62167282D02*
X152774466Y-62214901D01*
X152774466Y-62214901D02*
X152822085Y-62310139D01*
X152822085Y-62310139D02*
X152869704Y-62500615D01*
X152869704Y-62500615D02*
X152869704Y-62738710D01*
X152869704Y-62738710D02*
X152822085Y-62929186D01*
X152822085Y-62929186D02*
X152774466Y-63024424D01*
X152774466Y-63024424D02*
X152726847Y-63072044D01*
X152726847Y-63072044D02*
X152631609Y-63119663D01*
X152631609Y-63119663D02*
X152536371Y-63119663D01*
X152536371Y-63119663D02*
X152441133Y-63072044D01*
X152441133Y-63072044D02*
X152393514Y-63024424D01*
X152393514Y-63024424D02*
X152345895Y-62929186D01*
X152345895Y-62929186D02*
X152298276Y-62738710D01*
X152298276Y-62738710D02*
X152298276Y-62500615D01*
X152298276Y-62500615D02*
X152345895Y-62310139D01*
X152345895Y-62310139D02*
X152393514Y-62214901D01*
X152393514Y-62214901D02*
X152441133Y-62167282D01*
X152441133Y-62167282D02*
X152536371Y-62119663D01*
X153250657Y-62214901D02*
X153298276Y-62167282D01*
X153298276Y-62167282D02*
X153393514Y-62119663D01*
X153393514Y-62119663D02*
X153631609Y-62119663D01*
X153631609Y-62119663D02*
X153726847Y-62167282D01*
X153726847Y-62167282D02*
X153774466Y-62214901D01*
X153774466Y-62214901D02*
X153822085Y-62310139D01*
X153822085Y-62310139D02*
X153822085Y-62405377D01*
X153822085Y-62405377D02*
X153774466Y-62548234D01*
X153774466Y-62548234D02*
X153203038Y-63119663D01*
X153203038Y-63119663D02*
X153822085Y-63119663D01*
X150667323Y-68702996D02*
X150667323Y-69512520D01*
X150667323Y-69512520D02*
X150619704Y-69607758D01*
X150619704Y-69607758D02*
X150572085Y-69655377D01*
X150572085Y-69655377D02*
X150476847Y-69702996D01*
X150476847Y-69702996D02*
X150333990Y-69702996D01*
X150333990Y-69702996D02*
X150238752Y-69655377D01*
X150667323Y-69322044D02*
X150572085Y-69369663D01*
X150572085Y-69369663D02*
X150381609Y-69369663D01*
X150381609Y-69369663D02*
X150286371Y-69322044D01*
X150286371Y-69322044D02*
X150238752Y-69274424D01*
X150238752Y-69274424D02*
X150191133Y-69179186D01*
X150191133Y-69179186D02*
X150191133Y-68893472D01*
X150191133Y-68893472D02*
X150238752Y-68798234D01*
X150238752Y-68798234D02*
X150286371Y-68750615D01*
X150286371Y-68750615D02*
X150381609Y-68702996D01*
X150381609Y-68702996D02*
X150572085Y-68702996D01*
X150572085Y-68702996D02*
X150667323Y-68750615D01*
X151667323Y-69369663D02*
X151095895Y-69369663D01*
X151381609Y-69369663D02*
X151381609Y-68369663D01*
X151381609Y-68369663D02*
X151286371Y-68512520D01*
X151286371Y-68512520D02*
X151191133Y-68607758D01*
X151191133Y-68607758D02*
X151095895Y-68655377D01*
X152286371Y-68369663D02*
X152381609Y-68369663D01*
X152381609Y-68369663D02*
X152476847Y-68417282D01*
X152476847Y-68417282D02*
X152524466Y-68464901D01*
X152524466Y-68464901D02*
X152572085Y-68560139D01*
X152572085Y-68560139D02*
X152619704Y-68750615D01*
X152619704Y-68750615D02*
X152619704Y-68988710D01*
X152619704Y-68988710D02*
X152572085Y-69179186D01*
X152572085Y-69179186D02*
X152524466Y-69274424D01*
X152524466Y-69274424D02*
X152476847Y-69322044D01*
X152476847Y-69322044D02*
X152381609Y-69369663D01*
X152381609Y-69369663D02*
X152286371Y-69369663D01*
X152286371Y-69369663D02*
X152191133Y-69322044D01*
X152191133Y-69322044D02*
X152143514Y-69274424D01*
X152143514Y-69274424D02*
X152095895Y-69179186D01*
X152095895Y-69179186D02*
X152048276Y-68988710D01*
X152048276Y-68988710D02*
X152048276Y-68750615D01*
X152048276Y-68750615D02*
X152095895Y-68560139D01*
X152095895Y-68560139D02*
X152143514Y-68464901D01*
X152143514Y-68464901D02*
X152191133Y-68417282D01*
X152191133Y-68417282D02*
X152286371Y-68369663D01*
X153572085Y-69369663D02*
X153000657Y-69369663D01*
X153286371Y-69369663D02*
X153286371Y-68369663D01*
X153286371Y-68369663D02*
X153191133Y-68512520D01*
X153191133Y-68512520D02*
X153095895Y-68607758D01*
X153095895Y-68607758D02*
X153000657Y-68655377D01*
X144191133Y-63572044D02*
X144333990Y-63619663D01*
X144333990Y-63619663D02*
X144572085Y-63619663D01*
X144572085Y-63619663D02*
X144667323Y-63572044D01*
X144667323Y-63572044D02*
X144714942Y-63524424D01*
X144714942Y-63524424D02*
X144762561Y-63429186D01*
X144762561Y-63429186D02*
X144762561Y-63333948D01*
X144762561Y-63333948D02*
X144714942Y-63238710D01*
X144714942Y-63238710D02*
X144667323Y-63191091D01*
X144667323Y-63191091D02*
X144572085Y-63143472D01*
X144572085Y-63143472D02*
X144381609Y-63095853D01*
X144381609Y-63095853D02*
X144286371Y-63048234D01*
X144286371Y-63048234D02*
X144238752Y-63000615D01*
X144238752Y-63000615D02*
X144191133Y-62905377D01*
X144191133Y-62905377D02*
X144191133Y-62810139D01*
X144191133Y-62810139D02*
X144238752Y-62714901D01*
X144238752Y-62714901D02*
X144286371Y-62667282D01*
X144286371Y-62667282D02*
X144381609Y-62619663D01*
X144381609Y-62619663D02*
X144619704Y-62619663D01*
X144619704Y-62619663D02*
X144762561Y-62667282D01*
X145191133Y-63619663D02*
X145191133Y-62619663D01*
X145191133Y-62619663D02*
X145762561Y-63619663D01*
X145762561Y-63619663D02*
X145762561Y-62619663D01*
X146238752Y-63619663D02*
X146238752Y-62619663D01*
X146238752Y-62619663D02*
X146476847Y-62619663D01*
X146476847Y-62619663D02*
X146619704Y-62667282D01*
X146619704Y-62667282D02*
X146714942Y-62762520D01*
X146714942Y-62762520D02*
X146762561Y-62857758D01*
X146762561Y-62857758D02*
X146810180Y-63048234D01*
X146810180Y-63048234D02*
X146810180Y-63191091D01*
X146810180Y-63191091D02*
X146762561Y-63381567D01*
X146762561Y-63381567D02*
X146714942Y-63476805D01*
X146714942Y-63476805D02*
X146619704Y-63572044D01*
X146619704Y-63572044D02*
X146476847Y-63619663D01*
X146476847Y-63619663D02*
X146238752Y-63619663D01*
X148572085Y-63619663D02*
X148238752Y-63143472D01*
X148000657Y-63619663D02*
X148000657Y-62619663D01*
X148000657Y-62619663D02*
X148381609Y-62619663D01*
X148381609Y-62619663D02*
X148476847Y-62667282D01*
X148476847Y-62667282D02*
X148524466Y-62714901D01*
X148524466Y-62714901D02*
X148572085Y-62810139D01*
X148572085Y-62810139D02*
X148572085Y-62952996D01*
X148572085Y-62952996D02*
X148524466Y-63048234D01*
X148524466Y-63048234D02*
X148476847Y-63095853D01*
X148476847Y-63095853D02*
X148381609Y-63143472D01*
X148381609Y-63143472D02*
X148000657Y-63143472D01*
X144191133Y-68572044D02*
X144333990Y-68619663D01*
X144333990Y-68619663D02*
X144572085Y-68619663D01*
X144572085Y-68619663D02*
X144667323Y-68572044D01*
X144667323Y-68572044D02*
X144714942Y-68524424D01*
X144714942Y-68524424D02*
X144762561Y-68429186D01*
X144762561Y-68429186D02*
X144762561Y-68333948D01*
X144762561Y-68333948D02*
X144714942Y-68238710D01*
X144714942Y-68238710D02*
X144667323Y-68191091D01*
X144667323Y-68191091D02*
X144572085Y-68143472D01*
X144572085Y-68143472D02*
X144381609Y-68095853D01*
X144381609Y-68095853D02*
X144286371Y-68048234D01*
X144286371Y-68048234D02*
X144238752Y-68000615D01*
X144238752Y-68000615D02*
X144191133Y-67905377D01*
X144191133Y-67905377D02*
X144191133Y-67810139D01*
X144191133Y-67810139D02*
X144238752Y-67714901D01*
X144238752Y-67714901D02*
X144286371Y-67667282D01*
X144286371Y-67667282D02*
X144381609Y-67619663D01*
X144381609Y-67619663D02*
X144619704Y-67619663D01*
X144619704Y-67619663D02*
X144762561Y-67667282D01*
X145191133Y-68619663D02*
X145191133Y-67619663D01*
X145191133Y-67619663D02*
X145762561Y-68619663D01*
X145762561Y-68619663D02*
X145762561Y-67619663D01*
X146238752Y-68619663D02*
X146238752Y-67619663D01*
X146238752Y-67619663D02*
X146476847Y-67619663D01*
X146476847Y-67619663D02*
X146619704Y-67667282D01*
X146619704Y-67667282D02*
X146714942Y-67762520D01*
X146714942Y-67762520D02*
X146762561Y-67857758D01*
X146762561Y-67857758D02*
X146810180Y-68048234D01*
X146810180Y-68048234D02*
X146810180Y-68191091D01*
X146810180Y-68191091D02*
X146762561Y-68381567D01*
X146762561Y-68381567D02*
X146714942Y-68476805D01*
X146714942Y-68476805D02*
X146619704Y-68572044D01*
X146619704Y-68572044D02*
X146476847Y-68619663D01*
X146476847Y-68619663D02*
X146238752Y-68619663D01*
X148476847Y-68619663D02*
X148000657Y-68619663D01*
X148000657Y-68619663D02*
X148000657Y-67619663D01*
X106512561Y-63667282D02*
X106417323Y-63619663D01*
X106417323Y-63619663D02*
X106274466Y-63619663D01*
X106274466Y-63619663D02*
X106131609Y-63667282D01*
X106131609Y-63667282D02*
X106036371Y-63762520D01*
X106036371Y-63762520D02*
X105988752Y-63857758D01*
X105988752Y-63857758D02*
X105941133Y-64048234D01*
X105941133Y-64048234D02*
X105941133Y-64191091D01*
X105941133Y-64191091D02*
X105988752Y-64381567D01*
X105988752Y-64381567D02*
X106036371Y-64476805D01*
X106036371Y-64476805D02*
X106131609Y-64572044D01*
X106131609Y-64572044D02*
X106274466Y-64619663D01*
X106274466Y-64619663D02*
X106369704Y-64619663D01*
X106369704Y-64619663D02*
X106512561Y-64572044D01*
X106512561Y-64572044D02*
X106560180Y-64524424D01*
X106560180Y-64524424D02*
X106560180Y-64191091D01*
X106560180Y-64191091D02*
X106369704Y-64191091D01*
X106988752Y-64619663D02*
X106988752Y-63619663D01*
X106988752Y-63619663D02*
X107560180Y-64619663D01*
X107560180Y-64619663D02*
X107560180Y-63619663D01*
X108036371Y-64619663D02*
X108036371Y-63619663D01*
X108036371Y-63619663D02*
X108274466Y-63619663D01*
X108274466Y-63619663D02*
X108417323Y-63667282D01*
X108417323Y-63667282D02*
X108512561Y-63762520D01*
X108512561Y-63762520D02*
X108560180Y-63857758D01*
X108560180Y-63857758D02*
X108607799Y-64048234D01*
X108607799Y-64048234D02*
X108607799Y-64191091D01*
X108607799Y-64191091D02*
X108560180Y-64381567D01*
X108560180Y-64381567D02*
X108512561Y-64476805D01*
X108512561Y-64476805D02*
X108417323Y-64572044D01*
X108417323Y-64572044D02*
X108274466Y-64619663D01*
X108274466Y-64619663D02*
X108036371Y-64619663D01*
X105893514Y-66369663D02*
X106512561Y-66369663D01*
X106512561Y-66369663D02*
X106179228Y-66750615D01*
X106179228Y-66750615D02*
X106322085Y-66750615D01*
X106322085Y-66750615D02*
X106417323Y-66798234D01*
X106417323Y-66798234D02*
X106464942Y-66845853D01*
X106464942Y-66845853D02*
X106512561Y-66941091D01*
X106512561Y-66941091D02*
X106512561Y-67179186D01*
X106512561Y-67179186D02*
X106464942Y-67274424D01*
X106464942Y-67274424D02*
X106417323Y-67322044D01*
X106417323Y-67322044D02*
X106322085Y-67369663D01*
X106322085Y-67369663D02*
X106036371Y-67369663D01*
X106036371Y-67369663D02*
X105941133Y-67322044D01*
X105941133Y-67322044D02*
X105893514Y-67274424D01*
X106941133Y-67274424D02*
X106988752Y-67322044D01*
X106988752Y-67322044D02*
X106941133Y-67369663D01*
X106941133Y-67369663D02*
X106893514Y-67322044D01*
X106893514Y-67322044D02*
X106941133Y-67274424D01*
X106941133Y-67274424D02*
X106941133Y-67369663D01*
X107322085Y-66369663D02*
X107941132Y-66369663D01*
X107941132Y-66369663D02*
X107607799Y-66750615D01*
X107607799Y-66750615D02*
X107750656Y-66750615D01*
X107750656Y-66750615D02*
X107845894Y-66798234D01*
X107845894Y-66798234D02*
X107893513Y-66845853D01*
X107893513Y-66845853D02*
X107941132Y-66941091D01*
X107941132Y-66941091D02*
X107941132Y-67179186D01*
X107941132Y-67179186D02*
X107893513Y-67274424D01*
X107893513Y-67274424D02*
X107845894Y-67322044D01*
X107845894Y-67322044D02*
X107750656Y-67369663D01*
X107750656Y-67369663D02*
X107464942Y-67369663D01*
X107464942Y-67369663D02*
X107369704Y-67322044D01*
X107369704Y-67322044D02*
X107322085Y-67274424D01*
X108226847Y-66369663D02*
X108560180Y-67369663D01*
X108560180Y-67369663D02*
X108893513Y-66369663D01*
X101769663Y-70482676D02*
X101245853Y-70482676D01*
X101245853Y-70482676D02*
X101150615Y-70530295D01*
X101150615Y-70530295D02*
X101102996Y-70625533D01*
X101102996Y-70625533D02*
X101102996Y-70816009D01*
X101102996Y-70816009D02*
X101150615Y-70911247D01*
X101722044Y-70482676D02*
X101769663Y-70577914D01*
X101769663Y-70577914D02*
X101769663Y-70816009D01*
X101769663Y-70816009D02*
X101722044Y-70911247D01*
X101722044Y-70911247D02*
X101626805Y-70958866D01*
X101626805Y-70958866D02*
X101531567Y-70958866D01*
X101531567Y-70958866D02*
X101436329Y-70911247D01*
X101436329Y-70911247D02*
X101388710Y-70816009D01*
X101388710Y-70816009D02*
X101388710Y-70577914D01*
X101388710Y-70577914D02*
X101341091Y-70482676D01*
X101769663Y-70006485D02*
X101102996Y-70006485D01*
X100769663Y-70006485D02*
X100817282Y-70054104D01*
X100817282Y-70054104D02*
X100864901Y-70006485D01*
X100864901Y-70006485D02*
X100817282Y-69958866D01*
X100817282Y-69958866D02*
X100769663Y-70006485D01*
X100769663Y-70006485D02*
X100864901Y-70006485D01*
X100769663Y-69625533D02*
X100769663Y-69006486D01*
X100769663Y-69006486D02*
X101150615Y-69339819D01*
X101150615Y-69339819D02*
X101150615Y-69196962D01*
X101150615Y-69196962D02*
X101198234Y-69101724D01*
X101198234Y-69101724D02*
X101245853Y-69054105D01*
X101245853Y-69054105D02*
X101341091Y-69006486D01*
X101341091Y-69006486D02*
X101579186Y-69006486D01*
X101579186Y-69006486D02*
X101674424Y-69054105D01*
X101674424Y-69054105D02*
X101722044Y-69101724D01*
X101722044Y-69101724D02*
X101769663Y-69196962D01*
X101769663Y-69196962D02*
X101769663Y-69482676D01*
X101769663Y-69482676D02*
X101722044Y-69577914D01*
X101722044Y-69577914D02*
X101674424Y-69625533D01*
X101519663Y-62732676D02*
X100995853Y-62732676D01*
X100995853Y-62732676D02*
X100900615Y-62780295D01*
X100900615Y-62780295D02*
X100852996Y-62875533D01*
X100852996Y-62875533D02*
X100852996Y-63066009D01*
X100852996Y-63066009D02*
X100900615Y-63161247D01*
X101472044Y-62732676D02*
X101519663Y-62827914D01*
X101519663Y-62827914D02*
X101519663Y-63066009D01*
X101519663Y-63066009D02*
X101472044Y-63161247D01*
X101472044Y-63161247D02*
X101376805Y-63208866D01*
X101376805Y-63208866D02*
X101281567Y-63208866D01*
X101281567Y-63208866D02*
X101186329Y-63161247D01*
X101186329Y-63161247D02*
X101138710Y-63066009D01*
X101138710Y-63066009D02*
X101138710Y-62827914D01*
X101138710Y-62827914D02*
X101091091Y-62732676D01*
X100519663Y-61827914D02*
X100519663Y-62018390D01*
X100519663Y-62018390D02*
X100567282Y-62113628D01*
X100567282Y-62113628D02*
X100614901Y-62161247D01*
X100614901Y-62161247D02*
X100757758Y-62256485D01*
X100757758Y-62256485D02*
X100948234Y-62304104D01*
X100948234Y-62304104D02*
X101329186Y-62304104D01*
X101329186Y-62304104D02*
X101424424Y-62256485D01*
X101424424Y-62256485D02*
X101472044Y-62208866D01*
X101472044Y-62208866D02*
X101519663Y-62113628D01*
X101519663Y-62113628D02*
X101519663Y-61923152D01*
X101519663Y-61923152D02*
X101472044Y-61827914D01*
X101472044Y-61827914D02*
X101424424Y-61780295D01*
X101424424Y-61780295D02*
X101329186Y-61732676D01*
X101329186Y-61732676D02*
X101091091Y-61732676D01*
X101091091Y-61732676D02*
X100995853Y-61780295D01*
X100995853Y-61780295D02*
X100948234Y-61827914D01*
X100948234Y-61827914D02*
X100900615Y-61923152D01*
X100900615Y-61923152D02*
X100900615Y-62113628D01*
X100900615Y-62113628D02*
X100948234Y-62208866D01*
X100948234Y-62208866D02*
X100995853Y-62256485D01*
X100995853Y-62256485D02*
X101091091Y-62304104D01*
X99269663Y-69982676D02*
X98745853Y-69982676D01*
X98745853Y-69982676D02*
X98650615Y-70030295D01*
X98650615Y-70030295D02*
X98602996Y-70125533D01*
X98602996Y-70125533D02*
X98602996Y-70316009D01*
X98602996Y-70316009D02*
X98650615Y-70411247D01*
X99222044Y-69982676D02*
X99269663Y-70077914D01*
X99269663Y-70077914D02*
X99269663Y-70316009D01*
X99269663Y-70316009D02*
X99222044Y-70411247D01*
X99222044Y-70411247D02*
X99126805Y-70458866D01*
X99126805Y-70458866D02*
X99031567Y-70458866D01*
X99031567Y-70458866D02*
X98936329Y-70411247D01*
X98936329Y-70411247D02*
X98888710Y-70316009D01*
X98888710Y-70316009D02*
X98888710Y-70077914D01*
X98888710Y-70077914D02*
X98841091Y-69982676D01*
X98269663Y-69601723D02*
X98269663Y-68935057D01*
X98269663Y-68935057D02*
X99269663Y-69363628D01*
X99019663Y-62732676D02*
X98495853Y-62732676D01*
X98495853Y-62732676D02*
X98400615Y-62780295D01*
X98400615Y-62780295D02*
X98352996Y-62875533D01*
X98352996Y-62875533D02*
X98352996Y-63066009D01*
X98352996Y-63066009D02*
X98400615Y-63161247D01*
X98972044Y-62732676D02*
X99019663Y-62827914D01*
X99019663Y-62827914D02*
X99019663Y-63066009D01*
X99019663Y-63066009D02*
X98972044Y-63161247D01*
X98972044Y-63161247D02*
X98876805Y-63208866D01*
X98876805Y-63208866D02*
X98781567Y-63208866D01*
X98781567Y-63208866D02*
X98686329Y-63161247D01*
X98686329Y-63161247D02*
X98638710Y-63066009D01*
X98638710Y-63066009D02*
X98638710Y-62827914D01*
X98638710Y-62827914D02*
X98591091Y-62732676D01*
X98448234Y-62113628D02*
X98400615Y-62208866D01*
X98400615Y-62208866D02*
X98352996Y-62256485D01*
X98352996Y-62256485D02*
X98257758Y-62304104D01*
X98257758Y-62304104D02*
X98210139Y-62304104D01*
X98210139Y-62304104D02*
X98114901Y-62256485D01*
X98114901Y-62256485D02*
X98067282Y-62208866D01*
X98067282Y-62208866D02*
X98019663Y-62113628D01*
X98019663Y-62113628D02*
X98019663Y-61923152D01*
X98019663Y-61923152D02*
X98067282Y-61827914D01*
X98067282Y-61827914D02*
X98114901Y-61780295D01*
X98114901Y-61780295D02*
X98210139Y-61732676D01*
X98210139Y-61732676D02*
X98257758Y-61732676D01*
X98257758Y-61732676D02*
X98352996Y-61780295D01*
X98352996Y-61780295D02*
X98400615Y-61827914D01*
X98400615Y-61827914D02*
X98448234Y-61923152D01*
X98448234Y-61923152D02*
X98448234Y-62113628D01*
X98448234Y-62113628D02*
X98495853Y-62208866D01*
X98495853Y-62208866D02*
X98543472Y-62256485D01*
X98543472Y-62256485D02*
X98638710Y-62304104D01*
X98638710Y-62304104D02*
X98829186Y-62304104D01*
X98829186Y-62304104D02*
X98924424Y-62256485D01*
X98924424Y-62256485D02*
X98972044Y-62208866D01*
X98972044Y-62208866D02*
X99019663Y-62113628D01*
X99019663Y-62113628D02*
X99019663Y-61923152D01*
X99019663Y-61923152D02*
X98972044Y-61827914D01*
X98972044Y-61827914D02*
X98924424Y-61780295D01*
X98924424Y-61780295D02*
X98829186Y-61732676D01*
X98829186Y-61732676D02*
X98638710Y-61732676D01*
X98638710Y-61732676D02*
X98543472Y-61780295D01*
X98543472Y-61780295D02*
X98495853Y-61827914D01*
X98495853Y-61827914D02*
X98448234Y-61923152D01*
X96769663Y-70482676D02*
X96245853Y-70482676D01*
X96245853Y-70482676D02*
X96150615Y-70530295D01*
X96150615Y-70530295D02*
X96102996Y-70625533D01*
X96102996Y-70625533D02*
X96102996Y-70816009D01*
X96102996Y-70816009D02*
X96150615Y-70911247D01*
X96722044Y-70482676D02*
X96769663Y-70577914D01*
X96769663Y-70577914D02*
X96769663Y-70816009D01*
X96769663Y-70816009D02*
X96722044Y-70911247D01*
X96722044Y-70911247D02*
X96626805Y-70958866D01*
X96626805Y-70958866D02*
X96531567Y-70958866D01*
X96531567Y-70958866D02*
X96436329Y-70911247D01*
X96436329Y-70911247D02*
X96388710Y-70816009D01*
X96388710Y-70816009D02*
X96388710Y-70577914D01*
X96388710Y-70577914D02*
X96341091Y-70482676D01*
X96769663Y-69482676D02*
X96769663Y-70054104D01*
X96769663Y-69768390D02*
X95769663Y-69768390D01*
X95769663Y-69768390D02*
X95912520Y-69863628D01*
X95912520Y-69863628D02*
X96007758Y-69958866D01*
X96007758Y-69958866D02*
X96055377Y-70054104D01*
X95769663Y-68863628D02*
X95769663Y-68768390D01*
X95769663Y-68768390D02*
X95817282Y-68673152D01*
X95817282Y-68673152D02*
X95864901Y-68625533D01*
X95864901Y-68625533D02*
X95960139Y-68577914D01*
X95960139Y-68577914D02*
X96150615Y-68530295D01*
X96150615Y-68530295D02*
X96388710Y-68530295D01*
X96388710Y-68530295D02*
X96579186Y-68577914D01*
X96579186Y-68577914D02*
X96674424Y-68625533D01*
X96674424Y-68625533D02*
X96722044Y-68673152D01*
X96722044Y-68673152D02*
X96769663Y-68768390D01*
X96769663Y-68768390D02*
X96769663Y-68863628D01*
X96769663Y-68863628D02*
X96722044Y-68958866D01*
X96722044Y-68958866D02*
X96674424Y-69006485D01*
X96674424Y-69006485D02*
X96579186Y-69054104D01*
X96579186Y-69054104D02*
X96388710Y-69101723D01*
X96388710Y-69101723D02*
X96150615Y-69101723D01*
X96150615Y-69101723D02*
X95960139Y-69054104D01*
X95960139Y-69054104D02*
X95864901Y-69006485D01*
X95864901Y-69006485D02*
X95817282Y-68958866D01*
X95817282Y-68958866D02*
X95769663Y-68863628D01*
X96519663Y-62732676D02*
X95995853Y-62732676D01*
X95995853Y-62732676D02*
X95900615Y-62780295D01*
X95900615Y-62780295D02*
X95852996Y-62875533D01*
X95852996Y-62875533D02*
X95852996Y-63066009D01*
X95852996Y-63066009D02*
X95900615Y-63161247D01*
X96472044Y-62732676D02*
X96519663Y-62827914D01*
X96519663Y-62827914D02*
X96519663Y-63066009D01*
X96519663Y-63066009D02*
X96472044Y-63161247D01*
X96472044Y-63161247D02*
X96376805Y-63208866D01*
X96376805Y-63208866D02*
X96281567Y-63208866D01*
X96281567Y-63208866D02*
X96186329Y-63161247D01*
X96186329Y-63161247D02*
X96138710Y-63066009D01*
X96138710Y-63066009D02*
X96138710Y-62827914D01*
X96138710Y-62827914D02*
X96091091Y-62732676D01*
X96519663Y-61732676D02*
X96519663Y-62304104D01*
X96519663Y-62018390D02*
X95519663Y-62018390D01*
X95519663Y-62018390D02*
X95662520Y-62113628D01*
X95662520Y-62113628D02*
X95757758Y-62208866D01*
X95757758Y-62208866D02*
X95805377Y-62304104D01*
X96519663Y-60780295D02*
X96519663Y-61351723D01*
X96519663Y-61066009D02*
X95519663Y-61066009D01*
X95519663Y-61066009D02*
X95662520Y-61161247D01*
X95662520Y-61161247D02*
X95757758Y-61256485D01*
X95757758Y-61256485D02*
X95805377Y-61351723D01*
X94019663Y-70482676D02*
X93495853Y-70482676D01*
X93495853Y-70482676D02*
X93400615Y-70530295D01*
X93400615Y-70530295D02*
X93352996Y-70625533D01*
X93352996Y-70625533D02*
X93352996Y-70816009D01*
X93352996Y-70816009D02*
X93400615Y-70911247D01*
X93972044Y-70482676D02*
X94019663Y-70577914D01*
X94019663Y-70577914D02*
X94019663Y-70816009D01*
X94019663Y-70816009D02*
X93972044Y-70911247D01*
X93972044Y-70911247D02*
X93876805Y-70958866D01*
X93876805Y-70958866D02*
X93781567Y-70958866D01*
X93781567Y-70958866D02*
X93686329Y-70911247D01*
X93686329Y-70911247D02*
X93638710Y-70816009D01*
X93638710Y-70816009D02*
X93638710Y-70577914D01*
X93638710Y-70577914D02*
X93591091Y-70482676D01*
X94019663Y-69482676D02*
X94019663Y-70054104D01*
X94019663Y-69768390D02*
X93019663Y-69768390D01*
X93019663Y-69768390D02*
X93162520Y-69863628D01*
X93162520Y-69863628D02*
X93257758Y-69958866D01*
X93257758Y-69958866D02*
X93305377Y-70054104D01*
X93114901Y-69101723D02*
X93067282Y-69054104D01*
X93067282Y-69054104D02*
X93019663Y-68958866D01*
X93019663Y-68958866D02*
X93019663Y-68720771D01*
X93019663Y-68720771D02*
X93067282Y-68625533D01*
X93067282Y-68625533D02*
X93114901Y-68577914D01*
X93114901Y-68577914D02*
X93210139Y-68530295D01*
X93210139Y-68530295D02*
X93305377Y-68530295D01*
X93305377Y-68530295D02*
X93448234Y-68577914D01*
X93448234Y-68577914D02*
X94019663Y-69149342D01*
X94019663Y-69149342D02*
X94019663Y-68530295D01*
X94019663Y-62732676D02*
X93495853Y-62732676D01*
X93495853Y-62732676D02*
X93400615Y-62780295D01*
X93400615Y-62780295D02*
X93352996Y-62875533D01*
X93352996Y-62875533D02*
X93352996Y-63066009D01*
X93352996Y-63066009D02*
X93400615Y-63161247D01*
X93972044Y-62732676D02*
X94019663Y-62827914D01*
X94019663Y-62827914D02*
X94019663Y-63066009D01*
X94019663Y-63066009D02*
X93972044Y-63161247D01*
X93972044Y-63161247D02*
X93876805Y-63208866D01*
X93876805Y-63208866D02*
X93781567Y-63208866D01*
X93781567Y-63208866D02*
X93686329Y-63161247D01*
X93686329Y-63161247D02*
X93638710Y-63066009D01*
X93638710Y-63066009D02*
X93638710Y-62827914D01*
X93638710Y-62827914D02*
X93591091Y-62732676D01*
X94019663Y-61732676D02*
X94019663Y-62304104D01*
X94019663Y-62018390D02*
X93019663Y-62018390D01*
X93019663Y-62018390D02*
X93162520Y-62113628D01*
X93162520Y-62113628D02*
X93257758Y-62208866D01*
X93257758Y-62208866D02*
X93305377Y-62304104D01*
X93019663Y-61399342D02*
X93019663Y-60780295D01*
X93019663Y-60780295D02*
X93400615Y-61113628D01*
X93400615Y-61113628D02*
X93400615Y-60970771D01*
X93400615Y-60970771D02*
X93448234Y-60875533D01*
X93448234Y-60875533D02*
X93495853Y-60827914D01*
X93495853Y-60827914D02*
X93591091Y-60780295D01*
X93591091Y-60780295D02*
X93829186Y-60780295D01*
X93829186Y-60780295D02*
X93924424Y-60827914D01*
X93924424Y-60827914D02*
X93972044Y-60875533D01*
X93972044Y-60875533D02*
X94019663Y-60970771D01*
X94019663Y-60970771D02*
X94019663Y-61256485D01*
X94019663Y-61256485D02*
X93972044Y-61351723D01*
X93972044Y-61351723D02*
X93924424Y-61399342D01*
X90602996Y-62732676D02*
X91412520Y-62732676D01*
X91412520Y-62732676D02*
X91507758Y-62780295D01*
X91507758Y-62780295D02*
X91555377Y-62827914D01*
X91555377Y-62827914D02*
X91602996Y-62923152D01*
X91602996Y-62923152D02*
X91602996Y-63066009D01*
X91602996Y-63066009D02*
X91555377Y-63161247D01*
X91222044Y-62732676D02*
X91269663Y-62827914D01*
X91269663Y-62827914D02*
X91269663Y-63018390D01*
X91269663Y-63018390D02*
X91222044Y-63113628D01*
X91222044Y-63113628D02*
X91174424Y-63161247D01*
X91174424Y-63161247D02*
X91079186Y-63208866D01*
X91079186Y-63208866D02*
X90793472Y-63208866D01*
X90793472Y-63208866D02*
X90698234Y-63161247D01*
X90698234Y-63161247D02*
X90650615Y-63113628D01*
X90650615Y-63113628D02*
X90602996Y-63018390D01*
X90602996Y-63018390D02*
X90602996Y-62827914D01*
X90602996Y-62827914D02*
X90650615Y-62732676D01*
X91269663Y-61732676D02*
X91269663Y-62304104D01*
X91269663Y-62018390D02*
X90269663Y-62018390D01*
X90269663Y-62018390D02*
X90412520Y-62113628D01*
X90412520Y-62113628D02*
X90507758Y-62208866D01*
X90507758Y-62208866D02*
X90555377Y-62304104D01*
X90269663Y-60827914D02*
X90269663Y-61304104D01*
X90269663Y-61304104D02*
X90745853Y-61351723D01*
X90745853Y-61351723D02*
X90698234Y-61304104D01*
X90698234Y-61304104D02*
X90650615Y-61208866D01*
X90650615Y-61208866D02*
X90650615Y-60970771D01*
X90650615Y-60970771D02*
X90698234Y-60875533D01*
X90698234Y-60875533D02*
X90745853Y-60827914D01*
X90745853Y-60827914D02*
X90841091Y-60780295D01*
X90841091Y-60780295D02*
X91079186Y-60780295D01*
X91079186Y-60780295D02*
X91174424Y-60827914D01*
X91174424Y-60827914D02*
X91222044Y-60875533D01*
X91222044Y-60875533D02*
X91269663Y-60970771D01*
X91269663Y-60970771D02*
X91269663Y-61208866D01*
X91269663Y-61208866D02*
X91222044Y-61304104D01*
X91222044Y-61304104D02*
X91174424Y-61351723D01*
X91479663Y-70482676D02*
X90955853Y-70482676D01*
X90955853Y-70482676D02*
X90860615Y-70530295D01*
X90860615Y-70530295D02*
X90812996Y-70625533D01*
X90812996Y-70625533D02*
X90812996Y-70816009D01*
X90812996Y-70816009D02*
X90860615Y-70911247D01*
X91432044Y-70482676D02*
X91479663Y-70577914D01*
X91479663Y-70577914D02*
X91479663Y-70816009D01*
X91479663Y-70816009D02*
X91432044Y-70911247D01*
X91432044Y-70911247D02*
X91336805Y-70958866D01*
X91336805Y-70958866D02*
X91241567Y-70958866D01*
X91241567Y-70958866D02*
X91146329Y-70911247D01*
X91146329Y-70911247D02*
X91098710Y-70816009D01*
X91098710Y-70816009D02*
X91098710Y-70577914D01*
X91098710Y-70577914D02*
X91051091Y-70482676D01*
X91479663Y-69482676D02*
X91479663Y-70054104D01*
X91479663Y-69768390D02*
X90479663Y-69768390D01*
X90479663Y-69768390D02*
X90622520Y-69863628D01*
X90622520Y-69863628D02*
X90717758Y-69958866D01*
X90717758Y-69958866D02*
X90765377Y-70054104D01*
X90812996Y-68625533D02*
X91479663Y-68625533D01*
X90432044Y-68863628D02*
X91146329Y-69101723D01*
X91146329Y-69101723D02*
X91146329Y-68482676D01*
D11*
X145864537Y-112954260D02*
X145816918Y-112906641D01*
X145816918Y-112906641D02*
X145769299Y-112811403D01*
X145769299Y-112811403D02*
X145769299Y-112573308D01*
X145769299Y-112573308D02*
X145816918Y-112478070D01*
X145816918Y-112478070D02*
X145864537Y-112430451D01*
X145864537Y-112430451D02*
X145959775Y-112382832D01*
X145959775Y-112382832D02*
X146055013Y-112382832D01*
X146055013Y-112382832D02*
X146197870Y-112430451D01*
X146197870Y-112430451D02*
X146769299Y-113001879D01*
X146769299Y-113001879D02*
X146769299Y-112382832D01*
X146674060Y-111954260D02*
X146721680Y-111906641D01*
X146721680Y-111906641D02*
X146769299Y-111954260D01*
X146769299Y-111954260D02*
X146721680Y-112001879D01*
X146721680Y-112001879D02*
X146674060Y-111954260D01*
X146674060Y-111954260D02*
X146769299Y-111954260D01*
X145769299Y-111001880D02*
X145769299Y-111478070D01*
X145769299Y-111478070D02*
X146245489Y-111525689D01*
X146245489Y-111525689D02*
X146197870Y-111478070D01*
X146197870Y-111478070D02*
X146150251Y-111382832D01*
X146150251Y-111382832D02*
X146150251Y-111144737D01*
X146150251Y-111144737D02*
X146197870Y-111049499D01*
X146197870Y-111049499D02*
X146245489Y-111001880D01*
X146245489Y-111001880D02*
X146340727Y-110954261D01*
X146340727Y-110954261D02*
X146578822Y-110954261D01*
X146578822Y-110954261D02*
X146674060Y-111001880D01*
X146674060Y-111001880D02*
X146721680Y-111049499D01*
X146721680Y-111049499D02*
X146769299Y-111144737D01*
X146769299Y-111144737D02*
X146769299Y-111382832D01*
X146769299Y-111382832D02*
X146721680Y-111478070D01*
X146721680Y-111478070D02*
X146674060Y-111525689D01*
X145769299Y-110668546D02*
X146769299Y-110335213D01*
X146769299Y-110335213D02*
X145769299Y-110001880D01*
X148519299Y-113501879D02*
X148519299Y-112882832D01*
X148519299Y-112882832D02*
X148900251Y-113216165D01*
X148900251Y-113216165D02*
X148900251Y-113073308D01*
X148900251Y-113073308D02*
X148947870Y-112978070D01*
X148947870Y-112978070D02*
X148995489Y-112930451D01*
X148995489Y-112930451D02*
X149090727Y-112882832D01*
X149090727Y-112882832D02*
X149328822Y-112882832D01*
X149328822Y-112882832D02*
X149424060Y-112930451D01*
X149424060Y-112930451D02*
X149471680Y-112978070D01*
X149471680Y-112978070D02*
X149519299Y-113073308D01*
X149519299Y-113073308D02*
X149519299Y-113359022D01*
X149519299Y-113359022D02*
X149471680Y-113454260D01*
X149471680Y-113454260D02*
X149424060Y-113501879D01*
X149424060Y-112454260D02*
X149471680Y-112406641D01*
X149471680Y-112406641D02*
X149519299Y-112454260D01*
X149519299Y-112454260D02*
X149471680Y-112501879D01*
X149471680Y-112501879D02*
X149424060Y-112454260D01*
X149424060Y-112454260D02*
X149519299Y-112454260D01*
X148519299Y-112073308D02*
X148519299Y-111454261D01*
X148519299Y-111454261D02*
X148900251Y-111787594D01*
X148900251Y-111787594D02*
X148900251Y-111644737D01*
X148900251Y-111644737D02*
X148947870Y-111549499D01*
X148947870Y-111549499D02*
X148995489Y-111501880D01*
X148995489Y-111501880D02*
X149090727Y-111454261D01*
X149090727Y-111454261D02*
X149328822Y-111454261D01*
X149328822Y-111454261D02*
X149424060Y-111501880D01*
X149424060Y-111501880D02*
X149471680Y-111549499D01*
X149471680Y-111549499D02*
X149519299Y-111644737D01*
X149519299Y-111644737D02*
X149519299Y-111930451D01*
X149519299Y-111930451D02*
X149471680Y-112025689D01*
X149471680Y-112025689D02*
X149424060Y-112073308D01*
X148519299Y-111168546D02*
X149519299Y-110835213D01*
X149519299Y-110835213D02*
X148519299Y-110501880D01*
X151019299Y-112180451D02*
X151019299Y-112656641D01*
X151019299Y-112656641D02*
X151495489Y-112704260D01*
X151495489Y-112704260D02*
X151447870Y-112656641D01*
X151447870Y-112656641D02*
X151400251Y-112561403D01*
X151400251Y-112561403D02*
X151400251Y-112323308D01*
X151400251Y-112323308D02*
X151447870Y-112228070D01*
X151447870Y-112228070D02*
X151495489Y-112180451D01*
X151495489Y-112180451D02*
X151590727Y-112132832D01*
X151590727Y-112132832D02*
X151828822Y-112132832D01*
X151828822Y-112132832D02*
X151924060Y-112180451D01*
X151924060Y-112180451D02*
X151971680Y-112228070D01*
X151971680Y-112228070D02*
X152019299Y-112323308D01*
X152019299Y-112323308D02*
X152019299Y-112561403D01*
X152019299Y-112561403D02*
X151971680Y-112656641D01*
X151971680Y-112656641D02*
X151924060Y-112704260D01*
X151019299Y-111847117D02*
X152019299Y-111513784D01*
X152019299Y-111513784D02*
X151019299Y-111180451D01*
X153566918Y-112882832D02*
X153519299Y-112978070D01*
X153519299Y-112978070D02*
X153519299Y-113120927D01*
X153519299Y-113120927D02*
X153566918Y-113263784D01*
X153566918Y-113263784D02*
X153662156Y-113359022D01*
X153662156Y-113359022D02*
X153757394Y-113406641D01*
X153757394Y-113406641D02*
X153947870Y-113454260D01*
X153947870Y-113454260D02*
X154090727Y-113454260D01*
X154090727Y-113454260D02*
X154281203Y-113406641D01*
X154281203Y-113406641D02*
X154376441Y-113359022D01*
X154376441Y-113359022D02*
X154471680Y-113263784D01*
X154471680Y-113263784D02*
X154519299Y-113120927D01*
X154519299Y-113120927D02*
X154519299Y-113025689D01*
X154519299Y-113025689D02*
X154471680Y-112882832D01*
X154471680Y-112882832D02*
X154424060Y-112835213D01*
X154424060Y-112835213D02*
X154090727Y-112835213D01*
X154090727Y-112835213D02*
X154090727Y-113025689D01*
X154519299Y-112406641D02*
X153519299Y-112406641D01*
X153519299Y-112406641D02*
X154519299Y-111835213D01*
X154519299Y-111835213D02*
X153519299Y-111835213D01*
X154519299Y-111359022D02*
X153519299Y-111359022D01*
X153519299Y-111359022D02*
X153519299Y-111120927D01*
X153519299Y-111120927D02*
X153566918Y-110978070D01*
X153566918Y-110978070D02*
X153662156Y-110882832D01*
X153662156Y-110882832D02*
X153757394Y-110835213D01*
X153757394Y-110835213D02*
X153947870Y-110787594D01*
X153947870Y-110787594D02*
X154090727Y-110787594D01*
X154090727Y-110787594D02*
X154281203Y-110835213D01*
X154281203Y-110835213D02*
X154376441Y-110882832D01*
X154376441Y-110882832D02*
X154471680Y-110978070D01*
X154471680Y-110978070D02*
X154519299Y-111120927D01*
X154519299Y-111120927D02*
X154519299Y-111359022D01*
X94076691Y-93485489D02*
X93743358Y-93485489D01*
X93743358Y-94009299D02*
X93743358Y-93009299D01*
X93743358Y-93009299D02*
X94219548Y-93009299D01*
X94457644Y-93009299D02*
X95029072Y-93009299D01*
X94743358Y-94009299D02*
X94743358Y-93009299D01*
X95362406Y-94009299D02*
X95362406Y-93009299D01*
X95362406Y-93009299D02*
X95600501Y-93009299D01*
X95600501Y-93009299D02*
X95743358Y-93056918D01*
X95743358Y-93056918D02*
X95838596Y-93152156D01*
X95838596Y-93152156D02*
X95886215Y-93247394D01*
X95886215Y-93247394D02*
X95933834Y-93437870D01*
X95933834Y-93437870D02*
X95933834Y-93580727D01*
X95933834Y-93580727D02*
X95886215Y-93771203D01*
X95886215Y-93771203D02*
X95838596Y-93866441D01*
X95838596Y-93866441D02*
X95743358Y-93961680D01*
X95743358Y-93961680D02*
X95600501Y-94009299D01*
X95600501Y-94009299D02*
X95362406Y-94009299D01*
X96362406Y-94009299D02*
X96362406Y-93009299D01*
X97552881Y-92961680D02*
X96695739Y-94247394D01*
X97886215Y-94009299D02*
X97886215Y-93009299D01*
X97886215Y-93009299D02*
X98124310Y-93009299D01*
X98124310Y-93009299D02*
X98267167Y-93056918D01*
X98267167Y-93056918D02*
X98362405Y-93152156D01*
X98362405Y-93152156D02*
X98410024Y-93247394D01*
X98410024Y-93247394D02*
X98457643Y-93437870D01*
X98457643Y-93437870D02*
X98457643Y-93580727D01*
X98457643Y-93580727D02*
X98410024Y-93771203D01*
X98410024Y-93771203D02*
X98362405Y-93866441D01*
X98362405Y-93866441D02*
X98267167Y-93961680D01*
X98267167Y-93961680D02*
X98124310Y-94009299D01*
X98124310Y-94009299D02*
X97886215Y-94009299D01*
X98886215Y-94009299D02*
X98886215Y-93009299D01*
X99933833Y-94009299D02*
X99600500Y-93533108D01*
X99362405Y-94009299D02*
X99362405Y-93009299D01*
X99362405Y-93009299D02*
X99743357Y-93009299D01*
X99743357Y-93009299D02*
X99838595Y-93056918D01*
X99838595Y-93056918D02*
X99886214Y-93104537D01*
X99886214Y-93104537D02*
X99933833Y-93199775D01*
X99933833Y-93199775D02*
X99933833Y-93342632D01*
X99933833Y-93342632D02*
X99886214Y-93437870D01*
X99886214Y-93437870D02*
X99838595Y-93485489D01*
X99838595Y-93485489D02*
X99743357Y-93533108D01*
X99743357Y-93533108D02*
X99362405Y-93533108D01*
X100362405Y-93485489D02*
X100695738Y-93485489D01*
X100838595Y-94009299D02*
X100362405Y-94009299D01*
X100362405Y-94009299D02*
X100362405Y-93009299D01*
X100362405Y-93009299D02*
X100838595Y-93009299D01*
X101838595Y-93914060D02*
X101790976Y-93961680D01*
X101790976Y-93961680D02*
X101648119Y-94009299D01*
X101648119Y-94009299D02*
X101552881Y-94009299D01*
X101552881Y-94009299D02*
X101410024Y-93961680D01*
X101410024Y-93961680D02*
X101314786Y-93866441D01*
X101314786Y-93866441D02*
X101267167Y-93771203D01*
X101267167Y-93771203D02*
X101219548Y-93580727D01*
X101219548Y-93580727D02*
X101219548Y-93437870D01*
X101219548Y-93437870D02*
X101267167Y-93247394D01*
X101267167Y-93247394D02*
X101314786Y-93152156D01*
X101314786Y-93152156D02*
X101410024Y-93056918D01*
X101410024Y-93056918D02*
X101552881Y-93009299D01*
X101552881Y-93009299D02*
X101648119Y-93009299D01*
X101648119Y-93009299D02*
X101790976Y-93056918D01*
X101790976Y-93056918D02*
X101838595Y-93104537D01*
X102124310Y-93009299D02*
X102695738Y-93009299D01*
X102410024Y-94009299D02*
X102410024Y-93009299D01*
X96029073Y-94619299D02*
X96029073Y-95428822D01*
X96029073Y-95428822D02*
X96076692Y-95524060D01*
X96076692Y-95524060D02*
X96124311Y-95571680D01*
X96124311Y-95571680D02*
X96219549Y-95619299D01*
X96219549Y-95619299D02*
X96410025Y-95619299D01*
X96410025Y-95619299D02*
X96505263Y-95571680D01*
X96505263Y-95571680D02*
X96552882Y-95524060D01*
X96552882Y-95524060D02*
X96600501Y-95428822D01*
X96600501Y-95428822D02*
X96600501Y-94619299D01*
X97029073Y-95571680D02*
X97171930Y-95619299D01*
X97171930Y-95619299D02*
X97410025Y-95619299D01*
X97410025Y-95619299D02*
X97505263Y-95571680D01*
X97505263Y-95571680D02*
X97552882Y-95524060D01*
X97552882Y-95524060D02*
X97600501Y-95428822D01*
X97600501Y-95428822D02*
X97600501Y-95333584D01*
X97600501Y-95333584D02*
X97552882Y-95238346D01*
X97552882Y-95238346D02*
X97505263Y-95190727D01*
X97505263Y-95190727D02*
X97410025Y-95143108D01*
X97410025Y-95143108D02*
X97219549Y-95095489D01*
X97219549Y-95095489D02*
X97124311Y-95047870D01*
X97124311Y-95047870D02*
X97076692Y-95000251D01*
X97076692Y-95000251D02*
X97029073Y-94905013D01*
X97029073Y-94905013D02*
X97029073Y-94809775D01*
X97029073Y-94809775D02*
X97076692Y-94714537D01*
X97076692Y-94714537D02*
X97124311Y-94666918D01*
X97124311Y-94666918D02*
X97219549Y-94619299D01*
X97219549Y-94619299D02*
X97457644Y-94619299D01*
X97457644Y-94619299D02*
X97600501Y-94666918D01*
X98362406Y-95095489D02*
X98505263Y-95143108D01*
X98505263Y-95143108D02*
X98552882Y-95190727D01*
X98552882Y-95190727D02*
X98600501Y-95285965D01*
X98600501Y-95285965D02*
X98600501Y-95428822D01*
X98600501Y-95428822D02*
X98552882Y-95524060D01*
X98552882Y-95524060D02*
X98505263Y-95571680D01*
X98505263Y-95571680D02*
X98410025Y-95619299D01*
X98410025Y-95619299D02*
X98029073Y-95619299D01*
X98029073Y-95619299D02*
X98029073Y-94619299D01*
X98029073Y-94619299D02*
X98362406Y-94619299D01*
X98362406Y-94619299D02*
X98457644Y-94666918D01*
X98457644Y-94666918D02*
X98505263Y-94714537D01*
X98505263Y-94714537D02*
X98552882Y-94809775D01*
X98552882Y-94809775D02*
X98552882Y-94905013D01*
X98552882Y-94905013D02*
X98505263Y-95000251D01*
X98505263Y-95000251D02*
X98457644Y-95047870D01*
X98457644Y-95047870D02*
X98362406Y-95095489D01*
X98362406Y-95095489D02*
X98029073Y-95095489D01*
X103576691Y-82095489D02*
X103243358Y-82095489D01*
X103243358Y-82619299D02*
X103243358Y-81619299D01*
X103243358Y-81619299D02*
X103719548Y-81619299D01*
X103957644Y-81619299D02*
X104529072Y-81619299D01*
X104243358Y-82619299D02*
X104243358Y-81619299D01*
X104862406Y-82619299D02*
X104862406Y-81619299D01*
X104862406Y-81619299D02*
X105100501Y-81619299D01*
X105100501Y-81619299D02*
X105243358Y-81666918D01*
X105243358Y-81666918D02*
X105338596Y-81762156D01*
X105338596Y-81762156D02*
X105386215Y-81857394D01*
X105386215Y-81857394D02*
X105433834Y-82047870D01*
X105433834Y-82047870D02*
X105433834Y-82190727D01*
X105433834Y-82190727D02*
X105386215Y-82381203D01*
X105386215Y-82381203D02*
X105338596Y-82476441D01*
X105338596Y-82476441D02*
X105243358Y-82571680D01*
X105243358Y-82571680D02*
X105100501Y-82619299D01*
X105100501Y-82619299D02*
X104862406Y-82619299D01*
X105862406Y-82619299D02*
X105862406Y-81619299D01*
X108064786Y-82619299D02*
X107731453Y-82143108D01*
X107493358Y-82619299D02*
X107493358Y-81619299D01*
X107493358Y-81619299D02*
X107874310Y-81619299D01*
X107874310Y-81619299D02*
X107969548Y-81666918D01*
X107969548Y-81666918D02*
X108017167Y-81714537D01*
X108017167Y-81714537D02*
X108064786Y-81809775D01*
X108064786Y-81809775D02*
X108064786Y-81952632D01*
X108064786Y-81952632D02*
X108017167Y-82047870D01*
X108017167Y-82047870D02*
X107969548Y-82095489D01*
X107969548Y-82095489D02*
X107874310Y-82143108D01*
X107874310Y-82143108D02*
X107493358Y-82143108D01*
X108445739Y-82571680D02*
X108588596Y-82619299D01*
X108588596Y-82619299D02*
X108826691Y-82619299D01*
X108826691Y-82619299D02*
X108921929Y-82571680D01*
X108921929Y-82571680D02*
X108969548Y-82524060D01*
X108969548Y-82524060D02*
X109017167Y-82428822D01*
X109017167Y-82428822D02*
X109017167Y-82333584D01*
X109017167Y-82333584D02*
X108969548Y-82238346D01*
X108969548Y-82238346D02*
X108921929Y-82190727D01*
X108921929Y-82190727D02*
X108826691Y-82143108D01*
X108826691Y-82143108D02*
X108636215Y-82095489D01*
X108636215Y-82095489D02*
X108540977Y-82047870D01*
X108540977Y-82047870D02*
X108493358Y-82000251D01*
X108493358Y-82000251D02*
X108445739Y-81905013D01*
X108445739Y-81905013D02*
X108445739Y-81809775D01*
X108445739Y-81809775D02*
X108493358Y-81714537D01*
X108493358Y-81714537D02*
X108540977Y-81666918D01*
X108540977Y-81666918D02*
X108636215Y-81619299D01*
X108636215Y-81619299D02*
X108874310Y-81619299D01*
X108874310Y-81619299D02*
X109017167Y-81666918D01*
X109302882Y-81619299D02*
X109874310Y-81619299D01*
X109588596Y-82619299D02*
X109588596Y-81619299D01*
D12*
X94900000Y-110250000D02*
X94900000Y-113250000D01*
D11*
X96019299Y-113001879D02*
X96019299Y-112382832D01*
X96019299Y-112382832D02*
X96400251Y-112716165D01*
X96400251Y-112716165D02*
X96400251Y-112573308D01*
X96400251Y-112573308D02*
X96447870Y-112478070D01*
X96447870Y-112478070D02*
X96495489Y-112430451D01*
X96495489Y-112430451D02*
X96590727Y-112382832D01*
X96590727Y-112382832D02*
X96828822Y-112382832D01*
X96828822Y-112382832D02*
X96924060Y-112430451D01*
X96924060Y-112430451D02*
X96971680Y-112478070D01*
X96971680Y-112478070D02*
X97019299Y-112573308D01*
X97019299Y-112573308D02*
X97019299Y-112859022D01*
X97019299Y-112859022D02*
X96971680Y-112954260D01*
X96971680Y-112954260D02*
X96924060Y-113001879D01*
X96924060Y-111954260D02*
X96971680Y-111906641D01*
X96971680Y-111906641D02*
X97019299Y-111954260D01*
X97019299Y-111954260D02*
X96971680Y-112001879D01*
X96971680Y-112001879D02*
X96924060Y-111954260D01*
X96924060Y-111954260D02*
X97019299Y-111954260D01*
X96019299Y-111573308D02*
X96019299Y-110954261D01*
X96019299Y-110954261D02*
X96400251Y-111287594D01*
X96400251Y-111287594D02*
X96400251Y-111144737D01*
X96400251Y-111144737D02*
X96447870Y-111049499D01*
X96447870Y-111049499D02*
X96495489Y-111001880D01*
X96495489Y-111001880D02*
X96590727Y-110954261D01*
X96590727Y-110954261D02*
X96828822Y-110954261D01*
X96828822Y-110954261D02*
X96924060Y-111001880D01*
X96924060Y-111001880D02*
X96971680Y-111049499D01*
X96971680Y-111049499D02*
X97019299Y-111144737D01*
X97019299Y-111144737D02*
X97019299Y-111430451D01*
X97019299Y-111430451D02*
X96971680Y-111525689D01*
X96971680Y-111525689D02*
X96924060Y-111573308D01*
X96019299Y-110668546D02*
X97019299Y-110335213D01*
X97019299Y-110335213D02*
X96019299Y-110001880D01*
X98316918Y-112132832D02*
X98269299Y-112228070D01*
X98269299Y-112228070D02*
X98269299Y-112370927D01*
X98269299Y-112370927D02*
X98316918Y-112513784D01*
X98316918Y-112513784D02*
X98412156Y-112609022D01*
X98412156Y-112609022D02*
X98507394Y-112656641D01*
X98507394Y-112656641D02*
X98697870Y-112704260D01*
X98697870Y-112704260D02*
X98840727Y-112704260D01*
X98840727Y-112704260D02*
X99031203Y-112656641D01*
X99031203Y-112656641D02*
X99126441Y-112609022D01*
X99126441Y-112609022D02*
X99221680Y-112513784D01*
X99221680Y-112513784D02*
X99269299Y-112370927D01*
X99269299Y-112370927D02*
X99269299Y-112275689D01*
X99269299Y-112275689D02*
X99221680Y-112132832D01*
X99221680Y-112132832D02*
X99174060Y-112085213D01*
X99174060Y-112085213D02*
X98840727Y-112085213D01*
X98840727Y-112085213D02*
X98840727Y-112275689D01*
X99269299Y-111656641D02*
X98269299Y-111656641D01*
X98269299Y-111656641D02*
X99269299Y-111085213D01*
X99269299Y-111085213D02*
X98269299Y-111085213D01*
X99269299Y-110609022D02*
X98269299Y-110609022D01*
X98269299Y-110609022D02*
X98269299Y-110370927D01*
X98269299Y-110370927D02*
X98316918Y-110228070D01*
X98316918Y-110228070D02*
X98412156Y-110132832D01*
X98412156Y-110132832D02*
X98507394Y-110085213D01*
X98507394Y-110085213D02*
X98697870Y-110037594D01*
X98697870Y-110037594D02*
X98840727Y-110037594D01*
X98840727Y-110037594D02*
X99031203Y-110085213D01*
X99031203Y-110085213D02*
X99126441Y-110132832D01*
X99126441Y-110132832D02*
X99221680Y-110228070D01*
X99221680Y-110228070D02*
X99269299Y-110370927D01*
X99269299Y-110370927D02*
X99269299Y-110609022D01*
X93066918Y-112382832D02*
X93019299Y-112478070D01*
X93019299Y-112478070D02*
X93019299Y-112620927D01*
X93019299Y-112620927D02*
X93066918Y-112763784D01*
X93066918Y-112763784D02*
X93162156Y-112859022D01*
X93162156Y-112859022D02*
X93257394Y-112906641D01*
X93257394Y-112906641D02*
X93447870Y-112954260D01*
X93447870Y-112954260D02*
X93590727Y-112954260D01*
X93590727Y-112954260D02*
X93781203Y-112906641D01*
X93781203Y-112906641D02*
X93876441Y-112859022D01*
X93876441Y-112859022D02*
X93971680Y-112763784D01*
X93971680Y-112763784D02*
X94019299Y-112620927D01*
X94019299Y-112620927D02*
X94019299Y-112525689D01*
X94019299Y-112525689D02*
X93971680Y-112382832D01*
X93971680Y-112382832D02*
X93924060Y-112335213D01*
X93924060Y-112335213D02*
X93590727Y-112335213D01*
X93590727Y-112335213D02*
X93590727Y-112525689D01*
X94019299Y-111906641D02*
X93019299Y-111906641D01*
X93019299Y-111906641D02*
X94019299Y-111335213D01*
X94019299Y-111335213D02*
X93019299Y-111335213D01*
X94019299Y-110859022D02*
X93019299Y-110859022D01*
X93019299Y-110859022D02*
X93019299Y-110620927D01*
X93019299Y-110620927D02*
X93066918Y-110478070D01*
X93066918Y-110478070D02*
X93162156Y-110382832D01*
X93162156Y-110382832D02*
X93257394Y-110335213D01*
X93257394Y-110335213D02*
X93447870Y-110287594D01*
X93447870Y-110287594D02*
X93590727Y-110287594D01*
X93590727Y-110287594D02*
X93781203Y-110335213D01*
X93781203Y-110335213D02*
X93876441Y-110382832D01*
X93876441Y-110382832D02*
X93971680Y-110478070D01*
X93971680Y-110478070D02*
X94019299Y-110620927D01*
X94019299Y-110620927D02*
X94019299Y-110859022D01*
X90769299Y-112180451D02*
X90769299Y-112656641D01*
X90769299Y-112656641D02*
X91245489Y-112704260D01*
X91245489Y-112704260D02*
X91197870Y-112656641D01*
X91197870Y-112656641D02*
X91150251Y-112561403D01*
X91150251Y-112561403D02*
X91150251Y-112323308D01*
X91150251Y-112323308D02*
X91197870Y-112228070D01*
X91197870Y-112228070D02*
X91245489Y-112180451D01*
X91245489Y-112180451D02*
X91340727Y-112132832D01*
X91340727Y-112132832D02*
X91578822Y-112132832D01*
X91578822Y-112132832D02*
X91674060Y-112180451D01*
X91674060Y-112180451D02*
X91721680Y-112228070D01*
X91721680Y-112228070D02*
X91769299Y-112323308D01*
X91769299Y-112323308D02*
X91769299Y-112561403D01*
X91769299Y-112561403D02*
X91721680Y-112656641D01*
X91721680Y-112656641D02*
X91674060Y-112704260D01*
X90769299Y-111847117D02*
X91769299Y-111513784D01*
X91769299Y-111513784D02*
X90769299Y-111180451D01*
X89019299Y-115406641D02*
X88019299Y-115406641D01*
X88019299Y-115406641D02*
X88019299Y-115025689D01*
X88019299Y-115025689D02*
X88066918Y-114930451D01*
X88066918Y-114930451D02*
X88114537Y-114882832D01*
X88114537Y-114882832D02*
X88209775Y-114835213D01*
X88209775Y-114835213D02*
X88352632Y-114835213D01*
X88352632Y-114835213D02*
X88447870Y-114882832D01*
X88447870Y-114882832D02*
X88495489Y-114930451D01*
X88495489Y-114930451D02*
X88543108Y-115025689D01*
X88543108Y-115025689D02*
X88543108Y-115406641D01*
X88019299Y-114501879D02*
X89019299Y-114263784D01*
X89019299Y-114263784D02*
X88305013Y-114073308D01*
X88305013Y-114073308D02*
X89019299Y-113882832D01*
X89019299Y-113882832D02*
X88019299Y-113644737D01*
X89019299Y-112692356D02*
X88543108Y-113025689D01*
X89019299Y-113263784D02*
X88019299Y-113263784D01*
X88019299Y-113263784D02*
X88019299Y-112882832D01*
X88019299Y-112882832D02*
X88066918Y-112787594D01*
X88066918Y-112787594D02*
X88114537Y-112739975D01*
X88114537Y-112739975D02*
X88209775Y-112692356D01*
X88209775Y-112692356D02*
X88352632Y-112692356D01*
X88352632Y-112692356D02*
X88447870Y-112739975D01*
X88447870Y-112739975D02*
X88495489Y-112787594D01*
X88495489Y-112787594D02*
X88543108Y-112882832D01*
X88543108Y-112882832D02*
X88543108Y-113263784D01*
X89019299Y-111501879D02*
X88019299Y-111501879D01*
X89019299Y-111025689D02*
X88019299Y-111025689D01*
X88019299Y-111025689D02*
X89019299Y-110454261D01*
X89019299Y-110454261D02*
X88019299Y-110454261D01*
X113993358Y-109369299D02*
X113993358Y-110178822D01*
X113993358Y-110178822D02*
X114040977Y-110274060D01*
X114040977Y-110274060D02*
X114088596Y-110321680D01*
X114088596Y-110321680D02*
X114183834Y-110369299D01*
X114183834Y-110369299D02*
X114374310Y-110369299D01*
X114374310Y-110369299D02*
X114469548Y-110321680D01*
X114469548Y-110321680D02*
X114517167Y-110274060D01*
X114517167Y-110274060D02*
X114564786Y-110178822D01*
X114564786Y-110178822D02*
X114564786Y-109369299D01*
X114993358Y-110083584D02*
X115469548Y-110083584D01*
X114898120Y-110369299D02*
X115231453Y-109369299D01*
X115231453Y-109369299D02*
X115564786Y-110369299D01*
X116469548Y-110369299D02*
X116136215Y-109893108D01*
X115898120Y-110369299D02*
X115898120Y-109369299D01*
X115898120Y-109369299D02*
X116279072Y-109369299D01*
X116279072Y-109369299D02*
X116374310Y-109416918D01*
X116374310Y-109416918D02*
X116421929Y-109464537D01*
X116421929Y-109464537D02*
X116469548Y-109559775D01*
X116469548Y-109559775D02*
X116469548Y-109702632D01*
X116469548Y-109702632D02*
X116421929Y-109797870D01*
X116421929Y-109797870D02*
X116374310Y-109845489D01*
X116374310Y-109845489D02*
X116279072Y-109893108D01*
X116279072Y-109893108D02*
X115898120Y-109893108D01*
X116755263Y-109369299D02*
X117326691Y-109369299D01*
X117040977Y-110369299D02*
X117040977Y-109369299D01*
X118326692Y-109369299D02*
X118945739Y-109369299D01*
X118945739Y-109369299D02*
X118612406Y-109750251D01*
X118612406Y-109750251D02*
X118755263Y-109750251D01*
X118755263Y-109750251D02*
X118850501Y-109797870D01*
X118850501Y-109797870D02*
X118898120Y-109845489D01*
X118898120Y-109845489D02*
X118945739Y-109940727D01*
X118945739Y-109940727D02*
X118945739Y-110178822D01*
X118945739Y-110178822D02*
X118898120Y-110274060D01*
X118898120Y-110274060D02*
X118850501Y-110321680D01*
X118850501Y-110321680D02*
X118755263Y-110369299D01*
X118755263Y-110369299D02*
X118469549Y-110369299D01*
X118469549Y-110369299D02*
X118374311Y-110321680D01*
X118374311Y-110321680D02*
X118326692Y-110274060D01*
X119374311Y-110274060D02*
X119421930Y-110321680D01*
X119421930Y-110321680D02*
X119374311Y-110369299D01*
X119374311Y-110369299D02*
X119326692Y-110321680D01*
X119326692Y-110321680D02*
X119374311Y-110274060D01*
X119374311Y-110274060D02*
X119374311Y-110369299D01*
X119755263Y-109369299D02*
X120374310Y-109369299D01*
X120374310Y-109369299D02*
X120040977Y-109750251D01*
X120040977Y-109750251D02*
X120183834Y-109750251D01*
X120183834Y-109750251D02*
X120279072Y-109797870D01*
X120279072Y-109797870D02*
X120326691Y-109845489D01*
X120326691Y-109845489D02*
X120374310Y-109940727D01*
X120374310Y-109940727D02*
X120374310Y-110178822D01*
X120374310Y-110178822D02*
X120326691Y-110274060D01*
X120326691Y-110274060D02*
X120279072Y-110321680D01*
X120279072Y-110321680D02*
X120183834Y-110369299D01*
X120183834Y-110369299D02*
X119898120Y-110369299D01*
X119898120Y-110369299D02*
X119802882Y-110321680D01*
X119802882Y-110321680D02*
X119755263Y-110274060D01*
X120660025Y-109369299D02*
X120993358Y-110369299D01*
X120993358Y-110369299D02*
X121326691Y-109369299D01*
X119267167Y-111666918D02*
X119171929Y-111619299D01*
X119171929Y-111619299D02*
X119029072Y-111619299D01*
X119029072Y-111619299D02*
X118886215Y-111666918D01*
X118886215Y-111666918D02*
X118790977Y-111762156D01*
X118790977Y-111762156D02*
X118743358Y-111857394D01*
X118743358Y-111857394D02*
X118695739Y-112047870D01*
X118695739Y-112047870D02*
X118695739Y-112190727D01*
X118695739Y-112190727D02*
X118743358Y-112381203D01*
X118743358Y-112381203D02*
X118790977Y-112476441D01*
X118790977Y-112476441D02*
X118886215Y-112571680D01*
X118886215Y-112571680D02*
X119029072Y-112619299D01*
X119029072Y-112619299D02*
X119124310Y-112619299D01*
X119124310Y-112619299D02*
X119267167Y-112571680D01*
X119267167Y-112571680D02*
X119314786Y-112524060D01*
X119314786Y-112524060D02*
X119314786Y-112190727D01*
X119314786Y-112190727D02*
X119124310Y-112190727D01*
X119743358Y-112619299D02*
X119743358Y-111619299D01*
X119743358Y-111619299D02*
X120314786Y-112619299D01*
X120314786Y-112619299D02*
X120314786Y-111619299D01*
X120790977Y-112619299D02*
X120790977Y-111619299D01*
X120790977Y-111619299D02*
X121029072Y-111619299D01*
X121029072Y-111619299D02*
X121171929Y-111666918D01*
X121171929Y-111666918D02*
X121267167Y-111762156D01*
X121267167Y-111762156D02*
X121314786Y-111857394D01*
X121314786Y-111857394D02*
X121362405Y-112047870D01*
X121362405Y-112047870D02*
X121362405Y-112190727D01*
X121362405Y-112190727D02*
X121314786Y-112381203D01*
X121314786Y-112381203D02*
X121267167Y-112476441D01*
X121267167Y-112476441D02*
X121171929Y-112571680D01*
X121171929Y-112571680D02*
X121029072Y-112619299D01*
X121029072Y-112619299D02*
X120790977Y-112619299D01*
X116519299Y-112799498D02*
X116519299Y-112228070D01*
X117519299Y-112513784D02*
X116519299Y-112513784D01*
X116519299Y-111989974D02*
X117519299Y-111323308D01*
X116519299Y-111323308D02*
X117519299Y-111989974D01*
X115019299Y-112085213D02*
X114543108Y-112418546D01*
X115019299Y-112656641D02*
X114019299Y-112656641D01*
X114019299Y-112656641D02*
X114019299Y-112275689D01*
X114019299Y-112275689D02*
X114066918Y-112180451D01*
X114066918Y-112180451D02*
X114114537Y-112132832D01*
X114114537Y-112132832D02*
X114209775Y-112085213D01*
X114209775Y-112085213D02*
X114352632Y-112085213D01*
X114352632Y-112085213D02*
X114447870Y-112132832D01*
X114447870Y-112132832D02*
X114495489Y-112180451D01*
X114495489Y-112180451D02*
X114543108Y-112275689D01*
X114543108Y-112275689D02*
X114543108Y-112656641D01*
X114019299Y-111751879D02*
X115019299Y-111085213D01*
X114019299Y-111085213D02*
X115019299Y-111751879D01*
D10*
X118411905Y-82954663D02*
X118411905Y-81954663D01*
X118411905Y-81954663D02*
X118650000Y-81954663D01*
X118650000Y-81954663D02*
X118792857Y-82002282D01*
X118792857Y-82002282D02*
X118888095Y-82097520D01*
X118888095Y-82097520D02*
X118935714Y-82192758D01*
X118935714Y-82192758D02*
X118983333Y-82383234D01*
X118983333Y-82383234D02*
X118983333Y-82526091D01*
X118983333Y-82526091D02*
X118935714Y-82716567D01*
X118935714Y-82716567D02*
X118888095Y-82811805D01*
X118888095Y-82811805D02*
X118792857Y-82907044D01*
X118792857Y-82907044D02*
X118650000Y-82954663D01*
X118650000Y-82954663D02*
X118411905Y-82954663D01*
X119316667Y-81954663D02*
X119935714Y-81954663D01*
X119935714Y-81954663D02*
X119602381Y-82335615D01*
X119602381Y-82335615D02*
X119745238Y-82335615D01*
X119745238Y-82335615D02*
X119840476Y-82383234D01*
X119840476Y-82383234D02*
X119888095Y-82430853D01*
X119888095Y-82430853D02*
X119935714Y-82526091D01*
X119935714Y-82526091D02*
X119935714Y-82764186D01*
X119935714Y-82764186D02*
X119888095Y-82859424D01*
X119888095Y-82859424D02*
X119840476Y-82907044D01*
X119840476Y-82907044D02*
X119745238Y-82954663D01*
X119745238Y-82954663D02*
X119459524Y-82954663D01*
X119459524Y-82954663D02*
X119364286Y-82907044D01*
X119364286Y-82907044D02*
X119316667Y-82859424D01*
X115911905Y-82954663D02*
X115911905Y-81954663D01*
X115911905Y-81954663D02*
X116150000Y-81954663D01*
X116150000Y-81954663D02*
X116292857Y-82002282D01*
X116292857Y-82002282D02*
X116388095Y-82097520D01*
X116388095Y-82097520D02*
X116435714Y-82192758D01*
X116435714Y-82192758D02*
X116483333Y-82383234D01*
X116483333Y-82383234D02*
X116483333Y-82526091D01*
X116483333Y-82526091D02*
X116435714Y-82716567D01*
X116435714Y-82716567D02*
X116388095Y-82811805D01*
X116388095Y-82811805D02*
X116292857Y-82907044D01*
X116292857Y-82907044D02*
X116150000Y-82954663D01*
X116150000Y-82954663D02*
X115911905Y-82954663D01*
X116864286Y-82049901D02*
X116911905Y-82002282D01*
X116911905Y-82002282D02*
X117007143Y-81954663D01*
X117007143Y-81954663D02*
X117245238Y-81954663D01*
X117245238Y-81954663D02*
X117340476Y-82002282D01*
X117340476Y-82002282D02*
X117388095Y-82049901D01*
X117388095Y-82049901D02*
X117435714Y-82145139D01*
X117435714Y-82145139D02*
X117435714Y-82240377D01*
X117435714Y-82240377D02*
X117388095Y-82383234D01*
X117388095Y-82383234D02*
X116816667Y-82954663D01*
X116816667Y-82954663D02*
X117435714Y-82954663D01*
X113411905Y-82954663D02*
X113411905Y-81954663D01*
X113411905Y-81954663D02*
X113650000Y-81954663D01*
X113650000Y-81954663D02*
X113792857Y-82002282D01*
X113792857Y-82002282D02*
X113888095Y-82097520D01*
X113888095Y-82097520D02*
X113935714Y-82192758D01*
X113935714Y-82192758D02*
X113983333Y-82383234D01*
X113983333Y-82383234D02*
X113983333Y-82526091D01*
X113983333Y-82526091D02*
X113935714Y-82716567D01*
X113935714Y-82716567D02*
X113888095Y-82811805D01*
X113888095Y-82811805D02*
X113792857Y-82907044D01*
X113792857Y-82907044D02*
X113650000Y-82954663D01*
X113650000Y-82954663D02*
X113411905Y-82954663D01*
X114935714Y-82954663D02*
X114364286Y-82954663D01*
X114650000Y-82954663D02*
X114650000Y-81954663D01*
X114650000Y-81954663D02*
X114554762Y-82097520D01*
X114554762Y-82097520D02*
X114459524Y-82192758D01*
X114459524Y-82192758D02*
X114364286Y-82240377D01*
X86161905Y-82454663D02*
X86161905Y-81454663D01*
X86161905Y-81454663D02*
X86400000Y-81454663D01*
X86400000Y-81454663D02*
X86542857Y-81502282D01*
X86542857Y-81502282D02*
X86638095Y-81597520D01*
X86638095Y-81597520D02*
X86685714Y-81692758D01*
X86685714Y-81692758D02*
X86733333Y-81883234D01*
X86733333Y-81883234D02*
X86733333Y-82026091D01*
X86733333Y-82026091D02*
X86685714Y-82216567D01*
X86685714Y-82216567D02*
X86638095Y-82311805D01*
X86638095Y-82311805D02*
X86542857Y-82407044D01*
X86542857Y-82407044D02*
X86400000Y-82454663D01*
X86400000Y-82454663D02*
X86161905Y-82454663D01*
X87590476Y-81787996D02*
X87590476Y-82454663D01*
X87352381Y-81407044D02*
X87114286Y-82121329D01*
X87114286Y-82121329D02*
X87733333Y-82121329D01*
X94566667Y-88907044D02*
X94709524Y-88954663D01*
X94709524Y-88954663D02*
X94947619Y-88954663D01*
X94947619Y-88954663D02*
X95042857Y-88907044D01*
X95042857Y-88907044D02*
X95090476Y-88859424D01*
X95090476Y-88859424D02*
X95138095Y-88764186D01*
X95138095Y-88764186D02*
X95138095Y-88668948D01*
X95138095Y-88668948D02*
X95090476Y-88573710D01*
X95090476Y-88573710D02*
X95042857Y-88526091D01*
X95042857Y-88526091D02*
X94947619Y-88478472D01*
X94947619Y-88478472D02*
X94757143Y-88430853D01*
X94757143Y-88430853D02*
X94661905Y-88383234D01*
X94661905Y-88383234D02*
X94614286Y-88335615D01*
X94614286Y-88335615D02*
X94566667Y-88240377D01*
X94566667Y-88240377D02*
X94566667Y-88145139D01*
X94566667Y-88145139D02*
X94614286Y-88049901D01*
X94614286Y-88049901D02*
X94661905Y-88002282D01*
X94661905Y-88002282D02*
X94757143Y-87954663D01*
X94757143Y-87954663D02*
X94995238Y-87954663D01*
X94995238Y-87954663D02*
X95138095Y-88002282D01*
X95471429Y-87954663D02*
X95709524Y-88954663D01*
X95709524Y-88954663D02*
X95900000Y-88240377D01*
X95900000Y-88240377D02*
X96090476Y-88954663D01*
X96090476Y-88954663D02*
X96328572Y-87954663D01*
X97185714Y-87954663D02*
X96709524Y-87954663D01*
X96709524Y-87954663D02*
X96661905Y-88430853D01*
X96661905Y-88430853D02*
X96709524Y-88383234D01*
X96709524Y-88383234D02*
X96804762Y-88335615D01*
X96804762Y-88335615D02*
X97042857Y-88335615D01*
X97042857Y-88335615D02*
X97138095Y-88383234D01*
X97138095Y-88383234D02*
X97185714Y-88430853D01*
X97185714Y-88430853D02*
X97233333Y-88526091D01*
X97233333Y-88526091D02*
X97233333Y-88764186D01*
X97233333Y-88764186D02*
X97185714Y-88859424D01*
X97185714Y-88859424D02*
X97138095Y-88907044D01*
X97138095Y-88907044D02*
X97042857Y-88954663D01*
X97042857Y-88954663D02*
X96804762Y-88954663D01*
X96804762Y-88954663D02*
X96709524Y-88907044D01*
X96709524Y-88907044D02*
X96661905Y-88859424D01*
X83830463Y-103268333D02*
X84544748Y-103268333D01*
X84544748Y-103268333D02*
X84687605Y-103315952D01*
X84687605Y-103315952D02*
X84782844Y-103411190D01*
X84782844Y-103411190D02*
X84830463Y-103554047D01*
X84830463Y-103554047D02*
X84830463Y-103649285D01*
X83830463Y-102315952D02*
X83830463Y-102792142D01*
X83830463Y-102792142D02*
X84306653Y-102839761D01*
X84306653Y-102839761D02*
X84259034Y-102792142D01*
X84259034Y-102792142D02*
X84211415Y-102696904D01*
X84211415Y-102696904D02*
X84211415Y-102458809D01*
X84211415Y-102458809D02*
X84259034Y-102363571D01*
X84259034Y-102363571D02*
X84306653Y-102315952D01*
X84306653Y-102315952D02*
X84401891Y-102268333D01*
X84401891Y-102268333D02*
X84639986Y-102268333D01*
X84639986Y-102268333D02*
X84735224Y-102315952D01*
X84735224Y-102315952D02*
X84782844Y-102363571D01*
X84782844Y-102363571D02*
X84830463Y-102458809D01*
X84830463Y-102458809D02*
X84830463Y-102696904D01*
X84830463Y-102696904D02*
X84782844Y-102792142D01*
X84782844Y-102792142D02*
X84735224Y-102839761D01*
X118638095Y-85454663D02*
X118638095Y-86264186D01*
X118638095Y-86264186D02*
X118685714Y-86359424D01*
X118685714Y-86359424D02*
X118733333Y-86407044D01*
X118733333Y-86407044D02*
X118828571Y-86454663D01*
X118828571Y-86454663D02*
X119019047Y-86454663D01*
X119019047Y-86454663D02*
X119114285Y-86407044D01*
X119114285Y-86407044D02*
X119161904Y-86359424D01*
X119161904Y-86359424D02*
X119209523Y-86264186D01*
X119209523Y-86264186D02*
X119209523Y-85454663D01*
X120209523Y-86454663D02*
X119638095Y-86454663D01*
X119923809Y-86454663D02*
X119923809Y-85454663D01*
X119923809Y-85454663D02*
X119828571Y-85597520D01*
X119828571Y-85597520D02*
X119733333Y-85692758D01*
X119733333Y-85692758D02*
X119638095Y-85740377D01*
X147754663Y-80083333D02*
X148468948Y-80083333D01*
X148468948Y-80083333D02*
X148611805Y-80130952D01*
X148611805Y-80130952D02*
X148707044Y-80226190D01*
X148707044Y-80226190D02*
X148754663Y-80369047D01*
X148754663Y-80369047D02*
X148754663Y-80464285D01*
X147754663Y-79702380D02*
X147754663Y-79035714D01*
X147754663Y-79035714D02*
X148754663Y-79464285D01*
X147754663Y-100483333D02*
X148468948Y-100483333D01*
X148468948Y-100483333D02*
X148611805Y-100530952D01*
X148611805Y-100530952D02*
X148707044Y-100626190D01*
X148707044Y-100626190D02*
X148754663Y-100769047D01*
X148754663Y-100769047D02*
X148754663Y-100864285D01*
X147754663Y-99578571D02*
X147754663Y-99769047D01*
X147754663Y-99769047D02*
X147802282Y-99864285D01*
X147802282Y-99864285D02*
X147849901Y-99911904D01*
X147849901Y-99911904D02*
X147992758Y-100007142D01*
X147992758Y-100007142D02*
X148183234Y-100054761D01*
X148183234Y-100054761D02*
X148564186Y-100054761D01*
X148564186Y-100054761D02*
X148659424Y-100007142D01*
X148659424Y-100007142D02*
X148707044Y-99959523D01*
X148707044Y-99959523D02*
X148754663Y-99864285D01*
X148754663Y-99864285D02*
X148754663Y-99673809D01*
X148754663Y-99673809D02*
X148707044Y-99578571D01*
X148707044Y-99578571D02*
X148659424Y-99530952D01*
X148659424Y-99530952D02*
X148564186Y-99483333D01*
X148564186Y-99483333D02*
X148326091Y-99483333D01*
X148326091Y-99483333D02*
X148230853Y-99530952D01*
X148230853Y-99530952D02*
X148183234Y-99578571D01*
X148183234Y-99578571D02*
X148135615Y-99673809D01*
X148135615Y-99673809D02*
X148135615Y-99864285D01*
X148135615Y-99864285D02*
X148183234Y-99959523D01*
X148183234Y-99959523D02*
X148230853Y-100007142D01*
X148230853Y-100007142D02*
X148326091Y-100054761D01*
X134466666Y-70054663D02*
X134466666Y-70768948D01*
X134466666Y-70768948D02*
X134419047Y-70911805D01*
X134419047Y-70911805D02*
X134323809Y-71007044D01*
X134323809Y-71007044D02*
X134180952Y-71054663D01*
X134180952Y-71054663D02*
X134085714Y-71054663D01*
X134895238Y-70149901D02*
X134942857Y-70102282D01*
X134942857Y-70102282D02*
X135038095Y-70054663D01*
X135038095Y-70054663D02*
X135276190Y-70054663D01*
X135276190Y-70054663D02*
X135371428Y-70102282D01*
X135371428Y-70102282D02*
X135419047Y-70149901D01*
X135419047Y-70149901D02*
X135466666Y-70245139D01*
X135466666Y-70245139D02*
X135466666Y-70340377D01*
X135466666Y-70340377D02*
X135419047Y-70483234D01*
X135419047Y-70483234D02*
X134847619Y-71054663D01*
X134847619Y-71054663D02*
X135466666Y-71054663D01*
X104566667Y-76157044D02*
X104709524Y-76204663D01*
X104709524Y-76204663D02*
X104947619Y-76204663D01*
X104947619Y-76204663D02*
X105042857Y-76157044D01*
X105042857Y-76157044D02*
X105090476Y-76109424D01*
X105090476Y-76109424D02*
X105138095Y-76014186D01*
X105138095Y-76014186D02*
X105138095Y-75918948D01*
X105138095Y-75918948D02*
X105090476Y-75823710D01*
X105090476Y-75823710D02*
X105042857Y-75776091D01*
X105042857Y-75776091D02*
X104947619Y-75728472D01*
X104947619Y-75728472D02*
X104757143Y-75680853D01*
X104757143Y-75680853D02*
X104661905Y-75633234D01*
X104661905Y-75633234D02*
X104614286Y-75585615D01*
X104614286Y-75585615D02*
X104566667Y-75490377D01*
X104566667Y-75490377D02*
X104566667Y-75395139D01*
X104566667Y-75395139D02*
X104614286Y-75299901D01*
X104614286Y-75299901D02*
X104661905Y-75252282D01*
X104661905Y-75252282D02*
X104757143Y-75204663D01*
X104757143Y-75204663D02*
X104995238Y-75204663D01*
X104995238Y-75204663D02*
X105138095Y-75252282D01*
X105471429Y-75204663D02*
X105709524Y-76204663D01*
X105709524Y-76204663D02*
X105900000Y-75490377D01*
X105900000Y-75490377D02*
X106090476Y-76204663D01*
X106090476Y-76204663D02*
X106328572Y-75204663D01*
X107138095Y-75537996D02*
X107138095Y-76204663D01*
X106900000Y-75157044D02*
X106661905Y-75871329D01*
X106661905Y-75871329D02*
X107280952Y-75871329D01*
X116066666Y-62604664D02*
X116066666Y-63318949D01*
X116066666Y-63318949D02*
X116019047Y-63461806D01*
X116019047Y-63461806D02*
X115923809Y-63557045D01*
X115923809Y-63557045D02*
X115780952Y-63604664D01*
X115780952Y-63604664D02*
X115685714Y-63604664D01*
X116971428Y-62937997D02*
X116971428Y-63604664D01*
X116733333Y-62557045D02*
X116495238Y-63271330D01*
X116495238Y-63271330D02*
X117114285Y-63271330D01*
X141504663Y-102511904D02*
X142314186Y-102511904D01*
X142314186Y-102511904D02*
X142409424Y-102464285D01*
X142409424Y-102464285D02*
X142457044Y-102416666D01*
X142457044Y-102416666D02*
X142504663Y-102321428D01*
X142504663Y-102321428D02*
X142504663Y-102130952D01*
X142504663Y-102130952D02*
X142457044Y-102035714D01*
X142457044Y-102035714D02*
X142409424Y-101988095D01*
X142409424Y-101988095D02*
X142314186Y-101940476D01*
X142314186Y-101940476D02*
X141504663Y-101940476D01*
X141504663Y-100988095D02*
X141504663Y-101464285D01*
X141504663Y-101464285D02*
X141980853Y-101511904D01*
X141980853Y-101511904D02*
X141933234Y-101464285D01*
X141933234Y-101464285D02*
X141885615Y-101369047D01*
X141885615Y-101369047D02*
X141885615Y-101130952D01*
X141885615Y-101130952D02*
X141933234Y-101035714D01*
X141933234Y-101035714D02*
X141980853Y-100988095D01*
X141980853Y-100988095D02*
X142076091Y-100940476D01*
X142076091Y-100940476D02*
X142314186Y-100940476D01*
X142314186Y-100940476D02*
X142409424Y-100988095D01*
X142409424Y-100988095D02*
X142457044Y-101035714D01*
X142457044Y-101035714D02*
X142504663Y-101130952D01*
X142504663Y-101130952D02*
X142504663Y-101369047D01*
X142504663Y-101369047D02*
X142457044Y-101464285D01*
X142457044Y-101464285D02*
X142409424Y-101511904D01*
X111252044Y-88300832D02*
X111299663Y-88157975D01*
X111299663Y-88157975D02*
X111299663Y-87919880D01*
X111299663Y-87919880D02*
X111252044Y-87824642D01*
X111252044Y-87824642D02*
X111204424Y-87777023D01*
X111204424Y-87777023D02*
X111109186Y-87729404D01*
X111109186Y-87729404D02*
X111013948Y-87729404D01*
X111013948Y-87729404D02*
X110918710Y-87777023D01*
X110918710Y-87777023D02*
X110871091Y-87824642D01*
X110871091Y-87824642D02*
X110823472Y-87919880D01*
X110823472Y-87919880D02*
X110775853Y-88110356D01*
X110775853Y-88110356D02*
X110728234Y-88205594D01*
X110728234Y-88205594D02*
X110680615Y-88253213D01*
X110680615Y-88253213D02*
X110585377Y-88300832D01*
X110585377Y-88300832D02*
X110490139Y-88300832D01*
X110490139Y-88300832D02*
X110394901Y-88253213D01*
X110394901Y-88253213D02*
X110347282Y-88205594D01*
X110347282Y-88205594D02*
X110299663Y-88110356D01*
X110299663Y-88110356D02*
X110299663Y-87872261D01*
X110299663Y-87872261D02*
X110347282Y-87729404D01*
X110299663Y-87396070D02*
X111299663Y-87157975D01*
X111299663Y-87157975D02*
X110585377Y-86967499D01*
X110585377Y-86967499D02*
X111299663Y-86777023D01*
X111299663Y-86777023D02*
X110299663Y-86538928D01*
X110299663Y-85729404D02*
X110299663Y-85919880D01*
X110299663Y-85919880D02*
X110347282Y-86015118D01*
X110347282Y-86015118D02*
X110394901Y-86062737D01*
X110394901Y-86062737D02*
X110537758Y-86157975D01*
X110537758Y-86157975D02*
X110728234Y-86205594D01*
X110728234Y-86205594D02*
X111109186Y-86205594D01*
X111109186Y-86205594D02*
X111204424Y-86157975D01*
X111204424Y-86157975D02*
X111252044Y-86110356D01*
X111252044Y-86110356D02*
X111299663Y-86015118D01*
X111299663Y-86015118D02*
X111299663Y-85824642D01*
X111299663Y-85824642D02*
X111252044Y-85729404D01*
X111252044Y-85729404D02*
X111204424Y-85681785D01*
X111204424Y-85681785D02*
X111109186Y-85634166D01*
X111109186Y-85634166D02*
X110871091Y-85634166D01*
X110871091Y-85634166D02*
X110775853Y-85681785D01*
X110775853Y-85681785D02*
X110728234Y-85729404D01*
X110728234Y-85729404D02*
X110680615Y-85824642D01*
X110680615Y-85824642D02*
X110680615Y-86015118D01*
X110680615Y-86015118D02*
X110728234Y-86110356D01*
X110728234Y-86110356D02*
X110775853Y-86157975D01*
X110775853Y-86157975D02*
X110871091Y-86205594D01*
X87445336Y-88346666D02*
X86731051Y-88346666D01*
X86731051Y-88346666D02*
X86588194Y-88299047D01*
X86588194Y-88299047D02*
X86492956Y-88203809D01*
X86492956Y-88203809D02*
X86445336Y-88060952D01*
X86445336Y-88060952D02*
X86445336Y-87965714D01*
X87445336Y-88727619D02*
X87445336Y-89346666D01*
X87445336Y-89346666D02*
X87064384Y-89013333D01*
X87064384Y-89013333D02*
X87064384Y-89156190D01*
X87064384Y-89156190D02*
X87016765Y-89251428D01*
X87016765Y-89251428D02*
X86969146Y-89299047D01*
X86969146Y-89299047D02*
X86873908Y-89346666D01*
X86873908Y-89346666D02*
X86635813Y-89346666D01*
X86635813Y-89346666D02*
X86540575Y-89299047D01*
X86540575Y-89299047D02*
X86492956Y-89251428D01*
X86492956Y-89251428D02*
X86445336Y-89156190D01*
X86445336Y-89156190D02*
X86445336Y-88870476D01*
X86445336Y-88870476D02*
X86492956Y-88775238D01*
X86492956Y-88775238D02*
X86540575Y-88727619D01*
X126004663Y-113461904D02*
X126814186Y-113461904D01*
X126814186Y-113461904D02*
X126909424Y-113414285D01*
X126909424Y-113414285D02*
X126957044Y-113366666D01*
X126957044Y-113366666D02*
X127004663Y-113271428D01*
X127004663Y-113271428D02*
X127004663Y-113080952D01*
X127004663Y-113080952D02*
X126957044Y-112985714D01*
X126957044Y-112985714D02*
X126909424Y-112938095D01*
X126909424Y-112938095D02*
X126814186Y-112890476D01*
X126814186Y-112890476D02*
X126004663Y-112890476D01*
X126337996Y-111985714D02*
X127004663Y-111985714D01*
X125957044Y-112223809D02*
X126671329Y-112461904D01*
X126671329Y-112461904D02*
X126671329Y-111842857D01*
X138566667Y-71157044D02*
X138709524Y-71204663D01*
X138709524Y-71204663D02*
X138947619Y-71204663D01*
X138947619Y-71204663D02*
X139042857Y-71157044D01*
X139042857Y-71157044D02*
X139090476Y-71109424D01*
X139090476Y-71109424D02*
X139138095Y-71014186D01*
X139138095Y-71014186D02*
X139138095Y-70918948D01*
X139138095Y-70918948D02*
X139090476Y-70823710D01*
X139090476Y-70823710D02*
X139042857Y-70776091D01*
X139042857Y-70776091D02*
X138947619Y-70728472D01*
X138947619Y-70728472D02*
X138757143Y-70680853D01*
X138757143Y-70680853D02*
X138661905Y-70633234D01*
X138661905Y-70633234D02*
X138614286Y-70585615D01*
X138614286Y-70585615D02*
X138566667Y-70490377D01*
X138566667Y-70490377D02*
X138566667Y-70395139D01*
X138566667Y-70395139D02*
X138614286Y-70299901D01*
X138614286Y-70299901D02*
X138661905Y-70252282D01*
X138661905Y-70252282D02*
X138757143Y-70204663D01*
X138757143Y-70204663D02*
X138995238Y-70204663D01*
X138995238Y-70204663D02*
X139138095Y-70252282D01*
X139471429Y-70204663D02*
X139709524Y-71204663D01*
X139709524Y-71204663D02*
X139900000Y-70490377D01*
X139900000Y-70490377D02*
X140090476Y-71204663D01*
X140090476Y-71204663D02*
X140328572Y-70204663D01*
X140661905Y-70299901D02*
X140709524Y-70252282D01*
X140709524Y-70252282D02*
X140804762Y-70204663D01*
X140804762Y-70204663D02*
X141042857Y-70204663D01*
X141042857Y-70204663D02*
X141138095Y-70252282D01*
X141138095Y-70252282D02*
X141185714Y-70299901D01*
X141185714Y-70299901D02*
X141233333Y-70395139D01*
X141233333Y-70395139D02*
X141233333Y-70490377D01*
X141233333Y-70490377D02*
X141185714Y-70633234D01*
X141185714Y-70633234D02*
X140614286Y-71204663D01*
X140614286Y-71204663D02*
X141233333Y-71204663D01*
X124816667Y-71157044D02*
X124959524Y-71204663D01*
X124959524Y-71204663D02*
X125197619Y-71204663D01*
X125197619Y-71204663D02*
X125292857Y-71157044D01*
X125292857Y-71157044D02*
X125340476Y-71109424D01*
X125340476Y-71109424D02*
X125388095Y-71014186D01*
X125388095Y-71014186D02*
X125388095Y-70918948D01*
X125388095Y-70918948D02*
X125340476Y-70823710D01*
X125340476Y-70823710D02*
X125292857Y-70776091D01*
X125292857Y-70776091D02*
X125197619Y-70728472D01*
X125197619Y-70728472D02*
X125007143Y-70680853D01*
X125007143Y-70680853D02*
X124911905Y-70633234D01*
X124911905Y-70633234D02*
X124864286Y-70585615D01*
X124864286Y-70585615D02*
X124816667Y-70490377D01*
X124816667Y-70490377D02*
X124816667Y-70395139D01*
X124816667Y-70395139D02*
X124864286Y-70299901D01*
X124864286Y-70299901D02*
X124911905Y-70252282D01*
X124911905Y-70252282D02*
X125007143Y-70204663D01*
X125007143Y-70204663D02*
X125245238Y-70204663D01*
X125245238Y-70204663D02*
X125388095Y-70252282D01*
X125721429Y-70204663D02*
X125959524Y-71204663D01*
X125959524Y-71204663D02*
X126150000Y-70490377D01*
X126150000Y-70490377D02*
X126340476Y-71204663D01*
X126340476Y-71204663D02*
X126578572Y-70204663D01*
X127483333Y-71204663D02*
X126911905Y-71204663D01*
X127197619Y-71204663D02*
X127197619Y-70204663D01*
X127197619Y-70204663D02*
X127102381Y-70347520D01*
X127102381Y-70347520D02*
X127007143Y-70442758D01*
X127007143Y-70442758D02*
X126911905Y-70490377D01*
X106854663Y-97567857D02*
X106378472Y-97901190D01*
X106854663Y-98139285D02*
X105854663Y-98139285D01*
X105854663Y-98139285D02*
X105854663Y-97758333D01*
X105854663Y-97758333D02*
X105902282Y-97663095D01*
X105902282Y-97663095D02*
X105949901Y-97615476D01*
X105949901Y-97615476D02*
X106045139Y-97567857D01*
X106045139Y-97567857D02*
X106187996Y-97567857D01*
X106187996Y-97567857D02*
X106283234Y-97615476D01*
X106283234Y-97615476D02*
X106330853Y-97663095D01*
X106330853Y-97663095D02*
X106378472Y-97758333D01*
X106378472Y-97758333D02*
X106378472Y-98139285D01*
X105854663Y-97234523D02*
X105854663Y-96615476D01*
X105854663Y-96615476D02*
X106235615Y-96948809D01*
X106235615Y-96948809D02*
X106235615Y-96805952D01*
X106235615Y-96805952D02*
X106283234Y-96710714D01*
X106283234Y-96710714D02*
X106330853Y-96663095D01*
X106330853Y-96663095D02*
X106426091Y-96615476D01*
X106426091Y-96615476D02*
X106664186Y-96615476D01*
X106664186Y-96615476D02*
X106759424Y-96663095D01*
X106759424Y-96663095D02*
X106807044Y-96710714D01*
X106807044Y-96710714D02*
X106854663Y-96805952D01*
X106854663Y-96805952D02*
X106854663Y-97091666D01*
X106854663Y-97091666D02*
X106807044Y-97186904D01*
X106807044Y-97186904D02*
X106759424Y-97234523D01*
X105854663Y-95996428D02*
X105854663Y-95901190D01*
X105854663Y-95901190D02*
X105902282Y-95805952D01*
X105902282Y-95805952D02*
X105949901Y-95758333D01*
X105949901Y-95758333D02*
X106045139Y-95710714D01*
X106045139Y-95710714D02*
X106235615Y-95663095D01*
X106235615Y-95663095D02*
X106473710Y-95663095D01*
X106473710Y-95663095D02*
X106664186Y-95710714D01*
X106664186Y-95710714D02*
X106759424Y-95758333D01*
X106759424Y-95758333D02*
X106807044Y-95805952D01*
X106807044Y-95805952D02*
X106854663Y-95901190D01*
X106854663Y-95901190D02*
X106854663Y-95996428D01*
X106854663Y-95996428D02*
X106807044Y-96091666D01*
X106807044Y-96091666D02*
X106759424Y-96139285D01*
X106759424Y-96139285D02*
X106664186Y-96186904D01*
X106664186Y-96186904D02*
X106473710Y-96234523D01*
X106473710Y-96234523D02*
X106235615Y-96234523D01*
X106235615Y-96234523D02*
X106045139Y-96186904D01*
X106045139Y-96186904D02*
X105949901Y-96139285D01*
X105949901Y-96139285D02*
X105902282Y-96091666D01*
X105902282Y-96091666D02*
X105854663Y-95996428D01*
X110354663Y-97567857D02*
X109878472Y-97901190D01*
X110354663Y-98139285D02*
X109354663Y-98139285D01*
X109354663Y-98139285D02*
X109354663Y-97758333D01*
X109354663Y-97758333D02*
X109402282Y-97663095D01*
X109402282Y-97663095D02*
X109449901Y-97615476D01*
X109449901Y-97615476D02*
X109545139Y-97567857D01*
X109545139Y-97567857D02*
X109687996Y-97567857D01*
X109687996Y-97567857D02*
X109783234Y-97615476D01*
X109783234Y-97615476D02*
X109830853Y-97663095D01*
X109830853Y-97663095D02*
X109878472Y-97758333D01*
X109878472Y-97758333D02*
X109878472Y-98139285D01*
X109449901Y-97186904D02*
X109402282Y-97139285D01*
X109402282Y-97139285D02*
X109354663Y-97044047D01*
X109354663Y-97044047D02*
X109354663Y-96805952D01*
X109354663Y-96805952D02*
X109402282Y-96710714D01*
X109402282Y-96710714D02*
X109449901Y-96663095D01*
X109449901Y-96663095D02*
X109545139Y-96615476D01*
X109545139Y-96615476D02*
X109640377Y-96615476D01*
X109640377Y-96615476D02*
X109783234Y-96663095D01*
X109783234Y-96663095D02*
X110354663Y-97234523D01*
X110354663Y-97234523D02*
X110354663Y-96615476D01*
X110354663Y-96139285D02*
X110354663Y-95948809D01*
X110354663Y-95948809D02*
X110307044Y-95853571D01*
X110307044Y-95853571D02*
X110259424Y-95805952D01*
X110259424Y-95805952D02*
X110116567Y-95710714D01*
X110116567Y-95710714D02*
X109926091Y-95663095D01*
X109926091Y-95663095D02*
X109545139Y-95663095D01*
X109545139Y-95663095D02*
X109449901Y-95710714D01*
X109449901Y-95710714D02*
X109402282Y-95758333D01*
X109402282Y-95758333D02*
X109354663Y-95853571D01*
X109354663Y-95853571D02*
X109354663Y-96044047D01*
X109354663Y-96044047D02*
X109402282Y-96139285D01*
X109402282Y-96139285D02*
X109449901Y-96186904D01*
X109449901Y-96186904D02*
X109545139Y-96234523D01*
X109545139Y-96234523D02*
X109783234Y-96234523D01*
X109783234Y-96234523D02*
X109878472Y-96186904D01*
X109878472Y-96186904D02*
X109926091Y-96139285D01*
X109926091Y-96139285D02*
X109973710Y-96044047D01*
X109973710Y-96044047D02*
X109973710Y-95853571D01*
X109973710Y-95853571D02*
X109926091Y-95758333D01*
X109926091Y-95758333D02*
X109878472Y-95710714D01*
X109878472Y-95710714D02*
X109783234Y-95663095D01*
X91532142Y-82524663D02*
X91198809Y-82048472D01*
X90960714Y-82524663D02*
X90960714Y-81524663D01*
X90960714Y-81524663D02*
X91341666Y-81524663D01*
X91341666Y-81524663D02*
X91436904Y-81572282D01*
X91436904Y-81572282D02*
X91484523Y-81619901D01*
X91484523Y-81619901D02*
X91532142Y-81715139D01*
X91532142Y-81715139D02*
X91532142Y-81857996D01*
X91532142Y-81857996D02*
X91484523Y-81953234D01*
X91484523Y-81953234D02*
X91436904Y-82000853D01*
X91436904Y-82000853D02*
X91341666Y-82048472D01*
X91341666Y-82048472D02*
X90960714Y-82048472D01*
X91913095Y-81619901D02*
X91960714Y-81572282D01*
X91960714Y-81572282D02*
X92055952Y-81524663D01*
X92055952Y-81524663D02*
X92294047Y-81524663D01*
X92294047Y-81524663D02*
X92389285Y-81572282D01*
X92389285Y-81572282D02*
X92436904Y-81619901D01*
X92436904Y-81619901D02*
X92484523Y-81715139D01*
X92484523Y-81715139D02*
X92484523Y-81810377D01*
X92484523Y-81810377D02*
X92436904Y-81953234D01*
X92436904Y-81953234D02*
X91865476Y-82524663D01*
X91865476Y-82524663D02*
X92484523Y-82524663D01*
X93341666Y-81857996D02*
X93341666Y-82524663D01*
X93103571Y-81477044D02*
X92865476Y-82191329D01*
X92865476Y-82191329D02*
X93484523Y-82191329D01*
X91104663Y-91642857D02*
X90628472Y-91976190D01*
X91104663Y-92214285D02*
X90104663Y-92214285D01*
X90104663Y-92214285D02*
X90104663Y-91833333D01*
X90104663Y-91833333D02*
X90152282Y-91738095D01*
X90152282Y-91738095D02*
X90199901Y-91690476D01*
X90199901Y-91690476D02*
X90295139Y-91642857D01*
X90295139Y-91642857D02*
X90437996Y-91642857D01*
X90437996Y-91642857D02*
X90533234Y-91690476D01*
X90533234Y-91690476D02*
X90580853Y-91738095D01*
X90580853Y-91738095D02*
X90628472Y-91833333D01*
X90628472Y-91833333D02*
X90628472Y-92214285D01*
X90199901Y-91261904D02*
X90152282Y-91214285D01*
X90152282Y-91214285D02*
X90104663Y-91119047D01*
X90104663Y-91119047D02*
X90104663Y-90880952D01*
X90104663Y-90880952D02*
X90152282Y-90785714D01*
X90152282Y-90785714D02*
X90199901Y-90738095D01*
X90199901Y-90738095D02*
X90295139Y-90690476D01*
X90295139Y-90690476D02*
X90390377Y-90690476D01*
X90390377Y-90690476D02*
X90533234Y-90738095D01*
X90533234Y-90738095D02*
X91104663Y-91309523D01*
X91104663Y-91309523D02*
X91104663Y-90690476D01*
X90104663Y-90357142D02*
X90104663Y-89738095D01*
X90104663Y-89738095D02*
X90485615Y-90071428D01*
X90485615Y-90071428D02*
X90485615Y-89928571D01*
X90485615Y-89928571D02*
X90533234Y-89833333D01*
X90533234Y-89833333D02*
X90580853Y-89785714D01*
X90580853Y-89785714D02*
X90676091Y-89738095D01*
X90676091Y-89738095D02*
X90914186Y-89738095D01*
X90914186Y-89738095D02*
X91009424Y-89785714D01*
X91009424Y-89785714D02*
X91057044Y-89833333D01*
X91057044Y-89833333D02*
X91104663Y-89928571D01*
X91104663Y-89928571D02*
X91104663Y-90214285D01*
X91104663Y-90214285D02*
X91057044Y-90309523D01*
X91057044Y-90309523D02*
X91009424Y-90357142D01*
X91354663Y-86817857D02*
X90878472Y-87151190D01*
X91354663Y-87389285D02*
X90354663Y-87389285D01*
X90354663Y-87389285D02*
X90354663Y-87008333D01*
X90354663Y-87008333D02*
X90402282Y-86913095D01*
X90402282Y-86913095D02*
X90449901Y-86865476D01*
X90449901Y-86865476D02*
X90545139Y-86817857D01*
X90545139Y-86817857D02*
X90687996Y-86817857D01*
X90687996Y-86817857D02*
X90783234Y-86865476D01*
X90783234Y-86865476D02*
X90830853Y-86913095D01*
X90830853Y-86913095D02*
X90878472Y-87008333D01*
X90878472Y-87008333D02*
X90878472Y-87389285D01*
X90449901Y-86436904D02*
X90402282Y-86389285D01*
X90402282Y-86389285D02*
X90354663Y-86294047D01*
X90354663Y-86294047D02*
X90354663Y-86055952D01*
X90354663Y-86055952D02*
X90402282Y-85960714D01*
X90402282Y-85960714D02*
X90449901Y-85913095D01*
X90449901Y-85913095D02*
X90545139Y-85865476D01*
X90545139Y-85865476D02*
X90640377Y-85865476D01*
X90640377Y-85865476D02*
X90783234Y-85913095D01*
X90783234Y-85913095D02*
X91354663Y-86484523D01*
X91354663Y-86484523D02*
X91354663Y-85865476D01*
X90449901Y-85484523D02*
X90402282Y-85436904D01*
X90402282Y-85436904D02*
X90354663Y-85341666D01*
X90354663Y-85341666D02*
X90354663Y-85103571D01*
X90354663Y-85103571D02*
X90402282Y-85008333D01*
X90402282Y-85008333D02*
X90449901Y-84960714D01*
X90449901Y-84960714D02*
X90545139Y-84913095D01*
X90545139Y-84913095D02*
X90640377Y-84913095D01*
X90640377Y-84913095D02*
X90783234Y-84960714D01*
X90783234Y-84960714D02*
X91354663Y-85532142D01*
X91354663Y-85532142D02*
X91354663Y-84913095D01*
X95007142Y-82524663D02*
X94673809Y-82048472D01*
X94435714Y-82524663D02*
X94435714Y-81524663D01*
X94435714Y-81524663D02*
X94816666Y-81524663D01*
X94816666Y-81524663D02*
X94911904Y-81572282D01*
X94911904Y-81572282D02*
X94959523Y-81619901D01*
X94959523Y-81619901D02*
X95007142Y-81715139D01*
X95007142Y-81715139D02*
X95007142Y-81857996D01*
X95007142Y-81857996D02*
X94959523Y-81953234D01*
X94959523Y-81953234D02*
X94911904Y-82000853D01*
X94911904Y-82000853D02*
X94816666Y-82048472D01*
X94816666Y-82048472D02*
X94435714Y-82048472D01*
X95959523Y-82524663D02*
X95388095Y-82524663D01*
X95673809Y-82524663D02*
X95673809Y-81524663D01*
X95673809Y-81524663D02*
X95578571Y-81667520D01*
X95578571Y-81667520D02*
X95483333Y-81762758D01*
X95483333Y-81762758D02*
X95388095Y-81810377D01*
X96816666Y-81524663D02*
X96626190Y-81524663D01*
X96626190Y-81524663D02*
X96530952Y-81572282D01*
X96530952Y-81572282D02*
X96483333Y-81619901D01*
X96483333Y-81619901D02*
X96388095Y-81762758D01*
X96388095Y-81762758D02*
X96340476Y-81953234D01*
X96340476Y-81953234D02*
X96340476Y-82334186D01*
X96340476Y-82334186D02*
X96388095Y-82429424D01*
X96388095Y-82429424D02*
X96435714Y-82477044D01*
X96435714Y-82477044D02*
X96530952Y-82524663D01*
X96530952Y-82524663D02*
X96721428Y-82524663D01*
X96721428Y-82524663D02*
X96816666Y-82477044D01*
X96816666Y-82477044D02*
X96864285Y-82429424D01*
X96864285Y-82429424D02*
X96911904Y-82334186D01*
X96911904Y-82334186D02*
X96911904Y-82096091D01*
X96911904Y-82096091D02*
X96864285Y-82000853D01*
X96864285Y-82000853D02*
X96816666Y-81953234D01*
X96816666Y-81953234D02*
X96721428Y-81905615D01*
X96721428Y-81905615D02*
X96530952Y-81905615D01*
X96530952Y-81905615D02*
X96435714Y-81953234D01*
X96435714Y-81953234D02*
X96388095Y-82000853D01*
X96388095Y-82000853D02*
X96340476Y-82096091D01*
X110354663Y-99416666D02*
X109878472Y-99749999D01*
X110354663Y-99988094D02*
X109354663Y-99988094D01*
X109354663Y-99988094D02*
X109354663Y-99607142D01*
X109354663Y-99607142D02*
X109402282Y-99511904D01*
X109402282Y-99511904D02*
X109449901Y-99464285D01*
X109449901Y-99464285D02*
X109545139Y-99416666D01*
X109545139Y-99416666D02*
X109687996Y-99416666D01*
X109687996Y-99416666D02*
X109783234Y-99464285D01*
X109783234Y-99464285D02*
X109830853Y-99511904D01*
X109830853Y-99511904D02*
X109878472Y-99607142D01*
X109878472Y-99607142D02*
X109878472Y-99988094D01*
X109354663Y-99083332D02*
X109354663Y-98416666D01*
X109354663Y-98416666D02*
X110354663Y-98845237D01*
X107104663Y-102916666D02*
X106628472Y-103249999D01*
X107104663Y-103488094D02*
X106104663Y-103488094D01*
X106104663Y-103488094D02*
X106104663Y-103107142D01*
X106104663Y-103107142D02*
X106152282Y-103011904D01*
X106152282Y-103011904D02*
X106199901Y-102964285D01*
X106199901Y-102964285D02*
X106295139Y-102916666D01*
X106295139Y-102916666D02*
X106437996Y-102916666D01*
X106437996Y-102916666D02*
X106533234Y-102964285D01*
X106533234Y-102964285D02*
X106580853Y-103011904D01*
X106580853Y-103011904D02*
X106628472Y-103107142D01*
X106628472Y-103107142D02*
X106628472Y-103488094D01*
X106104663Y-102583332D02*
X106104663Y-101964285D01*
X106104663Y-101964285D02*
X106485615Y-102297618D01*
X106485615Y-102297618D02*
X106485615Y-102154761D01*
X106485615Y-102154761D02*
X106533234Y-102059523D01*
X106533234Y-102059523D02*
X106580853Y-102011904D01*
X106580853Y-102011904D02*
X106676091Y-101964285D01*
X106676091Y-101964285D02*
X106914186Y-101964285D01*
X106914186Y-101964285D02*
X107009424Y-102011904D01*
X107009424Y-102011904D02*
X107057044Y-102059523D01*
X107057044Y-102059523D02*
X107104663Y-102154761D01*
X107104663Y-102154761D02*
X107104663Y-102440475D01*
X107104663Y-102440475D02*
X107057044Y-102535713D01*
X107057044Y-102535713D02*
X107009424Y-102583332D01*
X112354663Y-102916666D02*
X111878472Y-103249999D01*
X112354663Y-103488094D02*
X111354663Y-103488094D01*
X111354663Y-103488094D02*
X111354663Y-103107142D01*
X111354663Y-103107142D02*
X111402282Y-103011904D01*
X111402282Y-103011904D02*
X111449901Y-102964285D01*
X111449901Y-102964285D02*
X111545139Y-102916666D01*
X111545139Y-102916666D02*
X111687996Y-102916666D01*
X111687996Y-102916666D02*
X111783234Y-102964285D01*
X111783234Y-102964285D02*
X111830853Y-103011904D01*
X111830853Y-103011904D02*
X111878472Y-103107142D01*
X111878472Y-103107142D02*
X111878472Y-103488094D01*
X111449901Y-102535713D02*
X111402282Y-102488094D01*
X111402282Y-102488094D02*
X111354663Y-102392856D01*
X111354663Y-102392856D02*
X111354663Y-102154761D01*
X111354663Y-102154761D02*
X111402282Y-102059523D01*
X111402282Y-102059523D02*
X111449901Y-102011904D01*
X111449901Y-102011904D02*
X111545139Y-101964285D01*
X111545139Y-101964285D02*
X111640377Y-101964285D01*
X111640377Y-101964285D02*
X111783234Y-102011904D01*
X111783234Y-102011904D02*
X112354663Y-102583332D01*
X112354663Y-102583332D02*
X112354663Y-101964285D01*
X121604663Y-115083333D02*
X122318948Y-115083333D01*
X122318948Y-115083333D02*
X122461805Y-115130952D01*
X122461805Y-115130952D02*
X122557044Y-115226190D01*
X122557044Y-115226190D02*
X122604663Y-115369047D01*
X122604663Y-115369047D02*
X122604663Y-115464285D01*
X122604663Y-114083333D02*
X122604663Y-114654761D01*
X122604663Y-114369047D02*
X121604663Y-114369047D01*
X121604663Y-114369047D02*
X121747520Y-114464285D01*
X121747520Y-114464285D02*
X121842758Y-114559523D01*
X121842758Y-114559523D02*
X121890377Y-114654761D01*
X134282142Y-114179424D02*
X134234523Y-114227044D01*
X134234523Y-114227044D02*
X134091666Y-114274663D01*
X134091666Y-114274663D02*
X133996428Y-114274663D01*
X133996428Y-114274663D02*
X133853571Y-114227044D01*
X133853571Y-114227044D02*
X133758333Y-114131805D01*
X133758333Y-114131805D02*
X133710714Y-114036567D01*
X133710714Y-114036567D02*
X133663095Y-113846091D01*
X133663095Y-113846091D02*
X133663095Y-113703234D01*
X133663095Y-113703234D02*
X133710714Y-113512758D01*
X133710714Y-113512758D02*
X133758333Y-113417520D01*
X133758333Y-113417520D02*
X133853571Y-113322282D01*
X133853571Y-113322282D02*
X133996428Y-113274663D01*
X133996428Y-113274663D02*
X134091666Y-113274663D01*
X134091666Y-113274663D02*
X134234523Y-113322282D01*
X134234523Y-113322282D02*
X134282142Y-113369901D01*
X134663095Y-113369901D02*
X134710714Y-113322282D01*
X134710714Y-113322282D02*
X134805952Y-113274663D01*
X134805952Y-113274663D02*
X135044047Y-113274663D01*
X135044047Y-113274663D02*
X135139285Y-113322282D01*
X135139285Y-113322282D02*
X135186904Y-113369901D01*
X135186904Y-113369901D02*
X135234523Y-113465139D01*
X135234523Y-113465139D02*
X135234523Y-113560377D01*
X135234523Y-113560377D02*
X135186904Y-113703234D01*
X135186904Y-113703234D02*
X134615476Y-114274663D01*
X134615476Y-114274663D02*
X135234523Y-114274663D01*
X135853571Y-113274663D02*
X135948809Y-113274663D01*
X135948809Y-113274663D02*
X136044047Y-113322282D01*
X136044047Y-113322282D02*
X136091666Y-113369901D01*
X136091666Y-113369901D02*
X136139285Y-113465139D01*
X136139285Y-113465139D02*
X136186904Y-113655615D01*
X136186904Y-113655615D02*
X136186904Y-113893710D01*
X136186904Y-113893710D02*
X136139285Y-114084186D01*
X136139285Y-114084186D02*
X136091666Y-114179424D01*
X136091666Y-114179424D02*
X136044047Y-114227044D01*
X136044047Y-114227044D02*
X135948809Y-114274663D01*
X135948809Y-114274663D02*
X135853571Y-114274663D01*
X135853571Y-114274663D02*
X135758333Y-114227044D01*
X135758333Y-114227044D02*
X135710714Y-114179424D01*
X135710714Y-114179424D02*
X135663095Y-114084186D01*
X135663095Y-114084186D02*
X135615476Y-113893710D01*
X135615476Y-113893710D02*
X135615476Y-113655615D01*
X135615476Y-113655615D02*
X135663095Y-113465139D01*
X135663095Y-113465139D02*
X135710714Y-113369901D01*
X135710714Y-113369901D02*
X135758333Y-113322282D01*
X135758333Y-113322282D02*
X135853571Y-113274663D01*
X91507142Y-95609424D02*
X91459523Y-95657044D01*
X91459523Y-95657044D02*
X91316666Y-95704663D01*
X91316666Y-95704663D02*
X91221428Y-95704663D01*
X91221428Y-95704663D02*
X91078571Y-95657044D01*
X91078571Y-95657044D02*
X90983333Y-95561805D01*
X90983333Y-95561805D02*
X90935714Y-95466567D01*
X90935714Y-95466567D02*
X90888095Y-95276091D01*
X90888095Y-95276091D02*
X90888095Y-95133234D01*
X90888095Y-95133234D02*
X90935714Y-94942758D01*
X90935714Y-94942758D02*
X90983333Y-94847520D01*
X90983333Y-94847520D02*
X91078571Y-94752282D01*
X91078571Y-94752282D02*
X91221428Y-94704663D01*
X91221428Y-94704663D02*
X91316666Y-94704663D01*
X91316666Y-94704663D02*
X91459523Y-94752282D01*
X91459523Y-94752282D02*
X91507142Y-94799901D01*
X92459523Y-95704663D02*
X91888095Y-95704663D01*
X92173809Y-95704663D02*
X92173809Y-94704663D01*
X92173809Y-94704663D02*
X92078571Y-94847520D01*
X92078571Y-94847520D02*
X91983333Y-94942758D01*
X91983333Y-94942758D02*
X91888095Y-94990377D01*
X92935714Y-95704663D02*
X93126190Y-95704663D01*
X93126190Y-95704663D02*
X93221428Y-95657044D01*
X93221428Y-95657044D02*
X93269047Y-95609424D01*
X93269047Y-95609424D02*
X93364285Y-95466567D01*
X93364285Y-95466567D02*
X93411904Y-95276091D01*
X93411904Y-95276091D02*
X93411904Y-94895139D01*
X93411904Y-94895139D02*
X93364285Y-94799901D01*
X93364285Y-94799901D02*
X93316666Y-94752282D01*
X93316666Y-94752282D02*
X93221428Y-94704663D01*
X93221428Y-94704663D02*
X93030952Y-94704663D01*
X93030952Y-94704663D02*
X92935714Y-94752282D01*
X92935714Y-94752282D02*
X92888095Y-94799901D01*
X92888095Y-94799901D02*
X92840476Y-94895139D01*
X92840476Y-94895139D02*
X92840476Y-95133234D01*
X92840476Y-95133234D02*
X92888095Y-95228472D01*
X92888095Y-95228472D02*
X92935714Y-95276091D01*
X92935714Y-95276091D02*
X93030952Y-95323710D01*
X93030952Y-95323710D02*
X93221428Y-95323710D01*
X93221428Y-95323710D02*
X93316666Y-95276091D01*
X93316666Y-95276091D02*
X93364285Y-95228472D01*
X93364285Y-95228472D02*
X93411904Y-95133234D01*
X137579424Y-115167857D02*
X137627044Y-115215476D01*
X137627044Y-115215476D02*
X137674663Y-115358333D01*
X137674663Y-115358333D02*
X137674663Y-115453571D01*
X137674663Y-115453571D02*
X137627044Y-115596428D01*
X137627044Y-115596428D02*
X137531805Y-115691666D01*
X137531805Y-115691666D02*
X137436567Y-115739285D01*
X137436567Y-115739285D02*
X137246091Y-115786904D01*
X137246091Y-115786904D02*
X137103234Y-115786904D01*
X137103234Y-115786904D02*
X136912758Y-115739285D01*
X136912758Y-115739285D02*
X136817520Y-115691666D01*
X136817520Y-115691666D02*
X136722282Y-115596428D01*
X136722282Y-115596428D02*
X136674663Y-115453571D01*
X136674663Y-115453571D02*
X136674663Y-115358333D01*
X136674663Y-115358333D02*
X136722282Y-115215476D01*
X136722282Y-115215476D02*
X136769901Y-115167857D01*
X137674663Y-114215476D02*
X137674663Y-114786904D01*
X137674663Y-114501190D02*
X136674663Y-114501190D01*
X136674663Y-114501190D02*
X136817520Y-114596428D01*
X136817520Y-114596428D02*
X136912758Y-114691666D01*
X136912758Y-114691666D02*
X136960377Y-114786904D01*
X136769901Y-113834523D02*
X136722282Y-113786904D01*
X136722282Y-113786904D02*
X136674663Y-113691666D01*
X136674663Y-113691666D02*
X136674663Y-113453571D01*
X136674663Y-113453571D02*
X136722282Y-113358333D01*
X136722282Y-113358333D02*
X136769901Y-113310714D01*
X136769901Y-113310714D02*
X136865139Y-113263095D01*
X136865139Y-113263095D02*
X136960377Y-113263095D01*
X136960377Y-113263095D02*
X137103234Y-113310714D01*
X137103234Y-113310714D02*
X137674663Y-113882142D01*
X137674663Y-113882142D02*
X137674663Y-113263095D01*
X105009424Y-102916666D02*
X105057044Y-102964285D01*
X105057044Y-102964285D02*
X105104663Y-103107142D01*
X105104663Y-103107142D02*
X105104663Y-103202380D01*
X105104663Y-103202380D02*
X105057044Y-103345237D01*
X105057044Y-103345237D02*
X104961805Y-103440475D01*
X104961805Y-103440475D02*
X104866567Y-103488094D01*
X104866567Y-103488094D02*
X104676091Y-103535713D01*
X104676091Y-103535713D02*
X104533234Y-103535713D01*
X104533234Y-103535713D02*
X104342758Y-103488094D01*
X104342758Y-103488094D02*
X104247520Y-103440475D01*
X104247520Y-103440475D02*
X104152282Y-103345237D01*
X104152282Y-103345237D02*
X104104663Y-103202380D01*
X104104663Y-103202380D02*
X104104663Y-103107142D01*
X104104663Y-103107142D02*
X104152282Y-102964285D01*
X104152282Y-102964285D02*
X104199901Y-102916666D01*
X104437996Y-102059523D02*
X105104663Y-102059523D01*
X104057044Y-102297618D02*
X104771329Y-102535713D01*
X104771329Y-102535713D02*
X104771329Y-101916666D01*
X108509424Y-102916666D02*
X108557044Y-102964285D01*
X108557044Y-102964285D02*
X108604663Y-103107142D01*
X108604663Y-103107142D02*
X108604663Y-103202380D01*
X108604663Y-103202380D02*
X108557044Y-103345237D01*
X108557044Y-103345237D02*
X108461805Y-103440475D01*
X108461805Y-103440475D02*
X108366567Y-103488094D01*
X108366567Y-103488094D02*
X108176091Y-103535713D01*
X108176091Y-103535713D02*
X108033234Y-103535713D01*
X108033234Y-103535713D02*
X107842758Y-103488094D01*
X107842758Y-103488094D02*
X107747520Y-103440475D01*
X107747520Y-103440475D02*
X107652282Y-103345237D01*
X107652282Y-103345237D02*
X107604663Y-103202380D01*
X107604663Y-103202380D02*
X107604663Y-103107142D01*
X107604663Y-103107142D02*
X107652282Y-102964285D01*
X107652282Y-102964285D02*
X107699901Y-102916666D01*
X107604663Y-102583332D02*
X107604663Y-101964285D01*
X107604663Y-101964285D02*
X107985615Y-102297618D01*
X107985615Y-102297618D02*
X107985615Y-102154761D01*
X107985615Y-102154761D02*
X108033234Y-102059523D01*
X108033234Y-102059523D02*
X108080853Y-102011904D01*
X108080853Y-102011904D02*
X108176091Y-101964285D01*
X108176091Y-101964285D02*
X108414186Y-101964285D01*
X108414186Y-101964285D02*
X108509424Y-102011904D01*
X108509424Y-102011904D02*
X108557044Y-102059523D01*
X108557044Y-102059523D02*
X108604663Y-102154761D01*
X108604663Y-102154761D02*
X108604663Y-102440475D01*
X108604663Y-102440475D02*
X108557044Y-102535713D01*
X108557044Y-102535713D02*
X108509424Y-102583332D01*
D13*
X118415000Y-79450000D02*
X118415000Y-81735000D01*
X118415000Y-81735000D02*
X119885000Y-81735000D01*
X119885000Y-81735000D02*
X119885000Y-79450000D01*
X115915000Y-79450000D02*
X115915000Y-81735000D01*
X115915000Y-81735000D02*
X117385000Y-81735000D01*
X117385000Y-81735000D02*
X117385000Y-79450000D01*
X113415000Y-79450000D02*
X113415000Y-81735000D01*
X113415000Y-81735000D02*
X114885000Y-81735000D01*
X114885000Y-81735000D02*
X114885000Y-79450000D01*
X85237500Y-81265000D02*
X82952500Y-81265000D01*
X82952500Y-81265000D02*
X82952500Y-82735000D01*
X82952500Y-82735000D02*
X85237500Y-82735000D01*
D14*
X94160000Y-91400000D02*
G75*
G03*
X93960000Y-91400000I-100000J0D01*
G01*
X93960000Y-91400000D02*
G75*
G03*
X94160000Y-91400000I100000J0D01*
G01*
D15*
X102400000Y-90450000D02*
X102400000Y-86850000D01*
X102400000Y-86850000D02*
X101320000Y-86850000D01*
X101320000Y-90450000D02*
X102400000Y-90450000D01*
X94480000Y-86850000D02*
X93400000Y-86850000D01*
X93400000Y-90450000D02*
X94480000Y-90450000D01*
X93400000Y-86850000D02*
X93400000Y-90450000D01*
D13*
X97375800Y-109005000D02*
X97375800Y-106325000D01*
X97375800Y-96825000D02*
X87555800Y-96825000D01*
X87105800Y-109005000D02*
X91555800Y-109005000D01*
X96655800Y-109005000D02*
X97375800Y-109005000D01*
X97375800Y-104025000D02*
X97375800Y-100355000D01*
X92955800Y-109005000D02*
X95255800Y-109005000D01*
X97375800Y-98055000D02*
X97375800Y-96825000D01*
X85735800Y-107525000D02*
X85735800Y-106665000D01*
X119212500Y-88090000D02*
X118872500Y-87620000D01*
X119552500Y-87620000D01*
X119212500Y-88090000D01*
G36*
X119212500Y-88090000D02*
G01*
X118872500Y-87620000D01*
X119552500Y-87620000D01*
X119212500Y-88090000D01*
G37*
X119802500Y-87140000D02*
X119802500Y-88090000D01*
X120752500Y-87140000D02*
X119802500Y-87140000D01*
X140022500Y-87140000D02*
X140022500Y-88090000D01*
X139072500Y-87140000D02*
X140022500Y-87140000D01*
X119802500Y-107360000D02*
X119802500Y-106410000D01*
X120752500Y-107360000D02*
X119802500Y-107360000D01*
X140022500Y-107360000D02*
X140022500Y-106410000D01*
X139072500Y-107360000D02*
X140022500Y-107360000D01*
X156460000Y-73170000D02*
X163550000Y-73170000D01*
X151390000Y-73170000D02*
X153040000Y-73170000D01*
X151390000Y-75340000D02*
X151390000Y-73170000D01*
X151390000Y-84160000D02*
X149550000Y-84160000D01*
X151390000Y-84160000D02*
X151390000Y-86330000D01*
X156460000Y-86330000D02*
X163550000Y-86330000D01*
X151390000Y-86330000D02*
X153040000Y-86330000D01*
X156460000Y-93570000D02*
X163550000Y-93570000D01*
X151390000Y-93570000D02*
X153040000Y-93570000D01*
X151390000Y-95740000D02*
X151390000Y-93570000D01*
X151390000Y-104560000D02*
X149550000Y-104560000D01*
X151390000Y-104560000D02*
X151390000Y-106730000D01*
X156460000Y-106730000D02*
X163550000Y-106730000D01*
X151390000Y-106730000D02*
X153040000Y-106730000D01*
X129700000Y-68120000D02*
X128650000Y-68120000D01*
X140950000Y-68120000D02*
X139400000Y-68120000D01*
X142420000Y-63700000D02*
X142420000Y-66400000D01*
X127180000Y-66400000D02*
X127180000Y-63700000D01*
X129700000Y-69450000D02*
X129700000Y-68120000D01*
D16*
X109031000Y-70646700D02*
G75*
G03*
X108269000Y-70646700I-381000J0D01*
G01*
X108269000Y-70646700D02*
G75*
G03*
X109031000Y-70646700I381000J0D01*
G01*
D17*
X77585800Y-80324100D02*
X109691400Y-80324100D01*
X109691400Y-80324100D02*
X109691400Y-79195184D01*
X109691400Y-78303416D02*
X109691400Y-73302384D01*
X109691400Y-72410616D02*
X109691400Y-71281700D01*
X77585800Y-71281700D02*
X77585800Y-80324100D01*
X109691400Y-71281700D02*
X77585800Y-71281700D01*
X121175200Y-76380401D02*
X121175200Y-67587683D01*
X121175200Y-64712403D02*
X121175200Y-61623001D01*
X121175200Y-61623001D02*
X111624800Y-61623001D01*
X119028900Y-61877001D02*
X119028900Y-59133801D01*
X119028900Y-59133801D02*
X113771100Y-59133801D01*
X113771100Y-61877001D02*
X119028900Y-61877001D01*
X113771100Y-59133801D02*
X113771100Y-61877001D01*
X111624800Y-76380401D02*
X121175200Y-76380401D01*
X111624800Y-75279740D02*
X111624800Y-76380401D01*
X111624800Y-65587641D02*
X111624800Y-71820260D01*
X111624800Y-61623001D02*
X111624800Y-62712361D01*
D13*
X143200000Y-104037500D02*
X142870000Y-104277500D01*
X142870000Y-103797500D01*
X143200000Y-104037500D01*
G36*
X143200000Y-104037500D02*
G01*
X142870000Y-104277500D01*
X142870000Y-103797500D01*
X143200000Y-104037500D01*
G37*
D12*
X146325000Y-100075000D02*
X146100000Y-100075000D01*
X142975000Y-100075000D02*
X143200000Y-100075000D01*
X146325000Y-103425000D02*
X146325000Y-100075000D01*
X146100000Y-103425000D02*
X146325000Y-103425000D01*
X142975000Y-103425000D02*
X142975000Y-100075000D01*
X142975000Y-103425000D02*
X143200000Y-103425000D01*
D14*
X107770000Y-83022500D02*
G75*
G03*
X107570000Y-83022500I-100000J0D01*
G01*
X107570000Y-83022500D02*
G75*
G03*
X107770000Y-83022500I100000J0D01*
G01*
D15*
X104245000Y-92722500D02*
X103125000Y-92722500D01*
X109675000Y-92722500D02*
X108555000Y-92722500D01*
X109675000Y-92722500D02*
X109675000Y-86022500D01*
X103125000Y-86022500D02*
X103125000Y-92722500D01*
X104245000Y-86022500D02*
X103125000Y-86022500D01*
X109675000Y-86022500D02*
X108555000Y-86022500D01*
D13*
X85405800Y-93350000D02*
X87105800Y-93350000D01*
X85405800Y-84010000D02*
X87105800Y-84010000D01*
X127700000Y-114987500D02*
X127370000Y-115227500D01*
X127370000Y-114747500D01*
X127700000Y-114987500D01*
G36*
X127700000Y-114987500D02*
G01*
X127370000Y-115227500D01*
X127370000Y-114747500D01*
X127700000Y-114987500D01*
G37*
D12*
X130825000Y-111025000D02*
X130600000Y-111025000D01*
X127475000Y-111025000D02*
X127700000Y-111025000D01*
X130825000Y-114375000D02*
X130825000Y-111025000D01*
X130600000Y-114375000D02*
X130825000Y-114375000D01*
X127475000Y-114375000D02*
X127475000Y-111025000D01*
X127475000Y-114375000D02*
X127700000Y-114375000D01*
D13*
X136900000Y-74000000D02*
X136900000Y-78500000D01*
X140900000Y-72750000D02*
X139400000Y-72750000D01*
X143400000Y-78500000D02*
X143400000Y-74000000D01*
X139400000Y-79750000D02*
X140900000Y-79750000D01*
X123150000Y-74000000D02*
X123150000Y-78500000D01*
X127150000Y-72750000D02*
X125650000Y-72750000D01*
X129650000Y-78500000D02*
X129650000Y-74000000D01*
X125650000Y-79750000D02*
X127150000Y-79750000D01*
X104443618Y-97162258D02*
X104443618Y-96687742D01*
X105488618Y-97162258D02*
X105488618Y-96687742D01*
X107943618Y-97162258D02*
X107943618Y-96687742D01*
X108988618Y-97162258D02*
X108988618Y-96687742D01*
X91937742Y-82977500D02*
X92412258Y-82977500D01*
X91937742Y-84022500D02*
X92412258Y-84022500D01*
X92672500Y-90512742D02*
X92672500Y-90987258D01*
X91627500Y-90512742D02*
X91627500Y-90987258D01*
X91627500Y-86412258D02*
X91627500Y-85937742D01*
X92672500Y-86412258D02*
X92672500Y-85937742D01*
X95412742Y-82977500D02*
X95887258Y-82977500D01*
X95412742Y-84022500D02*
X95887258Y-84022500D01*
X109443618Y-101512742D02*
X109443618Y-101987258D01*
X110488618Y-101512742D02*
X110488618Y-101987258D01*
X106988618Y-100012742D02*
X106988618Y-100487258D01*
X105943618Y-100012742D02*
X105943618Y-100487258D01*
X111193618Y-100487258D02*
X111193618Y-100012742D01*
X112238618Y-100487258D02*
X112238618Y-100012742D01*
X118380000Y-113395000D02*
X118380000Y-116055000D01*
X120980000Y-113395000D02*
X120980000Y-114725000D01*
X118380000Y-116055000D02*
X113240000Y-116055000D01*
X119650000Y-113395000D02*
X120980000Y-113395000D01*
X118380000Y-113395000D02*
X113240000Y-113395000D01*
X113240000Y-113395000D02*
X113240000Y-116055000D01*
X134784420Y-114740000D02*
X135065580Y-114740000D01*
X134784420Y-115760000D02*
X135065580Y-115760000D01*
X92009420Y-94260000D02*
X92290580Y-94260000D01*
X92009420Y-93240000D02*
X92290580Y-93240000D01*
X138140000Y-114665580D02*
X138140000Y-114384420D01*
X139160000Y-114665580D02*
X139160000Y-114384420D01*
X104206118Y-100415580D02*
X104206118Y-100134420D01*
X105226118Y-100415580D02*
X105226118Y-100134420D01*
X107706118Y-100415580D02*
X107706118Y-100134420D01*
X108726118Y-100415580D02*
X108726118Y-100134420D01*
%LPC*%
D18*
X103900000Y-64460000D03*
D19*
X103900000Y-67000000D03*
X101360000Y-64460000D03*
X101360000Y-67000000D03*
X98820000Y-64460000D03*
X98820000Y-67000000D03*
X96280000Y-64460000D03*
X96280000Y-67000000D03*
X93740000Y-64460000D03*
X93740000Y-67000000D03*
X91200000Y-64460000D03*
X91200000Y-67000000D03*
X149070000Y-67040000D03*
X149070000Y-64500000D03*
X151610000Y-67040000D03*
X151610000Y-64500000D03*
X154150000Y-67040000D03*
D18*
X154150000Y-64500000D03*
D20*
X160400000Y-63250000D03*
X84900000Y-63250000D03*
D21*
X119150000Y-79462500D03*
X119150000Y-81037500D03*
X116650000Y-79462500D03*
X116650000Y-81037500D03*
X114150000Y-79462500D03*
X114150000Y-81037500D03*
D22*
X85225000Y-82000000D03*
X83650000Y-82000000D03*
D23*
X100400000Y-85900000D03*
X97900000Y-85900000D03*
X95400000Y-85900000D03*
X100400000Y-91400000D03*
X97900000Y-91400000D03*
X95400000Y-91400000D03*
D24*
X96930800Y-105175000D03*
X96930800Y-99205000D03*
D25*
X86455800Y-97180000D03*
D26*
X86230800Y-108500000D03*
D27*
X95955800Y-108675000D03*
X92255800Y-108675000D03*
D28*
X86105800Y-98390000D03*
D29*
X86105800Y-99440000D03*
X86105800Y-100540000D03*
X86105800Y-101640000D03*
X86105800Y-102740000D03*
X86105800Y-103840000D03*
X86105800Y-104940000D03*
X86105800Y-106040000D03*
D30*
X129912500Y-97250000D03*
D31*
X121162500Y-86587500D03*
X121662500Y-86587500D03*
X122162500Y-86587500D03*
X122662500Y-86587500D03*
X123162500Y-86587500D03*
X123662500Y-86587500D03*
X124162500Y-86587500D03*
X124662500Y-86587500D03*
X125162500Y-86587500D03*
X125662500Y-86587500D03*
X126162500Y-86587500D03*
X126662500Y-86587500D03*
X127162500Y-86587500D03*
X127662500Y-86587500D03*
X128162500Y-86587500D03*
X128662500Y-86587500D03*
X129162500Y-86587500D03*
X129662500Y-86587500D03*
X130162500Y-86587500D03*
X130662500Y-86587500D03*
X131162500Y-86587500D03*
X131662500Y-86587500D03*
X132162500Y-86587500D03*
X132662500Y-86587500D03*
X133162500Y-86587500D03*
X133662500Y-86587500D03*
X134162500Y-86587500D03*
X134662500Y-86587500D03*
X135162500Y-86587500D03*
X135662500Y-86587500D03*
X136162500Y-86587500D03*
X136662500Y-86587500D03*
X137162500Y-86587500D03*
X137662500Y-86587500D03*
X138162500Y-86587500D03*
X138662500Y-86587500D03*
D32*
X140575000Y-88500000D03*
X140575000Y-89000000D03*
X140575000Y-89500000D03*
X140575000Y-90000000D03*
X140575000Y-90500000D03*
X140575000Y-91000000D03*
X140575000Y-91500000D03*
X140575000Y-92000000D03*
X140575000Y-92500000D03*
X140575000Y-93000000D03*
X140575000Y-93500000D03*
X140575000Y-94000000D03*
X140575000Y-94500000D03*
X140575000Y-95000000D03*
X140575000Y-95500000D03*
X140575000Y-96000000D03*
X140575000Y-96500000D03*
X140575000Y-97000000D03*
X140575000Y-97500000D03*
X140575000Y-98000000D03*
X140575000Y-98500000D03*
X140575000Y-99000000D03*
X140575000Y-99500000D03*
X140575000Y-100000000D03*
X140575000Y-100500000D03*
X140575000Y-101000000D03*
X140575000Y-101500000D03*
X140575000Y-102000000D03*
X140575000Y-102500000D03*
X140575000Y-103000000D03*
X140575000Y-103500000D03*
X140575000Y-104000000D03*
X140575000Y-104500000D03*
X140575000Y-105000000D03*
X140575000Y-105500000D03*
X140575000Y-106000000D03*
D31*
X138662500Y-107912500D03*
X138162500Y-107912500D03*
X137662500Y-107912500D03*
X137162500Y-107912500D03*
X136662500Y-107912500D03*
X136162500Y-107912500D03*
X135662500Y-107912500D03*
X135162500Y-107912500D03*
X134662500Y-107912500D03*
X134162500Y-107912500D03*
X133662500Y-107912500D03*
X133162500Y-107912500D03*
X132662500Y-107912500D03*
X132162500Y-107912500D03*
X131662500Y-107912500D03*
X131162500Y-107912500D03*
X130662500Y-107912500D03*
X130162500Y-107912500D03*
X129662500Y-107912500D03*
X129162500Y-107912500D03*
X128662500Y-107912500D03*
X128162500Y-107912500D03*
X127662500Y-107912500D03*
X127162500Y-107912500D03*
X126662500Y-107912500D03*
X126162500Y-107912500D03*
X125662500Y-107912500D03*
X125162500Y-107912500D03*
X124662500Y-107912500D03*
X124162500Y-107912500D03*
X123662500Y-107912500D03*
X123162500Y-107912500D03*
X122662500Y-107912500D03*
X122162500Y-107912500D03*
X121662500Y-107912500D03*
X121162500Y-107912500D03*
D32*
X119250000Y-106000000D03*
X119250000Y-105500000D03*
X119250000Y-105000000D03*
X119250000Y-104500000D03*
X119250000Y-104000000D03*
X119250000Y-103500000D03*
X119250000Y-103000000D03*
X119250000Y-102500000D03*
X119250000Y-102000000D03*
X119250000Y-101500000D03*
X119250000Y-101000000D03*
X119250000Y-100500000D03*
X119250000Y-100000000D03*
X119250000Y-99500000D03*
X119250000Y-99000000D03*
X119250000Y-98500000D03*
X119250000Y-98000000D03*
X119250000Y-97500000D03*
X119250000Y-97000000D03*
X119250000Y-96500000D03*
X119250000Y-96000000D03*
X119250000Y-95500000D03*
X119250000Y-95000000D03*
X119250000Y-94500000D03*
X119250000Y-94000000D03*
X119250000Y-93500000D03*
X119250000Y-93000000D03*
X119250000Y-92500000D03*
X119250000Y-92000000D03*
X119250000Y-91500000D03*
X119250000Y-91000000D03*
X119250000Y-90500000D03*
X119250000Y-90000000D03*
X119250000Y-89500000D03*
X119250000Y-89000000D03*
X119250000Y-88500000D03*
D33*
X154750000Y-73350000D03*
X154750000Y-86150000D03*
D34*
X151050000Y-76250000D03*
X151050000Y-78750000D03*
X151050000Y-80750000D03*
X151050000Y-83250000D03*
D33*
X154750000Y-93750000D03*
X154750000Y-106550000D03*
D34*
X151050000Y-96650000D03*
X151050000Y-99150000D03*
X151050000Y-101150000D03*
X151050000Y-103650000D03*
D35*
X126950000Y-62600000D03*
X142650000Y-62600000D03*
X127550000Y-67500000D03*
X142050000Y-67500000D03*
D36*
X139050000Y-68500000D03*
X138550000Y-68500000D03*
X138050000Y-68500000D03*
X137550000Y-68500000D03*
X137050000Y-68500000D03*
X136550000Y-68500000D03*
X136050000Y-68500000D03*
X135550000Y-68500000D03*
X135050000Y-68500000D03*
X134550000Y-68500000D03*
X134050000Y-68500000D03*
X133550000Y-68500000D03*
X133050000Y-68500000D03*
X132550000Y-68500000D03*
X132050000Y-68500000D03*
X131550000Y-68500000D03*
X131050000Y-68500000D03*
X130550000Y-68500000D03*
X130050000Y-68500000D03*
D19*
X91150000Y-114725000D03*
X93690000Y-114725000D03*
X96230000Y-114725000D03*
D18*
X98770000Y-114725000D03*
D37*
X106160800Y-78749300D03*
X108650000Y-78749300D03*
X106160800Y-72856500D03*
X108650000Y-72856500D03*
D38*
X94730800Y-78000000D03*
X94730800Y-73605800D03*
D20*
X160400000Y-114750000D03*
D19*
X146530000Y-114750000D03*
X149070000Y-114750000D03*
X151610000Y-114750000D03*
D18*
X154150000Y-114750000D03*
D39*
X116400000Y-72250000D03*
X116400000Y-65250002D03*
D40*
X120100018Y-66150043D03*
D41*
X112700000Y-73550000D03*
D40*
X112700000Y-64150001D03*
D42*
X143650000Y-99550000D03*
X144150000Y-99550000D03*
X144650000Y-99550000D03*
X145150000Y-99550000D03*
X145650000Y-99550000D03*
X145650000Y-103950000D03*
X145150000Y-103950000D03*
X144650000Y-103950000D03*
X144150000Y-103950000D03*
X143650000Y-103950000D03*
D43*
X105130000Y-93672500D03*
X105130000Y-85072500D03*
X107670000Y-93672500D03*
X107670000Y-85072500D03*
D44*
X84230800Y-93000000D03*
D45*
X88410800Y-93000000D03*
D44*
X84230800Y-84360000D03*
D45*
X88410800Y-84360000D03*
D46*
X89055800Y-85480000D03*
X89055800Y-86280000D03*
D47*
X88985800Y-86930000D03*
X88985800Y-87930000D03*
X88985800Y-89430000D03*
X88985800Y-90430000D03*
D46*
X89055800Y-91080000D03*
X89055800Y-91880000D03*
X89055800Y-91880000D03*
X89055800Y-91080000D03*
D47*
X88985800Y-89930000D03*
X88985800Y-88930000D03*
X88985800Y-88430000D03*
X88985800Y-87430000D03*
D46*
X89055800Y-86280000D03*
X89055800Y-85480000D03*
D48*
X87910800Y-91570000D03*
X87910800Y-85790000D03*
D42*
X128150000Y-110500000D03*
X128650000Y-110500000D03*
X129150000Y-110500000D03*
X129650000Y-110500000D03*
X130150000Y-110500000D03*
X130150000Y-114900000D03*
X129650000Y-114900000D03*
X129150000Y-114900000D03*
X128650000Y-114900000D03*
X128150000Y-114900000D03*
D49*
X137900000Y-73000000D03*
X137900000Y-79500000D03*
X142400000Y-73000000D03*
X142400000Y-79500000D03*
X124150000Y-73000000D03*
X124150000Y-79500000D03*
X128650000Y-73000000D03*
X128650000Y-79500000D03*
D50*
X104966118Y-96100000D03*
X104966118Y-97750000D03*
X108466118Y-96100000D03*
X108466118Y-97750000D03*
D51*
X93000000Y-83500000D03*
X91350000Y-83500000D03*
D52*
X92150000Y-91575000D03*
X92150000Y-89925000D03*
D50*
X92150000Y-85350000D03*
X92150000Y-87000000D03*
D51*
X96475000Y-83500000D03*
X94825000Y-83500000D03*
D52*
X109966118Y-100925000D03*
X109966118Y-102575000D03*
X106466118Y-101075000D03*
X106466118Y-99425000D03*
D50*
X111716118Y-99425000D03*
X111716118Y-101075000D03*
D19*
X114570000Y-114725000D03*
X117110000Y-114725000D03*
D18*
X119650000Y-114725000D03*
D53*
X135700000Y-115250000D03*
X134150000Y-115250000D03*
X91375000Y-93750000D03*
X92925000Y-93750000D03*
D54*
X138650000Y-113750000D03*
X138650000Y-115300000D03*
X104716118Y-99500000D03*
X104716118Y-101050000D03*
X108216118Y-99500000D03*
X108216118Y-101050000D03*
D20*
X84900000Y-114725000D03*
%LPD*%
M02*
